<svg id="Layer_1" enable-background="new 0 0 66 66" viewBox="0 0 66 66" xmlns="http://www.w3.org/2000/svg" width="300" height="300" version="1.1" xmlns:xlink="http://www.w3.org/1999/xlink" xmlns:svgjs="http://svgjs.dev/svgjs"><g width="100%" height="100%" transform="matrix(1,0,0,1,0,0)"><g><g><g><g><g><g><path d="m30.94 49.88c-1.81.92-2.95 3.01-2.76 5.02.05.54.19 1.06.4 1.56.58 1.4 1.68 2.5 2.68 3.63s1.96 2.4 2.18 3.9c.19-1.59.78-3.02 1.71-4.33.58-.81 1.29-1.53 1.8-2.4.69-1.18.95-2.6.74-3.94-.22-1.34-.92-2.6-1.94-3.49z" fill="#296ff9" fill-opacity="1" data-original-color="#8d77e6ff" stroke="none" stroke-opacity="1"/></g><g><path d="m31.83 49.86c-1.01.51-1.64 1.67-1.53 2.8.03.3.11.59.22.87.32.78.93 1.39 1.49 2.02s1.09 1.34 1.21 2.17c.1-.88.43-1.68.95-2.41.32-.45.72-.85 1-1.33.38-.66.53-1.45.41-2.19s-.51-1.45-1.08-1.94z" fill="#ffffff" fill-opacity="1" data-original-color="#ffffffff" stroke="none" stroke-opacity="1"/></g><g><path d="m33.23 58.19c-.24 0-.44-.18-.48-.41-.1-.71-.59-1.34-1.1-1.92l-.22-.25c-.51-.57-1.04-1.15-1.35-1.9-.14-.33-.22-.67-.26-1.01-.13-1.32.61-2.67 1.8-3.27.07-.03.14-.05.22-.05l2.68-.02c.13.01.23.04.32.12.66.57 1.1 1.37 1.24 2.23s-.03 1.76-.47 2.51c-.19.33-.42.61-.65.89-.13.16-.26.32-.38.48-.48.68-.78 1.41-.87 2.18-.03.24-.23.42-.48.42zm-1.27-7.85c-.77.45-1.26 1.38-1.18 2.27.02.24.09.49.19.73.25.6.7 1.1 1.18 1.63l.23.26c.26.29.53.62.75.97.17-.4.39-.8.66-1.17.13-.18.27-.36.41-.53.21-.26.41-.5.56-.77.32-.56.45-1.24.35-1.87-.09-.57-.38-1.12-.79-1.53z" fill="#000000" fill-opacity="1" data-original-color="#000000ff" stroke="none" stroke-opacity="1"/></g><g><path d="m33.44 64.47c-.24 0-.44-.18-.48-.41-.2-1.38-1.11-2.57-2.07-3.65-.13-.15-.27-.3-.41-.45-.9-1-1.82-2.03-2.36-3.31-.23-.55-.38-1.12-.43-1.7-.22-2.22 1.02-4.48 3.02-5.5.07-.03.14-.05.22-.05l4.81-.04c.13.01.23.04.32.12 1.12.97 1.86 2.31 2.1 3.78.24 1.46-.05 2.98-.79 4.26-.33.56-.73 1.06-1.13 1.55-.25.3-.48.59-.69.89-.91 1.27-1.46 2.65-1.63 4.1-.03.22-.23.41-.48.41zm-2.38-14.11c-1.57.85-2.57 2.72-2.4 4.49.05.48.17.95.36 1.42.47 1.13 1.34 2.1 2.18 3.04.14.15.28.31.41.46.65.73 1.28 1.52 1.72 2.39.31-.97.79-1.9 1.42-2.78.23-.33.49-.64.73-.94.39-.48.75-.93 1.04-1.42.63-1.08.87-2.39.68-3.62-.19-1.16-.78-2.28-1.65-3.08z" fill="#000000" fill-opacity="1" data-original-color="#000000ff" stroke="none" stroke-opacity="1"/></g></g><g><g><g><path d="m40.93 48.9c-.89-1.98-1.73-4.1-2.27-6.2h-11.32c-.54 2.1-1.38 4.21-2.27 6.19 5.52.83 10.83.95 15.86.01z" fill="#ffffff" fill-opacity="1" data-original-color="#ffffffff" stroke="none" stroke-opacity="1"/></g><g><g><path d="m48.95 45.42c-.26 1.24-1.95 1.43-2.51.3-.49-.99-1.13-1.9-1.9-2.7s-1.65-1.47-2.63-2c-1.95-1.05-4.23-1.47-6.42-1.19l6.37-11.25c2.78 2.47 5.19 5.47 6.45 8.98.9 2.5 1.18 5.27.64 7.86z" fill="#ffad00" fill-opacity="1" data-original-color="#ffad00ff" stroke="none" stroke-opacity="1"/></g><g><path d="m30.51 39.83c-2.19-.28-4.47.14-6.42 1.19-.97.52-1.86 1.2-2.63 2s-1.42 1.71-1.91 2.7c-.56 1.13-2.25.94-2.51-.3-.54-2.59-.26-5.36.64-7.86 1.27-3.5 3.66-6.51 6.45-8.98z" fill="#ffad00" fill-opacity="1" data-original-color="#ffad00ff" stroke="none" stroke-opacity="1"/></g><g><path d="m19.53 37.93c-.91 2.5-1.18 5.27-.64 7.86.04.18.1.33.19.47-.73.47-1.83.14-2.03-.83-.54-2.59-.26-5.36.64-7.86 1.27-3.5 3.66-6.51 6.45-8.98l.77 1.36c-2.32 2.26-4.28 4.93-5.38 7.98z" fill="#ffffff" fill-opacity="1" data-original-color="#ffffffff" stroke="none" stroke-opacity="1"/></g></g><g><g><path d="m47.65 46.95c-.69 0-1.32-.38-1.64-1.02-.47-.95-1.08-1.81-1.82-2.58s-1.59-1.41-2.51-1.9c-1.86-1-4.04-1.4-6.13-1.14-.18.02-.36-.06-.46-.21s-.11-.35-.02-.51l6.37-11.25c.07-.13.2-.22.34-.24s.29.02.4.12c3.19 2.83 5.41 5.92 6.59 9.17.96 2.66 1.19 5.54.66 8.12-.16.76-.76 1.32-1.54 1.42-.08.01-.16.02-.24.02zm-10.83-7.68c1.85 0 3.69.46 5.32 1.33 1.01.54 1.94 1.24 2.75 2.09.81.84 1.48 1.79 1.99 2.82.2.41.59.51.89.47.14-.02.6-.12.71-.65.5-2.41.28-5.1-.62-7.59-1.07-2.95-3.04-5.76-5.87-8.38l-5.62 9.92c.14-.01.3-.01.45-.01z" fill="#000000" fill-opacity="1" data-original-color="#000000ff" stroke="none" stroke-opacity="1"/></g><g><path d="m18.36 46.95c-.08 0-.16-.01-.24-.02-.78-.1-1.38-.65-1.54-1.42-.54-2.58-.3-5.46.66-8.12 1.18-3.26 3.39-6.35 6.59-9.17.11-.1.26-.14.4-.12s.27.11.34.24l6.36 11.25c.09.16.08.36-.02.51s-.28.23-.46.21c-2.09-.27-4.27.14-6.13 1.13-.93.5-1.77 1.14-2.51 1.9s-1.35 1.63-1.82 2.58c-.31.65-.94 1.03-1.63 1.03zm5.66-17.6c-2.83 2.61-4.81 5.42-5.87 8.38-.9 2.49-1.12 5.19-.62 7.59.11.54.57.63.71.65.29.04.69-.07.89-.47.52-1.04 1.19-1.99 1.99-2.82.81-.84 1.73-1.54 2.75-2.09 1.76-.94 3.78-1.4 5.77-1.32z" fill="#000000" fill-opacity="1" data-original-color="#000000ff" stroke="none" stroke-opacity="1"/></g></g><g><path d="m33.48 50.05c-2.67 0-5.48-.23-8.48-.68-.15-.02-.28-.11-.35-.25-.07-.13-.08-.29-.02-.43 1.05-2.32 1.78-4.32 2.25-6.11.06-.21.25-.36.47-.36h11.32c.22 0 .41.15.47.36.47 1.83 1.21 3.83 2.24 6.13.06.14.06.29-.01.42s-.19.22-.34.25c-2.4.45-4.91.67-7.55.67zm-7.71-1.55c5.36.76 10.1.77 14.47.03-.86-1.96-1.5-3.72-1.95-5.35h-10.58c-.43 1.6-1.07 3.35-1.94 5.32z" fill="#000000" fill-opacity="1" data-original-color="#000000ff" stroke="none" stroke-opacity="1"/></g></g><g><path d="m38.19 50.49c-.59-2.74-1.13-5.68-1.49-8.59h-7.41c-.36 2.91-.9 5.83-1.49 8.57 3.62 1.16 7.1 1.32 10.39.02z" fill="#ffad00" fill-opacity="1" data-original-color="#ffad00ff" stroke="none" stroke-opacity="1"/></g><g><path d="m33.31 51.89c-1.78 0-3.66-.32-5.66-.96-.24-.08-.38-.32-.33-.56.69-3.23 1.17-6.02 1.48-8.53.03-.24.24-.43.48-.43h7.41c.24 0 .45.18.48.43.31 2.55.8 5.35 1.48 8.55.05.23-.08.46-.3.55-1.59.63-3.26.95-5.04.95zm-4.94-1.75c3.44 1.03 6.47 1.04 9.26.04-.61-2.88-1.05-5.44-1.35-7.8h-6.56c-.3 2.32-.74 4.86-1.35 7.76z" fill="#000000" fill-opacity="1" data-original-color="#000000ff" stroke="none" stroke-opacity="1"/></g><g><g><path d="m39.09 8.61c-2.74.83-5.65 1.09-8.49.7-1.07-.15-2.15-.39-3.13-.84-.12-.06-.24-.11-.35-.18-1.71 2.66-3.01 5.6-3.88 8.64-1.67 5.9-1.58 11.87-.65 17.94.5 3.25 1.95 6.88 4.23 9.37 4.13.78 8.25.78 12.38 0 2.28-2.5 3.73-6.12 4.23-9.37.92-6.06 1.02-12.04-.65-17.94-.85-2.92-2.08-5.74-3.69-8.32z" fill="#ffffff" fill-opacity="1" data-original-color="#ffffffff" stroke="none" stroke-opacity="1"/></g><g><path d="m21.9 26.85c0 7.22 22.17 7.22 22.17 0l-.16 3.75c0 7.22-21.86 7.22-21.86 0z" fill="#ffad00" fill-opacity="1" data-original-color="#ffad00ff" stroke="none" stroke-opacity="1"/></g><g><path d="m39.09 8.61c-2.74.83-5.66 1.09-8.49.7-1.07-.15-2.15-.39-3.13-.84-.12-.05-.24-.12-.35-.18 1.39-2.17 3.06-4.16 4.99-5.87.51-.44 1.27-.44 1.78 0 2.03 1.8 3.76 3.9 5.2 6.19z" fill="#ffad00" fill-opacity="1" data-original-color="#ffad00ff" stroke="none" stroke-opacity="1"/></g></g><g><g><path d="m33 45.31c-2.1 0-4.2-.2-6.28-.59-.1-.02-.2-.07-.27-.15-2.16-2.37-3.79-5.97-4.35-9.63-1.07-7.01-.86-12.78.67-18.14.9-3.15 2.22-6.1 3.94-8.77.14-.21.41-.28.64-.17.11.06.22.11.33.16.82.38 1.77.63 2.99.8 2.71.37 5.58.14 8.28-.68.21-.06.43.02.55.21 1.61 2.58 2.87 5.42 3.73 8.44 1.52 5.35 1.73 11.12.67 18.14-.56 3.66-2.18 7.25-4.35 9.63-.07.08-.16.13-.27.15-2.08.4-4.18.6-6.28.6zm-5.94-1.51c3.94.73 7.94.73 11.88 0 1.99-2.24 3.48-5.59 4-9 1.04-6.88.84-12.52-.64-17.73-.8-2.81-1.95-5.46-3.42-7.88-2.74.77-5.61.98-8.34.61-1.31-.18-2.34-.46-3.24-.87-1.55 2.49-2.76 5.23-3.59 8.14-1.48 5.23-1.69 10.86-.64 17.73.52 3.41 2.01 6.76 3.99 9z" fill="#000000" fill-opacity="1" data-original-color="#000000ff" stroke="none" stroke-opacity="1"/></g><g><path d="m33.21 9.97c-.9 0-1.8-.06-2.68-.18-1.32-.18-2.36-.46-3.27-.88-.1-.05-.21-.1-.31-.15l-.05-.04c-.12-.06-.21-.17-.25-.3s-.01-.27.06-.39c1.45-2.27 3.16-4.27 5.08-5.97.69-.61 1.73-.6 2.42 0 2.01 1.77 3.79 3.88 5.3 6.29.08.13.1.29.04.43-.05.14-.17.25-.31.29-1.97.6-4.01.9-6.03.9zm-5.38-1.87c.79.34 1.69.58 2.84.73 2.5.35 5.14.17 7.67-.5-1.38-2.1-2.98-3.96-4.77-5.53-.32-.29-.81-.29-1.14 0-1.72 1.51-3.26 3.29-4.6 5.3z" fill="#000000" fill-opacity="1" data-original-color="#000000ff" stroke="none" stroke-opacity="1"/></g></g><g><path d="m32.99 36.49c-2.93 0-5.67-.5-7.71-1.39-2.42-1.07-3.7-2.62-3.7-4.5l-.14-3.42c-.01-.11-.01-.22-.01-.33 0-.26.21-.48.47-.48s.48.2.49.46l.01.27c.27 3.07 5.46 4.68 10.59 4.68s10.32-1.61 10.59-4.68l.01-.27c.01-.26.23-.46.49-.46.26.01.47.22.47.48 0 .11 0 .22-.01.33l-.14 3.44c0 4.03-5.91 5.87-11.41 5.87zm-10.49-6.94.04 1.02c0 3.26 5.25 4.95 10.44 4.95s10.44-1.69 10.44-4.93l.04-1.05c-1.98 2.18-6.35 3.2-10.49 3.2-2.97 0-5.74-.49-7.81-1.39-1.13-.49-2.03-1.1-2.66-1.8z" fill="#000000" fill-opacity="1" data-original-color="#000000ff" stroke="none" stroke-opacity="1"/></g><g><g><path d="m39.64 22.05c-.43 1.57-1.46 2.96-2.83 3.83-1.5.95-3.16 1.14-4.91.84s-3.44-1.42-4.47-2.87c-1.11-1.68-1.65-3.76-1.1-5.69s1.96-3.77 3.86-4.42c1.66-.57 3.53-.6 5.16.05s3.08 2.04 3.88 3.6c.74 1.44.84 3.09.41 4.66z" fill="#296ff9" fill-opacity="1" data-original-color="#8d77e6ff" stroke="none" stroke-opacity="1"/></g><g><path d="m34.47 26.77c-.83.13-1.7.11-2.58-.05-1.75-.3-3.44-1.42-4.46-2.86-1.11-1.68-1.66-3.76-1.1-5.7.55-1.93 1.96-3.76 3.86-4.42 1.18-.4 2.46-.54 3.69-.34-.48.07-.96.19-1.43.34-1.9.66-3.31 2.49-3.86 4.42s0 4.02 1.1 5.7c1.02 1.45 2.72 2.56 4.47 2.86.1.01.21.03.31.05z" fill="#ffffff" fill-opacity="1" data-original-color="#ffffffff" stroke="none" stroke-opacity="1"/></g><g><path d="m36.98 21.25c-.26.94-.87 1.77-1.7 2.29-.9.57-1.89.68-2.94.5-1.04-.18-2.06-.85-2.67-1.72-.66-1-.99-2.25-.66-3.4s1.17-2.25 2.31-2.64c.99-.34 2.11-.36 3.08.03s1.84 1.22 2.32 2.15c.46.86.52 1.86.26 2.79z" fill="#ffffff" fill-opacity="1" data-original-color="#ffffffff" stroke="none" stroke-opacity="1"/></g><g><path d="m33.35 27.33c-.5 0-1.01-.05-1.54-.14-1.84-.32-3.67-1.49-4.78-3.07-1.3-1.96-1.72-4.18-1.17-6.11.65-2.27 2.25-4.08 4.17-4.74 1.83-.63 3.83-.61 5.49.06 1.7.68 3.25 2.11 4.14 3.83.77 1.49.93 3.28.45 5.02-.46 1.68-1.57 3.18-3.04 4.11-1.1.69-2.35 1.04-3.72 1.04zm-.59-13.54c-.8 0-1.63.14-2.42.41-1.6.55-3 2.16-3.55 4.09-.47 1.65-.09 3.58 1.04 5.29.96 1.36 2.55 2.38 4.15 2.66 1.77.31 3.27.06 4.57-.77 1.27-.8 2.23-2.1 2.63-3.55.42-1.51.28-3.04-.37-4.32-.77-1.49-2.16-2.78-3.64-3.37-.75-.29-1.57-.44-2.41-.44z" fill="#000000" fill-opacity="1" data-original-color="#000000ff" stroke="none" stroke-opacity="1"/></g><g><path d="m33.22 24.6c-.31 0-.63-.03-.96-.09-1.15-.2-2.29-.93-2.98-1.91-.81-1.23-1.07-2.61-.73-3.82.41-1.41 1.41-2.55 2.62-2.97 1.14-.39 2.39-.38 3.42.04 1.06.43 2.02 1.31 2.57 2.38.48.94.58 2.05.28 3.14-.29 1.05-.98 1.99-1.9 2.57-.69.45-1.46.66-2.32.66zm-.36-8.09c-.46 0-.93.08-1.38.23-.9.31-1.69 1.22-2 2.32-.27.93-.05 2.03.6 3 .54.77 1.44 1.35 2.35 1.51 1.01.18 1.86.03 2.6-.43.72-.46 1.26-1.19 1.49-2.01.24-.86.16-1.72-.21-2.44-.44-.85-1.23-1.59-2.07-1.92-.43-.18-.9-.26-1.38-.26z" fill="#000000" fill-opacity="1" data-original-color="#000000ff" stroke="none" stroke-opacity="1"/></g></g></g></g><g><g><g><g><path d="m54.33 64.47c-.23 0-.43-.16-.47-.39-.05-.26.12-.52.38-.57.62-.13.97-.88.87-1.47-.11-.63-.64-1.24-1.36-1.54-.57-.24-1.24-.34-2.14-.3-.18.01-.35-.08-.44-.24s-.09-.35.01-.5c.68-1.1.67-2.61-.02-3.67-.76-1.16-2.28-1.76-3.63-1.44-.17.04-.35-.01-.47-.14s-.16-.32-.1-.48c.56-1.62.46-3.08-.27-4.11-.7-.98-1.95-1.52-3.51-1.52-.27 0-.48-.22-.48-.48s.22-.48.48-.48c1.89 0 3.42.69 4.3 1.93.8 1.12 1.01 2.61.61 4.25 1.51-.06 3.05.69 3.88 1.96.76 1.16.9 2.67.4 3.98.68.03 1.25.15 1.76.37 1.03.44 1.78 1.31 1.94 2.27.2 1.18-.55 2.36-1.63 2.58-.05-.01-.08-.01-.11-.01z" fill="#000000" fill-opacity="1" data-original-color="#000000ff" stroke="none" stroke-opacity="1"/></g><g><path d="m45.2 64.11c-.27 0-.48-.22-.48-.48s.22-.48.48-.48c1.53 0 2.23-1.27 2.23-2.44 0-1.18-.7-2.44-2.23-2.44-.27 0-.48-.22-.48-.48 0-.27.22-.48.48-.48 2.1 0 3.2 1.72 3.2 3.41 0 1.68-1.1 3.39-3.2 3.39z" fill="#000000" fill-opacity="1" data-original-color="#000000ff" stroke="none" stroke-opacity="1"/></g></g><g><path d="m45.06 53.64c-.23 0-.44-.17-.48-.4-.11-.63-.29-1.13-.55-1.5-.3-.43-.73-.72-1.15-.77-.26-.04-.45-.28-.41-.55.04-.26.28-.45.55-.41.7.1 1.36.53 1.81 1.18.35.5.58 1.11.71 1.89.05.26-.13.51-.39.56-.03 0-.06 0-.09 0z" fill="#000000" fill-opacity="1" data-original-color="#000000ff" stroke="none" stroke-opacity="1"/></g></g></g><g><g><g><g><path d="m11.67 64.47c-.03 0-.06 0-.1-.01-1.08-.22-1.83-1.4-1.63-2.58.16-.96.9-1.83 1.94-2.27.51-.22 1.08-.34 1.76-.37-.49-1.3-.36-2.81.4-3.98.83-1.27 2.37-2.02 3.88-1.96-.4-1.64-.19-3.13.61-4.25.89-1.24 2.41-1.93 4.3-1.93.27 0 .48.22.48.48s-.22.48-.48.48c-1.57 0-2.81.54-3.51 1.52-.73 1.03-.83 2.49-.27 4.11.06.17.02.35-.1.48s-.3.19-.47.14c-1.35-.33-2.87.28-3.63 1.44-.7 1.07-.71 2.58-.02 3.67.1.15.1.35.01.5s-.27.24-.44.24c-.89-.04-1.57.05-2.14.29-.72.31-1.26.91-1.36 1.54-.1.59.25 1.34.87 1.47.26.05.43.31.38.57s-.25.42-.48.42z" fill="#000000" fill-opacity="1" data-original-color="#000000ff" stroke="none" stroke-opacity="1"/></g><g><path d="m20.8 64.11c-2.1 0-3.2-1.72-3.2-3.41s1.1-3.41 3.2-3.41c.27 0 .48.22.48.48 0 .27-.22.48-.48.48-1.53 0-2.23 1.27-2.23 2.44 0 1.18.7 2.44 2.23 2.44.27 0 .48.22.48.48s-.21.5-.48.5z" fill="#000000" fill-opacity="1" data-original-color="#000000ff" stroke="none" stroke-opacity="1"/></g></g><g><path d="m20.94 53.64c-.03 0-.06 0-.08-.01-.26-.05-.44-.3-.39-.56.13-.78.37-1.4.71-1.89.45-.65 1.12-1.08 1.81-1.18.26-.04.51.15.55.41.04.27-.15.51-.41.55-.42.06-.85.35-1.15.77-.26.38-.44.87-.55 1.5-.06.24-.26.41-.49.41z" fill="#000000" fill-opacity="1" data-original-color="#000000ff" stroke="none" stroke-opacity="1"/></g></g></g></g><g><g><path d="m31.08 21.77c-.11 0-.23-.04-.32-.12-.2-.18-.22-.48-.05-.68.94-1.08 1.83-2.21 2.67-3.37.16-.22.46-.27.68-.11s.27.46.11.68c-.85 1.18-1.77 2.34-2.72 3.44-.1.11-.23.16-.37.16z" fill="#000000" fill-opacity="1" data-original-color="#000000ff" stroke="none" stroke-opacity="1"/></g><g><path d="m33.22 22.33c-.11 0-.23-.04-.32-.12-.2-.18-.22-.48-.05-.68.52-.6 1.02-1.23 1.49-1.88.16-.22.46-.27.68-.11s.27.46.11.68c-.48.67-1 1.32-1.54 1.95-.11.1-.24.16-.37.16z" fill="#000000" fill-opacity="1" data-original-color="#000000ff" stroke="none" stroke-opacity="1"/></g></g></g><g><path d="m46.44 14.94c-.05 0-.1-.01-.15-.02-.26-.08-.4-.35-.32-.61.28-.89.8-1.68 1.51-2.3.26-.22.65-.52 1.16-.5.26.01.52.1.74.27.21-.78.58-1.52 1.1-2.2.51-.66 1.13-1.21 1.73-1.73.47-.41 1.01-.88 1.68-1.15.81-.32 1.67-.24 2.26.21.37.28.59.68.73.96.24.48.4.99.48 1.52.46-.47 1.09-.82 1.95-.76.75.06 1.09.42 1.24.71.14.27.17.57.15.86.31-.14.66-.24 1.05-.26.9-.06 1.76.32 2.57 1.09.19.18.2.49.01.68-.18.19-.49.2-.68.01-.61-.58-1.23-.86-1.85-.82-.98.06-1.68.87-1.69.88-.16.19-.44.23-.65.09-.21-.15-.27-.43-.14-.64.24-.4.52-1.14.36-1.45-.06-.11-.21-.17-.45-.19-1.37-.11-1.94 1.79-1.95 1.81-.07.25-.33.4-.59.34-.25-.07-.41-.32-.35-.57.22-.96.1-1.98-.34-2.87-.14-.3-.28-.5-.44-.62-.31-.24-.83-.27-1.32-.08-.51.2-.96.59-1.4.97-.56.49-1.15 1-1.6 1.59-.78 1.02-1.16 2.2-1.1 3.41.01.26-.19.49-.45.5-.27.02-.49-.17-.52-.43-.03-.3-.06-.61-.18-.85-.09-.18-.25-.32-.39-.32-.13 0-.29.08-.5.27-.56.49-.99 1.15-1.22 1.85-.05.22-.24.35-.44.35z" fill="#000000" fill-opacity="1" data-original-color="#000000ff" stroke="none" stroke-opacity="1"/></g><g><path d="m2.01 9.96c-.05 0-.1-.01-.15-.02-.26-.08-.4-.35-.32-.61.28-.89.8-1.68 1.51-2.3.26-.22.65-.51 1.16-.5.26.01.52.1.74.27.21-.78.58-1.52 1.1-2.2.51-.67 1.13-1.21 1.73-1.73.48-.42 1.02-.88 1.69-1.15.81-.32 1.67-.24 2.26.21.37.29.6.68.73.96.24.48.4.99.48 1.52.46-.47 1.09-.83 1.95-.76.75.06 1.09.42 1.24.71.14.27.17.57.15.86.31-.14.66-.24 1.05-.26.9-.06 1.76.32 2.57 1.09.19.18.2.49.01.68-.18.19-.49.2-.68.01-.61-.57-1.23-.84-1.85-.81-.98.06-1.68.87-1.69.88-.16.19-.44.23-.65.09s-.27-.43-.14-.64c.24-.4.52-1.14.36-1.45-.06-.11-.21-.17-.45-.19-1.38-.11-1.94 1.79-1.95 1.81-.07.25-.33.4-.59.34-.25-.06-.41-.32-.35-.57.22-.96.1-1.98-.34-2.87-.14-.29-.29-.49-.45-.61-.31-.24-.83-.27-1.32-.08-.51.2-.96.59-1.4.97-.56.49-1.15 1-1.6 1.59-.76 1-1.14 2.18-1.08 3.4.01.26-.19.49-.45.5-.26.03-.49-.17-.52-.43-.03-.3-.06-.61-.18-.85-.09-.18-.25-.31-.39-.32-.12 0-.29.08-.5.27-.56.48-.99 1.14-1.21 1.85-.07.21-.26.34-.47.34z" fill="#000000" fill-opacity="1" data-original-color="#000000ff" stroke="none" stroke-opacity="1"/></g></g></g></svg>