<svg id="Layer_1" enable-background="new 0 0 66 66" viewBox="0 0 66 66" xmlns="http://www.w3.org/2000/svg" width="300" height="300" version="1.1" xmlns:xlink="http://www.w3.org/1999/xlink" xmlns:svgjs="http://svgjs.dev/svgjs"><g width="100%" height="100%" transform="matrix(1,0,0,1,0,0)"><g><g><path d="m23.5 47.47c-.2 0-.39-.13-.46-.33-.08-.25.05-.53.31-.61 3.17-1.05 7.1-2.37 9.45-5.27 1.65-2.03 2.43-4.87 2.08-7.57l-.03-.26c-.13-.99-.28-2.11.42-2.97.65-.79 1.71-.93 2.45-.97.45-.02.9-.02 1.34 0 .21-2.03 1.34-4.12 3.17-5.7 2.02-1.75 4.61-2.79 6.89-3.71.25-.1.53.02.63.27s-.02.53-.27.63c-2.32.93-4.72 1.89-6.62 3.54-1.33 1.15-2.65 3-2.85 5.06.25.03.49.08.74.12.59.12 1.34.32 1.91.82.67.59.92 1.49.62 2.21-.19.44-.57.77-1.07.93-.59.18-1.26.09-1.76-.23-.72-.46-1.21-1.34-1.36-2.46-.02-.17-.04-.35-.05-.52-.42-.03-.84-.03-1.27 0-.89.05-1.45.24-1.75.62-.44.54-.32 1.4-.21 2.23l.04.27c.38 3.01-.46 6.03-2.29 8.3-2.52 3.12-6.61 4.48-9.9 5.57-.06.03-.11.03-.16.03zm16.51-16.92c.01.1.02.19.03.29.07.48.28 1.36.93 1.78.26.17.64.22.96.12.16-.05.37-.16.47-.38.16-.37-.07-.85-.36-1.11-.4-.35-.96-.5-1.46-.6-.19-.04-.38-.07-.57-.1z" fill="#000000" fill-opacity="1" data-original-color="#000000ff" stroke="none" stroke-opacity="1"/></g><g><path d="m41.55 64.47c-.05 0-.09 0-.14 0-.87-.01-1.89-.06-2.84-.42-.47-.18-.89-.42-1.24-.72 0 0 0 0-.01 0-1.98.62-4.1.82-6.15.59-1.68-.19-3-.65-4.01-1.42-1.32-.99-2.08-2.51-1.98-3.98.02-.27.25-.47.51-.45.27.02.47.25.45.51-.07 1.13.55 2.36 1.6 3.15.88.66 2.03 1.06 3.54 1.23 1.77.2 3.6.05 5.32-.42-.12-.17-.22-.36-.3-.55-.47-1.09-.24-2.42.54-3.15.45-.42 1.09-.62 1.73-.55.59.07 1.1.38 1.39.84.6.93.28 2.15-.35 2.88-.34.4-.77.69-1.21.9.16.09.33.17.5.24.81.31 1.72.36 2.5.36 3.8.02 7.25-.96 10-2.85 3.04-2.08 5.16-5.35 5.67-8.75.04-.26.29-.45.55-.41s.45.29.41.55c-.55 3.66-2.82 7.18-6.08 9.41-2.87 1.97-6.47 3.01-10.4 3.01zm-3.25-5.24c-.3 0-.6.11-.8.3-.49.46-.62 1.35-.31 2.07.09.22.22.43.38.62.49-.19.97-.45 1.31-.85.39-.45.59-1.21.26-1.72-.2-.3-.52-.39-.7-.41-.04-.01-.09-.01-.14-.01z" fill="#000000" fill-opacity="1" data-original-color="#000000ff" stroke="none" stroke-opacity="1"/></g><g><g><path d="m60.01 16.59c.04 2.54-.67 5.03-2.02 7.18-.75 1.2-1.7 2.23-2.99 3.08-2.68 1.75-5.9 2.48-9 1.66-3.09-.82-5.81-2.93-7.42-5.69-1.62-2.76-2.27-6.32-1.19-9.33.39-1.1 1.08-3.56 3.72-5.63 2.34-1.84 5.33-2.62 8.29-2.34 5.58.53 10.49 4.48 10.61 11.07z" fill="#ffffff" fill-opacity="1" data-original-color="#ffffffff" stroke="none" stroke-opacity="1"/></g><g><path d="m49.8 28.77c-1.26.15-2.54.07-3.8-.26-3.09-.82-5.81-2.93-7.42-5.69-1.62-2.76-2.27-6.32-1.19-9.33.4-1.09 1.08-3.56 3.72-5.63 2.34-1.83 5.33-2.62 8.29-2.34h.03c-2.14.21-4.18.99-5.9 2.33-2.64 2.07-3.33 4.54-3.72 5.63-1.08 3.01-.43 6.57 1.19 9.33 1.61 2.76 4.33 4.88 7.42 5.69.46.13.92.21 1.38.27z" fill="#296ff9" fill-opacity="1" data-original-color="#8d77e6ff" stroke="none" stroke-opacity="1"/></g><g><path d="m48.61 29.33c-.92 0-1.83-.12-2.73-.35-3.2-.85-6.01-3-7.72-5.92-1.83-3.13-2.29-6.77-1.23-9.74l.1-.28c.43-1.25 1.24-3.58 3.78-5.57 2.4-1.88 5.46-2.74 8.63-2.44 5.41.52 10.92 4.29 11.05 11.54.05 2.62-.68 5.2-2.09 7.45-.84 1.34-1.87 2.4-3.14 3.23-2.1 1.37-4.39 2.08-6.65 2.08zm-.41-23.39c-2.5 0-4.88.8-6.79 2.29-2.32 1.82-3.06 3.97-3.46 5.12l-.1.29c-.95 2.66-.51 6.08 1.15 8.92 1.58 2.7 4.17 4.69 7.13 5.47 2.83.75 5.88.18 8.61-1.6 1.15-.75 2.08-1.71 2.85-2.93 1.31-2.09 1.99-4.48 1.94-6.91-.12-6.65-5.2-10.11-10.18-10.59-.38-.04-.77-.06-1.15-.06z" fill="#000000" fill-opacity="1" data-original-color="#000000ff" stroke="none" stroke-opacity="1"/></g></g><g><g><path d="m63.99 47.92c.04 2.38-.63 4.72-1.89 6.73-.71 1.12-1.59 2.09-2.8 2.88-2.51 1.64-5.53 2.32-8.43 1.56-2.9-.77-5.44-2.75-6.96-5.34-1.51-2.59-2.13-5.92-1.11-8.74.37-1.03 1.01-3.34 3.49-5.28 2.2-1.72 4.99-2.46 7.77-2.19 5.22.51 9.82 4.21 9.93 10.38z" fill="#296ff9" fill-opacity="1" data-original-color="#8d77e6ff" stroke="none" stroke-opacity="1"/></g><g><path d="m54.57 59.32c-1.23.16-2.48.1-3.71-.23-2.9-.77-5.44-2.75-6.96-5.34-1.51-2.59-2.13-5.92-1.11-8.74.37-1.03 1.01-3.34 3.49-5.28 2.2-1.72 4.99-2.45 7.77-2.19.06.01.12.01.17.02-1.95.22-3.81.94-5.37 2.17-2.47 1.94-3.12 4.25-3.49 5.28-1.01 2.82-.4 6.15 1.11 8.74s4.06 4.57 6.96 5.34c.38.1.76.18 1.14.23z" fill="#ffffff" fill-opacity="1" data-original-color="#ffffffff" stroke="none" stroke-opacity="1"/></g><g><path d="m53.3 59.89c-.86 0-1.72-.11-2.56-.33-3.01-.79-5.65-2.82-7.25-5.56-1.72-2.94-2.15-6.36-1.15-9.15l.09-.26c.41-1.17 1.16-3.36 3.55-5.23 2.25-1.76 5.13-2.58 8.11-2.29 5.08.49 10.26 4.03 10.38 10.85.04 2.46-.64 4.88-1.97 6.99-.79 1.26-1.76 2.25-2.95 3.03-1.97 1.29-4.12 1.95-6.25 1.95zm-.38-21.91c-2.34 0-4.56.74-6.34 2.14-2.17 1.7-2.86 3.71-3.23 4.79l-.1.28c-.89 2.48-.48 5.67 1.08 8.33 1.47 2.52 3.9 4.38 6.66 5.11 2.64.7 5.5.17 8.04-1.5 1.07-.7 1.94-1.59 2.66-2.74 1.23-1.95 1.86-4.19 1.82-6.46-.11-6.22-4.85-9.45-9.5-9.9-.37-.04-.73-.05-1.09-.05z" fill="#000000" fill-opacity="1" data-original-color="#000000ff" stroke="none" stroke-opacity="1"/></g></g><g><g><path d="m58.53 57.99c-2.35 1.3-5.06 1.79-7.67 1.1-1-.27-1.97-.68-2.86-1.21.42-3.64 2.08-6.03 5.07-7.06 2.63 1.42 4.55 3.86 5.46 7.17z" fill="#ffffff" fill-opacity="1" data-original-color="#ffffffff" stroke="none" stroke-opacity="1"/></g><g><path d="m53.28 59.88c-.86 0-1.71-.11-2.54-.33-1.04-.28-2.04-.7-2.98-1.26-.16-.1-.25-.28-.23-.47.45-3.87 2.26-6.38 5.4-7.47.13-.04.27-.03.39.03 2.8 1.52 4.76 4.11 5.69 7.47.06.22-.04.44-.23.55-1.76.99-3.65 1.48-5.5 1.48zm-4.75-2.26c.78.44 1.61.77 2.46 1 2.25.59 4.71.28 6.97-.87-.87-2.85-2.56-5.05-4.92-6.4-2.58.96-4.06 3.02-4.51 6.27z" fill="#000000" fill-opacity="1" data-original-color="#000000ff" stroke="none" stroke-opacity="1"/></g><g><path d="m52.88 57.5c-.24 0-.45-.18-.48-.42-.23-1.71-.28-3.45-.28-3.52-.01-.27.2-.49.47-.5s.49.2.5.47c0 .02.05 1.77.28 3.42.04.27-.15.51-.42.54-.02 0-.05.01-.07.01z" fill="#000000" fill-opacity="1" data-original-color="#000000ff" stroke="none" stroke-opacity="1"/></g><g><g><path d="m58.66 45.45c-1.31-4.24-6.92-5.44-9.85-2.11-.08.1-.17.2-.24.3-.47.6-.81 1.25-1.04 1.92 2.06.28 4.21.38 6.55.16 0 0 1.74 2.71 4.48 3.72.12-.37.22-.74.28-1.13.15-1.06.08-2.02-.18-2.86z" fill="#ffad00" fill-opacity="1" data-original-color="#ffad00ff" stroke="none" stroke-opacity="1"/></g><g><path d="m58.84 48.3c-.06.38-.16.76-.28 1.13-.76-.28-1.44-.69-2.03-1.13.15-1.06.08-2-.18-2.85-.66-2.16-2.45-3.53-4.42-3.91 2.75-.55 5.81.93 6.73 3.91.27.85.33 1.8.18 2.85z" fill="#ffffff" fill-opacity="1" data-original-color="#ffffffff" stroke="none" stroke-opacity="1"/></g><g><path d="m54.08 45.72c-2.34.22-4.5.12-6.55-.16-1.17 3.5.9 7.54 4.86 7.96 2.02.22 4.11-.59 5.47-2.63.3-.45.53-.95.71-1.46-2.74-1.01-4.49-3.71-4.49-3.71z" fill="#ffffff" fill-opacity="1" data-original-color="#ffffffff" stroke="none" stroke-opacity="1"/></g></g><g><g><path d="m58.56 49.92c-.06 0-.11-.01-.17-.03-2.4-.88-4.04-2.95-4.55-3.66-2.09.18-4.18.12-6.38-.19-.14-.02-.27-.1-.35-.22s-.09-.27-.05-.41c.25-.75.62-1.44 1.11-2.07.08-.1.17-.21.26-.32 1.5-1.7 3.74-2.42 6.01-1.94 2.26.49 4.01 2.06 4.68 4.22.29.93.36 1.97.2 3.07-.06.39-.15.79-.3 1.21-.04.12-.13.23-.25.28-.06.04-.13.06-.21.06zm-4.48-4.69c.16 0 .32.08.41.22.02.02 1.49 2.27 3.76 3.33.05-.19.08-.37.11-.55.14-.96.08-1.85-.16-2.64-.56-1.82-2.04-3.15-3.95-3.56-1.92-.41-3.81.2-5.07 1.63-.07.09-.15.18-.22.28-.3.38-.55.79-.74 1.22 2.01.24 3.92.26 5.83.08 0-.01.02-.01.03-.01z" fill="#000000" fill-opacity="1" data-original-color="#000000ff" stroke="none" stroke-opacity="1"/></g><g><path d="m53.05 54.04c-.23 0-.47-.01-.71-.04-1.91-.2-3.53-1.2-4.56-2.8-1.09-1.69-1.35-3.86-.71-5.79.07-.22.29-.36.53-.33 2.23.31 4.34.36 6.44.16.18-.02.35.07.45.22.02.03 1.69 2.59 4.24 3.52.25.09.37.36.29.61-.2.58-.45 1.12-.76 1.58-1.23 1.85-3.1 2.87-5.21 2.87zm-5.17-7.95c-.4 1.56-.14 3.24.72 4.58.87 1.35 2.24 2.19 3.85 2.36 2.02.22 3.85-.66 5.02-2.41.19-.28.35-.59.49-.92-2.15-.96-3.62-2.81-4.1-3.48-1.97.17-3.93.13-5.98-.13z" fill="#000000" fill-opacity="1" data-original-color="#000000ff" stroke="none" stroke-opacity="1"/></g></g></g><g><path d="m8.94 43.1c-.03 0-.05 0-.08-.01-.26-.04-.44-.3-.4-.56.31-1.83-.35-3.93-1.97-6.23-.43-.62-.91-1.23-1.37-1.82-.98-1.26-2-2.57-2.71-4.06-.99-2.08-1.44-5.07.26-7.23.57-.72 1.36-1.26 2.23-1.57.19-.67.48-1.31.86-1.89.48-.73 1.14-1.42 1.94-2.04 2.41-1.85 5.47-2.61 8.17-3.28.26-.06.52.09.59.35.06.26-.09.52-.35.59-2.61.65-5.57 1.38-7.81 3.11-.72.56-1.3 1.16-1.72 1.8-.23.34-.41.71-.56 1.1.61-.08 1.24-.04 1.83.12 1.85.5 3.34 2.17 3.61 4.07.12.79-.01 1.49-.35 2.01-.59.89-1.68 1.12-2.51 1.05-1.16-.11-2.28-.79-3.01-1.83-.63-.9-.97-2.08-.96-3.32 0-.23.02-.46.04-.69-.48.25-.9.6-1.24 1.02-1.43 1.82-.98 4.48-.15 6.21.67 1.39 1.61 2.6 2.6 3.88.47.6.95 1.22 1.4 1.86 1.77 2.52 2.49 4.86 2.13 6.95-.04.24-.24.41-.47.41zm-3.23-20.71c-.07.36-.11.72-.11 1.08-.01 1.04.27 2.02.78 2.75.56.8 1.42 1.33 2.3 1.42.52.05 1.26-.08 1.61-.62.27-.4.26-.95.2-1.34-.22-1.53-1.42-2.87-2.91-3.27-.61-.16-1.25-.16-1.87-.02z" fill="#000000" fill-opacity="1" data-original-color="#000000ff" stroke="none" stroke-opacity="1"/></g><g><g><g><path d="m36.9 45.52c.07 3.82-1.01 7.59-3.04 10.82-1.13 1.81-2.56 3.37-4.51 4.64-4.04 2.64-8.9 3.74-13.56 2.51s-8.75-4.42-11.19-8.58c-2.43-4.16-3.42-9.52-1.79-14.06.59-1.65 1.63-5.37 5.61-8.49 3.53-2.77 8.03-3.95 12.49-3.52 8.41.8 15.82 6.76 15.99 16.68z" fill="#ffffff" fill-opacity="1" data-original-color="#ffffffff" stroke="none" stroke-opacity="1"/></g><g><path d="m19.72 64.47c-1.36 0-2.72-.17-4.05-.52-4.76-1.26-8.94-4.47-11.48-8.8-2.72-4.66-3.41-10.07-1.83-14.47.05-.13.1-.27.15-.43.64-1.86 1.84-5.32 5.61-8.28 3.56-2.79 8.12-4.08 12.83-3.62 8.05.78 16.25 6.38 16.43 17.16.07 3.91-1.01 7.74-3.12 11.09-1.25 1.99-2.78 3.56-4.65 4.79-3.12 2.03-6.53 3.08-9.89 3.08zm-.61-35.24c-3.83 0-7.46 1.22-10.38 3.5-3.55 2.78-4.69 6.07-5.3 7.83-.05.16-.11.31-.15.44-1.46 4.07-.79 9.3 1.75 13.65 2.41 4.12 6.38 7.16 10.89 8.36 4.33 1.14 9.01.27 13.17-2.44 1.76-1.15 3.19-2.62 4.36-4.49 2.01-3.19 3.03-6.84 2.97-10.55-.18-10.18-7.94-15.47-15.55-16.21-.59-.06-1.18-.09-1.76-.09z" fill="#000000" fill-opacity="1" data-original-color="#000000ff" stroke="none" stroke-opacity="1"/></g></g><g><g><path d="m9.36 47.18c3.58-.45 3.85-4.33 1.95-7.74 5.84 3.12 10.55 2.95 14.3 0 1.12 1.95 3.03 3.72 4.95 4.59.54.24 1.16-.19 1.13-.78-.11-1.78-2.01-4.06-5.39-6.22-3.3-2.54-7.12-3.84-11.48-3.37-2.15.23-4.05 1.58-4.89 3.57-.86 2.04-1.17 5.13-.57 9.95z" fill="#296ff9" fill-opacity="1" data-original-color="#8d77e6ff" stroke="none" stroke-opacity="1"/></g><g><path d="m17.32 33.59c-.31.01-.63.04-.95.07-2.14.23-4.05 1.58-4.89 3.57-.83 1.97-1.15 4.91-.62 9.46-.41.24-.91.41-1.49.48-.61-4.82-.29-7.91.57-9.94.84-1.99 2.74-3.34 4.89-3.57.84-.09 1.68-.11 2.49-.07z" fill="#ffffff" fill-opacity="1" data-original-color="#ffffffff" stroke="none" stroke-opacity="1"/></g><g><path d="m26.29 60.52c-.85.37-1.42 1.17-1.42 2.1v.52c-1.5.49-3.06.78-4.63.83-.03-.25-.07-.49-.14-.72-.31-1.24-1.38-2.14-2.65-2.3-3.72-.48-6.42-2.65-7.07-8.2-4.27.02-3.77-4.58-1.02-5.57 3.58-.45 3.85-4.33 1.95-7.74 5.84 3.12 10.55 2.95 14.29 0 1.3 2.26 3.08 3.67 5.3 4.33.83 8.52-.12 14.82-4.61 16.75z" fill="#ffad00" fill-opacity="1" data-original-color="#ffad00ff" stroke="none" stroke-opacity="1"/></g><g><path d="m9.36 47.66c-.11 0-.21-.04-.3-.1-.1-.08-.17-.19-.18-.32-.57-4.54-.37-7.87.6-10.19.9-2.13 2.92-3.61 5.29-3.87 4.25-.46 8.23.71 11.82 3.47 3.41 2.17 5.46 4.58 5.58 6.57.03.45-.18.87-.56 1.13s-.84.3-1.25.12c-1.86-.84-3.7-2.47-4.89-4.33-3.62 2.6-8.03 2.72-13.12.35.75 1.91.82 3.8.14 5.15-.58 1.14-1.64 1.84-3.07 2.02-.02 0-.04 0-.06 0zm7.18-13.61c-.55 0-1.11.03-1.67.09-2.01.22-3.74 1.47-4.5 3.28-.87 2.07-1.07 5.08-.6 9.18.86-.21 1.48-.68 1.84-1.41.69-1.36.41-3.48-.74-5.53-.1-.19-.07-.42.08-.57s.38-.19.57-.09c5.55 2.96 10.05 2.97 13.77.05.11-.09.25-.12.39-.09s.26.11.33.23c1.08 1.88 2.89 3.56 4.73 4.39.14.06.26 0 .3-.03.05-.03.15-.12.14-.28-.1-1.65-2.03-3.83-5.16-5.83-2.92-2.26-6.1-3.39-9.48-3.39z" fill="#000000" fill-opacity="1" data-original-color="#000000ff" stroke="none" stroke-opacity="1"/></g><g><path d="m25.26 46.88c-.09 0-.17-.02-.25-.07-.64-.39-1.38-.62-2.13-.66-.27-.02-.47-.24-.46-.51.02-.27.25-.47.51-.46.9.05 1.79.33 2.57.8.23.14.3.44.16.66-.07.16-.23.24-.4.24z" fill="#000000" fill-opacity="1" data-original-color="#000000ff" stroke="none" stroke-opacity="1"/></g><g><path d="m15.18 46.13c-.14 0-.28-.06-.37-.17-.17-.2-.14-.51.06-.68.27-.23.58-.37.85-.5l1.09-.51c.24-.11.53-.01.64.23s.01.53-.23.64l-1.09.51c-.24.11-.47.22-.64.37-.09.08-.2.11-.31.11z" fill="#000000" fill-opacity="1" data-original-color="#000000ff" stroke="none" stroke-opacity="1"/></g><g><path d="m20.85 54.58c-.58 0-1.16-.09-1.72-.27-.25-.08-.39-.36-.31-.61s.36-.39.61-.31c.77.25 1.59.29 2.38.12.37-.08.63-.24.65-.39.03-.19-.28-.43-.58-.54-.1-.04-.21-.07-.32-.1-.42-.13-.89-.27-1.24-.66-.46-.52-.48-1.2-.46-1.85l.1-3.28c.01-.27.23-.48.5-.47s.48.23.47.5l-.1 3.28c-.01.47-.01.92.22 1.17.17.19.48.28.8.38.12.04.24.07.36.11.69.24 1.34.83 1.22 1.6-.09.58-.6 1.02-1.41 1.19-.39.09-.78.13-1.17.13z" fill="#000000" fill-opacity="1" data-original-color="#000000ff" stroke="none" stroke-opacity="1"/></g><g><path d="m19.91 57.81c-.27 0-.56-.02-.86-.05-.27-.03-.46-.27-.42-.54.03-.27.28-.46.54-.42 2.67.31 3.34-1.08 3.35-1.09.11-.24.4-.35.64-.24s.35.4.24.64c-.05.07-.83 1.7-3.49 1.7z" fill="#000000" fill-opacity="1" data-original-color="#000000ff" stroke="none" stroke-opacity="1"/></g><g><path d="m9.57 51.15c-.23 0-.43-.17-.48-.4-.17-.94.12-1.85.14-1.89.08-.25.35-.4.61-.31.25.08.39.35.31.61-.01.02-.23.74-.1 1.43.05.26-.13.51-.39.56-.03-.01-.06 0-.09 0z" fill="#000000" fill-opacity="1" data-original-color="#000000ff" stroke="none" stroke-opacity="1"/></g><g><path d="m20.23 64.46c-.24 0-.45-.18-.48-.43-.03-.24-.07-.46-.12-.65-.27-1.05-1.15-1.81-2.25-1.95-4.31-.56-6.75-3.25-7.43-8.21-1.73-.12-2.9-1.02-3.15-2.46-.3-1.67.76-3.44 2.4-4.03.03-.01.07-.02.1-.02 1.11-.14 1.89-.64 2.32-1.49.69-1.36.41-3.48-.73-5.53-.1-.19-.07-.42.08-.57s.38-.19.57-.09c5.55 2.96 10.05 2.97 13.76.05.11-.09.25-.12.39-.1.14.03.26.11.33.23 1.2 2.1 2.89 3.48 5.01 4.1.19.06.33.22.34.42.97 9.92-.59 15.4-4.9 17.25-.7.3-1.13.93-1.13 1.65v.52c0 .21-.13.39-.33.46-1.58.52-3.18.81-4.77.86 0-.01 0-.01-.01-.01zm-9.85-12.2c.25 0 .45.18.48.43.56 4.79 2.67 7.26 6.65 7.78 1.5.19 2.7 1.24 3.06 2.67.03.11.06.22.08.34 1.24-.07 2.49-.3 3.73-.68v-.16c0-1.09.67-2.09 1.72-2.54 3.77-1.62 5.2-6.84 4.35-15.95-2.06-.69-3.74-2.02-4.98-3.98-3.62 2.6-8.03 2.72-13.12.35.75 1.91.82 3.8.14 5.15-.57 1.12-1.61 1.82-3.01 2.01-1.3.5-1.91 1.9-1.73 2.94.19 1.04 1.13 1.63 2.63 1.64z" fill="#000000" fill-opacity="1" data-original-color="#000000ff" stroke="none" stroke-opacity="1"/></g><g><g><path d="m16.48 49.42c.4.28 1.02.17 1.3-.22.11-.17.15-.4.11-.64-.09-.62-.79-1-1.34-.7-.12.07-.22.15-.3.27-.28.39-.17 1.01.23 1.29z" fill="#000000" fill-opacity="1" data-original-color="#000000ff" stroke="none" stroke-opacity="1"/></g><g><path d="m23.27 49.42c.4.28 1.02.17 1.3-.22.12-.17.15-.4.12-.64-.09-.62-.79-1-1.34-.7-.12.07-.22.15-.3.27-.29.39-.18 1.01.22 1.29z" fill="#000000" fill-opacity="1" data-original-color="#000000ff" stroke="none" stroke-opacity="1"/></g></g></g></g><g><g><g><path d="m28.6 11.85c.04 2.24-.59 4.45-1.78 6.34-.67 1.06-1.5 1.97-2.64 2.72-2.37 1.55-5.22 2.19-7.95 1.47s-5.13-2.59-6.56-5.03-2.01-5.58-1.05-8.24c.35-.97.95-3.15 3.29-4.98 2.07-1.62 4.71-2.32 7.32-2.06 4.93.47 9.27 3.96 9.37 9.78z" fill="#ffad00" fill-opacity="1" data-original-color="#ffad00ff" stroke="none" stroke-opacity="1"/></g><g><path d="m19.73 22.59c-1.16.15-2.34.09-3.51-.21-2.73-.72-5.13-2.59-6.56-5.03-1.42-2.44-2-5.58-1.05-8.25.34-.97.95-3.15 3.29-4.98 2.07-1.62 4.71-2.32 7.32-2.07.05 0 .11.01.16.02-1.83.21-3.59.9-5.06 2.05-2.34 1.83-2.94 4.01-3.29 4.98-.96 2.66-.38 5.81 1.05 8.25s3.83 4.31 6.56 5.03c.37.09.72.17 1.09.21z" fill="#ffffff" fill-opacity="1" data-original-color="#ffffffff" stroke="none" stroke-opacity="1"/></g><g><path d="m18.53 23.16c-.82 0-1.63-.1-2.43-.31-2.84-.75-5.34-2.67-6.85-5.26-1.63-2.78-2.03-6.02-1.09-8.65l.09-.25c.38-1.11 1.1-3.18 3.36-4.95 2.13-1.67 4.85-2.44 7.67-2.17 4.8.46 9.7 3.81 9.81 10.26.04 2.33-.6 4.62-1.86 6.61-.75 1.19-1.66 2.13-2.79 2.87-1.87 1.23-3.9 1.85-5.91 1.85zm-.36-20.66c-2.2 0-4.29.7-5.97 2.01-2.04 1.59-2.69 3.49-3.04 4.5l-.09.26c-.84 2.33-.45 5.34 1.01 7.84 1.39 2.37 3.67 4.12 6.27 4.81 2.48.65 5.17.16 7.56-1.41 1.01-.66 1.82-1.5 2.5-2.57 1.16-1.84 1.75-3.94 1.71-6.08-.1-5.85-4.56-8.89-8.94-9.31-.34-.04-.68-.05-1.01-.05z" fill="#000000" fill-opacity="1" data-original-color="#000000ff" stroke="none" stroke-opacity="1"/></g></g><g><g><path d="m23.54 21.3c-2.23 1.26-4.83 1.74-7.32 1.08-1.01-.27-1.98-.69-2.87-1.24.55-3.21 2.18-5.33 4.96-6.28 2.42 1.31 4.25 3.5 5.23 6.44z" fill="#ffffff" fill-opacity="1" data-original-color="#ffffffff" stroke="none" stroke-opacity="1"/></g><g><path d="m18.51 23.16c-.82 0-1.62-.1-2.41-.31-1.04-.27-2.04-.71-3-1.3-.17-.1-.26-.3-.22-.49.59-3.41 2.36-5.65 5.28-6.66.13-.04.27-.03.39.03 2.57 1.4 4.46 3.73 5.46 6.72.07.22-.02.46-.22.57-1.69.95-3.5 1.44-5.28 1.44zm-4.62-2.27c.79.45 1.61.8 2.45 1.02 2.14.56 4.47.26 6.6-.84-.92-2.5-2.53-4.45-4.68-5.69-2.37.89-3.8 2.7-4.37 5.51z" fill="#000000" fill-opacity="1" data-original-color="#000000ff" stroke="none" stroke-opacity="1"/></g><g><path d="m18.33 22.83c-.22 0-.42-.16-.47-.38-.42-1.96-.5-4.74-.51-4.85-.01-.27.2-.49.47-.5.29-.01.49.2.5.47 0 .03.09 2.8.49 4.68.06.26-.11.52-.37.57-.04 0-.07.01-.11.01z" fill="#000000" fill-opacity="1" data-original-color="#000000ff" stroke="none" stroke-opacity="1"/></g><g><g><path d="m23.89 9.48c-1.31-4.24-6.92-5.44-9.85-2.11-.08.1-.17.2-.24.3-.47.6-.81 1.25-1.04 1.92 2.06.28 4.21.38 6.55.16 0 0 1.74 2.71 4.48 3.72.12-.37.22-.74.28-1.13.15-1.05.09-2.01-.18-2.86z" fill="#296ff9" fill-opacity="1" data-original-color="#8d77e6ff" stroke="none" stroke-opacity="1"/></g><g><path d="m24.07 12.34c-.06.38-.16.76-.28 1.13-.76-.28-1.44-.69-2.03-1.13.15-1.06.08-2-.18-2.85-.66-2.16-2.45-3.53-4.42-3.91 2.75-.55 5.81.93 6.73 3.91.27.84.34 1.8.18 2.85z" fill="#ffffff" fill-opacity="1" data-original-color="#ffffffff" stroke="none" stroke-opacity="1"/></g><g><path d="m19.31 9.75c-2.34.22-4.5.12-6.55-.16-1.17 3.5.9 7.54 4.86 7.96 2.02.22 4.11-.59 5.47-2.63.3-.45.53-.95.71-1.46-2.74-1-4.49-3.71-4.49-3.71z" fill="#ffffff" fill-opacity="1" data-original-color="#ffffffff" stroke="none" stroke-opacity="1"/></g></g><g><g><path d="m23.8 13.95c-.06 0-.11-.01-.17-.03-2.4-.88-4.04-2.95-4.55-3.66-2.09.18-4.18.12-6.38-.19-.14-.02-.27-.1-.35-.22s-.09-.27-.05-.41c.25-.74.62-1.44 1.12-2.07.08-.1.17-.21.26-.32 1.5-1.7 3.74-2.43 6.01-1.94 2.26.49 4.01 2.06 4.68 4.22.29.93.36 1.97.2 3.07-.06.39-.15.79-.3 1.21-.04.12-.13.23-.25.28-.08.05-.15.06-.22.06zm-4.49-4.68c.16 0 .32.08.41.22.02.02 1.49 2.27 3.76 3.33.05-.19.08-.37.11-.55.14-.96.08-1.85-.16-2.64-.56-1.82-2.04-3.15-3.95-3.56-1.92-.41-3.81.2-5.07 1.63-.07.09-.15.18-.22.28-.3.38-.55.79-.74 1.22 2.01.24 3.92.26 5.83.08 0-.01.02-.01.03-.01z" fill="#000000" fill-opacity="1" data-original-color="#000000ff" stroke="none" stroke-opacity="1"/></g><g><path d="m18.28 18.08c-.23 0-.47-.01-.71-.04-1.91-.2-3.53-1.2-4.56-2.8-1.09-1.69-1.35-3.86-.71-5.79.07-.22.29-.36.53-.33 2.23.31 4.34.36 6.44.16.18-.02.35.07.45.22.02.03 1.69 2.59 4.24 3.52.25.09.37.36.29.61-.2.58-.45 1.12-.76 1.58-1.23 1.84-3.1 2.87-5.21 2.87zm-5.17-7.95c-.4 1.56-.14 3.24.72 4.58.87 1.35 2.24 2.19 3.85 2.36 2.02.22 3.85-.66 5.02-2.41.19-.28.35-.59.49-.92-2.15-.96-3.62-2.81-4.1-3.48-1.97.17-3.93.12-5.98-.13z" fill="#000000" fill-opacity="1" data-original-color="#000000ff" stroke="none" stroke-opacity="1"/></g></g></g></g><g><g><path d="m54.41 27.21c-2.55 1.48-5.53 2.06-8.41 1.3-1.06-.28-2.06-.71-3-1.27.71-3.44 2.56-5.73 5.63-6.79 2.6 1.41 4.61 3.7 5.78 6.76z" fill="#ffffff" fill-opacity="1" data-original-color="#ffffffff" stroke="none" stroke-opacity="1"/></g><g><path d="m54.41 27.21c-2.55 1.48-5.53 2.06-8.41 1.3-1.06-.28-2.06-.71-3-1.27.71-3.44 2.56-5.73 5.63-6.79 2.6 1.41 4.61 3.7 5.78 6.76z" fill="#ffad00" fill-opacity="1" data-original-color="#ffad00ff" stroke="none" stroke-opacity="1"/></g><g><path d="m48.59 29.32c-.92 0-1.83-.12-2.71-.35-1.08-.29-2.13-.73-3.12-1.32-.18-.11-.27-.31-.23-.51.75-3.64 2.75-6.05 5.94-7.15.13-.04.27-.03.39.03 2.74 1.49 4.81 3.92 6 7.02.09.22 0 .47-.21.59-1.93 1.12-4.01 1.69-6.06 1.69zm-5.04-2.33c.83.46 1.69.81 2.58 1.04 2.48.66 5.19.29 7.67-1.04-1.1-2.62-2.89-4.7-5.22-6.02-2.66.99-4.31 2.97-5.03 6.02z" fill="#000000" fill-opacity="1" data-original-color="#000000ff" stroke="none" stroke-opacity="1"/></g><g><path d="m48.4 28.05c-.24 0-.45-.18-.48-.42-.26-1.96-.32-3.96-.33-4.04-.01-.27.2-.49.47-.5.26-.01.49.2.5.47 0 .02.06 2.04.32 3.95.04.27-.15.51-.42.54-.02 0-.04 0-.06 0z" fill="#000000" fill-opacity="1" data-original-color="#000000ff" stroke="none" stroke-opacity="1"/></g><g><g><path d="m55.04 14.27c-1.51-4.88-7.96-6.25-11.33-2.43-.1.11-.19.23-.28.34-.54.69-.93 1.44-1.19 2.21 2.37.32 4.85.44 7.54.18 0 0 2.01 3.11 5.16 4.27.14-.42.25-.86.32-1.3.16-1.2.08-2.3-.22-3.27z" fill="#296ff9" fill-opacity="1" data-original-color="#8d77e6ff" stroke="none" stroke-opacity="1"/></g><g><path d="m55.25 17.55c-.06.44-.18.87-.32 1.3-.87-.32-1.65-.79-2.33-1.3v-.01c.17-1.21.1-2.31-.21-3.28-.76-2.49-2.81-4.06-5.09-4.5 3.16-.63 6.68 1.07 7.74 4.5.31.98.39 2.08.21 3.29z" fill="#ffffff" fill-opacity="1" data-original-color="#ffffffff" stroke="none" stroke-opacity="1"/></g><g><path d="m49.78 14.58c-2.69.26-5.17.14-7.54-.18-1.34 4.02 1.04 8.67 5.59 9.16 2.33.25 4.73-.67 6.29-3.02.35-.52.61-1.09.81-1.68-3.15-1.17-5.15-4.28-5.15-4.28z" fill="#ffffff" fill-opacity="1" data-original-color="#ffffffff" stroke="none" stroke-opacity="1"/></g></g><g><g><path d="m54.93 19.34c-.06 0-.11-.01-.17-.03-2.78-1.02-4.67-3.44-5.23-4.22-2.41.21-4.82.14-7.36-.21-.14-.02-.27-.1-.35-.22s-.09-.27-.05-.41c.28-.85.71-1.64 1.27-2.36.09-.12.19-.24.29-.36 1.71-1.94 4.26-2.76 6.84-2.21 2.57.55 4.56 2.35 5.32 4.81.33 1.06.4 2.24.22 3.5-.06.44-.17.9-.34 1.38-.04.12-.13.23-.25.28-.04.03-.12.05-.19.05zm-5.15-5.25c.16 0 .32.08.41.22.02.03 1.75 2.68 4.44 3.89.07-.25.11-.49.15-.72.16-1.11.1-2.15-.19-3.07-.65-2.12-2.37-3.67-4.6-4.15s-4.44.23-5.9 1.9c-.09.1-.18.21-.26.32-.37.47-.67.98-.9 1.51 2.35.28 4.59.32 6.82.1z" fill="#000000" fill-opacity="1" data-original-color="#000000ff" stroke="none" stroke-opacity="1"/></g><g><path d="m48.59 24.08c-.27 0-.54-.01-.81-.04-2.17-.23-4.02-1.36-5.19-3.19-1.24-1.93-1.54-4.4-.81-6.6.07-.22.3-.36.53-.33 2.57.35 5 .41 7.43.18.18-.01.36.07.45.22.02.03 1.96 2.99 4.92 4.08.25.09.37.36.29.61-.22.67-.52 1.27-.87 1.8-1.41 2.1-3.54 3.27-5.94 3.27zm-6.01-9.15c-.49 1.83-.2 3.81.82 5.39 1.01 1.57 2.6 2.55 4.48 2.75 2.35.25 4.48-.77 5.84-2.81.23-.34.43-.72.6-1.14-2.53-1.1-4.25-3.3-4.78-4.04-2.28.2-4.56.15-6.96-.15z" fill="#000000" fill-opacity="1" data-original-color="#000000ff" stroke="none" stroke-opacity="1"/></g></g></g></g></g></svg>