<svg id="Layer_1" enable-background="new 0 0 66 66" viewBox="0 0 66 66" xmlns="http://www.w3.org/2000/svg" width="300" height="300" version="1.1" xmlns:xlink="http://www.w3.org/1999/xlink" xmlns:svgjs="http://svgjs.dev/svgjs"><g width="100%" height="100%" transform="matrix(1,0,0,1,0,0)"><g><g><path d="m46.47 17.37h-2.93c-.01 11.07-.22 39.56-.12 43.47.02.73.03 1.6-.49 2.21-.35.4-1.27.66-1.85.69l-5.01.1c-.58 0-1.16 0-1.69-.05-1.04-.09-1.84-.77-1.96-1.66-.08-.56-.04-1.17-.01-1.7.19-4 .07-31.31.13-43.05h-3.1c-1.17 0-1.95-1.2-1.48-2.27 1.88-4.27 6.2-13.06 10-13.06s8.13 8.79 10 13.06c.46 1.06-.33 2.26-1.49 2.26z" fill="#ffffff" fill-opacity="1" data-original-color="#ffffffff" stroke="none" stroke-opacity="1"/></g><g><g><path d="m12.6 63.11c-.35.4-1.27.74-1.85.76l-5.01-.15c-.57 0-1.16 0-1.69-.05-1.03-.09-1.83-.77-1.96-1.66-.08-.56-.04-1.17-.01-1.7.24-5.12-.02-10.24.24-15.35.06-1.07.67-1.64 1.84-1.97 1.23-.35 1.25-.23 4.26-.22 1.47 0 3.16.11 4.06 1.12.63.71.68 1.67.71 2.56.12 4.82-.23 9.72-.1 14.54.02.72.03 1.51-.49 2.12z" fill="#296ff9" fill-opacity="1" data-original-color="#8d77e6ff" stroke="none" stroke-opacity="1"/></g></g><g><g><path d="m4.89 44.96c-.26 5.12 0 10.24-.24 15.35-.03.54-.07 1.15.01 1.7.12.89.92 1.66 1.95 1.74l-.89-.03c-.57 0-1.16 0-1.68-.05-1.04-.08-1.83-.77-1.96-1.66-.08-.56-.04-1.17-.01-1.7.24-5.11-.03-10.23.24-15.35.06-1.08.67-1.64 1.84-1.97 1.14-.32 1.24-.24 3.69-.22-.36.03-.64.09-1.12.22-1.16.33-1.77.89-1.83 1.97z" fill="#ffffff" fill-opacity="1" data-original-color="#ffffffff" stroke="none" stroke-opacity="1"/></g></g><g><g><path d="m27.76 63.21c-.35.41-1.27.69-1.85.72l-5.01.02c-.57.01-1.16.01-1.69-.03-1.03-.07-1.83-.74-1.96-1.63-.08-.56-.04-1.17-.01-1.7.24-5.12-.02-22.58.24-27.7.06-1.08.67-1.65 1.84-2 1.23-.37 1.25-.25 4.26-.29 1.47-.02 3.16.06 4.06 1.04.63.7.68 1.66.71 2.55.12 4.82-.23 21.99-.1 26.81.02.72.03 1.59-.49 2.21z" fill="#ffad00" fill-opacity="1" data-original-color="#ffad00ff" stroke="none" stroke-opacity="1"/></g></g><g><g><path d="m21.78 63.92c.16.01.33.02.5.02h-1.39c-.57.01-1.16.01-1.68-.03-1.04-.07-1.83-.74-1.96-1.63-.08-.56-.04-1.17-.01-1.7.24-5.12-.03-22.58.24-27.7.06-1.08.66-1.65 1.84-2 1.23-.37 1.25-.25 4.26-.29.38 0 .77 0 1.15.01-1.64-.04-1.85-.02-2.84.28-1.17.35-1.78.93-1.84 2-.26 5.12 0 22.58-.24 27.7-.03.54-.07 1.15.01 1.7.13.9.93 1.57 1.96 1.64z" fill="#ffffff" fill-opacity="1" data-original-color="#ffffffff" stroke="none" stroke-opacity="1"/></g></g><g><g><path d="m58.08 62.77c-.35.4-1.27.67-1.85.69l-5.08.11c-.57 0-1.16 0-1.69-.05-1.03-.09-1.77-.87-1.89-1.76-.08-.56-.04-1.17-.01-1.7.24-5.12-.02-13.27.24-18.38.06-1.07.67-1.64 1.84-1.97 1.23-.35 1.25-.23 4.26-.22 1.47 0 3.16.11 4.06 1.12.63.71.68 1.67.71 2.56.12 4.82-.23 12.59-.1 17.41.02.71.03 1.58-.49 2.19z" fill="#296ff9" fill-opacity="1" data-original-color="#8d77e6ff" stroke="none" stroke-opacity="1"/></g></g><g><g><path d="m52.04 63.51c.11.01.23.02.35.02l-1.24.03c-.58 0-1.16 0-1.69-.05-1.04-.09-1.77-.87-1.89-1.76-.08-.56-.04-1.17-.01-1.7.24-5.12-.03-13.26.24-18.38.06-1.08.67-1.64 1.84-1.97 1.14-.32 1.24-.24 3.69-.22-.36.03-.64.09-1.12.22-1.17.34-1.78.9-1.84 1.97-.26 5.12 0 13.26-.24 18.38-.03.54-.07 1.14.01 1.7.13.89.86 1.67 1.9 1.76z" fill="#ffffff" fill-opacity="1" data-original-color="#ffffffff" stroke="none" stroke-opacity="1"/></g></g><g><g><path d="m10.76 64.36-5.04-.15c-.55.01-1.16 0-1.71-.05-1.25-.1-2.24-.96-2.4-2.08-.08-.56-.05-1.15-.02-1.67l.01-.13c.12-2.48.11-5.02.11-7.47 0-2.58-.01-5.25.13-7.88.09-1.63 1.29-2.16 2.19-2.41.99-.28 1.28-.27 2.66-.25.44.01 1 .02 1.74.02 1.7 0 3.42.16 4.42 1.28.78.87.81 2.03.83 2.87.06 2.41.01 4.88-.05 7.26-.05 2.39-.11 4.87-.05 7.28.02.72.04 1.7-.61 2.46-.46.51-1.51.89-2.21.92zm-4.87-21.14c-.69 0-.94.04-1.6.23-1.18.34-1.45.86-1.49 1.53-.13 2.6-.13 5.26-.13 7.83 0 2.46.01 5.01-.11 7.52l-.01.13c-.03.47-.06 1.01.01 1.48.09.67.72 1.18 1.52 1.25.51.04 1.09.05 1.65.05l5.02.15c.46-.02 1.24-.32 1.47-.6.38-.44.4-1.05.38-1.8-.06-2.43-.01-4.92.05-7.32.05-2.37.11-4.82.05-7.21-.02-.9-.09-1.69-.59-2.25-.75-.83-2.22-.95-3.7-.95-.74 0-1.31-.01-1.75-.02-.31-.01-.56-.02-.77-.02z" fill="#000000" fill-opacity="1" data-original-color="#000000ff" stroke="none" stroke-opacity="1"/></g></g><g><g><path d="m20.32 64.44c-.44 0-.82-.01-1.15-.03-1.26-.08-2.25-.92-2.4-2.04-.08-.56-.05-1.14-.02-1.66l.01-.13c.12-2.49.11-8.05.11-13.43 0-5.72-.01-11.64.13-14.27.09-1.62 1.29-2.17 2.18-2.44.99-.3 1.28-.3 2.66-.3.44 0 1 0 1.74-.01 1.71-.02 3.42.1 4.42 1.2.78.86.81 2.02.84 2.86.06 2.4.01 7.94-.05 13.3-.06 5.45-.11 11.09-.05 13.51.02.7.05 1.77-.61 2.54-.48.56-1.57.86-2.2.89l-5.03.02c-.21-.01-.4-.01-.58-.01zm3.62-33.37c-.12 0-.23 0-.35 0-.74.01-1.31.01-1.75.01-1.35 0-1.52 0-2.38.26-1.19.36-1.46.89-1.5 1.57-.13 2.61-.13 8.51-.13 14.22 0 5.64.01 10.97-.11 13.48l-.01.14c-.03.47-.06 1.01.01 1.47.09.66.71 1.16 1.51 1.22.44.03.96.04 1.65.03l5.01-.02c.53-.03 1.27-.3 1.49-.55.38-.45.4-1.12.38-1.89-.07-2.44-.01-8.08.05-13.54.05-5.35.11-10.88.05-13.26-.02-.9-.09-1.69-.58-2.24-.68-.76-1.98-.9-3.34-.9z" fill="#000000" fill-opacity="1" data-original-color="#000000ff" stroke="none" stroke-opacity="1"/></g></g><g><g><path d="m51.14 64.05c-.57 0-1.17 0-1.72-.05-1.2-.1-2.16-1-2.33-2.18-.08-.56-.05-1.15-.02-1.67l.01-.12c.12-2.48.11-5.76.11-8.93 0-3.35-.01-6.82.13-9.45.09-1.63 1.29-2.16 2.19-2.41.99-.28 1.28-.27 2.66-.25.44.01 1 .02 1.74.02 1.7 0 3.42.16 4.41 1.28.78.87.81 2.03.83 2.87.06 2.41.01 5.59-.05 8.67-.05 3.11-.11 6.33-.05 8.74.02.71.05 1.77-.61 2.53-.48.55-1.58.83-2.2.85l-5.08.11c-.01-.01-.02-.01-.02-.01zm.23-24.12c-.69 0-.94.04-1.6.23-1.18.34-1.45.86-1.49 1.53-.13 2.6-.13 6.06-.13 9.4 0 3.18.01 6.47-.11 8.98l-.01.13c-.03.48-.06 1.01.01 1.48.1.73.7 1.29 1.45 1.35.51.04 1.09.05 1.65.05l5.07-.11c.54-.02 1.29-.28 1.5-.52.38-.44.39-1.11.38-1.88-.07-2.43-.01-5.66.05-8.78.05-3.07.11-6.24.05-8.62-.02-.9-.09-1.69-.59-2.25-.74-.83-2.22-.95-3.7-.95-.74 0-1.31-.01-1.75-.02-.32-.01-.57-.02-.78-.02z" fill="#000000" fill-opacity="1" data-original-color="#000000ff" stroke="none" stroke-opacity="1"/></g></g><g><path d="m36.05 64.32c-.57 0-1.17 0-1.72-.05-1.26-.11-2.24-.96-2.4-2.08-.08-.55-.05-1.13-.02-1.64l.01-.16c.11-2.47.11-13.98.11-25.11 0-6.68 0-13 .02-17.43h-2.62c-.71 0-1.37-.36-1.76-.95s-.45-1.34-.16-1.99c2.19-4.99 6.46-13.35 10.44-13.35 3.99 0 8.25 8.36 10.44 13.35.29.65.23 1.39-.16 1.99s-1.05.96-1.77.96h-2.45c-.01 4.01-.04 10.05-.07 16.36-.05 11.31-.12 24.12-.05 26.61.02.7.05 1.77-.61 2.54-.5.58-1.62.83-2.2.85l-5.02.1zm1.9-61.79c-2.47 0-6.04 4.77-9.56 12.77-.16.36-.12.75.09 1.07.21.33.56.51.95.51h3.1c.13 0 .25.05.34.14s.14.21.14.34c-.03 4.44-.02 10.98-.02 17.91 0 11.14 0 22.66-.11 25.16l-.01.16c-.03.49-.05.99.01 1.45.09.67.72 1.18 1.52 1.25.52.04 1.1.05 1.65.05l5.01-.1c.54-.02 1.29-.28 1.5-.52.38-.44.4-1.14.37-1.88-.07-2.5-.01-14.78.05-26.64.03-6.57.06-12.84.07-16.84 0-.27.22-.48.48-.48h2.93c.39 0 .74-.19.95-.52.21-.32.24-.72.09-1.07-3.5-7.99-7.08-12.76-9.55-12.76z" fill="#000000" fill-opacity="1" data-original-color="#000000ff" stroke="none" stroke-opacity="1"/></g><g><path d="m56 59.33c-.28-.01-.49-.23-.48-.49.01-.44.02-.87.02-1.31 0-.27.22-.49.49-.48.27 0 .48.22.48.49-.01.44-.01.88-.02 1.31-.01.27-.23.48-.49.48z" fill="#000000" fill-opacity="1" data-original-color="#000000ff" stroke="none" stroke-opacity="1"/></g><g><path d="m56.05 55.92c-.27 0-.49-.22-.48-.49.02-2.69 0-5.4-.06-8.08-.01-.27.21-.49.47-.49h.01c.26 0 .48.21.48.47.06 2.68.08 5.41.06 8.11 0 .27-.22.48-.48.48z" fill="#000000" fill-opacity="1" data-original-color="#000000ff" stroke="none" stroke-opacity="1"/></g><g><g><g><g><path d="m59.7 38.22c-7.06 4.32-17.75-4.1-19.26-5.02-.67-.4-1.08-1.12-1.1-1.9-.02-.93.5-1.81 1.37-2.15.01-.01.02-.01.04-.02.61-.23 1.13-.09 1.73.15.45.18 4.53 2.42 5.25 2.97-2.89-4.09-6-8.72-7.78-13.4-.28-.73-.53-1.48-.54-2.25 0-.77.27-1.59.88-2.07 1.5-1.12 3.45 1.48 5.76 7.03.56-2.03 2.47-3.07 3.99-.69.21-2.5 2.2-3.7 3.82-1.03.71-2.73 2.43-2.36 4.92.39 1.39 1.52 2.52 3.26 3.36 5.14 2.46 5.51 1.47 9.72-2.44 12.85z" fill="#ffad00" fill-opacity="1" data-original-color="#ffad00ff" stroke="none" stroke-opacity="1"/></g><g><g><path d="m55.07 39.94c-5.69 0-11.78-4.19-14.15-5.82-.34-.23-.59-.4-.74-.5-.81-.49-1.31-1.35-1.33-2.3-.02-1.15.64-2.19 1.65-2.61h.01l.06-.03c.8-.3 1.5-.08 2.08.16.33.13 1.96 1.01 3.36 1.81-2.58-3.74-5.02-7.68-6.53-11.62-.27-.71-.56-1.54-.57-2.42-.01-1 .39-1.92 1.06-2.45.45-.34.96-.44 1.47-.29 1.36.37 2.82 2.44 4.59 6.48.44-.72 1.06-1.19 1.76-1.29.43-.07 1.17-.02 1.95.72.32-.99.94-1.69 1.72-1.87.47-.11 1.33-.1 2.23.92.33-.71.78-1.13 1.35-1.27 1.08-.27 2.37.48 4.08 2.36 1.42 1.56 2.58 3.34 3.45 5.27 2.49 5.54 1.63 10.05-2.57 13.41-.02.01-.03.02-.05.03-1.52.93-3.18 1.31-4.88 1.31zm-14.14-10.36c-.02.01-.03.02-.05.02-.65.26-1.08.94-1.06 1.69.02.62.34 1.18.86 1.5.16.1.43.28.79.53 2.94 2.02 11.89 8.18 17.94 4.5 3.84-3.09 4.59-7.1 2.27-12.24-.82-1.84-1.93-3.53-3.28-5.02-1.84-2.02-2.75-2.17-3.13-2.07-.51.13-.81.88-.97 1.49-.05.19-.21.33-.4.36s-.38-.06-.48-.23c-.56-.93-1.2-1.38-1.74-1.26-.61.14-1.09.98-1.18 2.07-.02.21-.17.38-.37.43s-.41-.03-.52-.21c-.52-.82-1.12-1.22-1.67-1.13-.62.09-1.19.76-1.44 1.69-.06.2-.23.34-.44.35-.2.01-.4-.11-.48-.3-2.23-5.37-3.62-6.75-4.4-6.96-.23-.06-.42-.02-.63.13-.43.34-.68.96-.68 1.67.01.72.27 1.45.5 2.09 1.72 4.51 4.73 9.05 7.73 13.29.14.19.11.46-.06.63s-.44.18-.63.04c-.72-.54-4.77-2.75-5.14-2.9-.54-.23-.9-.31-1.34-.16z" fill="#000000" fill-opacity="1" data-original-color="#000000ff" stroke="none" stroke-opacity="1"/></g><g><path d="m48.32 27.05c-.18 0-.36-.1-.44-.28l-2.28-4.99c-.11-.24 0-.53.24-.64s.53 0 .64.24l2.28 4.99c.11.24 0 .53-.24.64-.06.02-.13.04-.2.04z" fill="#000000" fill-opacity="1" data-original-color="#000000ff" stroke="none" stroke-opacity="1"/></g><g><path d="m52.28 25.25c-.17 0-.33-.09-.42-.24l-2.25-3.89c-.13-.23-.06-.53.18-.66.23-.13.53-.06.66.18l2.25 3.89c.13.23.06.53-.18.66-.07.04-.16.06-.24.06z" fill="#000000" fill-opacity="1" data-original-color="#000000ff" stroke="none" stroke-opacity="1"/></g><g><path d="m56.05 23.75c-.16 0-.31-.08-.41-.22l-2.2-3.41c-.15-.22-.08-.52.14-.67.22-.14.52-.08.67.14l2.2 3.41c.15.22.08.52-.14.67-.08.06-.17.08-.26.08z" fill="#000000" fill-opacity="1" data-original-color="#000000ff" stroke="none" stroke-opacity="1"/></g></g></g></g><g><g><path d="m60.15 11.26c-.07 0-.14-.01-.21-.05-.24-.11-.34-.4-.23-.64.08-.18.17-.36.25-.54.11-.24.4-.35.64-.24s.35.4.24.64c-.08.18-.17.36-.25.55-.09.18-.26.28-.44.28z" fill="#000000" fill-opacity="1" data-original-color="#000000ff" stroke="none" stroke-opacity="1"/></g><g><path d="m57.55 16.1c-.09 0-.17-.02-.25-.07-.23-.14-.3-.44-.16-.66.7-1.17 1.37-2.38 1.98-3.59.12-.24.41-.34.65-.21.24.12.33.41.21.65-.62 1.24-1.3 2.47-2.02 3.66-.08.14-.24.22-.41.22z" fill="#000000" fill-opacity="1" data-original-color="#000000ff" stroke="none" stroke-opacity="1"/></g><g><path d="m54.61 14.84c-.02 0-.03 0-.05 0-.27-.03-.46-.26-.43-.53.13-1.36.22-2.74.25-4.1.01-.27.22-.49.49-.47.27.01.48.23.47.49-.03 1.39-.12 2.79-.25 4.17-.02.25-.23.44-.48.44z" fill="#000000" fill-opacity="1" data-original-color="#000000ff" stroke="none" stroke-opacity="1"/></g><g><path d="m60.69 18.04c-.15 0-.3-.07-.39-.2-.16-.22-.11-.52.11-.68 1.1-.8 2.19-1.65 3.23-2.53.21-.17.51-.15.68.06.17.2.15.51-.06.68-1.06.89-2.17 1.76-3.29 2.57-.08.07-.18.1-.28.1z" fill="#000000" fill-opacity="1" data-original-color="#000000ff" stroke="none" stroke-opacity="1"/></g></g><g><path d="m59.97 34.43c-.04 0-.09-.01-.13-.02-.26-.07-.41-.34-.34-.6.49-1.73.5-3.46.04-5.15-.07-.26.08-.52.34-.59s.52.08.59.34c.5 1.86.49 3.76-.04 5.66-.06.22-.25.36-.46.36z" fill="#ffffff" fill-opacity="1" data-original-color="#ffffffff" stroke="none" stroke-opacity="1"/></g><g><path d="m58.74 26.13c-.16 0-.32-.08-.41-.22-.34-.52-.6-.81-.6-.82-.18-.2-.16-.5.03-.68.2-.18.5-.16.68.03.01.01.31.35.7.95.14.22.08.52-.15.67-.08.05-.17.07-.25.07z" fill="#ffffff" fill-opacity="1" data-original-color="#ffffffff" stroke="none" stroke-opacity="1"/></g></g></g></g></svg>