<svg id="Layer_1" enable-background="new 0 0 66 66" viewBox="0 0 66 66" xmlns="http://www.w3.org/2000/svg" width="300" height="300" version="1.1" xmlns:xlink="http://www.w3.org/1999/xlink" xmlns:svgjs="http://svgjs.dev/svgjs"><g width="100%" height="100%" transform="matrix(1,0,0,1,0,0)"><g><g><path d="m39.81 10.11-5.12 4.24h-7.53l-4.22-4.59c5.37-.49 11.02-.34 16.87.35z" fill="#296ff9" fill-opacity="1" data-original-color="#6f5dd8ff" stroke="none" stroke-opacity="1"/></g><g><g><path d="m19.49 18.84 5.83 1.99z" fill="#296ff9" fill-opacity="1" data-original-color="#8d77e6ff" stroke="none" stroke-opacity="1"/></g><g><path d="m38.33 21.3v.01l6.07-2.23z" fill="#296ff9" fill-opacity="1" data-original-color="#8d77e6ff" stroke="none" stroke-opacity="1"/></g><g><path d="m25.32 20.83 13.01.48v-.01z" fill="#296ff9" fill-opacity="1" data-original-color="#8d77e6ff" stroke="none" stroke-opacity="1"/></g><g><path d="m27.16 14.35s-1.59 3.72-1.84 6.48l-5.83-1.99-5.08-1.74 8.53-7.33z" fill="#296ff9" fill-opacity="1" data-original-color="#8d77e6ff" stroke="none" stroke-opacity="1"/></g><g><path d="m50.46 16.85-6.06 2.23-6.07 2.23c-.66-2.16-3.64-6.95-3.64-6.95l5.12-4.24z" fill="#296ff9" fill-opacity="1" data-original-color="#8d77e6ff" stroke="none" stroke-opacity="1"/></g><g><path d="" fill="#296ff9" fill-opacity="1" data-original-color="#8d77e6ff" stroke="none" stroke-opacity="1"/></g><g><g><path d="m38.33 21.3-13.01-.47c.25-2.76 1.84-6.48 1.84-6.48h7.53s2.98 4.79 3.64 6.95z" fill="#ffffff" fill-opacity="1" data-original-color="#ffffffff" stroke="none" stroke-opacity="1"/></g></g><g><g><path d="m38.33 21.31c-1.78 5.93-3.44 12.93-5.05 20.44 6.17-8.38 11.92-16.69 17.18-24.9l-6.06 2.23z" fill="#296ff9" fill-opacity="1" data-original-color="#6f5dd8ff" stroke="none" stroke-opacity="1"/></g></g><g><g><path d="m19.49 18.84-5.08-1.74c5.07 8.11 11.22 16.32 18.88 24.65-3.2-7.29-5.9-14.29-7.97-20.91z" fill="#296ff9" fill-opacity="1" data-original-color="#6f5dd8ff" stroke="none" stroke-opacity="1"/></g></g><g><path d="" fill="#296ff9" fill-opacity="1" data-original-color="#8d77e6ff" stroke="none" stroke-opacity="1"/></g><g><path d="m50.47 16.85-6.07 2.23z" fill="#296ff9" fill-opacity="1" data-original-color="#8d77e6ff" stroke="none" stroke-opacity="1"/></g><g><path d="m19.49 18.84-5.08-1.74z" fill="#296ff9" fill-opacity="1" data-original-color="#8d77e6ff" stroke="none" stroke-opacity="1"/></g><g><path d="m25.32 20.83c2.06 6.62 4.77 13.62 7.97 20.91 1.61-7.51 3.27-14.52 5.05-20.44z" fill="#296ff9" fill-opacity="1" data-original-color="#8d77e6ff" stroke="none" stroke-opacity="1"/></g></g><g><g><g><g><path d="m54.34 38.53c.22-.11.37-.32.46-.55s.12-.47.14-.72c.22-2.03.35-4.07.37-6.11 0-.29 0-.59.07-.88s.22-.56.47-.73c.44-.3 1.07-.14 1.44.23s.55.9.66 1.41c.31 1.44.21 2.93.11 4.4z" fill="#e7ebf0" fill-opacity="1" data-original-color="#e7ebf0ff" stroke="none" stroke-opacity="1"/></g><g><path d="m54.34 39.01c-.16 0-.32-.08-.41-.22-.13-.21-.09-.49.11-.64l.21-.16c.04-.05.07-.11.1-.18.07-.18.09-.39.11-.6.22-2 .34-4.04.36-6.06 0-.34.01-.66.09-.99.11-.44.35-.8.66-1.01.59-.4 1.48-.28 2.05.28.5.49.7 1.18.8 1.66.32 1.51.22 3.05.12 4.53-.01.14-.08.26-.18.35l-3.44 2.73c-.11.11-.23.2-.36.27-.07.03-.15.04-.22.04zm2.03-9.14c-.09 0-.18.02-.26.07-.12.08-.22.24-.27.45-.06.22-.06.48-.06.74-.02 1.98-.13 3.95-.34 5.9l2.14-1.7c.09-1.35.16-2.74-.12-4.05-.12-.57-.28-.93-.53-1.17-.13-.14-.35-.24-.56-.24z" fill="#000000" fill-opacity="1" data-original-color="#000000ff" stroke="none" stroke-opacity="1"/></g><g><path d="m56.71 36.05c.22-.11.37-.32.46-.55s.12-.47.14-.72c.22-2.03.35-4.07.37-6.11 0-.29 0-.59.07-.88s.22-.56.47-.73c.44-.3 1.07-.14 1.44.23s.55.9.66 1.41c.31 1.44.21 2.93.11 4.4z" fill="#e7ebf0" fill-opacity="1" data-original-color="#e7ebf0ff" stroke="none" stroke-opacity="1"/></g><g><path d="m56.71 36.54c-.16 0-.32-.08-.41-.22-.13-.21-.09-.49.11-.64l.21-.16c.04-.05.07-.11.1-.18.06-.17.09-.36.11-.6.22-2.01.34-4.05.36-6.06 0-.33.01-.66.09-.99.11-.44.34-.8.66-1.01.59-.4 1.48-.28 2.05.28.5.48.69 1.14.8 1.66.32 1.51.22 3.05.12 4.53-.01.14-.08.26-.18.35l-3.44 2.73c-.11.11-.23.2-.36.27-.07.02-.15.04-.22.04zm2.03-9.14c-.09 0-.18.02-.26.07-.12.08-.22.24-.27.44-.06.23-.06.48-.06.75-.02 1.97-.13 3.94-.34 5.89l2.14-1.7c.09-1.35.16-2.74-.12-4.05-.12-.57-.28-.93-.53-1.17-.13-.13-.36-.23-.56-.23z" fill="#000000" fill-opacity="1" data-original-color="#000000ff" stroke="none" stroke-opacity="1"/></g><g><path d="m36.86 57.42c-.21-2.77-.32-5.84.42-8.51 1.02-3.67 3.49-6.63 5.67-9.75 1.1-1.56 2.19-3.12 3.29-4.68.5-.71 1.03-1.44 1.87-1.73.42-.14.9-.13 1.29.09.66.37.71 1.06.7 1.7-.07 3.3-1.36 6.56-3.57 9.01 2.31-1.39 4.48-2.76 6.31-4.08 1.53-1.11 2.94-2.38 4.16-3.83 1.7-2.03 3.01-4.32 3.31-7.56.03-.36.12-.72.24-1.07.1-.3.25-.61.51-.78.3-.19.7-.16 1.03-.03.7.26 1.23.88 1.51 1.57.18.43.27.89.31 1.36.05.52.01 1.04-.06 1.55-.93 6.72-4.8 11.42-10.21 15.06-4.25 2.96-6.49 6.81-6.41 11.7z" fill="#ffffff" fill-opacity="1" data-original-color="#ffffffff" stroke="none" stroke-opacity="1"/></g><g><path d="m47.25 57.9h-10.39c-.25 0-.46-.2-.48-.45-.22-2.91-.32-5.98.44-8.68.88-3.15 2.8-5.8 4.65-8.37.37-.51.73-1.02 1.09-1.53l3.29-4.68c.49-.7 1.1-1.57 2.11-1.91.58-.2 1.19-.15 1.68.12.98.54.96 1.62.95 2.13-.06 2.55-.83 5.1-2.17 7.28 1.67-1.04 3.01-1.94 4.14-2.75 1.56-1.13 2.93-2.39 4.07-3.75 1.96-2.34 2.95-4.59 3.2-7.3.04-.4.13-.8.26-1.18.12-.34.31-.77.71-1.02.39-.25.92-.27 1.46-.07.78.29 1.43.96 1.79 1.84.18.44.3.94.35 1.5.04.5.02 1.04-.06 1.66-.86 6.23-4.27 11.26-10.42 15.4-4.25 2.95-6.27 6.65-6.2 11.29 0 .13-.05.25-.14.35-.08.07-.2.12-.33.12zm-9.94-.97h9.45c.07-4.7 2.3-8.6 6.62-11.61 5.92-3.98 9.19-8.8 10.01-14.73.08-.54.09-1.02.06-1.44-.04-.47-.13-.86-.28-1.22-.26-.63-.71-1.1-1.24-1.3-.25-.09-.47-.1-.61-.01-.15.09-.25.33-.32.53-.11.31-.18.63-.21.95-.27 2.92-1.33 5.33-3.42 7.83-1.19 1.42-2.62 2.74-4.25 3.91-1.6 1.15-3.61 2.46-6.34 4.1-.21.12-.47.08-.62-.11s-.15-.45.01-.63c2.12-2.36 3.37-5.53 3.44-8.7.01-.63-.05-1.04-.45-1.26-.25-.14-.58-.16-.9-.05-.71.24-1.18.91-1.63 1.55l-3.29 4.68c-.36.52-.73 1.03-1.1 1.54-1.89 2.62-3.67 5.09-4.5 8.07-.66 2.43-.61 5.22-.43 7.9z" fill="#000000" fill-opacity="1" data-original-color="#000000ff" stroke="none" stroke-opacity="1"/></g></g><g><path d="m49.2 57.77v4.86c0 .66-.53 1.21-1.19 1.24-3.53.14-8.51.13-12.01-.25-.91-.09-1.5-1.15-.81-2.1.45-.62.53-1.46.05-2.06-.86-1.07-.06-2.25.96-2.18 3.94.29 8.05.16 11.95-.4.56-.08 1.05.34 1.05.89z" fill="#ffad00" fill-opacity="1" data-original-color="#ffad00ff" stroke="none" stroke-opacity="1"/></g><g><path d="m48.59 56.81c-2.19.37-9.58 1.99-11.33 6.92-.44-.03-.86-.07-1.26-.11-.63-.06-1.11-.59-1.11-1.23 0-1.29 0-2.59 0-3.88 0-.71.61-1.28 1.32-1.23 4.08.3 8.34.14 12.38-.47z" fill="#ffffff" fill-opacity="1" data-original-color="#ffffffff" stroke="none" stroke-opacity="1"/></g><g><path d="m43.71 64.44c-2.61 0-5.47-.09-7.76-.34-.61-.06-1.14-.45-1.39-1.01-.27-.6-.18-1.28.25-1.86.3-.4.43-1.02.06-1.47-.51-.64-.61-1.4-.27-2.05.32-.61.96-.96 1.64-.91 3.91.29 8.01.15 11.85-.4.41-.06.81.06 1.12.33.3.26.48.65.48 1.05v4.86c0 .93-.73 1.69-1.66 1.72-1.23.04-2.73.08-4.32.08zm-7.6-6.68c-.27 0-.53.15-.66.4-.16.3-.1.66.17.99.6.74.58 1.81-.03 2.65-.22.3-.27.62-.15.9.11.24.34.41.61.44 3.64.39 8.71.38 11.94.25.4-.02.73-.35.73-.76v-4.86c0-.12-.05-.24-.14-.32-.1-.08-.22-.12-.35-.1-3.91.56-8.08.7-12.06.41-.02 0-.04 0-.06 0z" fill="#000000" fill-opacity="1" data-original-color="#000000ff" stroke="none" stroke-opacity="1"/></g></g><g><g><g><path d="m11.66 38.53c-.22-.11-.37-.32-.46-.55s-.12-.47-.14-.72c-.22-2.03-.35-4.07-.37-6.11 0-.29 0-.59-.07-.88s-.22-.56-.47-.73c-.44-.3-1.07-.14-1.44.23-.38.37-.55.9-.66 1.41-.31 1.44-.21 2.93-.11 4.4z" fill="#e7ebf0" fill-opacity="1" data-original-color="#e7ebf0ff" stroke="none" stroke-opacity="1"/></g><g><path d="m11.66 39.01c-.07 0-.15-.02-.22-.05-.13-.07-.25-.16-.36-.27l-3.44-2.73c-.11-.08-.17-.21-.18-.35-.1-1.48-.2-3.01.12-4.53.1-.48.29-1.17.8-1.66.58-.56 1.46-.68 2.05-.28.32.22.55.58.66 1.01.08.33.09.66.09.97.02 2.04.14 4.08.36 6.08.02.21.05.42.11.6.03.07.06.13.1.18l.21.17c.19.15.24.43.11.64-.09.14-.25.22-.41.22zm-3.25-3.68 2.14 1.7c-.21-1.94-.32-3.92-.34-5.87 0-.29-.01-.54-.06-.77-.05-.2-.15-.36-.27-.44-.23-.16-.62-.04-.84.17-.24.24-.41.6-.53 1.17-.27 1.31-.19 2.69-.1 4.04z" fill="#000000" fill-opacity="1" data-original-color="#000000ff" stroke="none" stroke-opacity="1"/></g><g><path d="m9.29 36.05c-.22-.11-.37-.32-.46-.55s-.12-.47-.14-.72c-.22-2.03-.35-4.07-.37-6.11 0-.29 0-.59-.07-.88s-.22-.56-.47-.73c-.44-.3-1.07-.14-1.44.23s-.55.9-.66 1.41c-.31 1.44-.21 2.93-.11 4.4z" fill="#e7ebf0" fill-opacity="1" data-original-color="#e7ebf0ff" stroke="none" stroke-opacity="1"/></g><g><path d="m9.29 36.54c-.07 0-.15-.02-.22-.05-.13-.07-.25-.16-.36-.27l-3.44-2.73c-.11-.08-.17-.21-.18-.35-.1-1.48-.2-3.01.12-4.53.11-.52.3-1.17.8-1.66.58-.56 1.46-.68 2.05-.28.32.22.56.58.66 1.01.08.34.09.66.09.97.02 2.04.14 4.08.36 6.08.02.21.05.42.11.6.03.07.06.13.1.18l.21.16c.19.15.24.43.11.64-.09.15-.25.23-.41.23zm-3.25-3.68 2.14 1.7c-.21-1.94-.32-3.92-.34-5.87 0-.29 0-.54-.06-.77-.05-.2-.15-.36-.27-.45-.23-.16-.62-.04-.84.17-.24.24-.41.6-.53 1.17-.26 1.31-.19 2.7-.1 4.05z" fill="#000000" fill-opacity="1" data-original-color="#000000ff" stroke="none" stroke-opacity="1"/></g><g><path d="m29.14 57.42c.21-2.77.32-5.84-.42-8.51-1.02-3.67-3.49-6.63-5.67-9.75-1.1-1.56-2.19-3.12-3.29-4.68-.5-.71-1.03-1.44-1.87-1.73-.42-.14-.9-.13-1.29.09-.66.37-.71 1.06-.7 1.7.07 3.3 1.36 6.56 3.57 9.01-2.31-1.39-4.48-2.76-6.31-4.08-1.53-1.11-2.94-2.38-4.16-3.83-1.7-2.03-3.01-4.32-3.31-7.56-.03-.36-.12-.72-.24-1.07-.1-.3-.25-.61-.51-.78-.3-.19-.7-.16-1.03-.03-.7.26-1.23.88-1.51 1.57-.18.43-.27.89-.31 1.36-.05.52-.01 1.04.06 1.55.93 6.72 4.8 11.42 10.21 15.06 4.25 2.96 6.49 6.81 6.41 11.7z" fill="#ffffff" fill-opacity="1" data-original-color="#ffffffff" stroke="none" stroke-opacity="1"/></g><g><path d="m29.14 57.9h-10.39c-.13 0-.25-.05-.34-.14s-.14-.22-.14-.35c.08-4.64-1.95-8.33-6.2-11.29-6.15-4.13-9.56-9.17-10.42-15.4-.09-.62-.11-1.16-.06-1.66.05-.56.16-1.06.35-1.5.36-.88 1.02-1.55 1.79-1.84.54-.2 1.07-.17 1.46.07.4.25.59.68.71 1.03.14.39.22.79.26 1.18.25 2.71 1.24 4.96 3.2 7.3 1.14 1.36 2.51 2.62 4.07 3.75 1.13.82 2.47 1.71 4.14 2.75-1.34-2.18-2.11-4.73-2.17-7.28-.01-.52-.04-1.59.95-2.13.49-.27 1.1-.32 1.68-.12 1.01.34 1.62 1.21 2.11 1.91l3.29 4.68c.36.51.73 1.02 1.09 1.53 1.86 2.57 3.77 5.23 4.65 8.37.75 2.7.66 5.77.44 8.68-.01.27-.22.46-.47.46zm-9.9-.97h9.45c.19-2.69.24-5.48-.44-7.9-.83-2.98-2.62-5.45-4.5-8.07-.37-.51-.74-1.02-1.1-1.54l-3.29-4.68c-.45-.64-.92-1.31-1.63-1.55-.32-.11-.65-.09-.9.05-.39.22-.46.63-.45 1.26.07 3.17 1.33 6.34 3.44 8.7.16.18.16.45.01.63s-.42.23-.62.11c-2.73-1.64-4.74-2.95-6.34-4.1-1.63-1.18-3.06-2.49-4.25-3.91-2.09-2.5-3.15-4.91-3.42-7.83-.03-.32-.1-.64-.21-.95-.07-.2-.17-.44-.32-.53-.13-.08-.36-.08-.61.01-.53.2-.98.67-1.24 1.3-.15.35-.24.75-.28 1.22-.04.42-.02.89.06 1.44.82 5.94 4.09 10.76 10.01 14.73 4.33 3.01 6.56 6.92 6.63 11.61z" fill="#000000" fill-opacity="1" data-original-color="#000000ff" stroke="none" stroke-opacity="1"/></g></g><g><path d="m16.8 57.77v4.86c0 .66.53 1.21 1.19 1.24 3.53.14 8.51.13 12.01-.25.91-.09 1.5-1.15.81-2.1-.45-.62-.53-1.46-.05-2.06.86-1.07.06-2.25-.96-2.18-3.94.29-8.05.16-11.95-.4-.56-.08-1.05.34-1.05.89z" fill="#ffad00" fill-opacity="1" data-original-color="#ffad00ff" stroke="none" stroke-opacity="1"/></g><g><path d="m17.41 56.81c2.19.37 9.58 1.99 11.33 6.92.44-.03.86-.07 1.26-.11.63-.06 1.11-.59 1.11-1.23 0-1.29 0-2.59 0-3.88 0-.71-.61-1.28-1.32-1.23-4.08.3-8.34.14-12.38-.47z" fill="#ffffff" fill-opacity="1" data-original-color="#ffffffff" stroke="none" stroke-opacity="1"/></g><g><path d="m22.29 64.44c-1.59 0-3.09-.03-4.32-.08-.93-.04-1.65-.79-1.65-1.72v-4.86c0-.4.17-.79.48-1.05.31-.27.72-.39 1.12-.33 3.84.55 7.94.69 11.85.4.68-.05 1.32.31 1.64.91.34.65.24 1.41-.27 2.05-.37.46-.24 1.07.06 1.48.43.58.52 1.26.25 1.86-.25.56-.78.94-1.4 1.01-2.3.24-5.15.33-7.76.33zm-4.58-7.09c-.11 0-.2.04-.28.11-.09.08-.14.19-.14.32v4.86c0 .4.32.74.72.76 3.23.13 8.3.14 11.94-.25.27-.03.5-.2.61-.44.12-.28.07-.59-.15-.9-.61-.84-.63-1.91-.03-2.65.26-.33.33-.69.17-.99-.14-.27-.42-.42-.72-.4-3.98.29-8.15.15-12.06-.41-.02-.01-.04-.01-.06-.01z" fill="#000000" fill-opacity="1" data-original-color="#000000ff" stroke="none" stroke-opacity="1"/></g></g></g><g><g><path d="m25.32 21.32c-.05 0-.1-.01-.16-.03l-5.83-2c-.25-.09-.39-.36-.3-.61s.36-.39.61-.3h.01l5.82 1.99c.2.07.33.25.33.46 0 .06-.01.12-.03.18-.08.19-.26.31-.45.31z" fill="#000000" fill-opacity="1" data-original-color="#000000ff" stroke="none" stroke-opacity="1"/></g><g><path d="m38.33 21.79c-.1 0-.19-.03-.28-.09s-.15-.15-.18-.25c-.04-.13-.03-.27.04-.39.06-.11.16-.19.28-.22l6.04-2.22c.25-.09.53.04.62.29s-.04.53-.29.62l-6.07 2.23c-.05.02-.1.03-.16.03z" fill="#000000" fill-opacity="1" data-original-color="#000000ff" stroke="none" stroke-opacity="1"/></g><g><path d="m38.33 21.79c-.01 0-.01 0-.02 0l-13.01-.47c-.16-.01-.3-.09-.39-.22-.07-.11-.1-.25-.06-.38.03-.11.1-.21.19-.28.09-.06.21-.09.31-.08l12.99.47c.17.01.32.1.4.24.04.07.06.16.06.24 0 .13-.05.26-.15.35-.07.08-.19.13-.32.13z" fill="#000000" fill-opacity="1" data-original-color="#000000ff" stroke="none" stroke-opacity="1"/></g><g><path d="m25.32 21.32c-.05 0-.11-.01-.16-.03l-10.91-3.73c-.16-.06-.29-.2-.32-.37s.03-.35.16-.46l8.53-7.34c.08-.07.18-.11.28-.12 5.19-.48 10.9-.36 16.97.35.19.02.35.16.41.34.05.19-.01.39-.16.51l-5.12 4.25c-.09.07-.2.11-.31.11h-7.2c-.37.92-1.49 3.83-1.69 6.04-.01.15-.09.28-.22.36-.08.06-.17.09-.26.09zm-9.96-4.4 9.55 3.27c.33-2.26 1.34-4.87 1.69-5.73l-3.7-4.02zm12.01-3.05h7.14l4.11-3.4c-5.21-.55-10.13-.65-14.66-.3z" fill="#000000" fill-opacity="1" data-original-color="#000000ff" stroke="none" stroke-opacity="1"/></g><g><path d="m38.33 21.79c-.21 0-.4-.14-.46-.34-.64-2.08-3.56-6.79-3.59-6.84-.13-.21-.08-.47.1-.63l5.12-4.24c.16-.13.39-.15.57-.04l10.66 6.74c.16.1.24.28.22.46s-.14.34-.31.4l-12.14 4.46c-.05.02-.11.03-.17.03zm-3.01-7.34c.66 1.07 2.56 4.27 3.31 6.23l10.75-3.95-9.53-6.03z" fill="#000000" fill-opacity="1" data-original-color="#000000ff" stroke="none" stroke-opacity="1"/></g><g><path d="m50.66 17.29-.2-.44-.29.39c-.14-.1-.21-.27-.19-.44s.13-.32.29-.39l.19.44.29-.39c.14.1.21.27.19.44-.01.18-.12.32-.28.39z" fill="#000000" fill-opacity="1" data-original-color="#000000ff" stroke="none" stroke-opacity="1"/></g><g><path d="m38.33 21.79c-.01 0-.01 0-.02 0l-13.01-.47c-.05 0-.1-.01-.15-.03-.2-.08-.33-.28-.31-.5.25-2.8 1.81-6.47 1.88-6.63.08-.18.25-.29.44-.29h7.53c.17 0 .32.09.41.23.12.2 3.02 4.87 3.69 7.07.05.15.02.31-.08.44-.09.11-.23.18-.38.18zm-12.47-1.42 11.77.43c-.8-1.95-2.68-5.09-3.21-5.96h-6.93c-.35.85-1.33 3.4-1.63 5.53z" fill="#000000" fill-opacity="1" data-original-color="#000000ff" stroke="none" stroke-opacity="1"/></g><g><path d="m33.28 42.23c-.07 0-.13-.01-.2-.04-.21-.09-.32-.32-.27-.54 1.85-8.63 3.45-15.14 5.06-20.48.04-.15.15-.26.3-.31l12.13-4.46c.2-.07.41-.01.54.15s.14.39.03.56c-5.08 7.94-10.87 16.32-17.2 24.92-.09.13-.24.2-.39.2zm5.45-20.55c-1.43 4.8-2.87 10.55-4.49 17.95 5.47-7.51 10.52-14.83 15.04-21.83z" fill="#000000" fill-opacity="1" data-original-color="#000000ff" stroke="none" stroke-opacity="1"/></g><g><path d="m33.28 42.23c-.13 0-.26-.05-.36-.16-7.32-7.97-13.51-16.05-18.93-24.72-.11-.17-.1-.4.03-.56s.34-.22.53-.16c.01 0 .03.01.04.02l5.05 1.73 5.83 2c.15.05.26.17.31.31 1.98 6.35 4.58 13.18 7.95 20.86.09.22.02.47-.18.6-.08.05-.17.08-.27.08zm-17.73-24.23c4.72 7.4 10.02 14.38 16.13 21.25-2.79-6.54-5-12.47-6.75-18.04z" fill="#000000" fill-opacity="1" data-original-color="#000000ff" stroke="none" stroke-opacity="1"/></g><g><path d="m50.47 17.33c-.1 0-.21-.03-.29-.1-.14-.11-.21-.28-.19-.46.03-.17.14-.32.31-.38.2-.07.42-.01.55.15s.14.39.03.57c-.07.11-.19.19-.32.21-.04.01-.07.01-.09.01z" fill="#000000" fill-opacity="1" data-original-color="#000000ff" stroke="none" stroke-opacity="1"/></g><g><path d="m44.4 19.56c-.2 0-.38-.12-.45-.32-.09-.25.04-.53.29-.62l6.06-2.23c.15-.06.33-.03.46.07.14.11.21.28.19.46-.03.18-.15.32-.31.38l-6.06 2.23c-.07.02-.12.03-.18.03z" fill="#000000" fill-opacity="1" data-original-color="#000000ff" stroke="none" stroke-opacity="1"/></g><g><path d="m19.49 19.32c-.05 0-.1-.01-.16-.03l-5.08-1.74c-.16-.05-.28-.19-.32-.35s.01-.33.13-.45c.13-.13.32-.18.5-.12l5.08 1.74c.25.09.39.36.3.61-.06.22-.25.34-.45.34z" fill="#000000" fill-opacity="1" data-original-color="#000000ff" stroke="none" stroke-opacity="1"/></g><g><path d="m33.28 42.23c-.19 0-.37-.11-.44-.29-3.38-7.72-6-14.58-7.98-20.96-.05-.15-.02-.31.08-.44.1-.12.24-.2.4-.19l13.01.47c.15.01.29.08.38.2s.11.28.07.42c-1.6 5.31-3.2 11.8-5.04 20.4-.04.21-.21.36-.42.38-.02.01-.04.01-.06.01zm-7.3-20.89c1.83 5.78 4.18 11.97 7.14 18.83 1.65-7.6 3.11-13.5 4.56-18.41z" fill="#000000" fill-opacity="1" data-original-color="#000000ff" stroke="none" stroke-opacity="1"/></g></g><g><g><path d="m10.3 17.42c-.11 0-.23-.04-.32-.12l-3.18-2.83c-.2-.18-.22-.48-.04-.68s.48-.22.68-.04l3.18 2.83c.2.18.22.48.04.68-.1.1-.23.16-.36.16z" fill="#000000" fill-opacity="1" data-original-color="#000000ff" stroke="none" stroke-opacity="1"/></g><g><path d="m18.26 9.63c-.01 0-.01 0-.02 0-.27-.01-.48-.23-.47-.5.01-.24-.15-.49-.29-.66-.1-.12-.2-.23-.31-.34-.14-.15-.28-.3-.41-.47-.35-.46-.57-1-.63-1.58-.03-.27.16-.5.43-.53.26-.03.5.16.53.43.04.4.2.78.44 1.1.11.14.23.27.35.39.12.13.25.26.36.4.35.43.51.87.5 1.3-.01.25-.22.46-.48.46z" fill="#000000" fill-opacity="1" data-original-color="#000000ff" stroke="none" stroke-opacity="1"/></g><g><path d="m31.74 6.04c-.19 0-.37-.11-.45-.3-.48-1.19-.63-2.49-.43-3.76.04-.26.29-.45.55-.4.26.04.44.29.4.55-.17 1.1-.04 2.22.37 3.25.1.25-.02.53-.27.63-.04.02-.11.03-.17.03z" fill="#000000" fill-opacity="1" data-original-color="#000000ff" stroke="none" stroke-opacity="1"/></g><g><path d="m47.92 9.15c-.11 0-.21-.04-.3-.11-.21-.17-.24-.47-.07-.68.76-.93 1.13-2.16 1-3.36-.03-.27.16-.5.43-.53s.5.17.53.43c.15 1.45-.29 2.94-1.21 4.07-.1.12-.24.18-.38.18z" fill="#000000" fill-opacity="1" data-original-color="#000000ff" stroke="none" stroke-opacity="1"/></g><g><path d="m54.85 17.58c-.19 0-.38-.12-.45-.31-.1-.25.03-.53.27-.63 1-.39 1.93-.91 2.79-1.55.21-.16.52-.12.68.1.16.21.12.52-.1.68-.93.69-1.94 1.25-3.02 1.67-.05.03-.11.04-.17.04z" fill="#000000" fill-opacity="1" data-original-color="#000000ff" stroke="none" stroke-opacity="1"/></g></g></g></g></svg>