<svg id="Layer_1" enable-background="new 0 0 66 66" viewBox="0 0 66 66" xmlns="http://www.w3.org/2000/svg" width="300" height="300" version="1.1" xmlns:xlink="http://www.w3.org/1999/xlink" xmlns:svgjs="http://svgjs.dev/svgjs"><g width="100%" height="100%" transform="matrix(1,0,0,1,0,0)"><g><g><g><g><g><g><path d="m54.13 52.19c-.29.6-.66 1.17-1.13 1.68-2.88 3.11-6.99 4.91-11.32 4.7-7.61-.39-13.34-4.38-18.08-10.06-5.63-6.86-10.68-13.37-14.58-19.21-1.9-2.89-3.73-5.91-4.56-9.27-1.37-5.59.39-11.84 4.46-15.9 2.58 5.77 6.98 10.77 13.47 16.21-.63.42-1.37.97-2.19 1.49-1.46.91-2.06 2.71-1.44 4.32 2.42 6.28 7.63 13.39 12.69 16.82 1.92 1.3 4.51.44 5.34-1.73 0-.01.01-.02.01-.03 5 4.94 10.78 8.6 17.33 10.98z" fill="#ffad00" fill-opacity="1" data-original-color="#ffad00ff" stroke="none" stroke-opacity="1"/></g><g><path d="m53.9 52.64c-.25.43-.55.84-.9 1.23-2.88 3.11-6.99 4.91-11.32 4.7-7.61-.39-13.34-4.38-18.08-10.06-5.63-6.86-10.68-13.37-14.58-19.21-1.9-2.89-3.73-5.91-4.56-9.27-1.37-5.59.39-11.84 4.46-15.9-2.8 3.94-3.87 9.12-2.72 13.83.83 3.35 2.66 6.38 4.56 9.27 3.9 5.84 8.95 12.36 14.59 19.21 4.74 5.68 10.47 9.67 18.08 10.06 3.92.19 7.66-1.27 10.47-3.86z" fill="#ffffff" fill-opacity="1" data-original-color="#ffffffff" stroke="none" stroke-opacity="1"/></g><g><path d="m54.13 52.67c-.05 0-.11-.01-.16-.03-6.59-2.39-12.48-6.12-17.49-11.1-.14-.14-.18-.34-.11-.52.63-1.63 1.61-2.69 2.91-3.15 1.81-.65 4.14-.16 7.12 1.51 4.01 2.21 6.72 4.61 8.08 7.13.97 1.81 1.01 3.95.1 5.88-.09.18-.26.28-.45.28zm-16.74-11.59c4.75 4.66 10.3 8.18 16.48 10.49.6-1.54.51-3.19-.25-4.6-1.27-2.36-3.86-4.63-7.7-6.74-2.69-1.5-4.81-1.98-6.32-1.44-.96.34-1.68 1.09-2.21 2.29z" fill="#000000" fill-opacity="1" data-original-color="#000000ff" stroke="none" stroke-opacity="1"/></g><g><path d="m22.39 20.82c-.11 0-.22-.04-.31-.11-6.93-5.82-11.13-10.87-13.6-16.39-.08-.18-.04-.4.1-.54l.09-.08c.04-.04.08-.08.12-.12 1.16-1.36 2.56-2.02 4.15-1.95 3.33.14 7.28 3.42 11.76 9.73.66.93 1.08 1.88 1.25 2.83.47 2.63-.64 4.83-3.29 6.56-.08.05-.18.07-.27.07zm-12.89-16.59c2.39 5.19 6.4 9.99 12.92 15.5 2.11-1.48 2.95-3.24 2.57-5.38-.15-.81-.51-1.63-1.09-2.44-4.24-5.97-8.05-9.2-11.02-9.32-1.28-.06-2.41.49-3.38 1.64.01-.01.01-.01 0 0z" fill="#000000" fill-opacity="1" data-original-color="#000000ff" stroke="none" stroke-opacity="1"/></g><g><path d="m42.39 59.07c-.24 0-.48-.01-.72-.02-6.96-.36-12.99-3.71-18.43-10.23-6.33-7.69-11.11-13.99-14.62-19.25-1.78-2.7-3.75-5.88-4.63-9.42-1.41-5.75.4-12.17 4.59-16.37.11-.11.27-.16.43-.13s.29.13.36.28c2.4 5.37 6.52 10.32 13.34 16.04.12.1.18.25.17.4s-.09.29-.22.38c-.25.17-.52.35-.8.55-.42.29-.89.62-1.39.94-1.25.78-1.78 2.35-1.24 3.73 2.44 6.36 7.71 13.34 12.51 16.59.78.53 1.73.67 2.62.39.92-.29 1.64-.97 2-1.89.01-.01.03-.06.03-.07.07-.14.2-.24.36-.26.15-.03.31.02.42.13 4.91 4.87 10.67 8.53 17.14 10.88.13.05.23.15.28.27.05.13.05.27-.01.39-.32.67-.73 1.27-1.21 1.8-2.9 3.12-6.87 4.87-10.98 4.87zm-33.61-54.1c-3.61 3.96-5.12 9.74-3.85 14.94.84 3.39 2.76 6.48 4.49 9.12 3.49 5.23 8.26 11.5 14.56 19.17 5.25 6.31 11.05 9.54 17.73 9.88 4.08.2 8.07-1.45 10.94-4.54.3-.33.57-.69.8-1.09-6.18-2.32-11.72-5.83-16.49-10.43-.51.88-1.33 1.54-2.32 1.85-1.17.37-2.43.18-3.46-.51-5.03-3.41-10.32-10.42-12.87-17.05-.7-1.81-.01-3.88 1.63-4.9.48-.3.92-.61 1.35-.91.1-.07.2-.14.29-.2-6.37-5.42-10.36-10.19-12.8-15.33z" fill="#000000" fill-opacity="1" data-original-color="#000000ff" stroke="none" stroke-opacity="1"/></g></g><g><path d="m39.11 64.38c-1.23 0-2.5-.09-3.82-.28-3.55-.5-7.01-1.6-10.54-2.78-.31-.1-.62-.21-.95-.33-1.31.54-2.91.54-4.54-.01-2.33-.78-4.21-2.41-5.79-3.88-.22-.21-.44-.42-.66-.62-1.39-1.32-2.84-2.68-4.51-3.6-2.11-1.16-4.39-1.4-6.11-.64-.24.11-.53 0-.64-.25-.11-.24 0-.53.25-.64 2.02-.89 4.56-.65 6.97.68 1.78.98 3.26 2.38 4.7 3.74.22.21.44.42.66.62 1.5 1.4 3.28 2.95 5.43 3.67.65.21 1.73.47 2.86.3-.22-.12-.43-.26-.63-.41-1.05-.78-1.69-1.89-1.71-2.98-.02-1.56 1.35-3.02 2.94-3.12 1.55-.1 3.07 1.07 3.41 2.61.31 1.38-.34 2.92-1.53 3.88.05.02.1.03.15.05 3.62 1.21 6.9 2.25 10.37 2.74 3.93.55 7.44.25 10.43-.9 3.49-1.34 6.19-3.87 7.39-6.93.32-.82.48-1.66.46-2.41-.01-.27.2-.49.47-.5.28-.02.49.2.5.47.02.88-.16 1.85-.53 2.79-1.3 3.32-4.2 6.04-7.94 7.48-2.12.84-4.5 1.25-7.09 1.25zm-15.9-9.55c-.04 0-.08 0-.12 0-1.08.07-2.04 1.09-2.03 2.14.01.79.5 1.62 1.31 2.21.42.31.91.55 1.4.75 1.25-.66 1.99-2.05 1.72-3.25-.22-1.02-1.25-1.85-2.28-1.85z" fill="#000000" fill-opacity="1" data-original-color="#000000ff" stroke="none" stroke-opacity="1"/></g></g><g><g><path d="m30.4 25.69c.26 2.78 2.62 4.9 5.41 4.9h2.66l-1 3.93c3-.06 5.9-1.72 7.48-4.27 4.83.37 9.75.12 14.61-.29 1.18-.1 2.24-.72 3.01-1.62.52-.6.82-1.35.91-2.13.72-6.03.57-11.38.26-17.37-.05-.94-.12-1.92-.57-2.75-.59-1.09-1.84-1.79-3.08-1.72-8.05-.35-16.98-.35-25.05 0-2.9 0-4.47 2.2-4.74 5.09-.49 5.25-.42 10.67.1 16.23z" fill="#296ff9" fill-opacity="1" data-original-color="#8d77e6ff" stroke="none" stroke-opacity="1"/></g><g><path d="m38.47 30.6h2.42l-.89 3.49c-.82.27-1.67.42-2.53.44z" fill="#ffffff" fill-opacity="1" data-original-color="#ffffffff" stroke="none" stroke-opacity="1"/></g><g><path d="m38.23 30.6h-2.42c-2.79 0-5.15-2.12-5.41-4.91-.52-5.56-.59-10.98-.1-16.22.27-2.89 1.84-5.09 4.74-5.09.68-.03 1.37-.06 2.07-.08-2.66.19-4.13 2.41-4.39 5.17-.49 5.24-.43 10.65.1 16.22.26 2.79 2.62 4.91 5.41 4.91z" fill="#ffffff" fill-opacity="1" data-original-color="#ffffffff" stroke="none" stroke-opacity="1"/></g><g><path d="m37.47 35.01c-.15 0-.29-.07-.38-.18-.09-.12-.13-.28-.09-.43l.85-3.32h-2.03c-3.08 0-5.61-2.3-5.89-5.34-.54-5.74-.57-11.23-.1-16.31.32-3.41 2.32-5.53 5.22-5.53 8.07-.35 16.97-.34 25.04 0 1.42-.08 2.83.72 3.51 1.97.49.9.57 1.91.62 2.95.35 6.7.42 11.71-.26 17.45-.1.91-.46 1.74-1.02 2.39-.9 1.04-2.09 1.68-3.34 1.79-4.02.33-9.27.67-14.4.31-1.71 2.57-4.64 4.19-7.73 4.25zm10.05-30.4c-4.22 0-8.44.09-12.46.26-2.42 0-4.01 1.74-4.28 4.65-.47 5.02-.44 10.45.1 16.13.24 2.55 2.36 4.47 4.93 4.47h2.66c.15 0 .29.07.38.19s.12.27.09.42l-.84 3.27c2.58-.26 5.06-1.78 6.43-4 .1-.15.27-.24.45-.23 5.16.39 10.47.05 14.53-.28 1-.09 1.95-.6 2.69-1.46.43-.5.71-1.16.79-1.87.68-5.67.61-10.64.26-17.29-.05-.93-.12-1.82-.51-2.54-.5-.92-1.58-1.52-2.62-1.46-.02 0-.03 0-.05 0-4.04-.17-8.3-.26-12.55-.26z" fill="#000000" fill-opacity="1" data-original-color="#000000ff" stroke="none" stroke-opacity="1"/></g></g></g><g><g><path d="m46.51 17.29c-.03 0-.06 0-.09-.01-.26-.05-.44-.3-.39-.56.28-1.52.48-3.06.59-4.61-.25.28-.54.52-.86.72-.43.27-.84.41-1.24.42-.55.01-1.06-.24-1.34-.65-.29-.45-.26-.99-.24-1.35l.18-3c.02-.27.24-.47.51-.45s.47.25.45.51l-.18 3c-.02.32-.03.59.08.76.09.13.29.21.5.22.22-.01.47-.09.75-.27.79-.5 1.36-1.38 1.48-2.31.03-.25.26-.44.52-.42s.45.23.45.49c-.04 2.38-.28 4.78-.71 7.13-.03.22-.23.38-.46.38z" fill="#000000" fill-opacity="1" data-original-color="#000000ff" stroke="none" stroke-opacity="1"/></g><g><path d="m39.12 17.29c-.89 0-1.81-.17-2.77-.51-.2-.07-.33-.26-.32-.47s.15-.39.35-.45c.84-.24 1.6-.97 1.98-1.91.33-.84.41-1.85.22-2.99-.12-.71-.3-1.21-.59-1.58-.32-.42-.8-.66-1.22-.61-.21.03-.42.15-.56.34-.06.08-.16.25-.13.44.04.26-.14.51-.4.55-.27.04-.51-.14-.55-.4-.06-.4.05-.82.32-1.17.29-.39.75-.66 1.21-.71.77-.1 1.58.28 2.11.98.5.66.68 1.46.77 2.01.22 1.32.13 2.5-.27 3.51-.31.78-.81 1.43-1.42 1.89 1.25.25 2.39.15 3.48-.32.25-.11.53.01.64.26.1.25-.01.53-.26.64-.83.32-1.69.5-2.59.5z" fill="#000000" fill-opacity="1" data-original-color="#000000ff" stroke="none" stroke-opacity="1"/></g></g><g><path d="m41.17 26.57c-.15 0-.3-.07-.39-.2-.16-.22-.11-.52.11-.68 2.71-1.94 5.81-4.32 8.25-7.23 2.56-3.06 4.12-6.41 4.51-9.69.03-.27.27-.46.54-.42.27.03.46.27.42.54-.41 3.47-2.04 7-4.73 10.2-2.51 3-5.67 5.42-8.43 7.4-.08.05-.18.08-.28.08z" fill="#000000" fill-opacity="1" data-original-color="#000000ff" stroke="none" stroke-opacity="1"/></g><g><g><path d="m56.48 25.97c-.06 0-.12-.01-.18-.03-.25-.1-.37-.38-.27-.63.87-2.21 1.64-4.5 2.28-6.79.07-.26.16-.55.13-.8-.02-.18-.11-.35-.22-.4-.09-.04-.25-.03-.39-.03l-3.27.12c-.27.01-.49-.2-.5-.47s.2-.49.47-.5l3.27-.12c.22-.01.51-.02.8.1.45.19.76.65.81 1.2.04.43-.07.83-.16 1.15-.66 2.32-1.43 4.64-2.32 6.88-.07.2-.25.32-.45.32z" fill="#000000" fill-opacity="1" data-original-color="#000000ff" stroke="none" stroke-opacity="1"/></g><g><path d="m59.87 21.63h-4.07c-.27 0-.48-.22-.48-.48s.22-.48.48-.48h4.07c.27 0 .48.22.48.48s-.21.48-.48.48z" fill="#000000" fill-opacity="1" data-original-color="#000000ff" stroke="none" stroke-opacity="1"/></g></g></g><g><g><path d="m53.51 34.2c-.11 0-.22-.04-.31-.11-.21-.17-.23-.48-.06-.68.13-.16.27-.31.41-.45.19-.19.49-.19.68-.01.19.19.19.49.01.68-.12.12-.24.25-.35.39-.11.12-.24.18-.38.18z" fill="#000000" fill-opacity="1" data-original-color="#000000ff" stroke="none" stroke-opacity="1"/></g><g><path d="m50.7 39.27c-.06 0-.12-.01-.18-.03-.25-.1-.37-.38-.28-.63.03-.07.67-1.7 1.61-3.34.13-.23.43-.31.66-.18s.31.43.18.66c-.91 1.57-1.54 3.19-1.55 3.21-.06.19-.24.31-.44.31z" fill="#000000" fill-opacity="1" data-original-color="#000000ff" stroke="none" stroke-opacity="1"/></g><g><path d="m53.98 40.83c-.17 0-.33-.09-.42-.24-.13-.23-.05-.53.18-.66 1.15-.66 2.36-1.26 3.58-1.76.25-.1.53.02.63.27s-.02.53-.27.63c-1.19.48-2.35 1.06-3.47 1.7-.06.04-.14.06-.23.06z" fill="#000000" fill-opacity="1" data-original-color="#000000ff" stroke="none" stroke-opacity="1"/></g><g><path d="m47.67 37.7c-.27 0-.48-.22-.48-.48l-.02-5.09c0-.27.21-.49.48-.49.27 0 .48.22.48.48l.02 5.09c.01.27-.21.49-.48.49z" fill="#000000" fill-opacity="1" data-original-color="#000000ff" stroke="none" stroke-opacity="1"/></g></g></g></g></svg>