<svg id="Layer_1" enable-background="new 0 0 66 66" viewBox="0 0 66 66" xmlns="http://www.w3.org/2000/svg" width="300" height="300" version="1.1" xmlns:xlink="http://www.w3.org/1999/xlink" xmlns:svgjs="http://svgjs.dev/svgjs"><g width="100%" height="100%" transform="matrix(1,0,0,1,0,0)"><g><g><g><g><path d="m47.86 24.74c.49-.13.99-.27 1.49-.25.51.02 1.03.21 1.33.63.26.36.31.83.33 1.27.02.38.02.76-.06 1.13s-.23.73-.49 1.01c-.36.37-.88.54-1.38.69-.83.26-1.66.51-2.5.77z" fill="#2c76f9" fill-opacity="1" data-original-color="#8d77e6ff" stroke="none" stroke-opacity="1"/></g><g><path d="m46.57 30.47c-.12 0-.24-.05-.33-.13-.13-.12-.18-.3-.14-.46l1.28-5.25c.04-.17.17-.3.34-.35.49-.13 1.05-.29 1.64-.27.72.03 1.34.33 1.7.83.33.46.39 1.01.42 1.53.02.37.02.81-.07 1.25-.1.5-.32.93-.62 1.24-.46.47-1.08.66-1.58.82l-2.5.77c-.04.01-.09.02-.14.02zm1.69-5.34-1.02 4.15 1.69-.52c.42-.13.89-.27 1.17-.57.22-.23.32-.54.37-.77.07-.33.06-.68.05-1.02-.02-.44-.07-.78-.24-1.01-.18-.25-.54-.41-.95-.43-.35 0-.71.07-1.07.17z" fill="#000000" fill-opacity="1" data-original-color="#000000ff" stroke="none" stroke-opacity="1"/></g><g><path d="m48.24 30.65c-.23 1.18-1.27 2.02-2.47 2.02h-1.63c.08-.47.13-.95.13-1.44v-9.5h1.3c1.32 0 2.48.93 2.72 2.23.39 2.24.38 4.46-.05 6.69z" fill="#ffffff" fill-opacity="1" data-original-color="#ffffffff" stroke="none" stroke-opacity="1"/></g><g><path d="m6.52 27.85c-.46-.04-.92-.08-1.37.01s-.89.34-1.11.74c-.28.52-.14 1.17.01 1.74.1.36.19.73.37 1.06s.44.63.79.78c.49.21 1.05.08 1.56-.08.74-.23 1.46-.53 2.15-.88z" fill="#2c76f9" fill-opacity="1" data-original-color="#8d77e6ff" stroke="none" stroke-opacity="1"/></g><g><path d="m5.79 32.78c-.25 0-.51-.04-.76-.15-.53-.22-.85-.67-1.02-1-.2-.38-.31-.78-.41-1.16-.18-.7-.33-1.43.03-2.1.27-.49.79-.85 1.43-.98.52-.11 1.04-.06 1.51-.02.14.01.27.09.35.2l2.41 3.38c.08.11.11.26.08.39-.03.14-.12.25-.25.31-.71.37-1.46.68-2.23.92-.36.12-.75.21-1.14.21zm-.02-4.49c-.18 0-.36.01-.52.05-.36.07-.65.26-.78.5-.19.36-.08.86.06 1.39.09.35.18.68.33.96.14.27.33.47.54.56.35.15.82.04 1.23-.09.54-.17 1.06-.37 1.57-.61l-1.95-2.74c-.16-.01-.32-.02-.48-.02z" fill="#000000" fill-opacity="1" data-original-color="#000000ff" stroke="none" stroke-opacity="1"/></g><g><path d="m10.24 23.96c-.65.05-1.32.1-1.94.29-.63.2-1.22.55-1.59 1.1-.34.52-.45 1.16-.49 1.78-.13 1.97.36 4.09 1.78 5.46 1.05 1.02 2.52 1.52 3.97 1.68s2.92-.01 4.38-.17z" fill="#ffffff" fill-opacity="1" data-original-color="#ffffffff" stroke="none" stroke-opacity="1"/></g><g><path d="m13.21 34.82c-.43 0-.86-.02-1.29-.07-1.22-.13-2.95-.55-4.25-1.81-1.38-1.33-2.08-3.46-1.93-5.83.04-.6.14-1.37.57-2.02.49-.75 1.28-1.12 1.84-1.29.68-.21 1.38-.26 2.05-.32.18-.01.35.08.45.23l6.11 10.14c.08.14.09.31.02.46s-.21.25-.38.26c-1.04.13-2.11.25-3.19.25zm-3.23-10.36c-.53.04-1.06.1-1.54.25-.59.19-1.07.51-1.33.91-.3.46-.38 1.07-.41 1.55-.14 2.1.46 3.95 1.64 5.08 1.11 1.07 2.62 1.43 3.69 1.55 1.16.12 2.36.03 3.53-.09z" fill="#000000" fill-opacity="1" data-original-color="#000000ff" stroke="none" stroke-opacity="1"/></g><g><path d="m3.85 63.54c.1-2.15.85-4.26 2.12-6 .73-.99 1.62-1.86 2.58-2.63 2.55-2.04 6.89-4.05 11.9-4.81 4.67 3.41 7.36 2.48 10.8 0 5.39 2.16 9.51 6.38 11.89 13.43z" fill="#ffffff" fill-opacity="1" data-original-color="#ffffffff" stroke="none" stroke-opacity="1"/></g><g><path d="m25.61 52.32c-1.63 1.64-3.5 2.91-5.62 3.77l-1.2-5.68c.55-.11 1.11-.21 1.68-.3 2 1.46 3.64 2.13 5.14 2.21z" fill="#ffffff" fill-opacity="1" data-original-color="#ffffffff" stroke="none" stroke-opacity="1"/></g><g><path d="m32.84 50.82-3.58 5.17c-1.68-1-2.85-2.24-3.65-3.66 1.98.11 3.69-.8 5.65-2.21.54.2 1.06.44 1.58.7z" fill="#ffffff" fill-opacity="1" data-original-color="#ffffffff" stroke="none" stroke-opacity="1"/></g><g><path d="m28.1 55.2-1.31 3.89h-3.34l-1.63-3.88c1.38-.78 2.64-1.74 3.79-2.89.59 1.07 1.41 2.04 2.49 2.88z" fill="#2c76f9" fill-opacity="1" data-original-color="#8d77e6ff" stroke="none" stroke-opacity="1"/></g><g><path d="m26.78 59.09s1.29 3.04 1.74 4.45h-7.87c.75-1.66 1.66-3.15 2.79-4.45z" fill="#2c76f9" fill-opacity="1" data-original-color="#8d77e6ff" stroke="none" stroke-opacity="1"/></g><g><path d="m43.15 64.02h-39.3c-.13 0-.26-.05-.35-.15s-.14-.22-.13-.35c.11-2.23.89-4.46 2.22-6.26.7-.95 1.57-1.84 2.67-2.72 2.97-2.37 7.5-4.21 12.13-4.91.13-.02.25.01.35.09 4.32 3.16 6.74 2.52 10.23 0 .13-.1.31-.12.46-.06 5.86 2.35 9.84 6.84 12.16 13.72.05.15.03.31-.06.43-.08.13-.23.21-.38.21zm-38.78-.96h38.1c-2.22-6.15-5.87-10.22-11.15-12.41-3.56 2.52-6.43 3.23-10.98-.04-5.16.82-9.31 2.94-11.48 4.68-1.03.83-1.85 1.66-2.5 2.54-1.11 1.51-1.81 3.35-1.99 5.23z" fill="#000000" fill-opacity="1" data-original-color="#000000ff" stroke="none" stroke-opacity="1"/></g><g><path d="m19.98 56.57c-.08 0-.15-.02-.22-.06-.13-.07-.22-.19-.24-.32l-1.2-5.68c-.03-.12 0-.25.07-.36s.18-.18.3-.21c.55-.11 1.12-.22 1.7-.31.13-.02.25.01.36.09 1.84 1.35 3.44 2.04 4.89 2.12.19.01.35.13.42.31s.03.38-.11.51c-1.7 1.7-3.64 3.01-5.78 3.88-.06.02-.13.03-.19.03zm-.63-5.79.98 4.64c1.52-.69 2.94-1.61 4.22-2.76-1.3-.28-2.67-.94-4.21-2.05-.33.05-.66.11-.99.17z" fill="#000000" fill-opacity="1" data-original-color="#000000ff" stroke="none" stroke-opacity="1"/></g><g><path d="m29.25 56.46c-.08 0-.17-.02-.25-.07-1.69-1.01-2.94-2.27-3.82-3.84-.08-.15-.08-.34.01-.49s.26-.24.43-.22c1.83.1 3.47-.77 5.35-2.12.13-.1.31-.12.46-.06.55.22 1.09.46 1.62.73.12.06.22.18.25.31s.01.28-.07.39l-3.58 5.17c-.1.13-.25.2-.4.2zm-2.79-3.67c.68.99 1.56 1.83 2.66 2.55l3-4.34c-.26-.12-.53-.24-.8-.35-1.66 1.18-3.18 1.99-4.86 2.14z" fill="#000000" fill-opacity="1" data-original-color="#000000ff" stroke="none" stroke-opacity="1"/></g><g><path d="m26.79 59.57h-3.34c-.19 0-.37-.12-.44-.29l-1.63-3.88c-.09-.23-.01-.49.21-.6 1.32-.74 2.56-1.69 3.69-2.81.11-.11.26-.16.41-.14s.28.11.35.24c.58 1.05 1.38 1.97 2.37 2.73.16.13.23.34.16.53l-1.31 3.89c-.09.19-.27.33-.47.33zm-3.03-.96h2.68l1.1-3.24c-.8-.66-1.49-1.43-2.03-2.28-.96.9-1.99 1.68-3.08 2.33z" fill="#000000" fill-opacity="1" data-original-color="#000000ff" stroke="none" stroke-opacity="1"/></g><g><path d="m28.53 64.02h-7.87c-.16 0-.31-.08-.4-.22s-.1-.31-.03-.46c.79-1.75 1.75-3.29 2.86-4.57.09-.1.22-.17.36-.17h3.34c.19 0 .37.12.44.29.05.13 1.31 3.08 1.76 4.5.05.15.02.31-.07.43-.1.12-.24.2-.39.2zm-7.12-.96h6.44c-.42-1.18-1.11-2.83-1.39-3.49h-2.8c-.84 1-1.6 2.18-2.25 3.49z" fill="#000000" fill-opacity="1" data-original-color="#000000ff" stroke="none" stroke-opacity="1"/></g><g><g><path d="m16.35 14.41c7.26 1.12 14.03.13 20.03-4.11 0 0 2.59 3.4 7.89 4.27v-1.22c-1.05-12.76-19.03-13.95-28.24-6.27-6.13 1.53-8.33 6.95-5.97 16.9 6.38-2.09 6.29-9.57 6.29-9.57z" fill="#2c76f9" fill-opacity="1" data-original-color="#8d77e6ff" stroke="none" stroke-opacity="1"/></g><g><path d="m14.66 7.51c-3.02 3.04-4.07 8.58-2.61 15.53-.58.37-1.24.69-1.99.93-2.17-9.15-.47-14.48 4.6-16.46z" fill="#ffffff" fill-opacity="1" data-original-color="#ffffffff" stroke="none" stroke-opacity="1"/></g><g><path d="m36.38 10.3c-6 4.24-12.77 5.23-20.03 4.11 0 0 .09 7.48-6.28 9.57.64 6.94 1.05 12.03 5.96 16.17 2.37 2 3.97 4.79 4.35 7.86.07.57.1 1.14.1 1.74v.36c4.67 3.41 7.36 2.48 10.8 0 .21-4.33 3.22-7.77 9.46-12.1 2.22-1.54 3.55-4.06 3.55-6.77v-16.67c-5.32-.87-7.91-4.27-7.91-4.27z" fill="#ffad00" fill-opacity="1" data-original-color="#ffad00ff" stroke="none" stroke-opacity="1"/></g><g><path d="m22.66 49.74v1.73c-.69-.34-1.42-.79-2.2-1.36 0-.12 0-.24 0-.36 0-.59-.04-1.17-.1-1.74-.38-3.08-1.98-5.86-4.35-7.86-4.9-4.13-5.32-9.23-5.96-16.16.81-.26 1.51-.62 2.13-1.03l.07 1.03c.64 6.94 1.05 12.03 5.96 16.17 2.37 2 3.97 4.79 4.35 7.86.06.55.1 1.13.1 1.72z" fill="#ffffff" fill-opacity="1" data-original-color="#ffffffff" stroke="none" stroke-opacity="1"/></g><g><path d="m25.91 52.81c-1.69 0-3.51-.69-5.73-2.31-.13-.09-.2-.25-.2-.4 0-.12 0-.23 0-.35 0-.56-.03-1.12-.1-1.68-.36-2.9-1.84-5.58-4.18-7.55-5-4.21-5.49-9.53-6.1-16.26l-.02-.23c-.02-.2.09-.38.26-.47.04-.02.07-.03.11-.04 5.93-1.98 5.91-9.02 5.91-9.09 0-.14.06-.28.16-.37.11-.09.25-.13.39-.11 7.73 1.19 14.16-.13 19.68-4.03.21-.15.5-.1.66.1.02.03 2.56 3.26 7.59 4.09.23.04.4.24.4.47v16.67c0 2.85-1.4 5.53-3.76 7.16-6.46 4.49-9.06 7.78-9.25 11.73-.01.15-.08.28-.2.37-1.96 1.41-3.71 2.3-5.62 2.3zm-4.97-2.95c4.12 2.94 6.51 2.35 9.85-.01.3-4.18 3.03-7.64 9.65-12.24 2.09-1.45 3.34-3.84 3.34-6.37v-16.27c-4.22-.81-6.68-3.14-7.49-4.03-5.52 3.77-11.9 5.09-19.49 4.02-.13 1.79-.96 7.39-6.23 9.34.61 6.69 1.09 11.54 5.75 15.47 2.53 2.13 4.13 5.03 4.51 8.17.07.6.1 1.2.1 1.79.01.05.01.09.01.13z" fill="#000000" fill-opacity="1" data-original-color="#000000ff" stroke="none" stroke-opacity="1"/></g><g><path d="m10.06 24.46c-.11 0-.23-.04-.32-.12-.08-.07-.13-.15-.15-.25-2.35-9.9-.26-15.77 6.21-17.44 5.71-4.71 14.91-6.19 21.44-3.46 4.45 1.87 7.12 5.46 7.5 10.12v1.26c0 .14-.06.27-.17.37-.11.09-.25.13-.39.11-4.47-.73-7.06-3.18-7.9-4.1-5.52 3.77-11.9 5.09-19.49 4.02-.13 1.83-1 7.64-6.59 9.47-.04.01-.09.02-.14.02zm19.88-21.69c-4.86 0-9.98 1.65-13.6 4.68-.06.05-.12.08-.19.1-5.92 1.48-7.8 6.65-5.74 15.8 5.48-2.17 5.46-8.86 5.46-8.93 0-.14.06-.28.16-.37.11-.09.25-.13.39-.11 7.73 1.19 14.16-.13 19.68-4.03.21-.15.5-.1.66.1.02.03 2.37 3.02 7.03 3.98v-.64c-.45-5.45-4.01-8.06-6.91-9.28-2.1-.88-4.49-1.3-6.94-1.3z" fill="#000000" fill-opacity="1" data-original-color="#000000ff" stroke="none" stroke-opacity="1"/></g></g><g><path d="m6.71 25.83c-.23 0-.43-.16-.47-.39-1.44-7.65.48-13.22 5.86-17.02.22-.15.52-.1.67.12s.1.52-.12.67c-5.04 3.56-6.83 8.81-5.47 16.06.05.26-.12.51-.38.56-.03 0-.06 0-.09 0z" fill="#000000" fill-opacity="1" data-original-color="#000000ff" stroke="none" stroke-opacity="1"/></g><g><path d="m47.74 23.26c-.01 0-.02 0-.02 0-.26-.01-.47-.24-.46-.5.4-8.1-4.2-12.8-4.25-12.85-.19-.19-.19-.49 0-.68s.49-.19.68 0c.2.2 4.95 5.03 4.53 13.58-.02.25-.23.45-.48.45z" fill="#000000" fill-opacity="1" data-original-color="#000000ff" stroke="none" stroke-opacity="1"/></g><g><path d="m45.77 33.16h-1.63c-.14 0-.28-.06-.37-.17s-.13-.25-.1-.39c.08-.45.12-.9.12-1.35v-9.5c0-.26.21-.48.48-.48h1.3c1.57 0 2.91 1.1 3.19 2.62.41 2.28.4 4.58-.04 6.86-.28 1.39-1.51 2.41-2.95 2.41zm-1.08-.96h1.08c.98 0 1.82-.69 2-1.64.42-2.16.43-4.34.04-6.5-.19-1.06-1.14-1.84-2.25-1.84h-.82v9.02c.01.32-.01.64-.05.96z" fill="#000000" fill-opacity="1" data-original-color="#000000ff" stroke="none" stroke-opacity="1"/></g><g><path d="m32.93 38c-.23 0-.43-.16-.47-.4-.04-.26.13-.51.39-.55 8.28-1.42 10.96-6.79 10.99-6.84.12-.24.4-.34.64-.22.24.11.34.4.23.64s-2.89 5.86-11.69 7.37c-.04 0-.07 0-.09 0z" fill="#000000" fill-opacity="1" data-original-color="#000000ff" stroke="none" stroke-opacity="1"/></g><g><path d="m26.95 39.87c-.59 0-1.18-.08-1.74-.25-1.24-.37-2.35-1.14-3.12-2.17-.16-.21-.12-.51.09-.67s.51-.12.67.09c.65.87 1.59 1.52 2.63 1.83s2.18.28 3.21-.09c.25-.09.52.04.61.29s-.04.52-.29.61c-.66.24-1.36.36-2.06.36z" fill="#000000" fill-opacity="1" data-original-color="#000000ff" stroke="none" stroke-opacity="1"/></g><g><path d="m26.99 35.54c-.51 0-1-.09-1.45-.18-.26-.05-.43-.3-.38-.56s.3-.43.56-.38c.56.11 1.14.22 1.68.13.51-.08.93-.37 1.08-.73.27-.66-.35-1.46-.54-1.69-.14-.17-.3-.33-.45-.49-.41-.44-.84-.89-1.1-1.48-.3-.69-.32-1.44-.33-2.1l-.07-4.69c0-.26.21-.48.47-.49h.01c.26 0 .48.21.48.47l.07 4.69c.01.6.02 1.22.24 1.73.19.44.55.81.92 1.2.17.17.33.35.49.53.76.9 1.02 1.87.7 2.67-.27.68-.97 1.18-1.82 1.32-.19.04-.38.05-.56.05z" fill="#000000" fill-opacity="1" data-original-color="#000000ff" stroke="none" stroke-opacity="1"/></g><g><g><path d="m35.12 26.08c-.74.53-1.89.32-2.41-.42-.21-.31-.27-.75-.21-1.18.16-1.15 1.46-1.86 2.48-1.3.22.13.4.28.56.5.51.73.32 1.88-.42 2.4z" fill="#000000" fill-opacity="1" data-original-color="#000000ff" stroke="none" stroke-opacity="1"/></g><g><path d="m33.9 38.92c-.74.53-1.89.32-2.41-.42-.21-.31-.27-.75-.21-1.18.16-1.15 1.46-1.86 2.48-1.3.22.13.4.28.56.5.51.73.32 1.88-.42 2.4z" fill="#000000" fill-opacity="1" data-original-color="#000000ff" stroke="none" stroke-opacity="1"/></g><g><path d="m22.51 26.08c-.74.53-1.89.32-2.41-.42-.22-.32-.28-.75-.22-1.18.16-1.15 1.46-1.86 2.48-1.3.22.12.4.28.55.49.54.75.34 1.89-.4 2.41z" fill="#000000" fill-opacity="1" data-original-color="#000000ff" stroke="none" stroke-opacity="1"/></g><g><path d="m30.56 21.82c-.2 0-.38-.12-.45-.32-.09-.25.04-.52.29-.61 2.35-.84 4.91-1.17 7.39-.95.26.02.46.26.43.52-.02.26-.26.46-.52.43-2.35-.21-4.76.1-6.98.9-.06.02-.11.03-.16.03z" fill="#000000" fill-opacity="1" data-original-color="#000000ff" stroke="none" stroke-opacity="1"/></g><g><path d="m16.35 22.03c-.2 0-.38-.12-.45-.32-.09-.25.04-.52.29-.61 2.35-.84 4.91-1.17 7.39-.95.26.02.46.26.43.52-.02.26-.26.46-.52.43-2.35-.21-4.76.1-6.98.9-.05.02-.1.03-.16.03z" fill="#000000" fill-opacity="1" data-original-color="#000000ff" stroke="none" stroke-opacity="1"/></g></g></g><g><g><g><g><g><path d="m62.14 60.68c.01.72-.01 1.5-.47 2.05-.55.65-1.5.73-2.34.77-7.33.27-9.71.26-17.03.01-.51-.02-1.08-.06-1.43-.43-.33-.35-.36-.89-.36-1.39-.04-3.62.05-9.15.06-13.76 0-.41 0-.82 0-1.2 0-1.04.84-1.89 1.88-1.9 2.14-.02 3.41-.03 4.53-.03 3.38.01 3.89.03 7.27.03 1.87 0 3.74.01 5.61.01.66 0 1.4.04 1.82.54.33.39.35.96.35 1.47 0 .37.01.75.01 1.12.03 4.44.07 8.28.1 12.71z" fill="#ffad00" fill-opacity="1" data-original-color="#ffad00ff" stroke="none" stroke-opacity="1"/></g></g><g><g><path d="m53.93 49.75c.01.21.01.46-.12.64-.09.12-.32.19-.46.2-.65.03-1.31-1.89-1.96-1.9-.54-.01-1.03 1.91-1.74 1.92-.23 0-.36.01-.55-.13-.25-.19-.26-.56-.25-.88l-.07-4.79c1.84.01 2.72.02 5.15.03z" fill="#2c76f9" fill-opacity="1" data-original-color="#8d77e6ff" stroke="none" stroke-opacity="1"/></g></g><g><g><path d="m46.66 44.81c-.53.01-1.13.01-1.82.02-1.04.01-1.88.86-1.88 1.9v1.2c-.01 4.62-.1 10.14-.06 13.76.01.49.03 1.03.36 1.39.25.26.6.42.97.5-.61-.02-1.25-.04-1.93-.06-.51-.02-1.08-.06-1.43-.43-.33-.36-.36-.9-.36-1.39-.04-3.62.04-9.15.06-13.76 0-.41 0-.81 0-1.2 0-1.04.84-1.89 1.88-1.9 1.94-.02 3.16-.03 4.21-.03z" fill="#ffffff" fill-opacity="1" data-original-color="#ffffffff" stroke="none" stroke-opacity="1"/></g><g><path d="m52.69 63.69c-1.05.01-2.05.01-3.09.01 1.11-.01 2.11-.02 3.09-.01z" fill="#ffffff" fill-opacity="1" data-original-color="#ffffffff" stroke="none" stroke-opacity="1"/></g></g><g><g><path d="m50.75 64.18c-2.47 0-4.87-.07-8.47-.19-.47-.01-1.25-.04-1.76-.58-.45-.47-.49-1.1-.49-1.71-.03-2.26 0-5.19.02-8.3.02-1.85.03-3.72.04-5.46v-1.2c0-1.3 1.06-2.37 2.36-2.38l1.06-.01c1.53-.01 2.56-.02 3.47-.02 1.69 0 2.66.01 3.63.02s1.95.01 3.64.02l5.61.01c.77 0 1.64.06 2.19.71.45.55.46 1.29.47 1.78l.05 5.79c.02 2.64.05 5.22.07 8.03.01.66.02 1.64-.58 2.36-.67.8-1.74.9-2.69.94-3.74.13-6.21.19-8.62.19zm-4.06-18.89c-.85 0-1.81.01-3.19.02l-1.06.01c-.78.01-1.41.64-1.41 1.42v1.2c0 1.74-.02 3.62-.04 5.47-.03 3.1-.05 6.04-.02 8.28 0 .43.02.84.23 1.06.22.23.66.26 1.09.28 7.08.24 9.5.26 17-.01.75-.03 1.58-.1 1.99-.6.35-.41.37-1.06.36-1.74-.02-2.81-.05-5.39-.07-8.03l-.05-5.79c0-.48-.03-.91-.24-1.17-.28-.33-.9-.37-1.45-.37l-5.61-.01c-1.7 0-2.67-.01-3.65-.02-.97-.01-1.94-.01-3.62-.02-.07.02-.16.02-.26.02z" fill="#000000" fill-opacity="1" data-original-color="#000000ff" stroke="none" stroke-opacity="1"/></g></g></g><g><path d="m42.9 62.24c-.03 0-.06 0-.09-.01-.26-.05-.43-.3-.38-.56.21-1.05.1-2.15-.31-3.17-.1-.25.02-.53.27-.62.25-.1.53.02.62.27.48 1.19.6 2.48.36 3.71-.04.22-.24.38-.47.38z" fill="#000000" fill-opacity="1" data-original-color="#000000ff" stroke="none" stroke-opacity="1"/></g><g><path d="m44.89 62.23c-.03 0-.06 0-.09-.01-.26-.05-.43-.3-.39-.56.18-.97.22-1.96.13-2.94-.02-.26.17-.5.43-.52.27-.02.5.17.52.43.1 1.07.05 2.14-.15 3.2-.02.24-.22.4-.45.4z" fill="#000000" fill-opacity="1" data-original-color="#000000ff" stroke="none" stroke-opacity="1"/></g><g><path d="m47.11 62.22c-.01 0-.01 0-.02 0-.26-.01-.47-.23-.46-.5l.13-3.1c.01-.26.24-.47.5-.46s.47.23.46.5l-.13 3.1c-.01.25-.22.46-.48.46z" fill="#000000" fill-opacity="1" data-original-color="#000000ff" stroke="none" stroke-opacity="1"/></g><g><path d="m49.35 62.2c-.03 0-.05 0-.08-.01-.26-.04-.44-.29-.39-.55.16-.97.13-1.95-.09-2.91-.06-.26.1-.52.36-.58s.52.1.58.36c.25 1.09.29 2.19.11 3.29-.05.24-.26.4-.49.4z" fill="#000000" fill-opacity="1" data-original-color="#000000ff" stroke="none" stroke-opacity="1"/></g></g><g><g><g><path d="m49.58 51.09c-.24 0-.49-.02-.77-.23-.47-.36-.45-.98-.44-1.28l-.07-4.77c0-.13.05-.25.14-.35.09-.09.2-.14.34-.14l1.5.01c1.03.01 1.97.01 3.65.02.26 0 .48.21.48.48l.01 4.9c.01.22.02.62-.21.93-.21.29-.63.39-.82.4-.61.03-1.02-.57-1.42-1.16-.15-.22-.39-.57-.54-.7-.11.13-.26.39-.37.58-.35.61-.74 1.29-1.4 1.3-.03.01-.05.01-.08.01zm-.32-5.8.07 4.3c-.01.39.03.48.06.5.05.03.05.04.23.03.16-.05.45-.55.6-.81.33-.57.63-1.1 1.16-1.1h.01c.57.01.95.57 1.36 1.15.18.26.48.69.62.75-.01 0 .03-.02.07-.03.01-.04.02-.13.02-.32 0-.01 0-.01 0-.02l-.01-4.44c-1.39 0-2.25-.01-3.17-.02z" fill="#000000" fill-opacity="1" data-original-color="#000000ff" stroke="none" stroke-opacity="1"/></g></g></g></g></g><g><g><path d="m57.68 19.43c-.17 0-.33-.09-.42-.24-.13-.23-.05-.52.17-.66.18-.1.35-.2.53-.28.24-.11.53-.01.64.23s.01.53-.23.64c-.15.07-.31.15-.46.24-.06.05-.15.07-.23.07z" fill="#000000" fill-opacity="1" data-original-color="#000000ff" stroke="none" stroke-opacity="1"/></g><g><path d="m53.37 23.19c-.11 0-.22-.04-.32-.12-.2-.17-.22-.48-.05-.68.05-.06 1.19-1.36 2.62-2.56.2-.17.51-.14.68.06s.14.51-.06.68c-1.37 1.15-2.51 2.44-2.52 2.45-.09.12-.22.17-.35.17z" fill="#000000" fill-opacity="1" data-original-color="#000000ff" stroke="none" stroke-opacity="1"/></g><g><path d="m55.91 25.79c-.23 0-.43-.16-.47-.4-.04-.26.13-.51.39-.55 1.3-.22 2.62-.36 3.94-.4h.02c.26 0 .47.2.48.46s-.2.49-.46.49c-1.27.04-2.55.17-3.8.39-.05 0-.07.01-.1.01z" fill="#000000" fill-opacity="1" data-original-color="#000000ff" stroke="none" stroke-opacity="1"/></g><g><path d="m51.06 20.68c-.05 0-.11-.01-.16-.03-.25-.09-.38-.36-.29-.61l1.68-4.76c.09-.25.36-.38.61-.29s.38.36.29.61l-1.68 4.76c-.07.2-.25.32-.45.32z" fill="#000000" fill-opacity="1" data-original-color="#000000ff" stroke="none" stroke-opacity="1"/></g></g></g></g></svg>