<svg id="Layer_1" enable-background="new 0 0 66 66" viewBox="0 0 66 66" xmlns="http://www.w3.org/2000/svg" width="300" height="300" version="1.1" xmlns:xlink="http://www.w3.org/1999/xlink" xmlns:svgjs="http://svgjs.dev/svgjs"><g width="100%" height="100%" transform="matrix(1,0,0,1,0,0)"><g><g><g><path d="m55.53 45.25-10.35 13.08-4.85-3.59c-1.27-1.35-3.2-1.89-5.05-1.87s-13 2.9-15 3.18c-1.24.17-2.5.16-3.73-.05-.86-.14-1.73-.39-2.45-.89s-1.28-1.29-1.35-2.17c-.06-.88.4-2.01 1.25-2.27h-2.04c-1.09 0-2.19-.11-3.24-.41-2.37-.66-3.11-1.7-3.35-2.12-.38-.67-.78-1.42-.22-2.24.24-.35.62-.59 1.03-.7.57-.16 1.25-.32 1.85-.21-1.47-.42-2.76-1.45-3.41-2.83-.1-.21-.19-.43-.22-.65-.1-.69.29-1.38.85-1.79.57-.41 1.27-.56 1.97-.6.69-.04 1.44-.08 2.14-.1-1.68-.43-3.15-1.58-4-3.09-.39-.71-.65-1.57-.36-2.33.3-.77 1.11-1.24 1.93-1.36.81-.13 1.65.04 2.45.22 4.22.93 8.37 2.1 12.45 3.51 1.16.4 2.32.82 3.53 1.02 6.89 1.04 10.91-2.41 11.15-11.73.05-.99.01-2 .19-2.97.04-.22.1-.43.16-.65.46-1.48 2.01-2.41 3.53-2.1 1.53.32 2.39 1.82 2.48 4.69.05.75.07 1.5.09 2.25.06 1.89.2 3.78.38 5.66.16 1.68.96 3.24 2.23 4.35z" fill="#ffffff" fill-opacity="1" data-original-color="#ffffffff" stroke="none" stroke-opacity="1"/></g><g><path d="m45.18 58.81c-.1 0-.2-.03-.29-.09l-4.85-3.59c-.02-.02-.04-.04-.06-.06-1.05-1.12-2.75-1.74-4.7-1.72-1.05.01-5.56 1.07-9.18 1.91-2.64.62-4.92 1.15-5.76 1.26-1.28.18-2.58.16-3.87-.05-1.12-.19-1.96-.5-2.65-.97-.91-.63-1.49-1.57-1.55-2.53-.04-.6.11-1.28.44-1.82h-.75c-1.23 0-2.36-.14-3.37-.43-2.26-.63-3.22-1.63-3.64-2.35-.38-.66-.95-1.66-.2-2.75.29-.42.75-.74 1.29-.89.06-.02.11-.03.17-.05-.89-.59-1.61-1.39-2.05-2.32-.14-.29-.23-.55-.26-.79-.12-.81.29-1.7 1.05-2.24.57-.41 1.29-.64 2.22-.69.03 0 .07 0 .1-.01-.97-.62-1.8-1.47-2.35-2.47-.56-1.01-.69-1.96-.38-2.74.33-.87 1.22-1.51 2.31-1.67.88-.14 1.74.03 2.62.23 4.23.93 8.44 2.12 12.5 3.53l.14.05c1.08.38 2.19.77 3.31.95 3.08.47 5.52-.02 7.22-1.45 2.11-1.77 3.24-5.07 3.37-9.81.02-.31.02-.6.03-.9.02-.7.04-1.43.17-2.15.05-.24.11-.48.18-.7.54-1.72 2.34-2.79 4.09-2.43 1.8.38 2.77 2.11 2.87 5.14.06.75.07 1.52.09 2.25.05 1.71.18 3.55.38 5.62.15 1.56.88 3 2.07 4.04l9.98 8.77c.19.17.22.46.06.66l-10.37 13.08c-.1.12-.24.18-.38.18zm-4.53-4.44 4.44 3.29 9.78-12.35-9.63-8.47c-1.37-1.21-2.23-2.86-2.39-4.67-.2-2.1-.33-3.96-.38-5.69-.02-.73-.04-1.48-.09-2.23-.09-2.59-.77-3.97-2.1-4.25-1.27-.26-2.57.51-2.97 1.77-.06.19-.11.39-.15.59-.12.64-.13 1.3-.15 1.99-.01.31-.02.61-.03.91-.13 5.02-1.38 8.56-3.71 10.51-1.93 1.62-4.62 2.18-8 1.66-1.21-.2-2.36-.6-3.48-.99l-.14-.05c-4.03-1.39-8.2-2.57-12.39-3.49-.79-.18-1.55-.33-2.27-.22-.74.11-1.35.52-1.55 1.06-.25.65.04 1.4.33 1.93.78 1.39 2.16 2.46 3.7 2.86.23.06.38.28.36.52-.03.24-.22.42-.46.43-.69.02-1.43.06-2.12.1-.74.05-1.3.21-1.71.51-.46.33-.72.86-.66 1.32.02.15.07.31.17.51.58 1.22 1.74 2.19 3.11 2.58.25.07.4.33.34.58s-.31.41-.56.36c-.49-.09-1.09.05-1.62.2-.33.09-.6.27-.76.51-.37.55-.15 1.04.25 1.73.46.8 1.54 1.47 3.06 1.9.93.26 1.98.39 3.11.39h2.02c.24 0 .44.18.48.41.03.24-.11.46-.34.53-.58.17-.95 1.08-.91 1.77.05.67.47 1.34 1.14 1.8.57.39 1.28.65 2.26.81 1.19.2 2.39.21 3.58.05.79-.11 3.16-.66 5.67-1.25 4.05-.94 8.24-1.92 9.39-1.94 2.18.01 4.14.73 5.38 2.02z" fill="#000000" fill-opacity="1" data-original-color="#000000ff" stroke="none" stroke-opacity="1"/></g><g><path d="m14.53 51.15c-.18 0-.36 0-.53 0-.27 0-.48-.22-.48-.49s.21-.47.49-.48c3.88.03 7.59-.21 11.05-.69.26-.04.51.15.54.41.04.26-.15.51-.41.54-3.35.48-6.94.71-10.66.71z" fill="#000000" fill-opacity="1" data-original-color="#000000ff" stroke="none" stroke-opacity="1"/></g><g><path d="m23.58 47.07c-6.09 0-11.36-.54-15.68-1.61-.26-.06-.42-.33-.35-.58.06-.26.33-.42.58-.35 4.38 1.08 9.78 1.61 16.05 1.58.27 0 .48.21.48.48s-.21.48-.48.49c-.2-.01-.4-.01-.6-.01z" fill="#000000" fill-opacity="1" data-original-color="#000000ff" stroke="none" stroke-opacity="1"/></g><g><path d="m23.95 43.28c-.03 0-.06 0-.1-.01-5.04-1.03-9.83-2.27-14.67-3.79-.25-.08-.4-.35-.32-.61.08-.25.35-.39.61-.32 4.8 1.51 9.57 2.74 14.57 3.76.26.05.43.31.38.57-.04.24-.24.4-.47.4z" fill="#000000" fill-opacity="1" data-original-color="#000000ff" stroke="none" stroke-opacity="1"/></g><g><g><path d="m61.29 48.95c-3.06 4.42-7.65 10.44-11.31 14.33-.72.78-1.96.82-2.73.03-1.29-1.32-2.91-2.26-4.42-3.3-.93-.64-1.09-1.94-.35-2.78 3.88-4.42 7.41-9.4 10.29-14.54.51-.91 1.71-1.15 2.54-.52l5.57 4.21c.81.6.99 1.74.41 2.57z" fill="#296ff9" fill-opacity="1" data-original-color="#8d77e6ff" stroke="none" stroke-opacity="1"/></g><g><path d="m51.58 61.51c-.55.63-1.08 1.22-1.6 1.77-.73.78-1.96.82-2.73.03-1.29-1.32-2.91-2.25-4.42-3.3-.93-.64-1.09-1.94-.35-2.78.45-.51.9-1.03 1.34-1.56-.28.83.08 1.86.83 2.37 1.52 1.05 3.14 1.98 4.43 3.3.69.72 1.77.76 2.5.17z" fill="#ffffff" fill-opacity="1" data-original-color="#ffffffff" stroke="none" stroke-opacity="1"/></g><g><path d="m48.61 64.37c-.64 0-1.25-.26-1.7-.72-.95-.98-2.14-1.76-3.28-2.52-.36-.24-.72-.48-1.07-.72-.56-.38-.92-.99-1-1.66s.12-1.34.57-1.84c3.85-4.38 7.39-9.38 10.23-14.46.31-.55.84-.95 1.47-1.08s1.28.02 1.79.4l5.57 4.21c1.02.77 1.25 2.2.52 3.24-2.8 4.04-7.46 10.24-11.35 14.39-.44.47-1.06.75-1.71.75-.02.01-.03.01-.04.01zm5.66-22.08c-.08 0-.17.01-.26.03-.35.07-.65.29-.82.6-2.87 5.14-6.45 10.19-10.35 14.63-.26.3-.38.69-.33 1.08.05.4.26.75.59.98.35.24.7.48 1.06.71 1.19.79 2.41 1.6 3.44 2.65.28.28.62.43 1.03.43.39 0 .75-.16 1.01-.45 3.85-4.11 8.48-10.26 11.26-14.28.43-.62.3-1.46-.31-1.92l-5.57-4.21c-.22-.16-.48-.25-.75-.25z" fill="#000000" fill-opacity="1" data-original-color="#000000ff" stroke="none" stroke-opacity="1"/></g></g></g><g><g><g><g><g><g><path d="m33.89 19.15c0 6.88-5.57 12.45-12.45 12.45s-12.45-5.58-12.45-12.45c0-6.88 5.6-11.89 12.45-12.45 6.93-.58 12.45 4.88 12.45 12.45z" fill="#ffad00" fill-opacity="1" data-original-color="#ffad00ff" stroke="none" stroke-opacity="1"/></g></g><g><g><path d="m10.86 19.14c0 6.56 5.07 11.94 11.51 12.42-.31.02-.63.04-.94.04-6.88 0-12.45-5.58-12.45-12.46 0-6.87 5.6-11.89 12.45-12.45.65-.06 1.29-.06 1.92 0-.01 0-.02 0-.04 0-6.85.57-12.45 5.58-12.45 12.45z" fill="#ffffff" fill-opacity="1" data-original-color="#ffffffff" stroke="none" stroke-opacity="1"/></g></g><g><g><path d="m29.69 19.14c0 4.56-3.7 8.26-8.26 8.26s-8.26-3.7-8.26-8.26 3.71-7.88 8.26-8.26c4.6-.38 8.26 3.24 8.26 8.26z" fill="#ffffff" fill-opacity="1" data-original-color="#ffffffff" stroke="none" stroke-opacity="1"/></g></g><g><g><path d="m21.44 32.08c-7.13 0-12.94-5.8-12.94-12.94 0-6.88 5.42-12.32 12.9-12.93 3.31-.27 6.47.79 8.87 2.99 2.65 2.44 4.11 5.97 4.11 9.94-.01 7.14-5.81 12.94-12.94 12.94zm.98-24.95c-.31 0-.63.01-.95.04-6.95.58-12.01 5.61-12.01 11.98 0 6.6 5.37 11.97 11.97 11.97s11.97-5.37 11.97-11.97c0-3.7-1.35-6.98-3.79-9.23-1.96-1.82-4.49-2.79-7.19-2.79z" fill="#000000" fill-opacity="1" data-original-color="#000000ff" stroke="none" stroke-opacity="1"/></g></g><g><g><path d="m21.44 27.88c-4.82 0-8.74-3.92-8.74-8.74 0-4.65 3.66-8.32 8.7-8.74 2.25-.19 4.38.53 6 2.03 1.79 1.65 2.77 4.03 2.77 6.71 0 4.82-3.92 8.74-8.73 8.74zm.65-16.54c-.2 0-.41.01-.61.03-4.53.37-7.81 3.64-7.81 7.78 0 4.29 3.49 7.77 7.77 7.77s7.77-3.49 7.77-7.77c0-2.41-.87-4.54-2.46-6-1.28-1.18-2.91-1.81-4.66-1.81z" fill="#000000" fill-opacity="1" data-original-color="#000000ff" stroke="none" stroke-opacity="1"/></g></g></g></g></g><g><g><path d="m21.51 22.96c-.13 0-.27 0-.41-.01-1.36-.09-2.43-.66-2.94-1.55-.13-.23-.05-.53.18-.66s.53-.05.66.18c.5.86 1.68 1.04 2.17 1.07.63.04 1.17-.03 1.61-.22.48-.21.85-.6.98-1.02.13-.43-.01-.92-.33-1.15-.36-.26-.89-.22-1.28-.13-.21.04-.41.1-.61.16-.36.1-.73.21-1.12.25-.85.09-1.59-.2-1.99-.77-.5-.71-.31-1.6.03-2.2.51-.91 1.39-1.43 2.03-1.71.78-.33 1.61-.49 2.4-.64.26-.05.51.12.56.39.05.26-.12.51-.39.56-.74.14-1.51.28-2.2.57-.51.22-1.19.61-1.57 1.29-.2.36-.3.86-.08 1.18.23.33.73.4 1.1.36.31-.03.62-.12.95-.22.22-.06.45-.13.67-.18.83-.18 1.54-.08 2.05.29.65.47.94 1.38.69 2.21-.21.69-.77 1.3-1.51 1.62-.47.22-1.02.33-1.65.33z" fill="#000000" fill-opacity="1" data-original-color="#000000ff" stroke="none" stroke-opacity="1"/></g><g><path d="m20.36 16.26c-.19 0-.37-.11-.45-.3l-.67-1.62c-.1-.25.02-.53.26-.63.25-.1.53.02.63.26l.67 1.62c.1.25-.02.53-.26.63-.06.03-.12.04-.18.04z" fill="#000000" fill-opacity="1" data-original-color="#000000ff" stroke="none" stroke-opacity="1"/></g><g><path d="m21.92 24.26c-.27 0-.48-.22-.48-.48v-1.32c0-.27.22-.48.48-.48.27 0 .48.22.48.48v1.32c0 .27-.22.48-.48.48z" fill="#000000" fill-opacity="1" data-original-color="#000000ff" stroke="none" stroke-opacity="1"/></g></g></g><g><g><g><path d="m35.71 8.41c-.14 0-.27-.06-.37-.17-4.62-5.5-16.06-7.97-23.89-2.9-.22.14-.52.08-.67-.14-.14-.22-.08-.52.14-.67 8.23-5.33 20.28-2.71 25.15 3.09.17.2.15.51-.06.68-.08.07-.19.11-.3.11z" fill="#000000" fill-opacity="1" data-original-color="#000000ff" stroke="none" stroke-opacity="1"/></g></g><g><path d="m12.24 6.39c-.38.93-3.37 1.43-3.95.62s.86-3.6 1.86-3.55c.9.06 2.43 2.1 2.09 2.93z" fill="#296ff9" fill-opacity="1" data-original-color="#8d77e6ff" stroke="none" stroke-opacity="1"/></g><g><path d="m9.58 7.9c-.58 0-1.32-.11-1.68-.61-.47-.65-.13-1.83.36-2.71.27-.5 1.02-1.65 1.92-1.6.73.04 1.56.86 2.07 1.65.28.44.71 1.29.45 1.94-.31.77-1.55 1.18-2.52 1.29-.16.02-.37.04-.6.04zm.54-3.95c-.15 0-.59.32-1.01 1.1-.46.82-.54 1.52-.43 1.68.09.13.59.27 1.38.18.98-.12 1.65-.49 1.74-.7.05-.11-.01-.5-.37-1.06-.48-.75-1.08-1.19-1.31-1.2z" fill="#000000" fill-opacity="1" data-original-color="#000000ff" stroke="none" stroke-opacity="1"/></g></g><g><g><path d="m53.86 28.91c-.06 0-.12-.01-.17-.03-.25-.1-.37-.37-.28-.62.07-.17.12-.34.17-.5.07-.26.34-.41.59-.33.26.07.41.34.33.59-.05.19-.12.39-.2.59-.07.18-.25.3-.44.3z" fill="#000000" fill-opacity="1" data-original-color="#000000ff" stroke="none" stroke-opacity="1"/></g><g><path d="m51.17 33.27c-.11 0-.22-.04-.31-.11-.21-.17-.24-.47-.07-.68.01-.01 1.17-1.43 2.02-2.97.13-.23.42-.32.66-.19.23.13.32.42.19.66-.9 1.62-2.07 3.06-2.12 3.12-.1.11-.23.17-.37.17z" fill="#000000" fill-opacity="1" data-original-color="#000000ff" stroke="none" stroke-opacity="1"/></g><g><path d="m48.42 31.41c-.27 0-.48-.21-.48-.48 0-1.15-.09-2.3-.25-3.44-.04-.26.14-.51.41-.55.26-.04.51.14.55.41.17 1.18.26 2.38.27 3.57-.02.28-.23.49-.5.49z" fill="#000000" fill-opacity="1" data-original-color="#000000ff" stroke="none" stroke-opacity="1"/></g><g><path d="m53.8 34.93c-.17 0-.33-.09-.42-.25-.13-.23-.05-.53.19-.66l4.04-2.24c.23-.13.53-.05.66.19.13.23.05.53-.19.66l-4.04 2.24c-.08.04-.16.06-.24.06z" fill="#000000" fill-opacity="1" data-original-color="#000000ff" stroke="none" stroke-opacity="1"/></g></g></g></g></svg>