<svg id="Layer_1" enable-background="new 0 0 66 66" viewBox="0 0 66 66" xmlns="http://www.w3.org/2000/svg" width="300" height="300" version="1.1" xmlns:xlink="http://www.w3.org/1999/xlink" xmlns:svgjs="http://svgjs.dev/svgjs"><g width="100%" height="100%" transform="matrix(1,0,0,1,0,0)"><g><g><g><g><g><g><path d="m45.41 57.26c-.41 0-.8-.01-1.14-.01-4.23-.09-9.25-.08-14.11-.08-4.86.01-9.89.01-14.13-.08-2.18-.05-4.25-.21-5.74-1.58-1.69-1.56-1.86-3.99-1.9-6.34-.1-7.47-.12-17.2-.13-25.78-.01-6.96-.02-13.54-.08-17.69-.03-2.16 1.71-3.96 3.87-4 12.77-.26 26.81-.26 37.56-.02 2.17.05 3.87 1.79 3.87 3.95v46.21c0 1.1-.34 2.16-.98 3.05-.78 1.09-1.91 1.82-3.19 2.07-1.26.24-2.69.3-3.9.3zm-11.8-1.07c3.74 0 7.44.01 10.68.08 1.32.03 3.25.04 4.84-.27 1.03-.2 1.95-.79 2.58-1.68.52-.73.8-1.59.8-2.49v-46.2c0-1.63-1.28-2.94-2.92-2.98-10.74-.25-24.77-.24-37.52.02-1.63.03-2.94 1.38-2.92 3.01.06 4.16.06 10.74.07 17.7.01 8.58.02 18.3.13 25.77.03 2.14.18 4.34 1.59 5.64 1.24 1.14 3.12 1.28 5.11 1.32 4.23.09 9.25.08 14.11.08z" fill="#000000" fill-opacity="1" data-original-color="#000000ff" stroke="none" stroke-opacity="1"/></g></g></g></g></g><g><g><g><g><path d="m52.99 31.31c4.34.24 5.58 2.67 7.92 6.33s2.79 8.46 1.19 12.49c-.66 1.65-1.62 3.16-2.22 4.83-.99 2.75-.9 6.37.25 9.06h-11.01c1.23-2.31 1.05-5.19.03-7.6s-2.81-4.42-4.73-6.2c-1.36-1.26-2.82-2.45-3.95-3.93-.67-.88-1.23-2.01-.9-3.07.34-1.07 1.53-1.69 2.65-1.67s2.17.56 3.09 1.18c1.67 1.13 3.1 2.59 4.2 4.28.36.56.7 1.16 1.23 1.55.54.39 1.24.51 1.74.08.51-.45.58-1.25.51-1.93z" fill="#ffad00" fill-opacity="1" data-original-color="#ffad00ff" stroke="none" stroke-opacity="1"/></g><g><path d="m51.54 64.01h-2.42c1.23-2.31 1.05-5.19.03-7.6s-2.81-4.42-4.73-6.2c-1.36-1.26-2.82-2.45-3.94-3.93-.67-.88-1.24-2.01-.9-3.07.33-1.07 1.53-1.69 2.65-1.67.42.01.83.09 1.23.22-.67.27-1.24.77-1.45 1.45-.33 1.06.23 2.19.9 3.07 1.12 1.48 2.58 2.66 3.94 3.93 1.92 1.78 3.71 3.79 4.73 6.2 1.01 2.41 1.19 5.29-.04 7.6z" fill="#ffffff" fill-opacity="1" data-original-color="#ffffffff" stroke="none" stroke-opacity="1"/></g><g><path d="m60.12 64.5c-.19 0-.37-.11-.45-.29-1.18-2.77-1.28-6.55-.26-9.41.33-.93.78-1.81 1.21-2.67.36-.71.73-1.44 1.02-2.18 1.55-3.9 1.11-8.52-1.15-12.05l-.45-.71c-1.95-3.09-3.17-5-6.57-5.36v14.86c.1 1.03-.13 1.83-.68 2.32-.62.55-1.56.53-2.35-.05-.54-.4-.89-.94-1.22-1.46l-.14-.21c-1.05-1.63-2.46-3.06-4.06-4.15-1.09-.74-1.99-1.09-2.83-1.1-.85-.02-1.9.45-2.18 1.34-.28.9.29 1.93.83 2.63.85 1.12 1.94 2.1 2.99 3.05.3.27.6.54.9.82 1.52 1.41 3.67 3.59 4.85 6.36 1.17 2.76 1.15 5.75-.05 8.02-.13.24-.42.33-.66.2s-.33-.42-.2-.66c1.07-2.01 1.07-4.69.01-7.18-1.1-2.6-3.16-4.69-4.61-6.03-.29-.27-.59-.54-.89-.81-1.08-.98-2.2-1.98-3.11-3.18-.98-1.29-1.31-2.47-.98-3.51.42-1.35 1.89-2.04 3.12-2.01 1.37.02 2.57.73 3.36 1.27 1.71 1.16 3.21 2.69 4.33 4.42l.14.22c.3.47.58.91.97 1.2.31.23.8.4 1.13.1.41-.36.39-1.1.35-1.51 0-.02 0-.03 0-.05v-15.42c0-.13.05-.26.15-.35s.23-.14.36-.13c4.3.24 5.79 2.59 7.85 5.85l.45.71c2.42 3.79 2.9 8.75 1.23 12.93-.31.78-.69 1.53-1.05 2.26-.42.83-.85 1.68-1.16 2.56-.95 2.64-.85 6.14.24 8.7.1.25-.01.53-.26.64-.05.01-.11.02-.18.02z" fill="#000000" fill-opacity="1" data-original-color="#000000ff" stroke="none" stroke-opacity="1"/></g></g></g><g><path d="m57.09 42.79c-.01 0-.03 0-.04 0-.27-.02-.47-.25-.44-.52.03-.42.07-.85.09-1.29.02-.27.25-.47.52-.45s.47.25.45.52c-.03.45-.06.88-.1 1.3-.02.24-.23.44-.48.44z" fill="#000000" fill-opacity="1" data-original-color="#000000ff" stroke="none" stroke-opacity="1"/></g><g><path d="m57.3 39.32c-.01 0-.01 0-.02 0-.27-.01-.48-.23-.47-.5.07-2.18 0-4.17-.2-6.1-.03-.27.16-.51.43-.53.27-.03.5.16.53.43.21 1.97.28 4.01.21 6.23-.01.26-.22.47-.48.47z" fill="#000000" fill-opacity="1" data-original-color="#000000ff" stroke="none" stroke-opacity="1"/></g></g><g><g><path d="m7.19 64.5c-.03 0-.06 0-.09-.01-.26-.05-.44-.3-.39-.56.03-.18.08-.36.13-.55.07-.26.34-.41.59-.34.26.07.41.34.34.59-.04.16-.08.32-.11.47-.03.24-.24.4-.47.4z" fill="#000000" fill-opacity="1" data-original-color="#000000ff" stroke="none" stroke-opacity="1"/></g><g><path d="m8.02 62.11c-.07 0-.14-.01-.2-.05-.24-.11-.35-.4-.23-.64.74-1.59 1.64-2.94 1.68-3 .15-.22.45-.28.67-.13s.28.45.13.67c-.01.01-.9 1.35-1.61 2.87-.08.18-.25.28-.44.28z" fill="#000000" fill-opacity="1" data-original-color="#000000ff" stroke="none" stroke-opacity="1"/></g><g><path d="m13.2 64.47c-.22 0-.42-.15-.47-.38-.28-1.2-.48-2.44-.59-3.67-.02-.27.17-.5.44-.53s.5.17.53.44c.11 1.19.3 2.38.57 3.54.06.26-.1.52-.36.58-.05.01-.09.02-.12.02z" fill="#000000" fill-opacity="1" data-original-color="#000000ff" stroke="none" stroke-opacity="1"/></g><g><path d="m2.95 60.35c-.15 0-.31-.07-.4-.21-.15-.22-.09-.52.13-.67l3.89-2.66c.22-.15.52-.09.67.13s.09.52-.13.67l-3.89 2.66c-.08.06-.17.08-.27.08z" fill="#000000" fill-opacity="1" data-original-color="#000000ff" stroke="none" stroke-opacity="1"/></g></g><g><g><g><path d="m45.07 30.5c.01.94-.01 1.97-.62 2.7-.72.85-1.97.97-3.08 1.01-9.63.36-12.76.34-22.37.02-.67-.02-1.42-.08-1.88-.56-.44-.47-.47-1.17-.48-1.82-.06-4.75.06-12.01.08-18.07 0-.54 0-1.07 0-1.58 0-1.37 1.11-2.49 2.47-2.5 2.82-.02 4.47-.04 5.94-.04 4.44.01 5.11.03 9.55.04 2.46 0 4.91.01 7.37.01.86 0 1.84.05 2.39.71.43.52.46 1.26.46 1.93 0 .49.01.98.01 1.47.07 5.82.12 10.86.16 16.68z" fill="#2c76f9" fill-opacity="1" data-original-color="#8d77e6ff" stroke="none" stroke-opacity="1"/></g></g><g><g><g><path d="m34.29 16.15c.01.28.01.61-.16.84-.11.15-.41.26-.6.27-.86.04-1.73-2.48-2.58-2.49-.71-.01-1.35 2.51-2.28 2.52-.3 0-.48.01-.72-.17-.33-.25-.34-.73-.33-1.16l-.1-6.3c2.42.01 3.57.03 6.77.04z" fill="#ffad00" fill-opacity="1" data-original-color="#ffad00ff" stroke="none" stroke-opacity="1"/></g></g></g><g><path d="m24.73 9.65c-.7.01-1.48.01-2.38.02-1.37.01-2.47 1.13-2.47 2.5v1.58c-.01 6.06-.13 13.32-.08 18.07.01.64.04 1.35.48 1.82.33.35.79.56 1.27.66-.8-.02-1.64-.05-2.54-.08-.67-.02-1.42-.08-1.88-.56-.44-.47-.47-1.18-.48-1.82-.06-4.75.06-12.01.08-18.07 0-.54 0-1.07 0-1.58 0-1.37 1.11-2.49 2.47-2.5 2.55-.02 4.16-.04 5.53-.04z" fill="#ffffff" fill-opacity="1" data-original-color="#ffffffff" stroke="none" stroke-opacity="1"/></g><g><g><path d="m30.11 34.95c-3.24 0-6.39-.09-11.12-.25-.59-.02-1.58-.05-2.21-.71-.55-.58-.6-1.38-.61-2.15-.04-2.97 0-6.83.03-10.92.02-2.42.04-4.87.05-7.16v-1.58c0-1.63 1.32-2.97 2.95-2.98l1.33-.01c2.04-.02 3.4-.03 4.62-.03 2.22 0 3.5.01 4.78.02s2.55.02 4.77.02l7.37.01c.98 0 2.08.08 2.76.88.52.63.57 1.42.58 2.24l.06 6.71c.03 3.78.07 7.43.1 11.44.01 1.07-.03 2.18-.73 3.01-.84 1-2.21 1.13-3.43 1.18-4.89.2-8.14.28-11.3.28zm-5.32-24.81c-1.13 0-2.41.01-4.26.03l-1.33.01c-1.1.01-1.99.91-1.99 2.01v1.58c-.01 2.28-.03 4.74-.05 7.16-.03 4.09-.07 7.95-.03 10.9.01.6.04 1.17.35 1.49.32.34.94.39 1.54.41 9.31.31 12.48.35 22.34-.02 1.01-.04 2.14-.14 2.72-.84.49-.58.52-1.46.51-2.38-.03-4.01-.07-7.65-.1-11.44l-.06-6.71c-.01-.67-.04-1.25-.35-1.63-.41-.49-1.22-.53-2.02-.54l-7.37-.01c-2.22 0-3.5-.01-4.78-.02s-2.55-.02-4.77-.02c-.11.02-.23.02-.35.02z" fill="#000000" fill-opacity="1" data-original-color="#000000ff" stroke="none" stroke-opacity="1"/></g></g><g><path d="m22.42 32.39c-.03 0-.06 0-.09-.01-.26-.05-.44-.3-.39-.56.24-1.29.3-2.6.18-3.9-.02-.27.17-.5.44-.53.27-.02.5.17.53.44.13 1.39.06 2.79-.19 4.17-.05.23-.25.39-.48.39z" fill="#000000" fill-opacity="1" data-original-color="#000000ff" stroke="none" stroke-opacity="1"/></g><g><path d="m25.33 32.37c-.01 0-.01 0-.02 0-.27-.01-.48-.24-.46-.5l.17-4.07c.01-.27.24-.47.5-.46.27.01.48.24.46.5l-.17 4.07c-.01.26-.22.46-.48.46z" fill="#000000" fill-opacity="1" data-original-color="#000000ff" stroke="none" stroke-opacity="1"/></g><g><path d="m28.27 32.36c-.03 0-.05 0-.08-.01-.26-.04-.44-.29-.4-.56.22-1.29.18-2.6-.12-3.88-.06-.26.1-.52.36-.58s.52.1.58.36c.33 1.41.38 2.84.14 4.26-.04.24-.24.41-.48.41z" fill="#000000" fill-opacity="1" data-original-color="#000000ff" stroke="none" stroke-opacity="1"/></g><g><g><g><path d="m28.58 17.77c-.31 0-.59-.02-.92-.27-.56-.42-.54-1.16-.53-1.56l-.1-6.27c0-.13.05-.26.14-.35s.21-.15.35-.14l1.96.01c1.36.01 2.59.02 4.81.02.27 0 .48.22.48.48l.01 6.44c.01.27.03.76-.25 1.14-.24.34-.74.45-.97.46-.71.03-1.2-.69-1.73-1.46-.23-.33-.64-.93-.85-1.02-.15.12-.42.59-.59.88-.46.8-.94 1.62-1.71 1.63-.04.01-.07.01-.1.01zm-.58-7.62.09 5.8c-.01.23-.02.66.14.78.1.07.13.08.39.07.26 0 .7-.77.92-1.14.42-.74.79-1.37 1.4-1.37h.01c.67.01 1.16.71 1.67 1.45.24.35.69 1.01.89 1.04.07 0 .21-.05.25-.09.07-.09.05-.38.05-.52 0-.01 0-.01 0-.02l-.01-5.97c-1.92 0-3.07-.01-4.33-.02z" fill="#000000" fill-opacity="1" data-original-color="#000000ff" stroke="none" stroke-opacity="1"/></g></g></g></g><g><path d="m19.97 32.39c-.27 0-.48-.22-.48-.48v-4.09c0-.27.22-.48.48-.48.27 0 .48.22.48.48v4.09c0 .26-.21.48-.48.48z" fill="#000000" fill-opacity="1" data-original-color="#000000ff" stroke="none" stroke-opacity="1"/></g><g><g><g><path d="m48.2 39.32h-5.35c-.27 0-.48-.22-.48-.48 0-.27.22-.48.48-.48h5.35c.27 0 .48.22.48.48.01.26-.21.48-.48.48z" fill="#000000" fill-opacity="1" data-original-color="#000000ff" stroke="none" stroke-opacity="1"/></g><g><path d="m23.52 39.32c-3.09 0-6.08 0-8.76 0-.27 0-.48-.22-.48-.49s.22-.48.48-.48c5.27.01 11.79 0 17.84 0h7.44c.27 0 .48.22.48.48 0 .27-.22.48-.48.48h-7.44c-2.98.01-6.08.01-9.08.01z" fill="#000000" fill-opacity="1" data-original-color="#000000ff" stroke="none" stroke-opacity="1"/></g><g><path d="m14.64 43.71c-.26 0-.48-.21-.48-.48s.21-.49.48-.49c7.41-.14 14.94-.2 22.38-.18.27 0 .48.22.48.49s-.22.48-.48.48c-7.45-.02-14.97.04-22.38.18z" fill="#000000" fill-opacity="1" data-original-color="#000000ff" stroke="none" stroke-opacity="1"/></g></g><g><g><path d="m36.11 48.2h-21.35c-.27 0-.48-.22-.48-.48 0-.27.22-.48.48-.48h21.35c.27 0 .48.22.48.48.01.27-.21.48-.48.48z" fill="#000000" fill-opacity="1" data-original-color="#000000ff" stroke="none" stroke-opacity="1"/></g><g><path d="m39.3 52.6c-1.88 0-4.48-.01-7.37-.02-3.46-.01-7.26-.02-10.54-.02-.27 0-.48-.22-.48-.48 0-.27.22-.48.48-.48 3.26 0 7.08.01 10.55.02 3.79.01 7.06.02 8.9.02.29 0 .49.21.49.48s-.21.49-.48.49c-.45-.01-.96-.01-1.55-.01z" fill="#000000" fill-opacity="1" data-original-color="#000000ff" stroke="none" stroke-opacity="1"/></g><g><path d="m14.64 52.6c-.26 0-.48-.21-.48-.48s.21-.49.48-.49c.96-.02 2.37-.03 4.29-.04.27 0 .48.22.48.48 0 .27-.22.49-.48.49-1.93.01-3.32.02-4.29.04z" fill="#000000" fill-opacity="1" data-original-color="#000000ff" stroke="none" stroke-opacity="1"/></g></g></g></g></g></svg>