<svg id="Layer_1" enable-background="new 0 0 66 66" viewBox="0 0 66 66" xmlns="http://www.w3.org/2000/svg" width="300" height="300" version="1.1" xmlns:xlink="http://www.w3.org/1999/xlink" xmlns:svgjs="http://svgjs.dev/svgjs"><g width="100%" height="100%" transform="matrix(1,0,0,1,0,0)"><g><g><g><g><path d="m2.29 59.6c-.05 1.27-.01 2.75 1 3.53.74.57 1.75.57 2.68.54 4.79-.19 9.58.19 14.37 0 .58-.02 1.51-.33 1.86-.8.52-.71.51-1.72.49-2.57-.13-5.62-.26-11.24-.39-16.87-.02-1.04-.07-2.16-.71-2.99-.9-1.17-2.59-1.3-4.07-1.3-3.01-.01-11.92-.15-13.15.26-1.18.39-1.79 1.05-1.84 2.3-.27 5.96 0 11.93-.24 17.9z" fill="#ffad00" fill-opacity="1" data-original-color="#ffad00ff" stroke="none" stroke-opacity="1"/></g><g><path d="m7.03 63.64c-.36 0-.71.02-1.07.03-.93.03-1.94.03-2.68-.54-1.01-.78-1.05-2.26-.99-3.53.24-5.97-.02-11.94.24-17.91.06-1.25.67-1.91 1.84-2.3.33-.11 1.22-.18 2.4-.22-1.18.39-1.79 1.27-1.84 2.52-.27 5.97 0 11.94-.24 17.91-.05 1.27-.01 2.76.99 3.53.39.31.86.45 1.35.51z" fill="#ffffff" fill-opacity="1" data-original-color="#ffffffff" stroke="none" stroke-opacity="1"/></g><g><g><path d="m43.32 59.6c-.05 1.27-.01 2.75 1 3.53.74.57 1.75.57 2.68.54 4.79-.19 9.58.19 14.37 0 .58-.02 1.51-.33 1.86-.8.52-.71.51-1.72.49-2.57-.13-5.62-.26-6.44-.39-12.07-.02-1.04-.07-2.16-.71-2.99-.9-1.17-2.59-1.3-4.07-1.3-3.02-.01-11.93-.15-13.15.26-1.18.39-1.79 1.05-1.84 2.3-.26 5.96 0 7.13-.24 13.1z" fill="#ffffff" fill-opacity="1" data-original-color="#ffffffff" stroke="none" stroke-opacity="1"/></g><g><path d="m58.33 64.21c-1.4 0-2.79-.03-4.16-.05-2.35-.05-4.78-.1-7.16 0-1.05.04-2.14.03-3-.63-1.14-.88-1.24-2.41-1.18-3.93.12-2.91.12-4.69.11-6.42 0-1.79-.01-3.63.13-6.69.06-1.39.75-2.26 2.17-2.73 1.04-.34 6.32-.33 11.65-.29.65 0 1.21.01 1.65.01 1.72.01 3.44.19 4.44 1.49.76.98.79 2.31.81 3.27.06 2.81.13 4.44.19 6.02.06 1.59.13 3.23.19 6.04.02.85.05 2.01-.59 2.87-.48.64-1.59.97-2.23.99-.98.03-2 .05-3.02.05zm-8.29-1.07c1.4 0 2.79.03 4.16.05 2.35.05 4.78.1 7.16 0 .5-.02 1.26-.29 1.49-.6.44-.59.42-1.57.4-2.28-.06-2.81-.13-4.44-.19-6.02-.06-1.59-.13-3.23-.19-6.04-.02-1.08-.09-2.03-.61-2.71-.75-.97-2.21-1.11-3.69-1.12-.44 0-1.01-.01-1.66-.01-3.37-.03-10.37-.08-11.34.24-1.04.34-1.47.87-1.51 1.86-.14 3.04-.13 4.79-.13 6.65 0 1.73.01 3.53-.11 6.46-.05 1.26.01 2.52.81 3.13.6.47 1.5.47 2.37.44.99-.04 2.02-.05 3.04-.05z" fill="#000000" fill-opacity="1" data-original-color="#000000ff" stroke="none" stroke-opacity="1"/></g></g><g><path d="m17.3 64.21c-1.4 0-2.79-.03-4.16-.05-2.35-.05-4.78-.1-7.16 0-1.05.04-2.14.03-3-.63-1.14-.88-1.24-2.41-1.18-3.93.12-2.91.12-5.88.11-8.74 0-3-.01-6.11.13-9.17.06-1.39.75-2.26 2.17-2.73 1.04-.34 6.32-.33 11.65-.29.65 0 1.21.01 1.65.01 1.72.01 3.44.19 4.44 1.49.76.98.79 2.31.81 3.27l.39 16.87c.02.85.05 2.01-.59 2.87-.48.64-1.59.97-2.23.99-.99.02-2.01.04-3.03.04zm-8.3-1.07c1.4 0 2.79.03 4.16.05 2.35.05 4.78.1 7.16 0 .5-.02 1.26-.29 1.49-.6.44-.59.42-1.57.4-2.28l-.39-16.87c-.02-1.08-.09-2.03-.61-2.71-.75-.97-2.21-1.11-3.69-1.12-.44 0-1.01-.01-1.66-.01-3.36-.02-10.36-.07-11.34.25-1.04.34-1.47.87-1.51 1.86-.14 3.04-.13 6.13-.13 9.13 0 2.88.01 5.85-.11 8.78-.05 1.26.01 2.52.81 3.13.6.47 1.5.47 2.37.44 1.01-.04 2.03-.05 3.05-.05z" fill="#000000" fill-opacity="1" data-original-color="#000000ff" stroke="none" stroke-opacity="1"/></g><g><g><path d="m19.25 58.17c-.07 1.72-.02 3.71 1.34 4.76.99.77 2.36.77 3.62.72 6.46-.26 12.92.26 19.38 0 .79-.03 2.04-.44 2.51-1.08.7-.95.69-2.32.67-3.47-.17-7.58-.35-15.16-.52-22.74-.03-1.41-.1-2.92-.96-4.03-1.21-1.58-3.49-1.75-5.48-1.76-4.07-.01-16.08-.2-17.74.35-1.59.52-2.41 1.41-2.48 3.1-.37 8.04-.01 16.1-.34 24.15z" fill="#296ff9" fill-opacity="1" data-original-color="#8d77e6ff" stroke="none" stroke-opacity="1"/></g><g><path d="m24.98 63.63c-.26 0-.51.01-.77.02-1.25.05-2.62.04-3.62-.72-1.36-1.05-1.42-3.04-1.34-4.76.33-8.05-.03-16.1.33-24.15.07-1.69.9-2.57 2.48-3.1.37-.12 1.27-.21 2.48-.26-.03 0-.06.01-.09.02-1.58.52-2.4 1.65-2.47 3.34-.36 8.05 0 16.1-.33 24.15-.07 1.72-.02 3.71 1.34 4.76.58.44 1.27.63 1.99.7z" fill="#ffffff" fill-opacity="1" data-original-color="#ffffffff" stroke="none" stroke-opacity="1"/></g><g><path d="m39.49 64.21c-1.88 0-3.76-.04-5.6-.07-3.17-.06-6.44-.13-9.66 0-1.38.05-2.82.04-3.93-.82-1.48-1.14-1.61-3.16-1.53-5.16.16-3.93.16-7.93.15-11.79 0-4.05-.01-8.24.18-12.36.08-1.8.97-2.92 2.81-3.53 1.37-.45 8.49-.44 15.65-.39.88.01 1.64.01 2.24.01 2.27.01 4.56.25 5.86 1.94.99 1.28 1.03 3.04 1.06 4.31l.52 22.74c.03 1.12.06 2.65-.76 3.77-.61.82-2.05 1.24-2.87 1.27-1.37.06-2.75.08-4.12.08zm-11.18-1.11c1.88 0 3.76.04 5.6.07 3.17.06 6.45.13 9.66 0 .72-.03 1.79-.41 2.14-.88.63-.85.6-2.19.57-3.17l-.52-22.74c-.03-1.49-.12-2.79-.86-3.75-1.05-1.37-3.07-1.56-5.1-1.57-.6 0-1.36-.01-2.24-.01-4.55-.03-14.01-.1-15.35.34-1.47.48-2.09 1.26-2.15 2.66-.18 4.1-.18 8.28-.18 12.32 0 3.88.01 7.89-.15 11.83-.07 1.75.02 3.49 1.16 4.36.86.66 2.1.67 3.31.62 1.36-.06 2.73-.08 4.11-.08z" fill="#000000" fill-opacity="1" data-original-color="#000000ff" stroke="none" stroke-opacity="1"/></g></g></g><g><g><path d="m60.39 49.22c-.25 0-.46-.19-.48-.44l-.05-.66c-.02-.26.17-.5.44-.52s.5.17.52.44l.06.66c.02.26-.18.5-.44.52-.02 0-.04 0-.05 0z" fill="#000000" fill-opacity="1" data-original-color="#000000ff" stroke="none" stroke-opacity="1"/></g><g><path d="m60.82 60.42c-.27 0-.48-.22-.48-.48.01-3.13-.09-6.3-.3-9.42-.02-.26.18-.49.45-.51s.49.18.51.45c.21 3.15.31 6.34.3 9.49 0 .25-.21.47-.48.47z" fill="#000000" fill-opacity="1" data-original-color="#000000ff" stroke="none" stroke-opacity="1"/></g></g></g><g><g><path d="m15.36 27.05c-.19 0-.37-.11-.45-.3-.1-.25.02-.53.27-.62l2.85-1.14c.25-.1.53.02.62.27.1.25-.02.53-.27.62l-2.85 1.14c-.05.02-.11.03-.17.03z" fill="#000000" fill-opacity="1" data-original-color="#000000ff" stroke="none" stroke-opacity="1"/></g><g><path d="m17 18.35c-.01 0-.02 0-.04 0-1.11-.08-2.23-.13-3.31-.13-.01 0-.01 0-.02 0-.27 0-.48-.21-.48-.48s.23-.48.5-.48c1.11 0 2.25.04 3.38.13.26.02.46.25.44.51-.01.26-.22.45-.47.45z" fill="#000000" fill-opacity="1" data-original-color="#000000ff" stroke="none" stroke-opacity="1"/></g><g><path d="m20.68 10.27c-.02 0-.04 0-.06 0-.41-.05-.8-.21-1.13-.45-.2-.15-.37-.32-.53-.48l-.89-.89c-.19-.19-.19-.49 0-.68s.49-.19.68 0l.89.89c.14.14.27.27.41.38.2.15.44.24.7.28.26.03.45.28.41.54-.03.23-.24.41-.48.41z" fill="#000000" fill-opacity="1" data-original-color="#000000ff" stroke="none" stroke-opacity="1"/></g><g><path d="m27.85 6.06c-.25 0-.46-.19-.48-.44-.08-1.06-.34-2.08-.76-3.03-.11-.24 0-.53.24-.63.24-.11.53 0 .63.24.47 1.06.75 2.18.84 3.35.02.26-.18.5-.44.52-.01-.01-.02-.01-.03-.01z" fill="#000000" fill-opacity="1" data-original-color="#000000ff" stroke="none" stroke-opacity="1"/></g><g><path d="m39.59 5.38c-.07 0-.14-.02-.21-.05-.24-.11-.34-.4-.23-.64.36-.76.56-1.59.56-2.42 0-.27.22-.49.48-.48.27 0 .48.22.48.48-.01.97-.23 1.94-.66 2.83-.07.18-.24.28-.42.28z" fill="#000000" fill-opacity="1" data-original-color="#000000ff" stroke="none" stroke-opacity="1"/></g><g><path d="m46.37 11.27c-.15 0-.29-.07-.39-.2-.16-.21-.11-.51.11-.67l.89-.65c.26-.19.56-.41.91-.56.44-.19.93-.24 1.39-.16.26.05.44.29.39.55-.04.26-.29.44-.55.39-.28-.05-.59-.01-.86.1-.24.1-.47.27-.72.45l-.89.65c-.08.07-.18.1-.28.1z" fill="#000000" fill-opacity="1" data-original-color="#000000ff" stroke="none" stroke-opacity="1"/></g><g><path d="m51.11 18.89c-.03 0-.06 0-.1-.01-1.01-.21-2.05-.32-3.1-.33-.27 0-.48-.22-.47-.49 0-.26.22-.47.48-.47h.01c1.1.01 2.21.13 3.28.35.26.05.43.31.37.57-.05.22-.25.38-.47.38z" fill="#000000" fill-opacity="1" data-original-color="#000000ff" stroke="none" stroke-opacity="1"/></g><g><path d="m48.86 27.12c-.02 0-.03 0-.05 0-1.18-.13-2.28-.63-3.25-1.07-.24-.11-.35-.39-.24-.64.11-.24.39-.35.64-.24.95.43 1.92.88 2.95.99.26.03.45.26.43.53-.03.25-.23.43-.48.43z" fill="#000000" fill-opacity="1" data-original-color="#000000ff" stroke="none" stroke-opacity="1"/></g></g><g><path d="m33.38 7.11-3.43 7.56-8.98 1.02s3.18 3.76 5.87 5.69l-1.29 9.15 6.97-4.66 8.55 4.43c-.71-3.47-1.45-7.04-1.93-10.38l5.86-5.72-8.43-.51z" fill="#ffad00" fill-opacity="1" data-original-color="#ffad00ff" stroke="none" stroke-opacity="1"/></g><g><path d="m29.24 21.38-1.04 7.38-2.65 1.77 1.29-9.15c-2.69-1.93-5.87-5.69-5.87-5.69l2.26-.25c.71.83 3.67 4.25 6.01 5.94z" fill="#ffffff" fill-opacity="1" data-original-color="#ffffffff" stroke="none" stroke-opacity="1"/></g><g><path d="m23.07 15.25 3.98-.25-3.82.43c-.1-.12-.16-.18-.16-.18z" fill="#ffffff" fill-opacity="1" data-original-color="#ffffffff" stroke="none" stroke-opacity="1"/></g><g><path d="m25.55 31.01c-.09 0-.18-.02-.26-.07-.16-.1-.25-.29-.22-.47l1.25-8.87c-2.65-1.98-5.59-5.44-5.72-5.59-.11-.14-.15-.32-.08-.49.07-.16.22-.28.39-.3l8.71-.99 3.31-7.31c.08-.17.24-.28.43-.28.17 0 .36.1.44.27l3.06 6.32 8.15.49c.19.01.35.13.42.31s.02.38-.11.51l-5.68 5.55c.46 3.15 1.15 6.51 1.82 9.76l.07.36c.04.18-.03.37-.18.48s-.35.13-.51.04l-8.3-4.3-6.73 4.5c-.07.05-.17.08-.26.08zm-3.61-14.95c1.04 1.16 3.26 3.54 5.18 4.92.15.1.22.28.2.46l-1.14 8.09 6.08-4.06c.15-.1.33-.11.49-.03l7.66 3.97c-.65-3.15-1.3-6.38-1.73-9.43-.02-.15.03-.3.14-.41l5.08-4.96-7.35-.45c-.17-.01-.33-.11-.4-.27l-2.74-5.65-3 6.63c-.07.15-.22.26-.38.28z" fill="#000000" fill-opacity="1" data-original-color="#000000ff" stroke="none" stroke-opacity="1"/></g></g></g></svg>