<svg id="Layer_1" enable-background="new 0 0 66 66" viewBox="0 0 66 66" xmlns="http://www.w3.org/2000/svg" width="300" height="300" version="1.1" xmlns:xlink="http://www.w3.org/1999/xlink" xmlns:svgjs="http://svgjs.dev/svgjs"><g width="100%" height="100%" transform="matrix(1,0,0,1,0,0)"><g><g><path d="m51.7 56.04c-.51 0-.99-.17-1.35-.49-.61-.53-.82-1.34-.97-1.94-.07-.26.09-.52.35-.59s.52.09.59.35c.16.61.32 1.14.67 1.45.2.18.5.27.8.25.31-.02.58-.15.76-.35.08-.1.16-.21.23-.32.24-.35.53-.79 1.09-.89.39-.07.8.06 1.2.39.08.06.15.13.23.19.14.12.27.23.39.3.42.21 1 .01 1.31-.13.17-.08.33-.16.49-.25.38-.2.78-.41 1.24-.52.84-.2 1.65 0 2.43.18.62.15 1.21.29 1.77.23.27-.03.51.16.54.43s-.16.51-.43.54c-.73.08-1.43-.09-2.11-.25-.7-.17-1.36-.33-1.98-.18-.34.08-.66.25-1.01.43-.18.09-.36.19-.54.27-.82.38-1.57.42-2.16.12-.24-.12-.43-.29-.59-.43-.06-.06-.13-.11-.19-.16-.17-.14-.33-.21-.43-.19-.15.03-.3.24-.45.48-.1.14-.2.29-.3.41-.34.4-.86.65-1.43.68-.05-.01-.1-.01-.15-.01z" fill="#000000" fill-opacity="1" data-original-color="#000000ff" stroke="none" stroke-opacity="1"/></g><g><path d="m3.84 58.1c-.51 0-.99-.17-1.35-.49-.61-.53-.82-1.35-.97-1.94-.07-.26.09-.52.35-.59s.52.09.59.35c.16.61.32 1.14.67 1.45.2.18.5.27.8.25.31-.02.58-.15.76-.35.08-.1.16-.21.23-.32.24-.35.53-.79 1.09-.89.39-.07.8.06 1.2.39.08.06.15.13.23.2.14.12.27.23.39.3.42.21 1 .01 1.31-.13.17-.08.33-.16.49-.25.38-.2.78-.41 1.24-.52.84-.2 1.65 0 2.43.18.62.15 1.21.29 1.77.23.27-.03.51.16.54.43s-.16.51-.43.54c-.73.08-1.43-.09-2.11-.25-.7-.17-1.36-.33-1.98-.18-.34.08-.66.25-1.01.43-.18.09-.36.19-.54.27-.82.38-1.57.42-2.16.12-.24-.12-.43-.29-.59-.43-.06-.06-.13-.11-.19-.16-.17-.14-.33-.21-.43-.19-.15.03-.3.24-.45.48-.1.14-.2.29-.3.41-.34.4-.86.65-1.43.68-.05-.02-.1-.02-.15-.02z" fill="#000000" fill-opacity="1" data-original-color="#000000ff" stroke="none" stroke-opacity="1"/></g><g><g><g><path d="m44.63 64.01c-.2-.31-.14-.75.07-1.05.22-.3.56-.49.91-.6.71-.22 1.5-.17 2.17.16-.38-.28-.71-.57-.95-.97s-.31-.95-.03-1.33c.23-.31.64-.45 1.03-.44s.76.15 1.12.3c1.08.46 2.11 1.02 3.08 1.68 1.07.73 2.54.4 3.21-.71.27-.45.55-.91.84-1.38.35-.57.8-1.19 1.47-1.24.51-.04 1 .33 1.21.8s.18 1.02.02 1.51-.43.93-.7 1.37c.63-.41 1.02-.74 1.65-1.15.55-.36 1.13-.72 1.78-.79.65-.06 1.39.29 1.53.93.09.4-.07.81-.33 1.13s-.6.54-.94.77c.88-.03 1.63.4 2.25 1.03" fill="#ffad00" fill-opacity="1" data-original-color="#ffad00ff" stroke="none" stroke-opacity="1"/></g><g><path d="m44.63 64.5c-.16 0-.32-.08-.41-.22-.29-.46-.26-1.1.09-1.59.25-.36.65-.62 1.16-.79.3-.09.61-.15.92-.16-.34-.61-.34-1.31.02-1.81.3-.42.83-.66 1.43-.65.48.01.92.18 1.29.34 1.1.47 2.17 1.05 3.16 1.72.4.27.88.37 1.37.26s.9-.4 1.15-.83c.27-.46.55-.91.85-1.39.28-.45.87-1.4 1.84-1.47.68-.05 1.38.4 1.69 1.08.21.47.25 1.04.11 1.63.05-.04.11-.07.16-.11.54-.35 1.21-.79 2-.86.85-.08 1.85.39 2.05 1.31.11.51-.05 1.07-.43 1.54-.05.06-.1.12-.15.17.5.19.98.52 1.43.98.19.19.18.5-.01.69s-.5.18-.69-.01c-.6-.61-1.22-.91-1.88-.88-.23.01-.41-.13-.48-.33-.07-.21.01-.43.19-.55.3-.2.62-.41.83-.67.19-.24.28-.5.23-.72-.08-.38-.6-.59-1.01-.55-.55.05-1.08.4-1.56.71-.31.2-.56.38-.8.56-.26.19-.52.38-.85.59-.19.12-.44.1-.6-.06s-.19-.41-.07-.6c.26-.43.51-.83.65-1.26.14-.44.14-.85 0-1.16s-.45-.53-.74-.51c-.42.03-.77.5-1.09 1.01-.29.47-.57.92-.84 1.38-.39.65-1.04 1.11-1.78 1.27s-1.49.02-2.12-.41c-.94-.64-1.95-1.19-2.99-1.63-.31-.13-.63-.26-.94-.27-.26 0-.51.09-.62.24-.15.21-.09.56.06.8.2.33.47.57.83.83.2.15.25.43.12.64s-.4.29-.63.18c-.56-.27-1.22-.32-1.82-.13-.21.07-.5.2-.66.42-.12.16-.14.38-.06.51.14.23.08.53-.15.67-.07.06-.16.09-.25.09z" fill="#000000" fill-opacity="1" data-original-color="#000000ff" stroke="none" stroke-opacity="1"/></g></g></g><g><g><g><g><g><path d="m33.53 63.77c-7.83 1.07-16.08-1.52-21.94-6.83s-9.22-13.25-9.02-21.16c.19-7.9 4.09-16.4 9.96-20.76 9.67-7.18 19.2-6.86 27.49-2.97 10.26 4.82 17.05 15.12 16.36 26.43-.15 2.43-.62 4.83-1.43 7.13-3.24 9.2-11.76 16.85-21.42 18.16z" fill="#ffffff" fill-opacity="1" data-original-color="#ffffffff" stroke="none" stroke-opacity="1"/></g><g><path d="m42.19 60.79c-.01-.13 0-.25.01-.37.2-2.4 1.93-4.34 3.34-6.29s2.6-4.51 1.59-6.7c-.91-1.94-3.16-2.77-5.16-3.55-1.99-.78-4.19-1.99-4.56-4.1-.33-1.88 1.04-3.73 2.76-4.56 1.71-.83 3.7-.85 5.61-.81 1.9.06 3.85.17 5.66-.43 2.11-.69 3.05-2.24 4.1-3.74.7 2.64 1 5.41.83 8.24-.15 2.43-.62 4.83-1.43 7.13-2.21 6.3-6.89 11.87-12.75 15.18z" fill="#296ff9" fill-opacity="1" data-original-color="#8d77e6ff" stroke="none" stroke-opacity="1"/></g><g><path d="m44.64 59.22c-.79.57-1.61 1.09-2.45 1.56-.01-.12 0-.25.01-.38.19-2.39 1.93-4.34 3.34-6.29s2.6-4.51 1.59-6.69c-.17-.36-.39-.69-.64-.98.99.56 1.84 1.27 2.32 2.3 1.02 2.18-.18 4.75-1.59 6.69-.88 1.23-1.9 2.46-2.58 3.79z" fill="#ffffff" fill-opacity="1" data-original-color="#ffffffff" stroke="none" stroke-opacity="1"/></g><g><path d="m22.07 61.78c-.35.27-.72.49-1.11.68-3.45-1.2-6.66-3.07-9.36-5.52-5.04-4.57-8.22-11.07-8.89-17.81.69-.15 1.36-.36 1.96-.73 2.27-1.36 2.98-4.26 3.46-6.86.48-2.59 1.09-5.48 3.27-6.99 1.15-.78 2.64-1.12 3.47-2.23 1.11-1.49.41-3.73-.97-4.99-.7-.64-1.53-1.09-2.4-1.48.33-.28.68-.56 1.02-.82 9.68-7.18 19.2-6.86 27.49-2.96.74.35 1.46.73 2.15 1.13.27 1.86.21 3.83.03 5.36-.32 2.66-1.65 5.34-4.03 6.58-1.86.97-4.06.93-6.15.76-2.09-.16-4.23-.45-6.24.12-2.02.57-3.91 2.22-3.99 4.31-.04 1.08.34 2.34-.4 3.12-.63.67-1.72.57-2.59.25-.86-.31-1.74-.77-2.65-.63-1.58.24-2.35 2.26-1.85 3.78.52 1.52 1.86 2.58 3.21 3.45.92.6 1.88 1.18 2.58 2.04.68.84 1.06 2.06.62 3.06-.53 1.21-2.06 1.78-2.5 3.02-.43 1.26.45 2.62 1.52 3.41 1.07.8 2.35 1.31 3.27 2.28 2 2.08 1.39 5.88-.92 7.67z" fill="#296ff9" fill-opacity="1" data-original-color="#8d77e6ff" stroke="none" stroke-opacity="1"/></g><g><path d="m13.87 58.78c-.79-.57-1.55-1.18-2.28-1.84-5.04-4.57-8.22-11.07-8.89-17.81.69-.15 1.36-.36 1.96-.73 2.27-1.36 2.98-4.26 3.46-6.86.48-2.59 1.09-5.48 3.27-6.99 1.15-.78 2.64-1.12 3.47-2.23 1.01-1.35.52-3.33-.61-4.62.48.27.92.57 1.33.95 1.38 1.26 2.08 3.5.97 4.99-.83 1.12-2.32 1.45-3.47 2.23-2.18 1.51-2.79 4.4-3.27 6.99-.48 2.6-1.2 5.5-3.46 6.86-.01 0-.01.01-.02.01-1.18.71-1.82 2.04-1.55 3.39 1.15 5.77 4.12 11.18 8.49 15.15z" fill="#ffffff" fill-opacity="1" data-original-color="#ffffffff" stroke="none" stroke-opacity="1"/></g><g><path d="m13.9 17.32c.13.12.24.24.36.37-.34-.2-.7-.37-1.07-.53.09-.07.17-.15.26-.22.15.13.3.25.45.38z" fill="#ffffff" fill-opacity="1" data-original-color="#ffffffff" stroke="none" stroke-opacity="1"/></g><g><path d="m29.99 64.5c-6.83 0-13.62-2.57-18.72-7.2-5.95-5.4-9.39-13.45-9.19-21.53.2-8.28 4.28-16.77 10.15-21.13 8.85-6.57 18.26-7.58 27.98-3.02 10.8 5.07 17.33 15.63 16.64 26.89-.16 2.51-.65 4.95-1.46 7.26-3.42 9.75-12.19 17.17-21.8 18.48-1.19.17-2.4.25-3.6.25zm-1.53-54.7c-5.37 0-10.6 1.87-15.65 5.62-5.65 4.19-9.57 12.38-9.76 20.37-.19 7.81 3.13 15.58 8.87 20.79 5.79 5.25 13.84 7.76 21.55 6.71 9.12-1.24 17.77-8.58 21.02-17.84.78-2.23 1.25-4.58 1.4-7 .66-10.87-5.65-21.05-16.09-25.96-3.83-1.79-7.62-2.69-11.34-2.69z" fill="#000000" fill-opacity="1" data-original-color="#000000ff" stroke="none" stroke-opacity="1"/></g><g><path d="m42.19 61.27c-.08 0-.16-.02-.23-.06-.15-.08-.24-.23-.25-.39-.01-.14-.01-.3.01-.45.18-2.17 1.5-3.94 2.79-5.65.22-.29.44-.58.65-.87 1.23-1.7 2.49-4.16 1.54-6.21-.8-1.72-2.8-2.49-4.74-3.24l-.15-.06c-1.88-.74-4.43-2-4.86-4.47-.38-2.2 1.23-4.22 3.02-5.08 1.82-.88 3.88-.9 5.83-.85l.4.01c1.72.05 3.5.11 5.1-.42 1.79-.59 2.68-1.86 3.61-3.21l.25-.35c.11-.15.3-.23.48-.2.19.03.33.17.38.35.73 2.74 1.02 5.56.85 8.39-.16 2.51-.65 4.95-1.46 7.26-2.26 6.43-6.99 12.06-12.97 15.44-.08.04-.16.06-.25.06zm2.58-26.38c-1.52 0-3.06.13-4.39.77-1.46.7-2.79 2.32-2.49 4.04.27 1.51 1.62 2.7 4.26 3.73l.15.06c2.02.78 4.31 1.67 5.27 3.74 1.15 2.48-.25 5.27-1.63 7.18-.21.29-.43.59-.65.88-1.08 1.44-2.2 2.93-2.52 4.6 5.4-3.3 9.65-8.52 11.73-14.44.78-2.23 1.25-4.58 1.4-7 .14-2.37-.05-4.74-.56-7.05-.89 1.24-1.9 2.44-3.74 3.05-1.76.58-3.63.52-5.43.47l-.39-.01c-.34-.02-.67-.02-1.01-.02z" fill="#000000" fill-opacity="1" data-original-color="#000000ff" stroke="none" stroke-opacity="1"/></g><g><path d="m20.96 62.94c-.05 0-.11-.01-.16-.03-3.54-1.23-6.84-3.17-9.53-5.62-5.06-4.59-8.36-11.2-9.05-18.13-.02-.25.14-.47.38-.52.74-.15 1.32-.36 1.81-.66 2.12-1.27 2.78-4.04 3.24-6.53.44-2.38 1.05-5.63 3.47-7.3.44-.3.92-.54 1.38-.76.78-.38 1.51-.74 1.97-1.36.96-1.29.28-3.26-.91-4.35-.72-.66-1.59-1.09-2.27-1.39-.15-.07-.26-.21-.28-.37s.04-.33.16-.44c.32-.27.66-.55 1.05-.84 8.85-6.57 18.26-7.58 27.99-3.02.77.37 1.5.75 2.19 1.15.13.07.22.2.24.35.33 2.24.16 4.4.03 5.48-.38 3.15-1.98 5.75-4.29 6.95-1.95 1.01-4.24.99-6.42.81l-.72-.06c-1.79-.15-3.65-.31-5.35.16-1.75.49-3.56 1.97-3.63 3.86-.01.27.01.56.03.87.06.87.12 1.85-.56 2.57-.67.71-1.8.85-3.11.38-.17-.06-.34-.13-.52-.2-.66-.26-1.29-.5-1.89-.41-.61.09-.99.51-1.19.85-.41.67-.52 1.57-.27 2.3.47 1.4 1.79 2.4 3.01 3.2l.29.19c.85.55 1.73 1.12 2.4 1.95.89 1.1 1.16 2.5.69 3.56-.3.68-.83 1.15-1.35 1.61-.49.43-.95.85-1.14 1.37-.35 1.02.43 2.17 1.35 2.86.39.29.81.54 1.25.81.72.43 1.47.88 2.09 1.53.97 1.02 1.44 2.44 1.32 4-.13 1.75-.99 3.4-2.3 4.41-.38.29-.78.53-1.2.73-.06.03-.13.04-.2.04zm-17.73-23.44c.76 6.54 3.91 12.75 8.69 17.08 2.55 2.31 5.66 4.16 9.01 5.35.3-.15.58-.33.85-.54 1.09-.85 1.81-2.24 1.92-3.72.1-1.28-.28-2.44-1.06-3.26-.52-.55-1.18-.95-1.88-1.37-.44-.27-.9-.54-1.33-.86-1.21-.89-2.2-2.46-1.69-3.95.27-.77.85-1.28 1.41-1.78.46-.41.89-.8 1.11-1.28.4-.9-.05-1.94-.56-2.56-.57-.7-1.39-1.23-2.18-1.74l-.29-.19c-1.36-.89-2.83-2.02-3.4-3.7-.33-1.01-.19-2.21.37-3.12.45-.72 1.11-1.19 1.87-1.3.85-.14 1.67.18 2.39.46.17.06.33.13.49.19.34.12 1.5.48 2.08-.13.39-.41.35-1.11.3-1.84-.02-.32-.04-.65-.03-.97.09-2.46 2.31-4.19 4.34-4.76 1.87-.52 3.81-.36 5.69-.19l.72.06c2.35.19 4.25.15 5.89-.7 2.02-1.05 3.43-3.37 3.77-6.2.12-1 .27-2.95 0-5-.6-.34-1.24-.68-1.91-.99-9.37-4.4-18.45-3.42-26.99 2.92-.14.11-.28.22-.42.32.6.3 1.25.7 1.83 1.23 1.5 1.37 2.32 3.91 1.03 5.64-.6.81-1.48 1.24-2.32 1.65-.45.22-.88.43-1.26.69-2.09 1.45-2.65 4.47-3.06 6.68-.53 2.9-1.34 5.78-3.69 7.19-.49.3-1.03.52-1.69.69z" fill="#000000" fill-opacity="1" data-original-color="#000000ff" stroke="none" stroke-opacity="1"/></g></g></g><g><g><path d="m6.06 7.56c-.2 0-.38-.12-.45-.31-.08-.2-.14-.4-.19-.6-.08-.26.07-.53.33-.6s.52.08.59.34c.05.17.1.34.17.51.09.25-.03.53-.28.62-.06.03-.11.04-.17.04z" fill="#000000" fill-opacity="1" data-original-color="#000000ff" stroke="none" stroke-opacity="1"/></g><g><path d="m8.76 12c-.14 0-.28-.06-.38-.18-.05-.06-1.23-1.52-2.12-3.18-.13-.23-.05-.53.19-.65.23-.13.53-.04.66.2.85 1.57 2.01 3.02 2.02 3.03.17.21.14.51-.07.68-.09.07-.2.1-.3.1z" fill="#000000" fill-opacity="1" data-original-color="#000000ff" stroke="none" stroke-opacity="1"/></g><g><path d="m11.56 10.09c-.27 0-.49-.22-.48-.49.02-1.22.12-2.45.3-3.65.04-.26.29-.45.55-.41s.45.29.41.55c-.18 1.16-.27 2.34-.29 3.51-.01.28-.23.49-.49.49z" fill="#000000" fill-opacity="1" data-original-color="#000000ff" stroke="none" stroke-opacity="1"/></g><g><path d="m6.06 13.71c-.08 0-.16-.02-.24-.06l-4.08-2.27c-.23-.13-.32-.43-.19-.66s.43-.32.66-.19l4.09 2.27c.23.13.32.43.19.66-.09.16-.26.25-.43.25z" fill="#000000" fill-opacity="1" data-original-color="#000000ff" stroke="none" stroke-opacity="1"/></g></g></g><g><g><path d="m63.14 14.47c-.79 1.62-1.68 3.26-2.92 4.57-.77.82-6.65 6.74-12.34 7-3.33-4.63-2.34-12.9-2.18-14.02.26-1.79.99-3.5 1.77-5.12 2.09-4.32 7.29-6.14 11.62-4.04 4.34 2.09 6.15 7.29 4.05 11.61z" fill="#ffad00" fill-opacity="1" data-original-color="#ffad00ff" stroke="none" stroke-opacity="1"/></g><g><path d="m60.44 3.66c-4.19-1.63-8.99.21-10.98 4.32-.79 1.62-1.51 3.33-1.77 5.13-.15 1.02-1 8.05 1.43 12.79-.41.08-.83.13-1.24.15-3.33-4.63-2.34-12.9-2.18-14.02.27-1.79.99-3.5 1.78-5.12 2.09-4.32 7.29-6.13 11.62-4.04.48.22.93.49 1.34.79z" fill="#ffffff" fill-opacity="1" data-original-color="#ffffffff" stroke="none" stroke-opacity="1"/></g><g><path d="m47.88 26.52c-.16 0-.3-.07-.39-.2-3.59-4.98-2.32-13.99-2.26-14.37.28-1.91 1.08-3.73 1.82-5.27 2.21-4.56 7.71-6.47 12.27-4.27 4.56 2.21 6.47 7.71 4.27 12.27-.74 1.53-1.68 3.29-3 4.69-.26.28-6.54 6.87-12.67 7.15-.02 0-.03 0-.04 0zm7.45-24.05c-3.05 0-5.99 1.71-7.41 4.64-.71 1.47-1.47 3.2-1.73 4.98-.05.36-1.23 8.74 1.94 13.45 5.67-.44 11.5-6.56 11.75-6.83 1.23-1.31 2.12-2.98 2.83-4.45 1.97-4.08.26-9-3.82-10.97-1.15-.56-2.37-.82-3.56-.82z" fill="#000000" fill-opacity="1" data-original-color="#000000ff" stroke="none" stroke-opacity="1"/></g></g><g><g><path d="m51.15 9.97c-.1 1.44.63 2.93 1.9 3.76s3.06.95 4.43.25c1.35-.7 2.19-2.14 2.17-3.58-.02-1.38-.79-2.74-2.02-3.53-1.01-.65-2.29-.89-3.5-.7-1.09.18-1.93 1.12-2.43 2-.31.56-.5 1.17-.55 1.8z" fill="#ffffff" fill-opacity="1" data-original-color="#ffffffff" stroke="none" stroke-opacity="1"/></g><g><path d="m56.34 14.36c-1.12.2-2.34-.02-3.28-.64-1.28-.83-2-2.31-1.9-3.75.04-.63.24-1.24.55-1.8.49-.88 1.34-1.82 2.43-2 .54-.09 1.09-.08 1.63 0-1.09.18-1.93 1.12-2.42 2-.31.56-.51 1.17-.55 1.8-.1 1.44.63 2.93 1.9 3.75.48.32 1.05.54 1.64.64z" fill="#ffffff" fill-opacity="1" data-original-color="#ffffffff" stroke="none" stroke-opacity="1"/></g><g><path d="m55.52 14.92c-.96 0-1.92-.27-2.72-.79-1.4-.91-2.24-2.56-2.12-4.19.05-.68.26-1.37.61-2 .33-.59 1.27-2 2.77-2.24 1.34-.22 2.74.06 3.84.77 1.36.88 2.22 2.38 2.24 3.93.02 1.67-.93 3.24-2.43 4.02-.67.33-1.43.5-2.19.5zm-3.88-4.92c-.09 1.29.57 2.59 1.68 3.32 1.14.74 2.76.83 3.94.22 1.16-.6 1.92-1.86 1.9-3.14-.02-1.23-.7-2.42-1.8-3.12-.9-.58-2.05-.81-3.16-.63-1.09.18-1.82 1.29-2.08 1.76-.28.5-.45 1.05-.48 1.59z" fill="#000000" fill-opacity="1" data-original-color="#000000ff" stroke="none" stroke-opacity="1"/></g></g><g><g><path d="m46.52 27.92c-.18 0-.35-.1-.44-.28-.12-.24-.01-.53.23-.65.47-.23.82-.53 1.04-.91.13-.23.43-.31.66-.18s.31.43.18.66c-.32.55-.81.99-1.46 1.3-.07.04-.14.06-.21.06z" fill="#000000" fill-opacity="1" data-original-color="#000000ff" stroke="none" stroke-opacity="1"/></g><g><path d="m24.74 49.55c-.09 0-.19-.03-.27-.08-.22-.15-.28-.45-.13-.67.22-.34.41-.68.55-1.03.24-.58.39-1.21.46-1.92.03-.27.26-.46.53-.44s.46.26.44.53c-.08.81-.25 1.53-.53 2.21-.17.41-.39.81-.64 1.2-.1.13-.25.2-.41.2zm.95-6.57c-.24 0-.45-.18-.48-.43l-.08-.68c-.11-.9-.23-1.83-.26-2.74-.01-.27.2-.49.47-.5s.49.2.5.47c.03.87.15 1.78.26 2.65l.09.69c.03.27-.16.51-.42.54-.04 0-.06 0-.08 0zm.11-6.72c-.06 0-.11-.01-.17-.03-.25-.09-.38-.37-.28-.62.42-1.11 1.15-2.13 2.1-2.93.2-.17.51-.15.68.06.17.2.15.51-.06.68-.82.7-1.45 1.58-1.81 2.54-.08.18-.27.3-.46.3zm7.8-.49c-.13 0-.26-.02-.39-.05-.83-.2-1.44-1.02-1.48-2-.01-.27.19-.49.46-.51.26-.01.49.19.51.46.02.46.28.99.74 1.1.26.06.56-.04.8-.26.19-.18.5-.18.69.02.18.19.18.5-.02.69-.37.35-.84.55-1.31.55zm.46-3.33c-.09 0-.19-.03-.27-.08l-.04-.03c-.45-.29-1.03-.43-1.73-.43-.1 0-.21 0-.31.01-.27.02-.55.05-.83.11-.27.05-.52-.11-.57-.38-.05-.26.11-.52.38-.57.32-.07.65-.11.97-.13.65-.04 1.29.03 1.83.2-.18-.19-.18-.49.01-.68.84-.83 1.8-1.52 2.88-2.06.24-.12.53-.02.65.22s.02.53-.22.65c-.98.49-1.87 1.12-2.63 1.88-.09.09-.2.13-.31.14.14.06.28.14.41.22l.06.04c.22.15.28.45.13.67-.1.15-.26.22-.41.22zm5.74-4.14c-.24 0-.44-.17-.48-.41-.04-.26.14-.51.41-.55.65-.1 1.3-.14 1.95-.12.42.01.83.05 1.24.08l.31.03c.27.02.47.26.44.52-.02.27-.25.47-.52.44l-.31-.03c-.39-.03-.79-.07-1.18-.08-.59-.02-1.19.02-1.78.11-.03 0-.06.01-.08.01z" fill="#000000" fill-opacity="1" data-original-color="#000000ff" stroke="none" stroke-opacity="1"/></g><g><path d="m20.95 52.96c-.16 0-.31-.08-.41-.22-.15-.22-.09-.52.14-.67.54-.36.97-.66 1.36-.96.21-.16.52-.12.68.09s.12.52-.09.68c-.41.31-.86.63-1.41.99-.08.06-.18.09-.27.09z" fill="#000000" fill-opacity="1" data-original-color="#000000ff" stroke="none" stroke-opacity="1"/></g></g></g><g><g><g><path d="m2.11 64.01c-.2-.31-.14-.75.07-1.05.22-.3.56-.49.91-.6.71-.22 1.5-.17 2.17.16-.38-.28-.71-.57-.95-.97s-.31-.95-.03-1.33c.23-.31.64-.45 1.03-.44s.76.15 1.12.3c1.08.46 2.11 1.02 3.08 1.68 1.07.73 2.54.4 3.21-.71.27-.45.55-.91.84-1.38.35-.57.8-1.19 1.47-1.24.51-.04 1 .33 1.21.8s.18 1.02.02 1.51-.43.93-.7 1.37c.63-.41 1.02-.74 1.65-1.15.55-.36 1.13-.72 1.78-.79.65-.06 1.39.29 1.53.93.09.4-.07.81-.33 1.13s-.6.54-.94.77c.88-.03 1.63.4 2.25 1.03" fill="#ffad00" fill-opacity="1" data-original-color="#ffad00ff" stroke="none" stroke-opacity="1"/></g><g><path d="m2.11 64.5c-.16 0-.32-.08-.41-.22-.29-.46-.26-1.1.09-1.59.25-.36.65-.62 1.16-.79.3-.09.61-.15.92-.16-.34-.61-.34-1.31.02-1.81.3-.42.83-.66 1.43-.65.48.01.92.18 1.29.34 1.1.47 2.17 1.05 3.16 1.72.4.27.89.37 1.37.26.49-.11.9-.4 1.15-.83.28-.46.55-.91.85-1.39.28-.45.87-1.4 1.84-1.47.69-.05 1.38.4 1.69 1.08.21.47.25 1.04.11 1.63.05-.04.11-.07.16-.11.54-.35 1.21-.79 2-.86.85-.08 1.85.39 2.05 1.31.11.51-.05 1.07-.43 1.54-.05.06-.1.12-.15.17.5.19.98.52 1.43.98.19.19.18.5-.01.69s-.5.18-.69-.01c-.6-.61-1.22-.91-1.88-.88-.23.01-.41-.13-.48-.33-.07-.21.01-.43.19-.55.3-.2.62-.41.83-.67.19-.24.28-.51.23-.72-.08-.37-.6-.59-1.01-.55-.55.05-1.08.4-1.56.71-.31.2-.56.38-.81.56-.26.19-.52.38-.84.59-.19.12-.44.1-.6-.06s-.19-.41-.07-.6c.26-.43.51-.83.65-1.26.14-.44.14-.85 0-1.16s-.45-.53-.74-.51c-.42.03-.77.5-1.09 1.01-.29.47-.57.92-.84 1.38-.39.65-1.04 1.11-1.78 1.27s-1.49.02-2.12-.41c-.94-.64-1.95-1.19-2.99-1.63-.31-.13-.63-.26-.94-.27-.26 0-.51.09-.62.24-.15.21-.09.56.06.8.2.33.47.57.83.83.2.15.25.43.12.64s-.4.29-.63.18c-.56-.27-1.22-.32-1.82-.13-.21.07-.5.2-.66.42-.12.16-.14.38-.06.51.14.23.08.53-.15.67-.07.06-.16.09-.25.09z" fill="#000000" fill-opacity="1" data-original-color="#000000ff" stroke="none" stroke-opacity="1"/></g></g></g></g></g></svg>