<svg id="Layer_1" enable-background="new 0 0 66 66" viewBox="0 0 66 66" xmlns="http://www.w3.org/2000/svg" width="300" height="300" version="1.1" xmlns:xlink="http://www.w3.org/1999/xlink" xmlns:svgjs="http://svgjs.dev/svgjs"><g width="100%" height="100%" transform="matrix(1,0,0,1,0,0)"><g><g><g><path d="m58.17 44.83c-.05-3.99-.11-8.83-.16-13.6-.05-4.16-.09-8.28-.14-11.75-.06-4.61-.69-5.78-1.06-6.06-.45-.35-2.25-.52-2.93-.58-6.6-.63-13.31-.95-19.95-.95-7.9 0-15.88.45-23.72 1.35-.59.07-1.1.21-1.51.41-.39.19-.65.35-.81.47.01 3.62-.03 19.43-.05 30.03.16-.05.32-.06.48-.02.46.1.66.59.58 1.02-.01.05-.01.07-.01.08 0 .03-.01.06-.01.1-.01.08-.01.16-.01.25 0 .19.01.39.01.58.01.36 0 .71-.03 1.07-.02.2-.03.4-.04.6v.2c.02.01.04.02.05.02.06.02.12.03.18.04.01 0 .03 0 .04.01.05-.01.3.03.34.03.27.02.54.04.81.06.82.06 1.64.12 2.46.12.46 0 .81.38.83.83 0 .05 0 .1-.01.15 6.65.41 13.22.62 19.6.62 8 0 15.93-.32 23.58-.96l.18-.02h.18c.95-.02.99-.43 1.02-.68.11-1.13.12-2.36.1-3.42z" fill="#ffffff" fill-opacity="1" data-original-color="#ffffffff" stroke="none" stroke-opacity="1"/></g><g><path d="m63.83 48.87c-.4 3.59-3.26 5.77-6.68 5.84-16.1 1.35-32.52 1.28-49.21 0-3.3-.04-5.95-2.88-5.94-6.38.02-10.27.08-32.63.06-34.77-.02-2.39 1.75-4.01 4.06-5.15 1.09-.51 2.25-.82 3.43-.95 14.9-1.71 29.96-1.84 44.88-.41 2.08.2 4.26.47 5.94 1.78 2.94 2.28 3.25 6.72 3.31 10.57.1 7.47.2 17.88.3 25.35.02 1.34.01 2.75-.15 4.12z" fill="#ffffff" fill-opacity="1" data-original-color="#ffffffff" stroke="none" stroke-opacity="1"/></g><g><path d="m58.17 44.83c-.05-3.99-.11-8.83-.16-13.6-.05-4.16-.09-8.28-.14-11.75-.06-4.61-.69-5.78-1.06-6.06-.45-.35-2.25-.52-2.93-.58-6.6-.63-13.31-.95-19.95-.95-7.9 0-15.88.45-23.72 1.35-.59.07-1.1.21-1.51.41-.39.19-.65.35-.81.47.01 3.62-.03 19.43-.05 30.03.16-.05.32-.06.48-.02.46.1.66.59.58 1.02-.01.05-.01.07-.01.08 0 .03-.01.06-.01.1-.01.08-.01.16-.01.25 0 .19.01.39.01.58.01.36 0 .71-.03 1.07-.02.2-.03.4-.04.6v.2c.02.01.04.02.05.02.06.02.12.03.18.04.01 0 .03 0 .04.01.05-.01.3.03.34.03.27.02.54.04.81.06.82.06 1.64.12 2.46.12.46 0 .81.38.83.83 0 .05 0 .1-.01.15 6.65.41 13.22.62 19.6.62 8 0 15.93-.32 23.58-.96l.18-.02h.18c.95-.02.99-.43 1.02-.68.11-1.13.12-2.36.1-3.42z" fill="#ffad00" fill-opacity="1" data-original-color="#ffad00ff" stroke="none" stroke-opacity="1"/></g><g><path d="m34.2 49.88c-.36 0-.73 0-1.1 0-6.38 0-12.95-.21-19.6-.62 0-.05.01-.1.01-.15-.02-.45-.36-.82-.83-.83-.82 0-1.64-.06-2.46-.12-.27-.02-.54-.04-.81-.06-.03 0-.29-.04-.33-.03-.01 0-.03 0-.04 0-.06-.01-.12-.02-.18-.04 0 0-.03-.01-.05-.02 0-.07 0-.14 0-.2 0-.2.02-.4.03-.6.03-.36.04-.71.03-1.07 0-.2-.01-.39-.01-.59 0-.08 0-.16.01-.25 0-.03 0-.06.01-.1 0 0 0-.03.01-.08.09-.42-.12-.91-.58-1.02-.15-.03-.32-.02-.48.02.02-10.59.06-26.41.05-30.03.16-.12.42-.28.81-.47.41-.2.93-.34 1.52-.41.03 0 .06-.01.1-.01 0 4.75-.03 20.88-.05 30.92.15-.05.32-.06.48-.02.46.11.66.6.58 1.02-.01.05-.01.08-.01.08 0 .03-.01.06-.01.1 0 .08-.01.16-.01.25 0 .19.01.39.01.59.01.36 0 .71-.03 1.07-.01.2-.03.4-.03.6v.2c.02.01.04.02.05.02.06.02.12.03.18.04h.04c.05-.01.31.03.33.03l.81.06c.82.05 1.64.12 2.46.12.46 0 .81.38.83.83 0 .05 0 .11-.01.15 6.17.39 12.31.6 18.27.62z" fill="#ffffff" fill-opacity="1" data-original-color="#ffffffff" stroke="none" stroke-opacity="1"/></g><g><g><path d="m22.52 29.75c-.26 4.03 1.63 8.18 4.94 10.5s7.95 2.66 11.48.7c3.51-1.95 5.67-5.99 5.62-10.01-.04-3.87-2.06-7.66-5.24-9.86-2.61-1.81-5.95-2.5-9.08-1.95-2.83.49-5.02 3.14-6.3 5.6-.81 1.54-1.31 3.26-1.42 5.02z" fill="#ffffff" fill-opacity="1" data-original-color="#ffffffff" stroke="none" stroke-opacity="1"/></g><g><path d="m31.79 34.44c3.02-.58 6.75-2.17 6.38-4.96-.16-1.21-3.21-2.81-3.47-2.94-.93-.47-1.91-.85-2.91-1.11-2.92.01-2.92 9.01 0 9.01z" fill="#ffad00" fill-opacity="1" data-original-color="#ffad00ff" stroke="none" stroke-opacity="1"/></g><g><path d="m33.83 42.72c-2.34 0-4.7-.7-6.65-2.07-3.4-2.38-5.42-6.67-5.14-10.93.11-1.77.62-3.57 1.48-5.22.81-1.55 3.07-5.23 6.65-5.85 3.3-.57 6.74.17 9.44 2.03 3.32 2.29 5.4 6.22 5.45 10.25.05 4.27-2.31 8.46-5.87 10.44-1.64.9-3.49 1.35-5.36 1.35zm-10.83-12.94c-.25 3.93 1.61 7.88 4.73 10.08 3.22 2.26 7.63 2.53 10.97.67 3.26-1.81 5.42-5.66 5.37-9.58-.04-3.72-1.97-7.35-5.03-9.47-2.49-1.72-5.67-2.41-8.72-1.87-3.15.55-5.21 3.92-5.95 5.34-.79 1.52-1.27 3.19-1.37 4.83z" fill="#000000" fill-opacity="1" data-original-color="#000000ff" stroke="none" stroke-opacity="1"/></g></g><g><path d="m33.1 56.18c-8.23 0-16.65-.33-25.19-.98-3.52-.04-6.4-3.12-6.39-6.86.02-9.76.08-32.62.06-34.76-.02-2.29 1.44-4.16 4.33-5.58 1.08-.54 2.29-.88 3.59-1.03 14.89-1.71 30.03-1.84 44.98-.41 2.27.22 4.45.52 6.19 1.88 2.97 2.31 3.44 6.63 3.49 10.95.05 3.48.09 7.6.14 11.76.05 4.77.11 9.6.16 13.59.02 1.26.01 2.74-.15 4.18-.41 3.67-3.28 6.19-7.15 6.27-7.79.66-15.83.99-24.06.99zm.83-49.63c-8.13 0-16.27.46-24.33 1.39-1.18.13-2.28.44-3.26.92-2.56 1.26-3.8 2.8-3.79 4.71.02 2.15-.04 25.01-.06 34.77-.01 3.21 2.44 5.86 5.46 5.89 17.05 1.31 33.58 1.31 49.16 0 3.39-.07 5.88-2.24 6.23-5.41.16-1.39.16-2.83.15-4.06-.05-3.99-.11-8.82-.16-13.59-.05-4.16-.09-8.28-.14-11.76-.06-4.08-.47-8.14-3.12-10.2-1.54-1.2-3.57-1.48-5.69-1.68-6.79-.65-13.62-.98-20.45-.98z" fill="#000000" fill-opacity="1" data-original-color="#000000ff" stroke="none" stroke-opacity="1"/></g><g><path d="m33.1 50.37c-6.34 0-12.94-.21-19.63-.62-.14-.01-.27-.08-.35-.18s-.12-.25-.1-.38c0-.22-.13-.41-.34-.41-.81 0-1.62-.06-2.41-.11l-.9-.07c-.01 0-.05-.01-.1-.01-.05-.01-.12-.02-.17-.02-.04 0-.08 0-.13-.01-.12-.02-.19-.04-.26-.06-.02-.01-.08-.03-.1-.03-.18-.07-.3-.25-.31-.44v-.06c0-.05 0-.11 0-.16 0-.2.02-.4.04-.6.03-.4.04-.73.03-1.05v-.1c-.01-.17-.01-.34-.01-.51 0-.09 0-.18.01-.27l.01-.09c0-.03.01-.06.02-.09s.01-.05.01-.06c.03-.16-.02-.41-.21-.45-.07-.02-.15-.01-.23.01-.15.05-.31.02-.43-.07s-.2-.24-.2-.39c.03-11.2.06-26.51.05-30.03 0-.16.07-.3.2-.39.23-.17.53-.34.88-.51.47-.23 1.03-.38 1.67-.45 7.86-.9 15.86-1.36 23.78-1.36 6.65 0 13.38.32 20 .96 1.87.18 2.79.38 3.18.68.79.61 1.2 2.72 1.25 6.44.05 3.47.09 7.59.14 11.75.05 4.78.11 9.61.16 13.6.01 1.08.01 2.33-.12 3.45-.05.47-.26 1.09-1.49 1.11l-.34.02c-7.65.64-15.59.96-23.6.96zm-19.15-1.56c6.52.39 12.96.59 19.14.59 7.98 0 15.9-.32 23.54-.96l.4-.02c.52-.01.53-.11.55-.25.12-1.07.12-2.29.11-3.33-.05-3.99-.11-8.83-.16-13.6-.05-4.16-.09-8.28-.14-11.75-.07-4.92-.79-5.62-.88-5.69-.1-.08-.56-.28-2.68-.48-6.59-.63-13.28-.95-19.9-.95-7.88 0-15.85.45-23.67 1.35-.53.06-.99.18-1.36.36-.23.11-.4.21-.54.29 0 3.83-.03 17.5-.05 29.26.03 0 .07.01.1.02.76.17 1.08.94.95 1.59 0 .02-.01.04-.01.06v.05c0 .07-.01.15-.01.22 0 .15 0 .31.01.46v.1c.01.36 0 .73-.03 1.13-.01.13-.02.25-.03.36.04 0 .08.01.13.02l.92.07c.77.05 1.57.11 2.34.11.61-.01 1.12.41 1.27.99z" fill="#000000" fill-opacity="1" data-original-color="#000000ff" stroke="none" stroke-opacity="1"/></g></g><g><g><g><g><path d="m15.6 44.8c.45-.88 1.4-1.39 2.39-1.39h1.17c.19-.78.22-1.59.07-2.38-.28-1.51-1.21-2.88-2.51-3.7-.94-.6-2.06-.9-3.18-.91-1.35-.02-2.7.39-3.83 1.12-1.44.93-2.53 2.4-2.96 4.06s-.19 3.49.68 4.96c.31.52.69 1 1.06 1.49 4.77-.47 6.5-2.06 7.11-3.25z" fill="#ffffff" fill-opacity="1" data-original-color="#ffffffff" stroke="none" stroke-opacity="1"/></g><g><path d="m21.89 54.77c-.09-.66-.24-1.36-.72-1.83-.69-.68-1.78-.64-2.74-.53s-2.03.21-2.78-.38c-.7-.55-.9-1.58-.67-2.44s.81-1.59 1.44-2.23c.62-.64 1.31-1.23 1.84-1.95.43-.59.73-1.27.91-1.98h-1.17c-.99 0-1.93.51-2.39 1.39-.61 1.19-2.34 2.79-7.1 3.25.28.38.55.76.76 1.18.48.96.57 2.26-.19 3.01-.59.54-1.49.64-2.3.54s-1.6-.36-2.41-.38-1.71.26-2.11.98c-.29.51-.26 1.14-.23 1.72.1 1.63.2 3.18.3 4.81h19.49c.29-1.7.31-3.45.07-5.16z" fill="#296ff9" fill-opacity="1" data-original-color="#8d77e6ff" stroke="none" stroke-opacity="1"/></g></g></g><g><g><g><g><path d="m8.5 48.52c-.15 0-.3-.07-.39-.2l-.22-.3c-.3-.39-.6-.79-.86-1.23-.94-1.58-1.21-3.52-.74-5.33.46-1.75 1.61-3.34 3.16-4.34 1.22-.79 2.69-1.21 4.1-1.2 1.25.01 2.43.36 3.43.99 1.4.88 2.42 2.39 2.73 4.02.16.83.13 1.73-.08 2.59-.05.22-.25.37-.47.37h-1.17c-.83 0-1.6.44-1.95 1.13-.69 1.34-2.55 3.03-7.49 3.51-.02-.01-.03-.01-.05-.01zm4.97-11.62c-1.21 0-2.45.37-3.49 1.04-1.35.88-2.36 2.25-2.75 3.77-.4 1.54-.16 3.25.63 4.59.23.39.51.76.8 1.14l.06.08c4.53-.49 5.98-2.06 6.45-2.96.52-1.02 1.6-1.65 2.82-1.65h.78c.1-.61.1-1.23-.01-1.81-.26-1.37-1.12-2.64-2.29-3.38-.85-.54-1.86-.82-2.93-.84-.02.02-.05.02-.07.02z" fill="#000000" fill-opacity="1" data-original-color="#000000ff" stroke="none" stroke-opacity="1"/></g><g><path d="m21.83 60.42c-.03 0-.05 0-.08-.01-.26-.04-.44-.29-.4-.56.27-1.66.3-3.35.07-5.02-.08-.59-.21-1.19-.58-1.55-.53-.52-1.48-.49-2.34-.4-.93.1-2.21.25-3.14-.48-.8-.63-1.14-1.82-.84-2.95.28-1.03.98-1.85 1.56-2.45.18-.18.36-.36.54-.54.46-.45.9-.87 1.25-1.36.27-.37.48-.78.64-1.21h-.52c-.83 0-1.6.44-1.95 1.13-.65 1.26-2.34 2.84-6.67 3.41.12.19.22.37.32.57.55 1.1.67 2.63-.28 3.57-.6.59-1.56.85-2.69.71-.35-.04-.69-.11-1.02-.18-.47-.1-.91-.19-1.35-.2-.57-.01-1.36.17-1.67.73-.21.38-.2.86-.16 1.46l.3 4.81c.02.27-.19.5-.45.51-.27.02-.5-.19-.51-.45l-.3-4.81c-.03-.56-.08-1.34.28-1.99.52-.94 1.66-1.25 2.54-1.22.53.01 1.03.12 1.52.22.32.07.63.13.94.17.48.06 1.37.08 1.89-.44.61-.6.48-1.69.1-2.45-.18-.36-.42-.7-.71-1.1-.1-.14-.13-.33-.05-.49.07-.16.22-.27.4-.29 4.74-.46 6.25-2.07 6.72-2.98.52-1.02 1.6-1.65 2.82-1.65h1.17c.15 0 .29.07.38.19s.13.27.09.41c-.19.79-.52 1.52-.98 2.15-.4.56-.89 1.03-1.36 1.49-.18.17-.35.34-.52.52-.5.51-1.1 1.2-1.32 2.02-.2.75 0 1.55.5 1.94.62.49 1.62.37 2.43.28 1.09-.12 2.31-.14 3.13.67.58.57.76 1.39.86 2.11.24 1.76.22 3.55-.07 5.31-.06.23-.26.4-.49.4z" fill="#000000" fill-opacity="1" data-original-color="#000000ff" stroke="none" stroke-opacity="1"/></g></g></g><g><g><path d="m39.72 46.44c.88-1.24.64-2.95.35-4.45-.28-1.45-.61-3-1.7-3.99-.83-.75-1.96-1.06-3.06-1.28-1.9-.38-4-.57-5.68.4-1.16.67-1.98 1.84-2.42 3.11s-.53 2.63-.48 3.97c.03.89.15 1.82.67 2.54.84.21 1.71.34 2.56.42 3.27.32 6.58.06 9.76-.72z" fill="#296ff9" fill-opacity="1" data-original-color="#8d77e6ff" stroke="none" stroke-opacity="1"/></g><g><path d="m32.39 47.17c.48.05.96.08 1.43.1-1.28.05-2.57.02-3.85-.1-.86-.08-1.72-.21-2.57-.43-.51-.71-.63-1.65-.67-2.54-.05-1.34.04-2.7.48-3.97s1.26-2.44 2.42-3.11c1.27-.74 2.78-.81 4.27-.63-.65.1-1.27.3-1.85.63-1.16.68-1.98 1.84-2.42 3.11s-.53 2.63-.48 3.97v.03c.06 1.49 1.23 2.7 2.71 2.88.19.03.36.05.53.06z" fill="#ffffff" fill-opacity="1" data-original-color="#ffffffff" stroke="none" stroke-opacity="1"/></g><g><path d="m42.66 59.93c.06-1.83.12-3.66.18-5.49.02-.55.03-1.13-.24-1.61-.38-.67-1.23-.95-2-.97-.78-.02-1.55.14-2.32.09-.77-.06-1.6-.41-1.9-1.13-.37-.9.27-1.91 1.03-2.52s1.69-1.03 2.28-1.81c.01-.02.02-.04.03-.06-3.18.78-6.48 1.05-9.74.74-.86-.08-1.73-.21-2.56-.42.04.05.07.1.11.15.56.66 1.42.97 2.2 1.36s1.57.96 1.73 1.82c.17.91-.46 1.8-1.26 2.27-.79.47-1.73.62-2.62.84s-1.82.55-2.4 1.27c-.71.87-.75 4.37-.65 5.49" fill="#ffad00" fill-opacity="1" data-original-color="#ffad00ff" stroke="none" stroke-opacity="1"/></g><g><path d="m33.87 50.07c.17.91-.46 1.8-1.26 2.27-.79.47-1.73.62-2.62.84-.9.22-1.82.56-2.4 1.27-.71.88-.75 4.37-.64 5.49h-2.42c-.11-1.12-.07-4.61.64-5.49.59-.71 1.51-1.05 2.4-1.27.9-.22 1.83-.37 2.62-.84.79-.46 1.43-1.36 1.26-2.27-.16-.85-.95-1.43-1.73-1.82s-1.64-.69-2.2-1.36c-.04-.04-.07-.1-.11-.15.84.21 1.71.34 2.57.43.09.01.18.02.27.02.54.47 1.24.74 1.89 1.06.77.39 1.57.97 1.73 1.82z" fill="#ffffff" fill-opacity="1" data-original-color="#ffffffff" stroke="none" stroke-opacity="1"/></g><g><path d="m32.68 47.79c-.92 0-1.84-.04-2.75-.13-.98-.09-1.84-.24-2.64-.44-.11-.03-.21-.09-.27-.19-.61-.85-.73-1.94-.76-2.8-.06-1.66.1-2.98.5-4.15.52-1.49 1.45-2.68 2.63-3.37 1.9-1.1 4.21-.82 6.02-.46 1.17.24 2.38.57 3.29 1.39 1.25 1.14 1.6 2.94 1.85 4.25.31 1.6.55 3.43-.43 4.82-.07.1-.17.16-.28.19-2.38.59-4.78.89-7.16.89zm-4.97-1.47c.7.17 1.46.29 2.31.37 3.12.3 6.28.07 9.4-.68.65-1.07.44-2.53.18-3.93-.29-1.53-.61-2.87-1.55-3.72-.69-.63-1.63-.92-2.83-1.16-1.64-.33-3.72-.59-5.34.35-.98.57-1.76 1.58-2.2 2.85-.37 1.06-.51 2.26-.45 3.8.02.71.1 1.51.48 2.12z" fill="#000000" fill-opacity="1" data-original-color="#000000ff" stroke="none" stroke-opacity="1"/></g><g><path d="m24.52 60.42c-.25 0-.46-.19-.48-.44-.05-.58-.19-4.68.75-5.84.7-.86 1.79-1.22 2.66-1.43.17-.04.34-.08.51-.12.72-.17 1.4-.32 1.98-.66.59-.35 1.16-1.05 1.03-1.76-.1-.54-.6-1.04-1.47-1.47-.14-.07-.29-.14-.43-.21-.69-.32-1.4-.65-1.92-1.27-.04-.04-.07-.09-.1-.13l-.03-.04c-.12-.17-.12-.39-.01-.56s.32-.25.52-.2c.75.19 1.57.32 2.49.41 3.18.3 6.4.06 9.58-.72.2-.05.4.03.52.2.11.17.11.39 0 .55 0 .01-.02.04-.04.06-.44.59-1.03.98-1.6 1.36-.27.18-.53.35-.76.54-.61.49-1.15 1.3-.88 1.95.22.55.94.79 1.48.83.38.03.77 0 1.18-.04.36-.03.74-.06 1.12-.05 1.11.03 1.99.48 2.41 1.21.35.61.32 1.31.31 1.86l-.18 5.49c-.01.27-.23.48-.5.47s-.48-.23-.47-.5l.18-5.49c.02-.56.02-1.01-.18-1.35-.25-.43-.84-.7-1.6-.73-.33-.01-.66.02-1.01.05-.43.04-.88.07-1.33.04-.86-.06-1.92-.47-2.31-1.43-.49-1.19.33-2.4 1.18-3.08.27-.21.55-.4.83-.59.02-.01.04-.02.05-.04-2.68.49-5.39.61-8.06.35-.15-.01-.3-.03-.44-.05.15.07.3.14.44.21 1.16.57 1.83 1.3 1.99 2.16.22 1.18-.59 2.24-1.49 2.77-.71.42-1.49.6-2.25.77-.17.04-.33.08-.5.12-.72.18-1.62.47-2.14 1.1-.53.65-.67 3.76-.54 5.14.02.27-.17.5-.44.53-.02.03-.04.03-.05.03z" fill="#000000" fill-opacity="1" data-original-color="#000000ff" stroke="none" stroke-opacity="1"/></g></g></g><g><g><g><path d="m45.23 59.93c-.29-1.48-.28-1.9-.11-3.4s.74-2.76 2.04-3.52c.59-.34 1.27-.51 1.94-.66 2.01-.46 9.79-1.67 12.13-.13 1.23.81 2.02 2.16 2.4 3.58s.39 2.65.33 4.12" fill="#ffffff" fill-opacity="1" data-original-color="#ffffffff" stroke="none" stroke-opacity="1"/></g><g><path d="m49.1 52.35c.41-.09 1.06-.22 1.86-.34-.46.12-.91.28-1.32.51-1.31.75-1.92 2.51-2.1 4.01-.17 1.5-.18 1.92.11 3.4h-2.42c-.3-1.48-.29-1.9-.11-3.4.17-1.5.74-2.76 2.04-3.51.6-.34 1.28-.51 1.94-.67z" fill="#e7ebf0" fill-opacity="1" data-original-color="#e7ebf0ff" stroke="none" stroke-opacity="1"/></g><g><path d="m57.61 48.34c-.11 1.12-.13 2.18 0 3.14-1.81-.05-3.89.15-5.6.38.54-.91.72-2.03.47-3.05.01-.01.02-.01.02-.02.28-.01.57-.04.85-.06 1.3-.12 2.61-.23 3.91-.35.12-.02.24-.03.35-.04z" fill="#ffffff" fill-opacity="1" data-original-color="#ffffffff" stroke="none" stroke-opacity="1"/></g><g><path d="m47.84 41.5c-.41 1.55-.29 3.25.35 4.72.39.89.98 1.73 1.85 2.17 1 .51 2.19.43 3.31.33 1.3-.12 2.61-.23 3.91-.35.37-.03.75-.07 1.06-.25.59-.34.8-1.07.91-1.74.3-1.88.18-3.82-.37-5.64-.2-.67-.47-1.34-.92-1.88-.52-.63-1.26-1.05-2.03-1.34-.9-.34-1.87-.64-2.83-.54-3.84.41-4.84 3.03-5.24 4.52z" fill="#296ff9" fill-opacity="1" data-original-color="#8d77e6ff" stroke="none" stroke-opacity="1"/></g><g><path d="m52.47 48.39c.31.16.64.26.98.32-.03 0-.06 0-.09.01-1.12.1-2.31.18-3.31-.33-.86-.45-1.46-1.28-1.84-2.17-.64-1.48-.77-3.17-.35-4.73.4-1.49 1.39-4.11 5.24-4.52.53-.06 1.06.01 1.57.14-3.15.68-4.03 3.01-4.4 4.39-.42 1.55-.29 3.25.35 4.73.38.88.98 1.72 1.85 2.16z" fill="#ffffff" fill-opacity="1" data-original-color="#ffffffff" stroke="none" stroke-opacity="1"/></g></g><g><path d="m52.03 49.28c-.74 0-1.51-.1-2.21-.46-.86-.44-1.58-1.28-2.07-2.41-.69-1.58-.82-3.37-.38-5.04.77-2.91 2.68-4.56 5.66-4.88 1.08-.12 2.15.22 3.06.56.98.37 1.71.86 2.23 1.49.54.66.82 1.44 1.01 2.05.57 1.89.7 3.91.39 5.86-.11.67-.35 1.62-1.15 2.08-.42.24-.89.28-1.26.32l-3.91.35c-.43.04-.89.08-1.37.08zm1.46-11.84c-.12 0-.23.01-.35.02-3.43.37-4.4 2.56-4.83 4.17-.39 1.46-.27 3.02.33 4.41.28.64.79 1.5 1.62 1.93.91.47 2.09.36 3.05.28l3.91-.35c.31-.03.63-.06.86-.19.34-.19.55-.64.67-1.4.29-1.8.17-3.68-.36-5.42-.23-.78-.49-1.3-.83-1.71-.4-.49-1.02-.89-1.83-1.2-.71-.29-1.48-.54-2.24-.54z" fill="#000000" fill-opacity="1" data-original-color="#000000ff" stroke="none" stroke-opacity="1"/></g><g><path d="m45.23 60.42c-.23 0-.43-.16-.47-.39-.3-1.53-.29-2.01-.12-3.55.21-1.85.96-3.12 2.28-3.88.64-.37 1.34-.55 2.07-.72.09-.02 9.58-1.99 12.5-.06 1.23.81 2.15 2.18 2.6 3.86.41 1.54.4 2.9.35 4.26-.01.27-.24.48-.5.47-.27-.01-.48-.23-.47-.5.06-1.59.03-2.69-.32-3.98-.39-1.45-1.17-2.62-2.2-3.3-2-1.32-9.12-.41-11.75.19-.68.16-1.28.31-1.8.61-1.05.61-1.63 1.61-1.8 3.15-.17 1.46-.18 1.83.1 3.25.05.26-.12.52-.38.57-.02.01-.06.02-.09.02z" fill="#000000" fill-opacity="1" data-original-color="#000000ff" stroke="none" stroke-opacity="1"/></g><g><path d="m52.01 52.34c-.16 0-.31-.08-.4-.22-.1-.16-.11-.36-.01-.52.48-.82.64-1.8.42-2.69-.04-.16.01-.33.12-.45.01-.01.04-.03.05-.05.09-.09.18-.12.3-.12.28-.01.55-.04.83-.06l3.92-.35c.11-.01.21-.02.31-.03.16-.02.32.04.43.15.09.1.14.24.12.37-.12 1.19-.12 2.18 0 3.02.02.14-.02.28-.12.39-.09.11-.23.17-.37.16-1.93-.05-4.07.18-5.52.38-.03.02-.05.02-.08.02zm1.04-3.11c.08.68 0 1.38-.23 2.03 1.23-.15 2.74-.28 4.2-.28h.05c-.05-.63-.05-1.33.01-2.11l-3.68.33c-.12.01-.23.02-.35.03z" fill="#000000" fill-opacity="1" data-original-color="#000000ff" stroke="none" stroke-opacity="1"/></g></g></g><g><path d="m31.79 34.93c-1.85 0-2.67-2.5-2.67-4.99 0-1.24.21-2.41.59-3.29.47-1.1 1.21-1.7 2.09-1.7.04 0 .08.01.12.02 1.04.27 2.05.65 3.01 1.15.83.42 3.54 1.91 3.72 3.3.41 3.01-3.23 4.82-6.77 5.5-.03 0-.06.01-.09.01zm-.06-9.01c-1.07.07-1.65 2.1-1.65 4.02s.58 3.97 1.66 4.02c2.95-.58 6.25-2.08 5.94-4.41-.08-.63-1.7-1.8-3.21-2.57-.87-.45-1.79-.81-2.74-1.06z" fill="#000000" fill-opacity="1" data-original-color="#000000ff" stroke="none" stroke-opacity="1"/></g></g></g></svg>