<svg id="Layer_1" enable-background="new 0 0 66 66" viewBox="0 0 66 66" xmlns="http://www.w3.org/2000/svg" width="300" height="300" version="1.1" xmlns:xlink="http://www.w3.org/1999/xlink" xmlns:svgjs="http://svgjs.dev/svgjs"><g width="100%" height="100%" transform="matrix(1,0,0,1,0,0)"><g><g><g><g><path d="m63.55 32.29c-.15 2.01-.72 3.95-1.65 5.74-4.33 8.29-13.06 16.82-24.53 25.5-.55.41-1.28.49-1.9.21-14.08-6.44-19.8-9.78-23.91-13.15-4.55-3.73-7.6-9-8.58-14.8-1.4-8.31-.33-18.47 2.3-29.97.12-.55.61-.93 1.17-.93h.59c.29 0 .56.11.77.29 7.37 6.32 18.46 6.84 24.2-2.6.28-.46.84-.71 1.39-.53.36.11.62.4.77.74 3.51 8.13 13.66 10.36 22.58 2.13.22-.21.51-.33.81-.33h.29c.53 0 1 .35 1.15.86 3.03 10.23 5.08 19.45 4.55 26.84z" fill="#296ff9" fill-opacity="1" data-original-color="#8d77e6ff" stroke="none" stroke-opacity="1"/></g><g><path d="m35.47 63.74c-14.08-6.43-19.8-9.78-23.91-13.15-4.55-3.73-7.6-9-8.57-14.8-1.4-8.31-.33-18.47 2.29-29.97.12-.55.61-.93 1.16-.93h.6c.29 0 .55.11.77.29.05.04.1.09.15.13-.13.14-.22.31-.26.5-2.63 11.5-3.7 21.66-2.3 29.97.98 5.81 4.03 11.07 8.57 14.8z" fill="#ffffff" fill-opacity="1" data-original-color="#ffffffff" stroke="none" stroke-opacity="1"/></g><g><g><path d="m54.96 23.72c1.02-.09 2.04-.18 3.07-.26-.54-3.74-1.44-7.64-2.43-11.33-3.37 2.02-6.94 3.06-10.52 3.06-4.85 0-9.25-1.99-12.39-5.42-3.55 3.32-8.1 5.14-13.05 5.14-3.59 0-7.19-.94-10.5-2.69-.82 4.31-1.34 8.22-1.56 11.78 15.64 2.4 31.6 1.07 47.38-.28z" fill="#ffad00" fill-opacity="1" data-original-color="#ffad00ff" stroke="none" stroke-opacity="1"/></g><g><path d="m9.14 12.21c.73.39 1.48.74 2.23 1.04-.7 3.9-1.15 7.85-1.35 11.08-.82-.1-1.63-.21-2.44-.33.22-3.56.74-7.47 1.56-11.79z" fill="#ffffff" fill-opacity="1" data-original-color="#ffffffff" stroke="none" stroke-opacity="1"/></g><g><path d="m54.96 23.72c-15.77 1.35-31.74 2.69-47.37.28-.26 4.11-.12 7.74.41 10.93.77 4.6 3.18 8.76 6.78 11.71 3.31 2.71 8.09 5.66 21.04 11.65 10.97-8.47 18.04-15.89 21.55-22.62.63-1.2.99-2.46 1.09-3.75.18-2.58-.02-5.48-.45-8.48-1.01.1-2.03.19-3.05.28z" fill="#ffffff" fill-opacity="1" data-original-color="#ffffffff" stroke="none" stroke-opacity="1"/></g></g></g><g><g><path d="m36.24 64.39c-.33 0-.66-.07-.98-.21-14.87-6.8-20.21-10.1-24.02-13.22-4.64-3.81-7.75-9.17-8.75-15.1-1.29-7.78-.54-17.64 2.32-30.15.17-.75.86-1.3 1.64-1.3h.59c.39 0 .77.14 1.08.4 4.03 3.45 9.17 5.08 13.76 4.35 4.03-.64 7.4-3.01 9.72-6.83.41-.68 1.21-.98 1.95-.74.46.14.85.51 1.06 1 1.53 3.55 4.45 6.01 8.02 6.77 4.44.94 9.47-.81 13.79-4.8.3-.29.71-.45 1.14-.45h.29c.74 0 1.4.5 1.61 1.21 2.44 8.23 5.16 18.75 4.57 27.02-.15 2.06-.72 4.05-1.7 5.93-4.06 7.79-12.13 16.18-24.66 25.66-.42.3-.92.46-1.43.46zm-29.79-59.02c-.33 0-.62.23-.69.55-2.84 12.39-3.59 22.13-2.3 29.78.96 5.7 3.94 10.85 8.41 14.51 3.74 3.07 9.03 6.33 23.8 13.09.46.21 1 .15 1.41-.16 12.41-9.39 20.39-17.68 24.39-25.34.92-1.76 1.45-3.63 1.6-5.55.58-8.12-2.12-18.52-4.53-26.68-.09-.3-.37-.51-.69-.51h-.29c-.18 0-.35.07-.48.19-4.56 4.21-9.9 6.05-14.65 5.04-3.88-.82-7.05-3.49-8.71-7.33-.1-.24-.28-.41-.47-.47-.37-.12-.68.08-.83.32-2.48 4.08-6.07 6.6-10.4 7.28-4.85.79-10.28-.91-14.52-4.54-.14-.12-.3-.18-.46-.18z" fill="#000000" fill-opacity="1" data-original-color="#000000ff" stroke="none" stroke-opacity="1"/></g><g><g><path d="m26.61 25.81c-6.37 0-12.76-.36-19.1-1.34-.25-.04-.42-.26-.41-.51.22-3.57.75-7.55 1.56-11.84.03-.15.13-.28.27-.35s.3-.06.44.01c3.25 1.72 6.81 2.63 10.28 2.63 4.81 0 9.2-1.73 12.72-5.01.09-.09.22-.13.35-.13s.25.06.34.16c3.11 3.39 7.38 5.26 12.03 5.26 3.5 0 6.96-1.01 10.27-2.99.13-.08.29-.09.43-.03s.25.18.29.32c1.16 4.34 1.96 8.07 2.44 11.39.02.13-.02.27-.1.37s-.2.17-.34.18l-3.08.27c-9.33.8-18.85 1.61-28.39 1.61zm-18.52-2.23c15.58 2.33 31.46.97 46.82-.35l2.55-.22c-.46-3-1.17-6.33-2.18-10.16-3.3 1.86-6.73 2.81-10.22 2.81-4.76 0-9.15-1.85-12.41-5.22-3.63 3.24-8.13 4.94-13.02 4.94-3.42 0-6.91-.84-10.15-2.45-.69 3.84-1.16 7.42-1.39 10.65z" fill="#000000" fill-opacity="1" data-original-color="#000000ff" stroke="none" stroke-opacity="1"/></g><g><path d="m35.83 58.78c-.07 0-.14-.01-.2-.04-13.09-6.05-17.79-8.97-21.15-11.72-3.69-3.03-6.16-7.29-6.95-12.01-.54-3.21-.68-6.92-.43-11.05.01-.14.07-.26.18-.35s.24-.12.38-.1c15.72 2.42 31.75 1.05 47.26-.28l3.07-.26c.25-.03.48.16.52.41.47 3.27.62 6.15.45 8.58-.1 1.35-.49 2.68-1.14 3.94-3.56 6.81-10.65 14.26-21.69 22.78-.09.07-.19.1-.3.1zm-27.8-34.23c-.21 3.84-.06 7.3.45 10.3.75 4.48 3.1 8.54 6.61 11.42 3.18 2.61 7.93 5.56 20.67 11.46 10.79-8.35 17.72-15.64 21.19-22.28.6-1.14.94-2.34 1.04-3.56.16-2.24.03-4.9-.38-7.92l-2.61.23-.04-.48.04.48c-15.39 1.32-31.3 2.68-46.97.35z" fill="#000000" fill-opacity="1" data-original-color="#000000ff" stroke="none" stroke-opacity="1"/></g></g></g><g><g><path d="m24.27 38.56c-.22 3.17 1.38 6.44 4.19 8.26s6.74 2.09 9.74.55c2.98-1.53 4.81-4.71 4.77-7.87-.04-3.04-1.75-6.03-4.45-7.76-2.22-1.42-5.05-1.97-7.7-1.54-2.4.39-4.26 2.47-5.34 4.4-.69 1.23-1.11 2.58-1.21 3.96z" fill="#ffffff" fill-opacity="1" data-original-color="#ffffffff" stroke="none" stroke-opacity="1"/></g><g><path d="m35.29 48.27c-2.36.34-4.87-.17-6.84-1.45-2.81-1.83-4.4-5.09-4.18-8.26.09-1.38.52-2.73 1.21-3.95 1.08-1.93 2.94-4.02 5.34-4.4 1.07-.17 2.17-.19 3.26-.05-.12.01-.24.03-.35.05-2.4.39-4.26 2.47-5.34 4.4-.69 1.22-1.12 2.57-1.21 3.95-.22 3.17 1.38 6.43 4.18 8.26 1.17.76 2.53 1.24 3.93 1.45z" fill="#ffad00" fill-opacity="1" data-original-color="#ffad00ff" stroke="none" stroke-opacity="1"/></g><g><path d="m33.87 48.86c-1.99 0-4-.55-5.67-1.64-2.91-1.89-4.64-5.31-4.41-8.7.1-1.41.54-2.85 1.27-4.16.69-1.23 2.63-4.15 5.69-4.64 2.81-.45 5.73.13 8.03 1.61 2.84 1.82 4.63 4.95 4.67 8.16.04 3.4-1.98 6.74-5.03 8.31-1.39.71-2.96 1.06-4.55 1.06zm-1.24-18.32c-.58 0-1.15.05-1.73.14-2.64.43-4.37 3.05-5 4.16-.66 1.18-1.06 2.48-1.15 3.75-.21 3.05 1.35 6.12 3.97 7.82 2.71 1.77 6.43 1.98 9.25.52 2.73-1.41 4.54-4.4 4.51-7.44-.04-2.89-1.65-5.71-4.22-7.35-1.64-1.04-3.62-1.6-5.63-1.6z" fill="#000000" fill-opacity="1" data-original-color="#000000ff" stroke="none" stroke-opacity="1"/></g><g><path d="m31.61 42.98c-.14 0-.27-.06-.36-.16l-2.43-2.71c-.18-.2-.16-.5.04-.68s.5-.16.68.04l2.08 2.32c1.71-1.75 3.88-3.46 6.45-5.11.22-.14.52-.08.67.15.14.22.08.52-.15.67-2.65 1.7-4.94 3.54-6.63 5.33-.09.09-.22.15-.35.15z" fill="#000000" fill-opacity="1" data-original-color="#000000ff" stroke="none" stroke-opacity="1"/></g></g></g><g><g><path d="m61.12 61.18c-.15 0-.3-.07-.39-.2-.12-.17-.26-.34-.4-.51-.17-.2-.15-.51.05-.68s.51-.15.68.05c.16.19.31.38.45.57.16.22.11.52-.11.68-.08.06-.18.09-.28.09z" fill="#000000" fill-opacity="1" data-original-color="#000000ff" stroke="none" stroke-opacity="1"/></g><g><path d="m58.79 58.8c-.11 0-.22-.04-.31-.11-1.71-1.42-3.53-2.51-3.55-2.52-.23-.14-.3-.43-.17-.66.14-.23.43-.3.66-.17.08.05 1.9 1.14 3.67 2.61.21.17.23.48.06.68-.08.11-.22.17-.36.17z" fill="#000000" fill-opacity="1" data-original-color="#000000ff" stroke="none" stroke-opacity="1"/></g><g><path d="m53.93 64.5c-.22 0-.42-.15-.47-.38-.33-1.54-.77-3.07-1.31-4.54-.09-.25.04-.53.29-.62s.53.04.62.29c.55 1.52 1.01 3.09 1.35 4.67.06.26-.11.52-.37.57-.04.01-.08.01-.11.01z" fill="#000000" fill-opacity="1" data-original-color="#000000ff" stroke="none" stroke-opacity="1"/></g><g><path d="m63.86 53.87c-.03 0-.05 0-.08-.01l-6.14-.99c-.26-.04-.44-.29-.4-.55s.29-.44.55-.4l6.14.99c.26.04.44.29.4.55-.03.25-.24.41-.47.41z" fill="#000000" fill-opacity="1" data-original-color="#000000ff" stroke="none" stroke-opacity="1"/></g></g><g><g><path d="m4.88 61.18c-.1 0-.2-.03-.28-.09-.22-.16-.27-.46-.11-.68.14-.19.29-.38.45-.57.17-.2.48-.23.68-.05.2.17.23.48.05.68-.14.17-.28.34-.4.51-.09.13-.24.2-.39.2z" fill="#000000" fill-opacity="1" data-original-color="#000000ff" stroke="none" stroke-opacity="1"/></g><g><path d="m7.21 58.8c-.14 0-.28-.06-.37-.17-.17-.21-.14-.51.06-.68 1.77-1.47 3.59-2.56 3.67-2.61.23-.14.53-.06.66.17.14.23.06.53-.17.66-.02.01-1.84 1.1-3.55 2.52-.08.08-.19.11-.3.11z" fill="#000000" fill-opacity="1" data-original-color="#000000ff" stroke="none" stroke-opacity="1"/></g><g><path d="m12.07 64.5c-.03 0-.07 0-.1-.01-.26-.06-.43-.31-.37-.57.34-1.58.8-3.15 1.35-4.67.09-.25.37-.38.62-.29s.38.37.29.62c-.54 1.48-.98 3-1.31 4.54-.06.23-.26.38-.48.38z" fill="#000000" fill-opacity="1" data-original-color="#000000ff" stroke="none" stroke-opacity="1"/></g><g><path d="m2.14 53.87c-.23 0-.44-.17-.48-.41-.04-.26.14-.51.4-.55l6.14-.99c.26-.04.51.14.55.4s-.14.51-.4.55l-6.14.99c-.02.01-.04.01-.07.01z" fill="#000000" fill-opacity="1" data-original-color="#000000ff" stroke="none" stroke-opacity="1"/></g></g></g></g></svg>