<svg id="Layer_1" enable-background="new 0 0 66 66" viewBox="0 0 66 66" xmlns="http://www.w3.org/2000/svg" width="300" height="300" version="1.1" xmlns:xlink="http://www.w3.org/1999/xlink" xmlns:svgjs="http://svgjs.dev/svgjs"><g width="100%" height="100%" transform="matrix(1,0,0,1,0,0)"><g><g><g><g><g><g><path d="m40.66 19.68c-1.63 1.98-1.92 6.48-1.92 6.48-1.27-3.14-1.55-6.31-3.14-9.39.38.21.77.42 1.15.63.24.13.47.26.71.4.23.13.47.26.7.4.42.24.84.48 1.26.73.41.26.83.51 1.24.75z" fill="#296ff9" fill-opacity="1" data-original-color="#8d77e6ff" stroke="none" stroke-opacity="1"/></g><g><path d="m44.53 22.12c-3.16.37-5.79 4.05-5.79 4.05s.28-4.5 1.92-6.48z" fill="#296ff9" fill-opacity="1" data-original-color="#6f5dd8ff" stroke="none" stroke-opacity="1"/></g><g><path d="m38.74 26.64c-.05 0-.11-.01-.16-.03-.2-.07-.33-.27-.32-.48.01-.19.31-4.68 2.03-6.75.15-.19.42-.23.62-.1l3.87 2.43c.17.11.26.31.21.51-.04.2-.21.35-.41.37-2.91.34-5.43 3.81-5.46 3.85-.08.13-.23.2-.38.2zm2.04-6.31c-.77 1.17-1.18 3-1.38 4.3.89-.94 2.28-2.16 3.9-2.72z" fill="#000000" fill-opacity="1" data-original-color="#000000ff" stroke="none" stroke-opacity="1"/></g><g><path d="m27.7 12.76c4.01-1.17 8.03-2.34 12.05-3.46 3.76-1.05 21-6.12 23.95-7-6.62 8.92-10.68 16.09-15.67 22.2-6.25-4.41-13.05-8.3-20.33-11.74z" fill="#296ff9" fill-opacity="1" data-original-color="#8d77e6ff" stroke="none" stroke-opacity="1"/></g><g><path d="m63.71 2.29c-.77 1.05-1.51 2.06-2.22 3.06-5.63 1.66-18.54 5.45-21.73 6.34-2.99.83-5.98 1.7-8.97 2.57-1.02-.51-2.04-1.02-3.08-1.51 4.02-1.17 8.03-2.34 12.05-3.46 3.76-1.04 20.99-6.11 23.95-7z" fill="#ffffff" fill-opacity="1" data-original-color="#ffffffff" stroke="none" stroke-opacity="1"/></g><g><path d="m48.04 24.98c-.1 0-.19-.03-.28-.09-6.07-4.28-12.89-8.21-20.27-11.7-.18-.09-.29-.27-.27-.47s.15-.37.34-.42l.13.46-.1-.47c3.94-1.15 8.01-2.33 12.03-3.45 3.63-1.01 20.85-6.07 23.94-7 .2-.06.41.01.53.18s.12.4-.01.56c-3.02 4.07-5.56 7.86-7.8 11.2-2.77 4.13-5.16 7.69-7.88 11.02-.08.12-.22.18-.36.18zm-19-12.11c6.85 3.3 13.2 6.99 18.91 10.98 2.57-3.2 4.88-6.64 7.54-10.6 2.03-3.03 4.31-6.43 6.98-10.08-5.13 1.52-19.22 5.66-22.59 6.6-3.61 1-7.27 2.06-10.84 3.1z" fill="#000000" fill-opacity="1" data-original-color="#000000ff" stroke="none" stroke-opacity="1"/></g><g><path d="m38.74 26.64c-.19 0-.37-.12-.44-.3-.56-1.37-.93-2.76-1.29-4.1-.49-1.82-.95-3.54-1.83-5.25-.1-.19-.06-.42.09-.56.15-.15.38-.18.57-.08.38.21.77.42 1.15.64.24.13.47.26.71.4.24.13.47.27.7.4l.32.18c.31.18.63.36.95.55.31.18.61.36.92.55l.33.2c.12.07.2.19.23.33.02.14-.01.28-.1.39-1.52 1.83-1.81 6.16-1.81 6.2-.01.22-.18.41-.4.44-.05.01-.08.01-.1.01zm-2.1-8.74c.56 1.37.93 2.75 1.29 4.1.18.69.37 1.38.59 2.08.23-1.34.67-3.05 1.44-4.25-.26-.16-.53-.32-.79-.47-.31-.19-.62-.37-.93-.54l-.32-.19c-.23-.13-.46-.26-.69-.39-.2-.12-.4-.23-.59-.34z" fill="#000000" fill-opacity="1" data-original-color="#000000ff" stroke="none" stroke-opacity="1"/></g><g><path d="m63.71 2.29-23.05 17.4c-1.66-1-3.34-1.97-5.06-2.91z" fill="#ffffff" fill-opacity="1" data-original-color="#ffffffff" stroke="none" stroke-opacity="1"/></g><g><path d="m40.66 20.16c-.09 0-.17-.02-.25-.07-1.65-1-3.34-1.97-5.04-2.9-.16-.09-.25-.25-.25-.43s.1-.34.26-.42l28.11-14.47c.22-.11.49-.04.63.17.13.21.08.49-.12.64l-23.05 17.39c-.09.06-.19.09-.29.09zm-4.04-3.37c1.35.75 2.7 1.53 4.01 2.32l18.31-13.82z" fill="#000000" fill-opacity="1" data-original-color="#000000ff" stroke="none" stroke-opacity="1"/></g></g><g><g><path d="m38.71 30.01c-.17 0-.33-.09-.42-.25-.41-.74-.47-1.58-.18-2.27.1-.24.39-.36.63-.25.24.1.36.39.25.63-.18.41-.13.96.14 1.43.13.23.04.52-.19.65-.08.04-.16.06-.23.06z" fill="#000000" fill-opacity="1" data-original-color="#000000ff" stroke="none" stroke-opacity="1"/></g><g><path d="m34.59 48.89c-.23 0-.44-.17-.47-.41-.04-.26.14-.51.41-.54 1.26-.18 2.52-.4 3.77-.63.26-.05.51.12.56.38s-.12.51-.38.56c-1.25.24-2.53.45-3.8.64-.04-.01-.06 0-.09 0zm7.54-1.42c-.22 0-.42-.15-.47-.37-.06-.26.1-.52.36-.57l.33-.08c1.24-.29 2.34-.58 3.35-.88.26-.08.52.07.6.32.07.25-.07.52-.32.6-1.03.3-2.15.6-3.41.89l-.34.08c-.03 0-.06.01-.1.01zm7.34-2.22c-.19 0-.37-.11-.44-.3-.1-.25.02-.53.26-.62 1.22-.5 2.36-1.05 3.39-1.64.23-.13.52-.05.66.17.13.23.05.52-.17.66-1.06.62-2.24 1.19-3.51 1.7-.07.02-.13.03-.19.03zm6.59-3.87c-.14 0-.27-.06-.37-.17-.17-.2-.14-.51.06-.68.99-.83 1.89-1.72 2.67-2.64.17-.2.47-.23.68-.06.2.17.23.47.06.68-.81.96-1.75 1.89-2.78 2.76-.1.07-.21.11-.32.11zm4.84-5.89c-.07 0-.14-.01-.21-.05-.24-.11-.34-.4-.23-.64.55-1.15.83-2.26.83-3.29v-.18c-.01-.26.2-.49.47-.49.26-.01.49.2.49.47v.21c0 1.18-.31 2.43-.92 3.71-.08.16-.25.26-.43.26zm-18.3-3.86c-.2 0-.41-.01-.61-.02-.26-.02-.47-.24-.45-.51.02-.26.24-.47.51-.45 1.14.07 2.3-.07 3.63-.44.25-.07.52.08.59.34s-.08.52-.34.59c-1.19.33-2.28.49-3.33.49zm6.81-1.8c-.19 0-.36-.11-.44-.29-.1-.24.01-.53.25-.63l.82-.36c.89-.39 1.81-.79 2.74-1.14.25-.09.52.03.62.28.09.25-.03.52-.28.62-.9.34-1.81.74-2.69 1.12l-.83.36c-.06.03-.13.04-.19.04zm10.86-1.43c-.1 0-.21-.03-.3-.1-.48-.38-1.08-.66-1.71-.79-.35-.07-.75-.12-1.13-.11-.15 0-.3.01-.45.02-.25.02-.49-.18-.51-.45-.02-.26.18-.49.45-.51.17-.01.34-.02.52-.02.46 0 .9.04 1.31.13.78.16 1.51.5 2.11.97.21.16.24.47.08.67-.08.13-.22.19-.37.19z" fill="#000000" fill-opacity="1" data-original-color="#000000ff" stroke="none" stroke-opacity="1"/></g><g><path d="m28.86 49.54c-.25 0-.46-.19-.48-.44-.02-.26.17-.5.44-.52.63-.05 1.27-.11 1.9-.18.27-.03.5.16.53.43.03.26-.16.5-.43.53-.64.07-1.28.13-1.92.18-.01 0-.03 0-.04 0z" fill="#000000" fill-opacity="1" data-original-color="#000000ff" stroke="none" stroke-opacity="1"/></g></g></g><g><path d="m63.7 2.3c-6.62 8.92-10.68 16.09-15.67 22.2-2.38-1.68-4.84-3.28-7.38-4.81z" fill="#296ff9" fill-opacity="1" data-original-color="#8d77e6ff" stroke="none" stroke-opacity="1"/></g><g><path d="m48.04 24.98c-.1 0-.19-.03-.28-.09-2.33-1.64-4.8-3.25-7.32-4.78-.09-.05-.16-.12-.21-.21-.1-.19-.05-.42.1-.57.02-.02.04-.03.06-.05l23.03-17.37c.21-.16.5-.12.66.08.15.18.14.43 0 .61-3.02 4.07-5.55 7.85-7.79 11.18-2.77 4.13-5.16 7.69-7.88 11.02-.09.12-.23.18-.37.18zm-6.53-5.34c2.21 1.35 4.37 2.76 6.43 4.21 2.57-3.2 4.88-6.64 7.54-10.6 1.76-2.62 3.71-5.52 5.92-8.62z" fill="#000000" fill-opacity="1" data-original-color="#000000ff" stroke="none" stroke-opacity="1"/></g></g><g><g><g><g><path d="m35.39 57.95c-3.85 3.97-9.5 6.11-15.02 5.71s-10.8-3.31-14.1-7.75c-3.31-4.43-4.83-10.79-3.48-15.72 2.22-8.13 7.61-12.06 13.85-13.5 7.72-1.77 15.91.96 20.41 7.48.97 1.4 1.74 2.93 2.29 4.54 2.19 6.46.8 14.35-3.95 19.24z" fill="#ffffff" fill-opacity="1" data-original-color="#ffffffff" stroke="none" stroke-opacity="1"/></g><g><path d="m38.87 52.57c-.06-.07-.11-.14-.16-.21-.93-1.4-.81-3.22-.87-4.91-.07-1.68-.52-3.61-2.02-4.37-1.34-.68-2.94-.16-4.37.27-1.44.43-3.16.71-4.28-.29-.99-.89-1.04-2.5-.45-3.7.59-1.19 1.67-2.07 2.74-2.86s2.19-1.57 2.93-2.68c.86-1.29.71-2.55.65-3.83 1.53 1.15 2.88 2.54 4.01 4.17.97 1.4 1.74 2.93 2.29 4.54 1.5 4.44 1.32 9.52-.47 13.87z" fill="#ffad00" fill-opacity="1" data-original-color="#ffad00ff" stroke="none" stroke-opacity="1"/></g><g><path d="m39.54 50.65c-.19.65-.42 1.29-.67 1.92-.06-.07-.11-.14-.16-.21-.93-1.4-.81-3.22-.87-4.91-.07-1.68-.52-3.61-2.02-4.37-.25-.13-.51-.21-.78-.26.79-.12 1.56-.09 2.27.26 1.5.76 1.95 2.69 2.02 4.37.04 1.06.01 2.17.21 3.2z" fill="#ffffff" fill-opacity="1" data-original-color="#ffffffff" stroke="none" stroke-opacity="1"/></g><g><path d="m28.22 61.8c-.08.3-.18.58-.32.85-2.42.83-4.99 1.19-7.54 1-4.74-.34-9.3-2.55-12.58-5.97.32-.38.59-.78.77-1.25.66-1.73-.2-3.63-1.06-5.27-.85-1.64-1.77-3.49-1.22-5.26.29-.93.97-1.76.95-2.73-.03-1.3-1.39-2.23-2.69-2.33-.66-.05-1.31.06-1.96.22.06-.3.13-.6.21-.89 2.23-8.13 7.61-12.06 13.85-13.49.56-.13 1.12-.23 1.67-.31.95.91 1.77 2.02 2.33 2.94.97 1.6 1.4 3.65.62 5.36-.61 1.34-1.83 2.26-3.06 3.07-1.22.81-2.52 1.58-3.38 2.76-.87 1.18-1.2 2.91-.33 4.09.45.61 1.2 1.14 1.13 1.89-.06.64-.7 1.06-1.32 1.26-.61.2-1.29.33-1.73.8-.77.81-.32 2.26.61 2.88.94.61 2.14.61 3.25.52.76-.07 1.55-.16 2.3.01.74.17 1.47.67 1.66 1.41.23.89-.36 1.87-.07 2.74.31.88 1.38 1.25 2.31 1.22.93-.02 1.86-.29 2.79-.16 2.01.3 3.31 2.66 2.81 4.64z" fill="#ffad00" fill-opacity="1" data-original-color="#ffad00ff" stroke="none" stroke-opacity="1"/></g><g><path d="m22.77 63.66h.09c-.83.06-1.66.05-2.49 0-4.74-.34-9.3-2.54-12.58-5.97.32-.38.59-.78.77-1.25.66-1.73-.19-3.63-1.06-5.27-.85-1.64-1.77-3.49-1.22-5.26.29-.93.97-1.76.95-2.73-.03-1.05-.91-1.85-1.93-2.18.54-.12 1.08-.19 1.64-.15 1.3.1 2.65 1.03 2.69 2.33.02.97-.65 1.8-.95 2.73-.55 1.77.36 3.62 1.22 5.26s1.72 3.54 1.06 5.27c-.17.47-.45.87-.77 1.25 3.27 3.42 7.83 5.63 12.58 5.97z" fill="#ffffff" fill-opacity="1" data-original-color="#ffffffff" stroke="none" stroke-opacity="1"/></g><g><path d="m4.53 40.86c.12.01.24.03.36.05-.27.04-.55.1-.82.17.02-.08.03-.16.05-.23.14 0 .28 0 .41.01z" fill="#ffffff" fill-opacity="1" data-original-color="#ffffffff" stroke="none" stroke-opacity="1"/></g><g><path d="m21.7 64.19c-.45 0-.91-.02-1.36-.05-5.65-.41-11.05-3.38-14.45-7.94-3.49-4.67-4.92-11.16-3.56-16.13 2.02-7.38 6.93-12.17 14.2-13.84 8.19-1.88 16.4 1.13 20.91 7.68 1 1.46 1.79 3.02 2.35 4.66 2.34 6.89.71 14.82-4.06 19.73-3.63 3.73-8.8 5.89-14.03 5.89zm-.35-37.56c-1.52 0-3.07.17-4.61.53-7 1.61-11.54 6.04-13.49 13.16-1.29 4.71.08 10.86 3.4 15.31 3.24 4.35 8.38 7.17 13.75 7.56 5.41.39 10.88-1.69 14.64-5.56 4.45-4.58 6.03-12.29 3.84-18.75-.53-1.55-1.28-3.04-2.23-4.42-3.44-5-9.15-7.83-15.3-7.83z" fill="#000000" fill-opacity="1" data-original-color="#000000ff" stroke="none" stroke-opacity="1"/></g><g><path d="m38.87 53.05c-.13 0-.27-.06-.36-.16-.08-.08-.14-.18-.2-.27-.86-1.3-.89-2.87-.93-4.39-.01-.25-.01-.51-.02-.76-.06-1.43-.41-3.28-1.75-3.96-1.13-.57-2.54-.14-3.91.27l-.11.03c-.8.24-3.22.97-4.74-.39-1.21-1.09-1.2-2.97-.56-4.27s1.77-2.21 2.88-3.04l.22-.16c.96-.71 1.95-1.43 2.59-2.4.71-1.06.65-2.12.58-3.24l-.02-.3c-.01-.19.09-.36.25-.45s.36-.07.51.04c1.59 1.2 2.98 2.64 4.12 4.28 1 1.46 1.79 3.02 2.35 4.66 1.54 4.55 1.37 9.72-.48 14.19-.06.15-.2.26-.36.29-.01.03-.04.03-.06.03zm-4.53-10.78c.58 0 1.15.1 1.69.38 1.4.71 2.18 2.36 2.28 4.78.01.26.02.51.02.77.02 1.12.05 2.28.44 3.25 1.42-4.04 1.47-8.57.1-12.59-.53-1.55-1.28-3.04-2.23-4.42-.88-1.27-1.91-2.41-3.09-3.41.02.99-.08 2.01-.78 3.06-.73 1.1-1.79 1.88-2.82 2.64l-.22.16c-1.01.75-2.05 1.59-2.59 2.69-.47.95-.51 2.37.34 3.13.76.68 1.97.74 3.82.18l.1-.03c.95-.28 1.96-.59 2.94-.59z" fill="#000000" fill-opacity="1" data-original-color="#000000ff" stroke="none" stroke-opacity="1"/></g><g><path d="m21.65 64.18c-.44 0-.88-.02-1.32-.05-4.8-.34-9.5-2.57-12.9-6.12-.17-.18-.18-.45-.02-.64.33-.39.55-.74.69-1.11.59-1.56-.22-3.33-1.03-4.88-.79-1.52-1.88-3.6-1.25-5.62.12-.37.28-.71.44-1.04.26-.53.5-1.03.48-1.53-.03-1.02-1.18-1.78-2.24-1.86-.66-.05-1.31.08-1.8.21-.16.04-.33 0-.45-.12-.12-.11-.17-.28-.14-.44.06-.29.13-.59.22-.93 2.02-7.38 6.93-12.17 14.21-13.84.59-.13 1.16-.24 1.71-.31.15-.02.29.03.4.13 1.16 1.1 2 2.37 2.41 3.03 1.18 1.94 1.42 4.11.65 5.8-.65 1.43-1.94 2.42-3.23 3.27l-.43.28c-1.04.68-2.12 1.39-2.84 2.36-.72.98-1.07 2.51-.33 3.52.11.15.24.3.38.45.43.47.91 1.01.84 1.76-.07.74-.67 1.35-1.64 1.67-.12.04-.25.08-.37.12-.46.14-.89.27-1.15.55s-.28.63-.25.87c.06.5.36 1.01.78 1.28.83.54 1.95.52 2.95.44l.24-.02c.72-.06 1.46-.13 2.21.04 1.02.23 1.81.92 2.02 1.77.14.53.04 1.06-.04 1.53-.08.43-.15.84-.04 1.18.22.64 1.11.91 1.84.89.34-.01.67-.05 1.02-.09.59-.07 1.21-.15 1.85-.06 1.01.15 1.92.75 2.55 1.69.7 1.05.95 2.37.66 3.53v.01c-.09.34-.2.65-.35.95-.06.11-.15.2-.27.24-2.12.73-4.31 1.09-6.46 1.09zm-13.23-6.52c3.21 3.2 7.55 5.21 11.98 5.52 2.36.17 4.83-.15 7.15-.92.08-.19.15-.38.2-.58.22-.9.03-1.93-.53-2.76-.48-.71-1.15-1.17-1.89-1.28-.51-.07-1.03-.01-1.59.06-.36.05-.74.09-1.12.1-1.11.04-2.39-.43-2.77-1.54-.19-.57-.09-1.15 0-1.66.07-.41.14-.79.06-1.12-.15-.6-.8-.95-1.31-1.07-.6-.13-1.23-.08-1.91-.02l-.24.02c-1.16.1-2.48.11-3.56-.59-.66-.44-1.12-1.19-1.21-1.98-.07-.63.11-1.21.51-1.64.44-.47 1.04-.65 1.58-.81.12-.04.23-.07.35-.11.46-.15.96-.45.99-.85.03-.34-.26-.66-.59-1.03-.15-.17-.31-.34-.44-.53-1.06-1.45-.57-3.43.33-4.66.82-1.11 1.97-1.87 3.08-2.6l.42-.28c1.36-.9 2.37-1.73 2.89-2.87.64-1.41.42-3.24-.59-4.91-.36-.59-1.09-1.69-2.08-2.68-.45.07-.92.16-1.4.27-7 1.61-11.54 6.04-13.49 13.15-.01.05-.02.09-.04.14.41-.07.88-.11 1.36-.07 1.51.11 3.09 1.19 3.13 2.8.02.74-.29 1.37-.58 1.98-.15.31-.29.61-.39.91-.51 1.64.47 3.52 1.19 4.89.99 1.86 1.79 3.83 1.09 5.67-.13.36-.32.69-.58 1.05z" fill="#000000" fill-opacity="1" data-original-color="#000000ff" stroke="none" stroke-opacity="1"/></g></g></g></g></g><g><g><path d="m52.61 57.54c0-.46 0-.93 0-1.39 0-.86-.07-1.82-.07-2.68l8.58-1.93c-.1 2.2.08 7.29.08 9.53l-8.66 2.64c.06-2.46.06-3.71.07-6.17z" fill="#296ff9" fill-opacity="1" data-original-color="#8d77e6ff" stroke="none" stroke-opacity="1"/></g><g><g><path d="m61.12 51.54-8.58 1.93c-2.32-.6-4.74-1.43-7.22-2.38l9.1-1.86z" fill="#ffffff" fill-opacity="1" data-original-color="#ffffffff" stroke="none" stroke-opacity="1"/></g><g><path d="m52.54 63.7c.06-2.45.06-3.71.07-6.16 0-.46 0-.93 0-1.39 0-.86-.07-1.82-.07-2.68-2.32-.6-4.74-1.43-7.22-2.38.12 3.97.24 6.43.46 9.28 2.25 1.19 4.52 2.33 6.76 3.33z" fill="#296ff9" fill-opacity="1" data-original-color="#8d77e6ff" stroke="none" stroke-opacity="1"/></g><g><path d="m47.38 61.21c-.54-.28-1.07-.56-1.61-.83-.22-2.85-.34-5.31-.46-9.28.55.21 1.09.41 1.64.61.12 3.91.25 6.69.43 9.5z" fill="#ffffff" fill-opacity="1" data-original-color="#ffffffff" stroke="none" stroke-opacity="1"/></g><g><g><path d="m52.54 64.18c-.07 0-.13-.01-.2-.04-1.94-.87-4.04-1.9-6.79-3.34-.15-.08-.24-.22-.26-.39-.22-2.9-.34-5.33-.46-9.3 0-.16.07-.31.2-.41.13-.09.3-.11.45-.06 2.73 1.04 5.08 1.81 7.17 2.36.21.06.36.25.36.46 0 .43.02.88.03 1.33.02.46.03.92.03 1.36v1.39c0 2.37 0 3.67-.07 6.17 0 .16-.09.31-.22.39-.06.06-.15.08-.24.08zm-6.31-4.11c2.32 1.21 4.16 2.12 5.85 2.9.05-2.04.05-3.31.05-5.43v-1.39c0-.42-.02-.87-.03-1.32-.01-.33-.03-.67-.03-.99-1.86-.5-3.91-1.17-6.24-2.04.1 3.42.21 5.68.4 8.27z" fill="#000000" fill-opacity="1" data-original-color="#000000ff" stroke="none" stroke-opacity="1"/></g><g><path d="m52.54 53.95c-.04 0-.08-.01-.12-.02-2.13-.55-4.51-1.34-7.27-2.39-.2-.08-.32-.27-.31-.49.02-.21.17-.39.38-.43l9.1-1.86c.08-.02.17-.01.25.02l6.7 2.31c.2.07.33.27.32.48s-.16.39-.37.44l-8.58 1.93c-.03 0-.06.01-.1.01zm-5.49-2.73c2.03.74 3.84 1.31 5.5 1.75l6.81-1.53-4.98-1.71z" fill="#000000" fill-opacity="1" data-original-color="#000000ff" stroke="none" stroke-opacity="1"/></g></g></g><g><path d="m52.54 64.18c-.1 0-.21-.03-.29-.1-.12-.09-.19-.24-.19-.39.06-2.47.06-3.7.07-6.15v-1.39c0-.43-.02-.87-.03-1.32-.02-.46-.03-.92-.03-1.36 0-.22.16-.42.37-.47l8.58-1.93c.15-.03.3 0 .41.1s.18.24.17.39c-.06 1.42-.01 4.06.04 6.39.02 1.22.05 2.34.05 3.11 0 .21-.14.4-.34.46l-8.66 2.64c-.06.02-.1.02-.15.02zm.48-10.33c.01.31.02.62.03.94.02.46.03.92.03 1.36v1.39c0 2.23 0 3.45-.05 5.51l7.68-2.34c-.01-.74-.03-1.7-.05-2.74-.04-2.04-.09-4.31-.06-5.83z" fill="#000000" fill-opacity="1" data-original-color="#000000ff" stroke="none" stroke-opacity="1"/></g></g><g><g><path d="m9.24 17.26c-.14 0-.29-.06-.38-.19-.15-.19-.3-.37-.45-.54-.18-.2-.16-.5.03-.68.2-.18.5-.16.68.03.17.19.34.39.5.6.16.22.13.52-.08.68-.09.07-.19.1-.3.1z" fill="#000000" fill-opacity="1" data-original-color="#000000ff" stroke="none" stroke-opacity="1"/></g><g><path d="m12.69 24.06c-.2 0-.38-.12-.45-.32-.01-.02-.77-2.19-1.9-4.31-.12-.23-.04-.52.2-.65.23-.12.52-.04.65.2 1.16 2.19 1.92 4.35 1.96 4.45.09.25-.04.52-.29.61-.07.01-.12.02-.17.02z" fill="#000000" fill-opacity="1" data-original-color="#000000ff" stroke="none" stroke-opacity="1"/></g><g><path d="m8.34 25.97c-.09 0-.18-.02-.25-.07-1.43-.9-2.93-1.71-4.47-2.4-.24-.11-.35-.39-.24-.63s.39-.35.63-.24c1.58.71 3.12 1.54 4.59 2.46.22.14.29.44.15.66-.1.14-.25.22-.41.22z" fill="#000000" fill-opacity="1" data-original-color="#000000ff" stroke="none" stroke-opacity="1"/></g><g><path d="m16.71 22.13c-.01 0-.01 0-.02 0-.26-.01-.47-.23-.46-.5l.24-6.7c.01-.26.25-.48.5-.46.26.01.47.23.46.5l-.24 6.7c-.01.26-.22.46-.48.46z" fill="#000000" fill-opacity="1" data-original-color="#000000ff" stroke="none" stroke-opacity="1"/></g></g></g></g></svg>