<svg id="Layer_1" enable-background="new 0 0 66 66" viewBox="0 0 66 66" xmlns="http://www.w3.org/2000/svg" width="300" height="300" version="1.1" xmlns:xlink="http://www.w3.org/1999/xlink" xmlns:svgjs="http://svgjs.dev/svgjs"><g width="100%" height="100%" transform="matrix(1,0,0,1,0,0)"><g><g><g><g><g><path d="m29.39 7.27c-.13.72-.98 1.05-1.56.6-.47-.36-.94-.81-1.17-1.1-.59-.72-.82-1.69-.96-2.56-.07-.44-.11-.88-.32-1.3-.13-.27-.36-.55-.62-.69.17.08.42.06.61.08.23.03.46.07.69.12.56.13 1.17.32 1.59.73 1.54 1.51 1.92 3.03 1.74 4.12z" fill="#296ff9" fill-opacity="1" data-original-color="#8d77e6ff" stroke="none" stroke-opacity="1"/></g><g><path d="m28.77 37.22c-12.33 8.47-23.48 2.48-22.68-10.59.53 1.07 1.34 1.9 2.2 2.48.85.57 2.05.78 3.06.59 1-.2 1.92-1.03 2.01-2.04.05-.56-.15-1.09-.45-1.58-.39-.63-.96-1.12-1.61-1.49l-2.83-1.61c-.21-.12-.42-.25-.62-.4-6.97-5.48-4.9-12.19-4.9-12.19 1.54 1.96 3.45 3.33 5.9 3.82-.08-6.42-2.32-10.16-6.83-11.09 3.79-.38 7.44.56 10.78 2.37 3.24 1.74 5.95 4.44 7.73 7.65.3-2.59 0-5.29-1.73-8.22 5.63 1.68 9.86 6.2 10.53 13.14 1.26-1.27 1.22-3.99 2.76-7.54 8.36 9.06 6.8 20.12-3.32 26.7z" fill="#296ff9" fill-opacity="1" data-original-color="#8d77e6ff" stroke="none" stroke-opacity="1"/></g><g><path d="m2.02 3.12c.94-.1 1.88-.11 2.8-.04-.15.01-.31.02-.46.04 4.51.93 6.75 4.67 6.83 11.09-.85-.17-1.64-.45-2.36-.82-.25-5.92-2.49-9.38-6.81-10.27z" fill="#ffffff" fill-opacity="1" data-original-color="#ffffffff" stroke="none" stroke-opacity="1"/></g><g><path d="m2.95 10.39c.62.79 1.3 1.48 2.05 2.06-.07 2.41.61 6.53 5.17 10.12.19.14.4.28.62.4l2.83 1.61c.65.37 1.22.86 1.61 1.49.3.49.5 1.02.45 1.58-.08 1.02-1 1.85-2 2.04-.63.12-1.33.09-1.98-.1.85-.3 1.57-1.06 1.64-1.95.05-.56-.14-1.09-.45-1.58-.39-.63-.96-1.12-1.61-1.49l-2.83-1.61c-.21-.12-.42-.26-.62-.4-6.95-5.46-4.88-12.17-4.88-12.17z" fill="#ffffff" fill-opacity="1" data-original-color="#ffffffff" stroke="none" stroke-opacity="1"/></g><g><path d="m18.87 41.1c-7.76.65-13.35-5.08-12.78-14.47.53 1.07 1.34 1.91 2.2 2.48.05.03.1.06.14.09.44 6.95 4.61 11.38 10.44 11.9z" fill="#ffffff" fill-opacity="1" data-original-color="#ffffffff" stroke="none" stroke-opacity="1"/></g><g><path d="m21.78 6.14c1.15 2.47 1.34 4.77 1.08 7-.66-1.19-1.45-2.32-2.34-3.34-.2-1.56-.73-3.18-1.73-4.88 1.06.31 2.06.72 2.99 1.22z" fill="#ffffff" fill-opacity="1" data-original-color="#ffffffff" stroke="none" stroke-opacity="1"/></g><g><path d="m32.22 19.59c1.38 2.67 3.07 5.28 3.7 8.22.09.44.15.88.18 1.34-1.41 3.04-3.86 5.81-7.33 8.07-2.47 1.7-4.88 2.81-7.17 3.41-1.07-.25-2.13-.61-3.13-1.08-2.59-1.21-4.73-3.32-6.32-5.71 1.02-.47 2.17-.54 3.29-.55s2.25.04 3.34-.25c-1.95-2.93-3.25-6.47-3.7-9.96-.24-1.9-.25-3.82-.59-5.7-.34-1.89-.93-4.02-2.33-5.32 6.46 2.8 11.84 8.03 14.8 14.41 1.47-.92 2.42-2.35 3.34-3.83.64-1 1.28-2.03 1.92-3.05z" fill="#ffffff" fill-opacity="1" data-original-color="#ffffffff" stroke="none" stroke-opacity="1"/></g><g><path d="m21.61 41.11c-.04 0-.07 0-.11-.01-1.14-.26-2.22-.64-3.23-1.11-2.47-1.15-4.72-3.19-6.51-5.88-.08-.12-.1-.26-.06-.4s.13-.25.26-.31c1.11-.51 2.33-.59 3.48-.59h.46c.72 0 1.42 0 2.09-.1-1.76-2.84-2.96-6.21-3.39-9.56-.1-.8-.17-1.62-.23-2.41-.08-1.08-.17-2.19-.36-3.27-.28-1.56-.81-3.78-2.18-5.05-.17-.16-.2-.42-.08-.62.13-.2.38-.27.59-.18 6.38 2.76 11.75 7.9 14.8 14.14 1.12-.85 1.91-2.03 2.74-3.36.64-1.02 1.29-2.04 1.93-3.06.09-.15.26-.23.43-.23.17.01.33.11.41.26.29.56.6 1.12.91 1.69 1.15 2.1 2.33 4.27 2.83 6.66.1.46.16.92.19 1.41.01.08-.01.16-.04.23-1.47 3.18-4.07 6.04-7.5 8.27-2.41 1.66-4.88 2.83-7.31 3.47-.04 0-.08.01-.12.01zm-8.71-7.05c1.63 2.3 3.62 4.04 5.78 5.04.91.43 1.89.77 2.92 1.02 2.29-.62 4.61-1.73 6.9-3.31 3.26-2.12 5.71-4.8 7.11-7.76-.03-.4-.09-.77-.16-1.15-.47-2.25-1.62-4.36-2.74-6.4-.18-.32-.35-.64-.52-.96-.49.79-.99 1.58-1.49 2.36-.96 1.54-1.96 3.01-3.49 3.98-.12.07-.26.09-.39.05s-.24-.13-.3-.26c-2.63-5.67-7.24-10.45-12.81-13.34.7 1.3 1.04 2.8 1.25 3.96.2 1.12.29 2.26.37 3.36.06.78.12 1.58.22 2.36.45 3.45 1.73 6.92 3.63 9.75.09.13.1.29.05.44-.06.15-.18.26-.33.29-1 .26-2.01.26-3 .26h-.46c-.84.02-1.73.06-2.54.31z" fill="#000000" fill-opacity="1" data-original-color="#000000ff" stroke="none" stroke-opacity="1"/></g><g><path d="m28.42 8.55c-.31 0-.62-.1-.89-.3-.48-.37-.99-.85-1.26-1.18-.66-.8-.91-1.86-1.06-2.79l-.03-.22c-.05-.34-.1-.67-.24-.96-.09-.2-.26-.39-.42-.47-.23-.12-.32-.4-.21-.64.11-.23.39-.33.63-.23.04.02.18.02.26.03.07 0 .14.01.21.01.25.03.5.07.75.12.62.14 1.31.35 1.82.86 1.44 1.42 2.13 3.08 1.88 4.55-.09.5-.43.91-.9 1.1-.18.09-.36.12-.54.12zm-2.53-5.68c.14.36.2.73.25 1.06l.03.2c.14.84.34 1.71.86 2.34.22.28.67.69 1.1 1.02.2.15.41.1.48.07.08-.03.26-.13.3-.37.09-.55.12-2-1.6-3.7-.34-.34-.88-.49-1.36-.6-.02-.01-.04-.02-.06-.02z" fill="#000000" fill-opacity="1" data-original-color="#000000ff" stroke="none" stroke-opacity="1"/></g></g><g><path d="m17.69 41.65c-2.16 0-4.18-.5-5.97-1.52-4.26-2.41-6.49-7.34-6.11-13.53.01-.22.17-.4.39-.44.21-.04.43.06.53.26.57 1.15 1.42 1.88 2.03 2.29.72.49 1.78.69 2.7.52.86-.17 1.55-.86 1.61-1.61.03-.4-.09-.82-.38-1.29-.32-.51-.8-.96-1.44-1.33l-2.83-1.61c-.25-.14-.47-.28-.67-.44-7.15-5.61-5.08-12.63-5.06-12.71.05-.17.2-.3.37-.33.18-.03.36.04.47.18 1.43 1.83 3.08 2.98 5.02 3.51-.2-5.89-2.31-9.16-6.42-10.01-.23-.05-.4-.26-.38-.5.01-.24.2-.43.43-.46 3.67-.37 7.39.44 11.05 2.42 2.84 1.52 5.32 3.8 7.12 6.52.02-2.29-.55-4.36-1.76-6.42-.1-.17-.09-.39.04-.54.12-.16.33-.22.52-.16 5.83 1.74 9.67 6.15 10.69 12.21.23-.57.41-1.26.62-2.06.31-1.18.69-2.66 1.4-4.27.06-.15.2-.26.36-.28.16-.03.32.03.43.15 4.11 4.45 6.03 9.63 5.41 14.6-.62 4.98-3.75 9.53-8.8 12.82-3.91 2.67-7.82 4.03-11.37 4.03zm-11.16-13.47c.06 5.09 2.08 9.09 5.66 11.11 4.43 2.51 10.37 1.61 16.31-2.47 0 0 .01 0 .01-.01 4.82-3.13 7.79-7.44 8.38-12.13.56-4.48-1.09-9.16-4.65-13.26-.49 1.27-.79 2.41-1.06 3.43-.4 1.54-.72 2.75-1.51 3.55-.13.13-.33.18-.5.11-.18-.06-.3-.22-.32-.41-.58-5.92-3.85-10.35-9.05-12.34 1.14 2.34 1.52 4.73 1.21 7.43-.02.21-.18.38-.39.42-.2.04-.41-.06-.52-.24-1.73-3.13-4.41-5.78-7.54-7.46-2.64-1.43-5.3-2.22-7.95-2.37 3.07 1.69 4.66 5.27 4.73 10.66 0 .15-.06.28-.17.38-.11.09-.26.13-.4.1-2.14-.43-3.96-1.49-5.53-3.23-.28 1.96-.27 6.67 4.92 10.74.16.12.35.24.55.36l2.83 1.61c.78.45 1.38 1.01 1.78 1.65.39.63.57 1.26.52 1.87-.1 1.18-1.1 2.22-2.39 2.48-1.16.22-2.5-.04-3.42-.66-.45-.29-.99-.72-1.5-1.32z" fill="#000000" fill-opacity="1" data-original-color="#000000ff" stroke="none" stroke-opacity="1"/></g></g><g><g><path d="m62.07 61.1c-.63 1.62-2.21 2.68-3.95 2.68h-44.1c-1.63 0-3.11-.94-3.83-2.41-2.14-4.34-3.17-9.22-2.8-14.04.74-9.77 7.11-20.11 16.32-23.43 8.99-3.24 19.35-2.46 27.75 2.11 7.55 4.11 11.75 13.16 12.45 21.71.29 5.21-.37 9.65-1.84 13.38z" fill="#ffad00" fill-opacity="1" data-original-color="#ffad00ff" stroke="none" stroke-opacity="1"/></g><g><path d="m14.02 59.8c-.1 0-.2-.07-.26-.18-1.88-3.81-2.71-7.95-2.4-11.97.67-8.82 6.56-17.41 13.7-19.98 3.2-1.15 6.6-1.74 10.1-1.74 5.09 0 10.06 1.24 14.39 3.6 5.62 3.06 9.69 10.31 10.38 18.49.24 4.45-.29 8.36-1.57 11.64-.04.09-.13.15-.24.15h-44.1z" fill="#ffffff" fill-opacity="1" data-original-color="#ffffffff" stroke="none" stroke-opacity="1"/></g><g><g><path d="m26.41 31.41c-1.68.6-3.29 1.67-4.74 3.06l2.85 4.07c.62-.39 1.26-.72 1.91-.95 2.22-.8 4.57-1.22 7-1.25v-6.37c-2.42.15-4.78.63-7.02 1.44z" fill="#ffffff" fill-opacity="1" data-original-color="#ffffffff" stroke="none" stroke-opacity="1"/></g><g><path d="m17.14 41.02c-.19.41-.19.88-.04 1.3l.03.07c.49 1.38 2.34 1.59 3.16.37 1.19-1.75 2.65-3.22 4.25-4.23l-2.85-4.07c-1.85 1.76-3.43 4.04-4.55 6.56z" fill="#296ff9" fill-opacity="1" data-original-color="#8d77e6ff" stroke="none" stroke-opacity="1"/></g><g><path d="m47.65 33.02-4.82 5.25c.46.21.9.42 1.34.66 1.86 1.02 3.5 2.84 4.72 5.12l5.02-3.71c-1.66-3.3-3.9-6.04-6.26-7.32z" fill="#ffffff" fill-opacity="1" data-original-color="#ffffffff" stroke="none" stroke-opacity="1"/></g><g><path d="m56.28 47.09c-.47-2.33-1.3-4.65-2.36-6.75l-5.02 3.71c.7 1.31 1.27 2.77 1.66 4.32.43 1.71 2.24 2.67 3.88 2.05 1.35-.5 2.13-1.91 1.84-3.33z" fill="#296ff9" fill-opacity="1" data-original-color="#8d77e6ff" stroke="none" stroke-opacity="1"/></g><g><path d="m35.16 29.9c-.58 0-1.15.02-1.72.06v6.37c.1 0 .2-.01.31-.01 3.18 0 6.29.67 9.09 1.94l4.82-5.25c-3.75-2.03-8.07-3.11-12.5-3.11z" fill="#296ff9" fill-opacity="1" data-original-color="#8d77e6ff" stroke="none" stroke-opacity="1"/></g></g><g><path d="m58.12 64.26h-44.1c-1.82 0-3.45-1.03-4.27-2.68-2.23-4.53-3.22-9.47-2.85-14.29.81-10.64 7.81-20.66 16.64-23.84 9.11-3.29 19.63-2.49 28.14 2.14 8.4 4.58 12.07 14.41 12.7 22.1.28 5.13-.35 9.69-1.87 13.58-.68 1.79-2.45 2.99-4.39 2.99zm-22.96-41.84c-3.84 0-7.68.64-11.29 1.95-8.49 3.06-15.22 12.73-16 23.01-.36 4.64.59 9.41 2.75 13.79.65 1.32 1.95 2.14 3.4 2.14h44.1c1.54 0 2.95-.95 3.5-2.38 1.47-3.76 2.08-8.19 1.8-13.17-.61-7.42-4.14-16.93-12.2-21.32-4.89-2.66-10.48-4.02-16.06-4.02z" fill="#000000" fill-opacity="1" data-original-color="#000000ff" stroke="none" stroke-opacity="1"/></g><g><path d="m58.12 60.28h-44.1c-.28 0-.56-.18-.69-.45-1.92-3.89-2.76-8.12-2.45-12.22.69-9 6.71-17.77 14.02-20.4 3.25-1.17 6.7-1.77 10.26-1.77 5.17 0 10.22 1.26 14.62 3.66 5.76 3.14 9.93 10.54 10.63 18.87.24 4.53-.3 8.52-1.6 11.86-.1.27-.38.45-.69.45zm-43.97-.96h43.82c1.21-3.18 1.71-6.98 1.48-11.29-.67-8-4.65-15.11-10.13-18.09-4.26-2.32-9.16-3.54-14.16-3.54-3.45 0-6.79.58-9.94 1.71-6.97 2.51-12.72 10.92-13.38 19.57-.3 3.9.5 7.92 2.31 11.64z" fill="#000000" fill-opacity="1" data-original-color="#000000ff" stroke="none" stroke-opacity="1"/></g><g><g><path d="m24.53 39.02c-.15 0-.3-.07-.4-.21l-2.85-4.07c-.14-.19-.11-.46.06-.62 1.55-1.48 3.2-2.55 4.91-3.16 2.26-.82 4.67-1.31 7.16-1.47.13-.01.26.04.36.13s.15.22.15.35v6.37c0 .26-.21.48-.48.48-2.38.03-4.68.44-6.85 1.22-.59.21-1.2.52-1.82.91-.06.04-.15.07-.24.07zm-2.22-4.49 2.36 3.36c.54-.32 1.08-.57 1.61-.76 2.12-.76 4.37-1.19 6.68-1.27v-5.38c-2.22.18-4.36.65-6.38 1.38-1.48.53-2.91 1.43-4.27 2.67z" fill="#000000" fill-opacity="1" data-original-color="#000000ff" stroke="none" stroke-opacity="1"/></g><g><path d="m18.79 44.05c-.1 0-.19-.01-.29-.02-.84-.11-1.54-.67-1.83-1.47l-.02-.05c-.2-.57-.18-1.16.05-1.68 1.16-2.58 2.76-4.91 4.64-6.71.1-.1.24-.15.38-.13.14.01.27.09.35.2l2.85 4.07c.08.11.1.24.08.37-.03.13-.1.24-.22.31-1.52.95-2.94 2.37-4.11 4.09-.42.64-1.13 1.02-1.88 1.02zm2.82-8.84c-1.62 1.66-3.01 3.72-4.03 6.01-.13.29-.14.62-.03.94l.02.05c.17.48.56.8 1.05.86.51.06.98-.15 1.27-.58 1.14-1.67 2.5-3.08 3.97-4.09z" fill="#000000" fill-opacity="1" data-original-color="#000000ff" stroke="none" stroke-opacity="1"/></g><g><path d="m48.9 44.54c-.04 0-.07 0-.11-.01-.14-.03-.25-.12-.32-.24-1.22-2.27-2.78-3.98-4.53-4.93-.39-.21-.82-.43-1.31-.65-.14-.06-.24-.19-.27-.34s.01-.31.12-.42l4.82-5.25c.09-.1.21-.15.34-.16.08 0 .17.02.25.06 2.33 1.27 4.69 4.02 6.46 7.53.11.21.05.47-.14.6l-5.02 3.71c-.09.06-.19.1-.29.1zm-5.27-6.43c.27.13.53.26.77.4 1.78.97 3.38 2.64 4.64 4.83l4.25-3.14c-1.58-3-3.58-5.36-5.56-6.57z" fill="#000000" fill-opacity="1" data-original-color="#000000ff" stroke="none" stroke-opacity="1"/></g><g><path d="m53.41 51.09c-.54 0-1.08-.13-1.57-.39-.87-.45-1.51-1.26-1.75-2.22-.38-1.5-.92-2.91-1.62-4.21-.11-.21-.05-.47.14-.61l5.02-3.71c.11-.08.26-.11.4-.08s.25.12.32.25c1.11 2.19 1.94 4.57 2.41 6.88.34 1.66-.57 3.29-2.15 3.88-.39.14-.79.21-1.2.21zm-3.9-6.89c.64 1.26 1.15 2.63 1.51 4.06.18.69.63 1.27 1.26 1.6.62.33 1.33.37 1.98.12 1.14-.42 1.79-1.6 1.54-2.79-.41-2.05-1.13-4.15-2.07-6.12z" fill="#000000" fill-opacity="1" data-original-color="#000000ff" stroke="none" stroke-opacity="1"/></g><g><path d="m42.84 38.75c-.07 0-.13-.01-.2-.04-2.74-1.24-5.81-1.9-8.89-1.9l-.3.01c-.13 0-.25-.05-.34-.14s-.14-.21-.14-.34v-6.37c0-.25.2-.46.45-.48.65-.04 1.22-.06 1.75-.06 4.51 0 8.9 1.1 12.72 3.17.13.07.22.2.25.34.02.15-.02.3-.12.4l-4.82 5.25c-.1.11-.23.16-.36.16zm-8.92-2.9c3.03.02 6.06.66 8.79 1.84l4.16-4.54c-3.54-1.81-7.58-2.76-11.71-2.76-.39 0-.79.01-1.24.03z" fill="#000000" fill-opacity="1" data-original-color="#000000ff" stroke="none" stroke-opacity="1"/></g></g><g><g><g><g><path d="m36.71 55.49c-.64.15-1.3.2-1.94.1-.66-.09-1.3-.32-1.86-.68-1.35-.86-2.17-2.5-2.04-4.09.12-1.6 1.16-3.29 2.67-3.83 1.47-.53 3.17-.4 4.54.34 1.24.67 1.92 2.15 2.04 3.55.13 2.68-1.27 4.12-3.41 4.61z" fill="#ffad00" fill-opacity="1" data-original-color="#ffad00ff" stroke="none" stroke-opacity="1"/></g><g><path d="m36.71 55.49c-.64.15-1.3.2-1.94.1-.66-.09-1.3-.32-1.86-.68-1.35-.86-2.17-2.5-2.04-4.09.12-1.6 1.16-3.29 2.67-3.83 1.47-.53 3.17-.4 4.54.34 1.24.67 1.92 2.15 2.04 3.55.13 2.68-1.27 4.12-3.41 4.61z" fill="#ffad00" fill-opacity="1" data-original-color="#ffad00ff" stroke="none" stroke-opacity="1"/></g><g><path d="m35.45 56.12c-.26 0-.51-.02-.76-.06-.73-.11-1.44-.37-2.05-.75-1.49-.95-2.4-2.77-2.26-4.53.14-1.89 1.4-3.68 2.98-4.25 1.6-.58 3.44-.44 4.93.37 1.51.82 2.18 2.57 2.29 3.94.15 2.72-1.19 4.53-3.77 5.12-.47.1-.92.16-1.36.16zm-.05-8.98c-.58 0-1.17.1-1.71.3-1.23.44-2.24 1.91-2.35 3.41-.11 1.42.62 2.88 1.82 3.65.49.31 1.07.52 1.67.61.55.08 1.14.05 1.77-.09 2.13-.48 3.14-1.87 3.02-4.11-.12-1.39-.82-2.63-1.79-3.16-.74-.4-1.59-.61-2.43-.61z" fill="#000000" fill-opacity="1" data-original-color="#000000ff" stroke="none" stroke-opacity="1"/></g></g></g></g><g><path d="m31.92 57.86c-.27-.12-.25-.66-.11-1.31.25-1.2-.54-1.99-1.73-1.73-.64.14-1.19.16-1.31-.11-.36-.79 10.75-9.94 14.48-12.23.77-.47 1.37.12.89.89-2.28 3.73-11.43 14.85-12.22 14.49z" fill="#296ff9" fill-opacity="1" data-original-color="#8d77e6ff" stroke="none" stroke-opacity="1"/></g><g><path d="m44.15 43.37c-.2.33-.46.71-.75 1.14-3.32 2.23-9.95 7.61-12.61 10.27-.21-.04-.45-.03-.71.03-.65.14-1.19.16-1.31-.11-.36-.79 10.76-9.94 14.48-12.23.77-.46 1.37.13.9.9z" fill="#ffffff" fill-opacity="1" data-original-color="#ffffffff" stroke="none" stroke-opacity="1"/></g><g><path d="m31.95 58.36c-.1 0-.17-.03-.23-.06-.71-.32-.47-1.43-.38-1.85.09-.41.02-.76-.19-.97s-.56-.28-.97-.19c-.42.09-1.52.33-1.85-.38-.17-.38-.41-.9 5.84-6.12 3.45-2.88 7.08-5.64 8.83-6.71.55-.34 1.14-.32 1.51.05s.39.96.05 1.51c-1.07 1.75-3.83 5.38-6.71 8.83-4.32 5.15-5.43 5.89-5.9 5.89zm-1.44-4.07c.52 0 .99.18 1.32.51.44.44.61 1.12.46 1.85-.05.24-.08.42-.08.54 1.91-1.51 9.42-10.61 11.54-14.07.12-.2.1-.31.09-.32s-.12-.03-.32.09c-3.47 2.13-12.56 9.63-14.07 11.54.13-.01.31-.03.55-.08.16-.05.33-.06.51-.06z" fill="#000000" fill-opacity="1" data-original-color="#000000ff" stroke="none" stroke-opacity="1"/></g></g><g><g><path d="m54.66 14.73c-.02 0-.04 0-.06 0-.26-.03-.45-.27-.42-.54.03-.24.05-.47.06-.69.01-.27.24-.47.5-.46.27.01.47.24.46.5-.01.25-.03.5-.07.77-.02.24-.23.42-.47.42z" fill="#000000" fill-opacity="1" data-original-color="#000000ff" stroke="none" stroke-opacity="1"/></g><g><path d="m52.36 21.84c-.07 0-.14-.02-.21-.05-.24-.11-.34-.4-.23-.64.01-.02.98-2.06 1.66-4.31.08-.25.35-.4.6-.32s.4.35.32.6c-.7 2.33-1.67 4.36-1.71 4.45-.08.17-.25.27-.43.27z" fill="#000000" fill-opacity="1" data-original-color="#000000ff" stroke="none" stroke-opacity="1"/></g><g><path d="m47.98 20.13c-.22 0-.42-.15-.47-.37-.38-1.62-.87-3.23-1.47-4.78-.1-.25.03-.53.28-.62.25-.1.53.03.62.28.61 1.59 1.12 3.25 1.51 4.91.06.26-.1.52-.36.58-.03 0-.07 0-.11 0z" fill="#000000" fill-opacity="1" data-original-color="#000000ff" stroke="none" stroke-opacity="1"/></g><g><path d="m56.52 23.31c-.13 0-.26-.05-.35-.15-.18-.19-.17-.5.03-.68l4.82-4.48c.19-.18.5-.17.68.03.18.19.17.5-.03.68l-4.82 4.48c-.09.08-.21.12-.33.12z" fill="#000000" fill-opacity="1" data-original-color="#000000ff" stroke="none" stroke-opacity="1"/></g></g></g><g><path d="m5.11 64.26h-.7c-.27 0-.48-.22-.48-.48s.22-.48.48-.48h.69c.27 0 .48.22.48.48s-.21.48-.47.48z" fill="#000000" fill-opacity="1" data-original-color="#000000ff" stroke="none" stroke-opacity="1"/></g><g><path d="m14.02 64.26h-7.05c-.27 0-.48-.22-.48-.48s.21-.48.48-.48h7.05c.27 0 .48.22.48.48s-.21.48-.48.48z" fill="#000000" fill-opacity="1" data-original-color="#000000ff" stroke="none" stroke-opacity="1"/></g></g></g></svg>