<svg id="Layer_1" enable-background="new 0 0 66 66" viewBox="0 0 66 66" xmlns="http://www.w3.org/2000/svg" width="300" height="300" version="1.1" xmlns:xlink="http://www.w3.org/1999/xlink" xmlns:svgjs="http://svgjs.dev/svgjs"><g width="100%" height="100%" transform="matrix(1,0,0,1,0,0)"><g><g><g><g><g><path d="m55.73 51.24c-7.09-.95-14.23.69-21.29 1.81-6.8 1.08-13.62 1.69-20.5 1.83-3.67-15.85-7.34-31.71-11-47.56 11.84-1 23.15-3.6 34.91-5.35z" fill="#2c76f9" fill-opacity="1" data-original-color="#8d77e6ff" stroke="none" stroke-opacity="1"/></g><g><path d="m5.26 7.11c3.63 15.67 7.44 32.05 11.06 47.71-.8.03-1.59.06-2.38.07-3.67-15.85-7.33-31.7-11-47.56.78-.07 1.55-.14 2.32-.22z" fill="#ffffff" fill-opacity="1" data-original-color="#ffffffff" stroke="none" stroke-opacity="1"/></g><g><path d="m13.94 55.37c-.22 0-.42-.15-.47-.37l-11-47.56c-.03-.14 0-.28.08-.39s.21-.18.35-.2c7.63-.65 15.19-1.98 22.5-3.27 4.04-.71 8.21-1.45 12.38-2.07.23-.03.44.1.52.31l17.89 49.26c.06.16.03.33-.08.46s-.27.2-.44.17c-5.87-.78-11.89.25-17.72 1.24-1.15.2-2.29.39-3.43.57-6.75 1.08-13.67 1.69-20.57 1.84 0 .01 0 .01-.01.01zm-10.41-47.61 10.79 46.64c6.73-.16 13.47-.77 20.05-1.82 1.14-.18 2.28-.38 3.42-.57 5.64-.96 11.46-1.96 17.22-1.34l-17.48-48.16c-4.03.61-8.06 1.32-11.97 2.01-7.15 1.27-14.55 2.57-22.03 3.24z" fill="#000000" fill-opacity="1" data-original-color="#000000ff" stroke="none" stroke-opacity="1"/></g></g><g><g><path d="m59.4 53.4c-13.78 1.53-25.63 3.14-39.48 3.82-.96-15.96-2.07-31.18-3.04-47.14l33.92-5.72z" fill="#ffad00" fill-opacity="1" data-original-color="#ffad00ff" stroke="none" stroke-opacity="1"/></g></g><g><g><path d="m19.92 57.7c-.25 0-.46-.2-.48-.45-.48-7.97-1.01-15.89-1.52-23.55-.51-7.67-1.04-15.6-1.52-23.58-.01-.24.16-.46.4-.5l33.91-5.72c.26-.05.51.13.55.39l8.6 49.03c.02.13-.01.26-.09.37s-.2.17-.33.19c-2.88.32-5.67.64-8.42.96-10.34 1.2-20.11 2.33-31.09 2.86.01 0 0 0-.01 0zm-2.53-47.22c.47 7.84.99 15.62 1.49 23.15.5 7.51 1.02 15.27 1.49 23.08 10.75-.54 20.37-1.66 30.55-2.83 2.59-.3 5.22-.6 7.92-.9l-8.43-48.07z" fill="#000000" fill-opacity="1" data-original-color="#000000ff" stroke="none" stroke-opacity="1"/></g></g><g><path d="m63.06 56.26c-13.78 1.53-25.63 3.14-39.48 3.82-.96-15.96-2.07-31.18-3.04-47.14l33.91-5.72z" fill="#ffffff" fill-opacity="1" data-original-color="#ffffffff" stroke="none" stroke-opacity="1"/></g><g><path d="m23.58 60.56c-.25 0-.46-.2-.48-.45-.48-7.98-1.01-15.91-1.52-23.58-.51-7.66-1.04-15.58-1.52-23.56-.01-.24.16-.46.4-.5l33.91-5.72c.26-.05.51.13.55.39l8.6 49.03c.02.13-.01.26-.09.37s-.2.17-.33.19c-2.88.32-5.68.64-8.42.96-10.34 1.2-20.11 2.33-31.09 2.86.01.01 0 .01-.01.01zm-2.53-47.21c.47 7.83.99 15.6 1.49 23.12s1.02 15.28 1.49 23.11c10.75-.54 20.37-1.66 30.55-2.83 2.59-.3 5.22-.6 7.92-.9l-8.43-48.07z" fill="#000000" fill-opacity="1" data-original-color="#000000ff" stroke="none" stroke-opacity="1"/></g><g><g><g><path d="m30.97 21.35c-.68-.41-.88-1.29-1.03-2.08-.1-.57-.14-.91-.19-1.38-.05-.48-.09-1.02.21-1.4.29-.37.79-.47 1.25-.55 3.38-.58 8.56-1.32 12.88-2l1.12-.18c.97-.16 1.88.51 2.03 1.48l.21 1.73c.08.62.15 1.32-.27 1.79-.32.37-.85.47-1.33.55-.35.06-.7.12-1.05.17-4.14.7-7.73 1.3-11.86 2-.66.12-1.4.22-1.97-.13z" fill="#2c76f9" fill-opacity="1" data-original-color="#8d77e6ff" stroke="none" stroke-opacity="1"/></g></g><g><g><path d="m30.05 19.8c-.04-.18-.08-.36-.11-.54-.1-.57-.14-.91-.19-1.38-.05-.48-.09-1.02.21-1.4.29-.37.79-.47 1.25-.55 3.38-.58 8.56-1.32 12.88-2l1.12-.18c.97-.16 1.88.51 2.03 1.48l.17 1.36c-.3-.74-1.08-1.21-1.91-1.07l-1.12.18c-4.32.68-9.5 1.42-12.88 2-.46.08-.96.18-1.25.55-.3.39-.27.92-.21 1.4 0 .05 0 .1.01.15z" fill="#ffffff" fill-opacity="1" data-original-color="#ffffffff" stroke="none" stroke-opacity="1"/></g></g><g><g><path d="m31.97 22.07c-.42 0-.86-.07-1.25-.31-.84-.51-1.09-1.51-1.25-2.41-.1-.56-.14-.9-.18-1.34l-.01-.08c-.05-.44-.13-1.19.32-1.75.41-.53 1.12-.65 1.54-.72 2.06-.35 4.74-.76 7.57-1.19 1.8-.27 3.62-.55 5.31-.81l1.12-.18c.6-.1 1.2.05 1.68.41.49.36.8.88.89 1.48l.21 1.74c.07.56.2 1.5-.38 2.16-.45.51-1.15.63-1.61.71-.35.06-.7.12-1.05.18-4.13.7-7.72 1.3-11.86 2-.29.05-.66.11-1.05.11zm13.53-7.85c-.07 0-.14.01-.21.02l-1.12.18c-1.69.27-3.52.54-5.32.82-2.83.43-5.5.83-7.55 1.18-.39.06-.78.15-.95.37-.19.24-.16.65-.12 1.06l.01.08c.05.43.08.74.17 1.27.13.72.3 1.45.8 1.76.42.26 1.02.18 1.65.07 4.14-.7 7.73-1.3 11.86-2 .35-.06.7-.12 1.04-.17.44-.07.84-.16 1.06-.4.27-.31.22-.86.15-1.41l-.21-1.73c-.05-.33-.23-.63-.51-.84-.21-.18-.48-.26-.75-.26z" fill="#000000" fill-opacity="1" data-original-color="#000000ff" stroke="none" stroke-opacity="1"/></g></g></g><g><g><g><path d="m26.18 29.99c-.1 1.4.61 2.84 1.85 3.64s2.97.92 4.29.24c1.31-.68 2.12-2.08 2.1-3.47-.02-1.34-.77-2.66-1.96-3.42-.98-.63-2.23-.87-3.39-.68-1.06.17-1.88 1.09-2.35 1.94-.31.55-.49 1.14-.54 1.75z" fill="#2c76f9" fill-opacity="1" data-original-color="#8d77e6ff" stroke="none" stroke-opacity="1"/></g><g><path d="m31.48 34.19c-1.16.29-2.47.09-3.45-.56-1.24-.81-1.94-2.25-1.85-3.64.04-.61.23-1.2.54-1.74.47-.85 1.3-1.77 2.35-1.94.63-.1 1.28-.08 1.9.06-.93.26-1.65 1.1-2.09 1.88-.31.54-.49 1.13-.54 1.74-.1 1.4.61 2.84 1.85 3.64.39.26.83.44 1.29.56z" fill="#ffffff" fill-opacity="1" data-original-color="#ffffffff" stroke="none" stroke-opacity="1"/></g><g><path d="m30.41 34.8c-.93 0-1.87-.26-2.65-.76-1.36-.89-2.17-2.49-2.06-4.08.05-.66.25-1.33.59-1.94.32-.58 1.23-1.94 2.7-2.18 1.3-.21 2.66.06 3.73.75 1.33.85 2.16 2.31 2.18 3.82.02 1.62-.91 3.15-2.36 3.9-.64.32-1.38.49-2.13.49zm-.54-8.08c-.24 0-.48.02-.72.06-1.05.17-1.76 1.25-2.01 1.7-.27.49-.44 1.02-.47 1.54-.09 1.25.55 2.51 1.63 3.21 1.1.72 2.67.81 3.81.22 1.12-.58 1.86-1.8 1.84-3.04-.01-1.19-.68-2.34-1.74-3.02-.68-.44-1.51-.67-2.34-.67z" fill="#000000" fill-opacity="1" data-original-color="#000000ff" stroke="none" stroke-opacity="1"/></g><g><path d="m29.42 32.2c-.14 0-.27-.06-.36-.16l-1.07-1.19c-.18-.2-.16-.5.04-.68s.5-.16.68.04l.73.81c.73-.71 1.64-1.42 2.69-2.09.22-.14.52-.08.66.15.14.22.08.52-.15.66-1.15.74-2.14 1.53-2.87 2.31-.09.1-.22.15-.35.15z" fill="#000000" fill-opacity="1" data-original-color="#000000ff" stroke="none" stroke-opacity="1"/></g></g></g><g><g><g><path d="m27.63 42.3c-.1 1.4.61 2.84 1.85 3.64 1.24.81 2.97.92 4.29.24 1.31-.68 2.12-2.08 2.1-3.47-.02-1.34-.77-2.66-1.96-3.42-.98-.63-2.23-.87-3.39-.68-1.06.17-1.88 1.09-2.35 1.94-.31.54-.5 1.14-.54 1.75z" fill="#ffad00" fill-opacity="1" data-original-color="#ffad00ff" stroke="none" stroke-opacity="1"/></g><g><path d="m31.86 47.1c-.93 0-1.87-.26-2.65-.76-1.36-.89-2.17-2.49-2.06-4.08.05-.66.25-1.33.59-1.94.32-.58 1.23-1.94 2.7-2.18 1.3-.21 2.66.06 3.73.75 1.33.85 2.16 2.31 2.18 3.82.02 1.62-.91 3.15-2.36 3.9-.65.33-1.39.49-2.13.49zm-.55-8.07c-.24 0-.48.02-.72.06-1.05.17-1.76 1.25-2.01 1.7-.27.49-.44 1.02-.47 1.54-.09 1.25.55 2.51 1.63 3.21 1.1.72 2.67.81 3.81.22 1.12-.58 1.86-1.8 1.84-3.04-.01-1.18-.68-2.34-1.74-3.02-.68-.44-1.51-.67-2.34-.67z" fill="#000000" fill-opacity="1" data-original-color="#000000ff" stroke="none" stroke-opacity="1"/></g><g><path d="m30.86 44.51c-.14 0-.27-.06-.36-.16l-1.07-1.19c-.18-.2-.16-.5.04-.68s.5-.16.68.04l.73.81c.73-.71 1.64-1.42 2.69-2.09.22-.14.52-.08.66.15.14.22.08.52-.15.66-1.15.74-2.14 1.53-2.87 2.31-.09.1-.22.15-.35.15z" fill="#000000" fill-opacity="1" data-original-color="#000000ff" stroke="none" stroke-opacity="1"/></g></g></g><g><path d="m41.62 53.68c-.21 0-.4-.14-.46-.35-.07-.25.07-.52.33-.59.77-.22 1.48-.63 2.08-1.17-.14-.21-.26-.44-.34-.68-.24-.7-.18-1.46.16-2.05.39-.68 1.15-1.08 1.89-1.01.39.04.69.23.83.53.14.29.07.59.03.73-.22.91-.65 1.76-1.24 2.48.14.1.3.18.46.23.56.19 1.22.11 1.71-.22.31-.21.57-.51.85-.83.12-.14.24-.28.37-.41.63-.67 1.29-1 1.95-.99.65.02 1.17.36 1.63.67.12.08.24.16.36.23.76.46 1.67.65 2.55.54s1.72-.52 2.34-1.15c.19-.19.49-.19.68 0s.19.49 0 .68c-.78.78-1.81 1.28-2.9 1.42s-2.22-.1-3.16-.66c-.13-.08-.27-.17-.4-.26-.39-.26-.76-.5-1.13-.51-.38 0-.79.22-1.23.69-.12.12-.23.25-.34.38-.31.35-.62.72-1.04 1-.74.49-1.72.62-2.55.33-.29-.1-.57-.25-.81-.44-.71.64-1.55 1.13-2.48 1.39-.05.01-.1.02-.14.02zm3.47-4.9c-.33 0-.69.22-.88.54-.2.35-.23.82-.08 1.26.03.09.07.17.11.26.45-.59.79-1.26.96-1.97.01-.03.01-.05.01-.07-.01 0-.03-.01-.05-.01-.02-.01-.04-.01-.07-.01z" fill="#000000" fill-opacity="1" data-original-color="#000000ff" stroke="none" stroke-opacity="1"/></g><g><g><path d="m51.68 38.44c-.18 0-.36-.1-.44-.27-.11-.23-.03-.5.19-.62.4-.21 2.42-.47 2.85-.37.26.06.42.32.35.58-.06.26-.32.42-.58.35-.29-.04-1.92.17-2.19.29-.05.03-.12.04-.18.04z" fill="#000000" fill-opacity="1" data-original-color="#000000ff" stroke="none" stroke-opacity="1"/></g><g><path d="m39.43 40.03c-.23 0-.44-.17-.47-.4-.04-.26.14-.51.4-.55 3.64-.58 6.56-.96 10.07-1.3.27-.03.5.17.52.43.03.26-.17.5-.43.52-3.49.34-6.39.71-10.01 1.29-.03.01-.05.01-.08.01z" fill="#000000" fill-opacity="1" data-original-color="#000000ff" stroke="none" stroke-opacity="1"/></g><g><path d="m39.84 43.64c-.23 0-.43-.17-.47-.4-.04-.26.13-.51.4-.55 2.23-.36 4.51-.71 6.76-1.02.26-.04.5.15.54.41s-.15.5-.41.54c-2.24.31-4.51.65-6.73 1.01-.04.01-.07.01-.09.01z" fill="#000000" fill-opacity="1" data-original-color="#000000ff" stroke="none" stroke-opacity="1"/></g></g><g><g><path d="m50 26.93c-.18 0-.36-.1-.44-.27-.11-.23-.03-.5.19-.62.4-.21 2.42-.47 2.85-.37.26.06.42.32.35.58-.06.26-.32.42-.58.35-.29-.04-1.92.17-2.19.29-.05.03-.12.04-.18.04z" fill="#000000" fill-opacity="1" data-original-color="#000000ff" stroke="none" stroke-opacity="1"/></g><g><path d="m37.75 28.52c-.23 0-.44-.17-.47-.4-.04-.26.14-.51.4-.55 3.64-.58 6.56-.96 10.07-1.3.27-.02.5.17.52.43.03.26-.17.5-.43.52-3.49.34-6.39.71-10.01 1.29-.03.01-.05.01-.08.01z" fill="#000000" fill-opacity="1" data-original-color="#000000ff" stroke="none" stroke-opacity="1"/></g><g><path d="m38.16 32.12c-.23 0-.43-.17-.47-.4-.04-.26.13-.51.4-.55 2.23-.36 4.51-.71 6.76-1.02.26-.04.5.15.54.41s-.15.5-.41.54c-2.24.31-4.51.65-6.73 1.01-.04.01-.07.01-.09.01z" fill="#000000" fill-opacity="1" data-original-color="#000000ff" stroke="none" stroke-opacity="1"/></g></g></g><g><g><path d="m19.67 63.91c-5.53 1.03-12.21-5.38-13.13-15.65 7.31-1.36 9.12-5.89 9.12-5.89s3.32 3.57 10.63 2.21c2.83 9.92-1.08 18.3-6.62 19.33z" fill="#ffad00" fill-opacity="1" data-original-color="#ffad00ff" stroke="none" stroke-opacity="1"/></g><g><path d="m21.51 63.27c-.59.31-1.2.52-1.84.64-5.53 1.03-12.21-5.38-13.13-15.65.88-.16 1.68-.37 2.41-.62.93 9.87 7.17 16.15 12.56 15.63z" fill="#ffffff" fill-opacity="1" data-original-color="#ffffffff" stroke="none" stroke-opacity="1"/></g><g><path d="m18.5 64.5c-1.83 0-3.75-.7-5.52-2.05-3.79-2.87-6.38-8.15-6.92-14.14-.02-.25.15-.47.39-.51 6.97-1.3 8.75-5.55 8.77-5.59.06-.15.2-.26.36-.29s.33.02.44.14c.03.03 3.26 3.36 10.19 2.07.24-.05.48.1.55.34 1.65 5.78 1.14 11.64-1.36 15.68-1.44 2.33-3.44 3.84-5.64 4.24-.41.07-.84.11-1.26.11zm-11.44-15.85c.6 5.54 3.01 10.39 6.49 13.03 1.96 1.49 4.11 2.11 6.03 1.75 1.93-.36 3.7-1.71 5-3.81 2.3-3.72 2.8-9.11 1.37-14.5-5.7.93-8.97-1.06-10.14-1.99-.76 1.31-3.09 4.34-8.75 5.52z" fill="#000000" fill-opacity="1" data-original-color="#000000ff" stroke="none" stroke-opacity="1"/></g></g></g><g><path d="m16.17 56.43c-.1 0-.19-.03-.27-.08l-2.74-1.87c-.22-.15-.28-.45-.13-.67s.45-.28.67-.13l2.32 1.58c1.14-1.91 2.68-3.9 4.58-5.9.18-.19.49-.2.68-.02s.2.49.02.68c-1.98 2.08-3.6 4.21-4.7 6.17-.07.12-.18.2-.31.23-.04.01-.08.01-.12.01z" fill="#000000" fill-opacity="1" data-original-color="#000000ff" stroke="none" stroke-opacity="1"/></g></g></g></svg>