<svg id="Layer_1" enable-background="new 0 0 66 66" viewBox="0 0 66 66" xmlns="http://www.w3.org/2000/svg" width="300" height="300" version="1.1" xmlns:xlink="http://www.w3.org/1999/xlink" xmlns:svgjs="http://svgjs.dev/svgjs"><g width="100%" height="100%" transform="matrix(1,0,0,1,0,0)"><g><g><g><g><g><path d="m9.1 24.49s6.81-12.53 19.24-13.62 28.28 10.21 28.28 10.21c-12.71 11.62-28.88 11.99-47.52 3.41z" fill="#ffffff" fill-opacity="1" data-original-color="#ffffffff" stroke="none" stroke-opacity="1"/></g><g><path d="m34.25 29.8c-3.06.91-6.38.52-9.15-1.06-5.42-3.09-6.67-10.46-3.64-15.99 2.06-.97 4.35-1.66 6.88-1.88 4.28-.38 8.96.72 13.27 2.31 2.73 8.13-1.08 14.76-7.36 16.62z" fill="#ffad00" fill-opacity="1" data-original-color="#ffad00ff" stroke="none" stroke-opacity="1"/></g><g><path d="m32.43 30.19c-2.51.32-5.1-.18-7.33-1.45-5.42-3.09-6.67-10.47-3.64-15.99.98-.46 2-.86 3.09-1.17-2.65 5.57-1.63 14.18 3.6 17.16 1.33.76 2.79 1.25 4.28 1.45z" fill="#ffffff" fill-opacity="1" data-original-color="#ffffffff" stroke="none" stroke-opacity="1"/></g><g><g><path d="m26.21 16.42c-.85 1.61-.78 3.69.25 5.3 1.03 1.6 3.01 2.65 4.92 2.53 1.9-.12 3.59-1.37 4.3-3.03.69-1.6.49-3.56-.5-5.09-.82-1.26-2.16-2.19-3.64-2.58-1.34-.35-2.78.32-3.79 1.08-.63.48-1.17 1.09-1.54 1.79z" fill="#2c76f9" fill-opacity="1" data-original-color="#8d77e6ff" stroke="none" stroke-opacity="1"/></g></g><g><g><path d="m32.48 24.05c-.35.11-.72.18-1.09.2-1.91.12-3.89-.92-4.93-2.53-1.03-1.6-1.1-3.69-.25-5.3.37-.7.91-1.31 1.55-1.8 1.01-.77 2.45-1.43 3.79-1.08.21.05.42.12.62.2-.58.22-1.12.54-1.57.88-.64.49-1.18 1.09-1.55 1.8-.85 1.61-.78 3.69.25 5.3.72 1.11 1.89 1.96 3.18 2.33z" fill="#ffffff" fill-opacity="1" data-original-color="#ffffffff" stroke="none" stroke-opacity="1"/></g></g><g><path d="m32.81 30.89c-7.29 0-15.27-1.99-23.91-5.97-.12-.06-.21-.16-.26-.29-.04-.13-.03-.27.03-.38.07-.13 7.08-12.77 19.63-13.87 12.47-1.09 27.95 9.83 28.6 10.3.12.08.19.22.2.36.01.15-.05.29-.16.39-6.88 6.31-14.95 9.46-24.13 9.46zm-23.02-6.62c18.68 8.46 34.17 7.41 46.05-3.14-2.78-1.87-16.56-10.73-27.45-9.78-10.72.94-17.25 10.69-18.6 12.92z" fill="#000000" fill-opacity="1" data-original-color="#000000ff" stroke="none" stroke-opacity="1"/></g><g><path d="m30.93 30.77c-2.11 0-4.21-.54-6.07-1.6-5.44-3.1-7.16-10.57-3.83-16.65.05-.09.13-.16.22-.21 2.27-1.07 4.64-1.72 7.04-1.93 3.84-.34 8.38.45 13.48 2.34.14.05.24.16.29.3 1.37 4.08 1.2 8.11-.49 11.36-1.48 2.86-4.04 4.95-7.19 5.88-1.11.34-2.28.51-3.45.51zm-9.12-17.65c-2.98 5.59-1.41 12.38 3.53 15.2 2.66 1.51 5.86 1.88 8.77 1.01 2.9-.86 5.24-2.78 6.6-5.4 1.53-2.95 1.71-6.63.5-10.38-4.88-1.78-9.19-2.52-12.84-2.2-2.22.2-4.43.79-6.56 1.77z" fill="#000000" fill-opacity="1" data-original-color="#000000ff" stroke="none" stroke-opacity="1"/></g><g><g><path d="m31.09 24.74c-1.96 0-3.95-1.08-5.03-2.76-1.11-1.72-1.22-3.99-.27-5.78.39-.74.97-1.42 1.68-1.96.67-.5 2.42-1.63 4.21-1.16 1.61.42 3.04 1.43 3.92 2.78 1.09 1.67 1.29 3.79.54 5.55-.8 1.86-2.69 3.2-4.72 3.32-.11.01-.22.01-.33.01zm-.31-10.8c-1.16 0-2.26.72-2.73 1.08-.6.45-1.08 1.02-1.41 1.63-.78 1.49-.69 3.37.23 4.81.96 1.49 2.76 2.41 4.49 2.31 1.67-.1 3.23-1.21 3.89-2.74.63-1.46.45-3.24-.46-4.63-.75-1.15-1.97-2.01-3.35-2.37-.22-.07-.44-.09-.66-.09z" fill="#000000" fill-opacity="1" data-original-color="#000000ff" stroke="none" stroke-opacity="1"/></g></g><g><path d="m9.6 18.01c-.09 0-.17-.02-.25-.07-.23-.14-.3-.44-.17-.66.08-.14 8.44-13.63 26.68-10.28 9.76 1.79 16.98 5.64 21.31 8.55.22.15.28.45.13.67s-.45.28-.67.13c-4.26-2.86-11.35-6.63-20.95-8.4-17.59-3.23-25.59 9.69-25.67 9.82-.09.15-.25.24-.41.24z" fill="#000000" fill-opacity="1" data-original-color="#000000ff" stroke="none" stroke-opacity="1"/></g></g><g><g><path d="m33.72 20.22c-.4.76-.37 1.74.12 2.5s1.42 1.25 2.32 1.19 1.69-.64 2.03-1.43c.32-.76.23-1.68-.24-2.4-.39-.59-1.02-1.03-1.71-1.22-.63-.16-1.31.15-1.79.51-.3.23-.55.52-.73.85z" fill="#ffffff" fill-opacity="1" data-original-color="#ffffffff" stroke="none" stroke-opacity="1"/></g><g><path d="m33.72 20.22c-.4.76-.37 1.74.12 2.5s1.42 1.25 2.32 1.19 1.69-.64 2.03-1.43c.32-.76.23-1.68-.24-2.4-.39-.59-1.02-1.03-1.71-1.22-.63-.16-1.31.15-1.79.51-.3.23-.55.52-.73.85z" fill="#ffffff" fill-opacity="1" data-original-color="#ffffffff" stroke="none" stroke-opacity="1"/></g></g><g><g><path d="m36.03 24.4c-1.01 0-2.03-.56-2.59-1.42-.57-.89-.63-2.06-.14-2.99.2-.38.5-.73.87-1.01.35-.26 1.25-.84 2.2-.59.82.21 1.55.73 2 1.42.56.86.66 1.95.28 2.86-.42.98-1.38 1.66-2.45 1.72-.06.01-.12.01-.17.01zm-.14-5.1c-.34 0-.75.16-1.14.46-.25.19-.46.43-.59.69-.33.62-.29 1.41.1 2.01.4.62 1.17 1.02 1.89.97.69-.04 1.34-.5 1.62-1.14.26-.61.19-1.36-.2-1.95-.31-.48-.85-.86-1.43-1.01-.09-.02-.17-.03-.25-.03z" fill="#000000" fill-opacity="1" data-original-color="#000000ff" stroke="none" stroke-opacity="1"/></g><g><path d="m36.03 24.4c-1.01 0-2.03-.56-2.59-1.42-.57-.89-.63-2.06-.14-2.99.2-.38.5-.73.87-1.01.35-.26 1.25-.84 2.2-.59.82.21 1.55.73 2 1.42.56.86.66 1.95.28 2.86-.42.98-1.38 1.66-2.45 1.72-.06.01-.12.01-.17.01zm-.14-5.1c-.34 0-.75.16-1.14.46-.25.19-.46.43-.59.69-.33.62-.29 1.41.1 2.01.4.62 1.17 1.02 1.89.97.69-.04 1.34-.5 1.62-1.14.26-.61.19-1.36-.2-1.95-.31-.48-.85-.86-1.43-1.01-.09-.02-.17-.03-.25-.03z" fill="#000000" fill-opacity="1" data-original-color="#000000ff" stroke="none" stroke-opacity="1"/></g></g></g><g><path d="m13.74 13.38c-.06 0-.11-.01-.17-.03-3.79-1.43-4.06-5.74-4.07-5.92-.01-.27.2-.5.46-.51s.49.19.51.46c0 .04.26 3.87 3.44 5.07.25.09.38.37.28.62-.07.19-.25.31-.45.31z" fill="#000000" fill-opacity="1" data-original-color="#000000ff" stroke="none" stroke-opacity="1"/></g><g><path d="m18.77 10.04c-.06 0-.12-.01-.18-.04-2.93-1.21-3-5.27-3-5.44 0-.27.21-.49.48-.49.27 0 .48.21.48.48 0 .04.07 3.59 2.41 4.55.25.1.36.39.26.63-.08.2-.26.31-.45.31z" fill="#000000" fill-opacity="1" data-original-color="#000000ff" stroke="none" stroke-opacity="1"/></g><g><path d="m25.24 7.87c-.09 0-.18-.02-.26-.07-2.08-1.32-2.44-5.25-2.46-5.42-.02-.27.17-.5.44-.52s.5.17.52.44c0 .04.33 3.62 2.01 4.68.23.14.29.44.15.67-.08.14-.24.22-.4.22z" fill="#000000" fill-opacity="1" data-original-color="#000000ff" stroke="none" stroke-opacity="1"/></g><g><path d="m30.86 7.44c-.27 0-.48-.22-.48-.48v-4.95c0-.27.22-.48.48-.48.27 0 .48.22.48.48v4.94c.01.27-.21.49-.48.49z" fill="#000000" fill-opacity="1" data-original-color="#000000ff" stroke="none" stroke-opacity="1"/></g><g><path d="m37.93 8.4c-.11 0-.22-.04-.31-.11-.21-.17-.24-.47-.07-.68 1.35-1.66 1.98-3.38 1.91-5.26-.01-.27.2-.49.47-.5s.49.2.5.47c.08 2.12-.61 4.05-2.12 5.9-.1.12-.24.18-.38.18z" fill="#000000" fill-opacity="1" data-original-color="#000000ff" stroke="none" stroke-opacity="1"/></g><g><path d="m44.26 10.19c-.13 0-.26-.05-.35-.15-.18-.19-.17-.5.02-.68 2.38-2.23 2.51-6 2.51-6.04.01-.27.22-.49.5-.47.27.01.48.23.47.5 0 .17-.14 4.21-2.81 6.72-.1.07-.22.12-.34.12z" fill="#000000" fill-opacity="1" data-original-color="#000000ff" stroke="none" stroke-opacity="1"/></g><g><path d="m51.46 13.24c-.15 0-.3-.07-.39-.2-.16-.22-.11-.52.11-.68 2.61-1.88 2.96-6.65 2.97-6.7.02-.27.25-.47.52-.45s.47.25.45.52c-.01.21-.39 5.27-3.37 7.42-.09.06-.19.09-.29.09z" fill="#000000" fill-opacity="1" data-original-color="#000000ff" stroke="none" stroke-opacity="1"/></g></g><g><g><g><g><path d="m60.78 60.42c.01.85-.01 1.77-.56 2.42-.64.77-1.77.87-2.77.91-8.66.32-11.48.31-20.13.02-.61-.02-1.27-.07-1.69-.5-.39-.42-.42-1.06-.43-1.64-.05-4.28.06-10.81.07-16.26 0-.49 0-.97 0-1.42 0-1.23 1-2.24 2.22-2.25 2.53-.02 4.03-.04 5.35-.03 4 .01 4.6.03 8.59.04 2.21 0 4.42.01 6.63.01.78 0 1.65.05 2.15.64.39.47.41 1.13.42 1.74 0 .44.01.88.01 1.32.06 5.23.1 9.76.14 15z" fill="#ffad00" fill-opacity="1" data-original-color="#ffad00ff" stroke="none" stroke-opacity="1"/></g></g><g><g><path d="m51.08 47.5c.01.25.01.55-.14.76-.1.14-.37.23-.54.24-.77.04-1.55-2.23-2.32-2.24-.64-.01-1.21 2.26-2.05 2.26-.27 0-.43.01-.65-.15-.3-.23-.31-.66-.3-1.04l-.09-5.66c2.18.01 3.22.03 6.09.03z" fill="#2c76f9" fill-opacity="1" data-original-color="#8d77e6ff" stroke="none" stroke-opacity="1"/></g></g><g><g><path d="m47.32 64.47c-2.92 0-5.75-.08-10.01-.22-.54-.02-1.45-.05-2.02-.66-.51-.54-.56-1.26-.56-1.96-.03-2.67 0-6.14.03-9.82.02-2.18.04-4.39.04-6.45v-1.42c0-1.49 1.21-2.72 2.71-2.73l1.21-.01c1.83-.02 3.04-.03 4.14-.02 1.99 0 3.14.01 4.29.02s2.3.02 4.3.02l6.63.01c.89 0 1.9.07 2.52.81.52.62.53 1.48.53 2.05l.05 6.34c.03 3.3.06 6.49.09 9.99.01.97-.03 1.98-.67 2.74-.77.92-2.01 1.04-3.12 1.08-4.39.16-7.31.23-10.16.23zm-4.78-22.32c-1.02 0-2.16.01-3.82.02l-1.21.01c-.96.01-1.75.8-1.74 1.76v1.42c0 2.06-.02 4.27-.04 6.46-.03 3.67-.06 7.14-.03 9.8.01.53.03 1.03.3 1.31.28.3.82.34 1.35.35 8.37.28 11.23.31 20.1-.02.9-.03 1.9-.12 2.41-.73.43-.51.45-1.29.44-2.11-.03-3.5-.06-6.69-.09-9.99l-.05-6.34c-.01-.59-.03-1.11-.31-1.43-.35-.42-1.07-.46-1.78-.46l-6.63-.01c-2 0-3.15-.01-4.31-.02-1.14-.01-2.29-.02-4.28-.02-.1 0-.2 0-.31 0z" fill="#000000" fill-opacity="1" data-original-color="#000000ff" stroke="none" stroke-opacity="1"/></g></g><g><path d="m38.05 62.18c-.03 0-.06 0-.09-.01-.26-.05-.43-.31-.38-.57.25-1.26.12-2.57-.37-3.79-.1-.25.02-.53.27-.63s.53.02.63.27c.56 1.4.7 2.9.42 4.34-.05.23-.26.39-.48.39z" fill="#000000" fill-opacity="1" data-original-color="#000000ff" stroke="none" stroke-opacity="1"/></g><g><path d="m40.4 62.16c-.03 0-.06 0-.09-.01-.26-.05-.44-.3-.39-.56.21-1.16.27-2.33.16-3.5-.02-.27.17-.5.44-.53.27-.02.5.17.53.44.11 1.25.06 2.52-.17 3.76-.05.24-.25.4-.48.4z" fill="#000000" fill-opacity="1" data-original-color="#000000ff" stroke="none" stroke-opacity="1"/></g><g><path d="m43.02 62.15c-.01 0-.01 0-.02 0-.27-.01-.47-.24-.46-.5l.15-3.66c.01-.27.23-.48.5-.46.27.01.47.24.46.5l-.15 3.66c-.01.26-.22.46-.48.46z" fill="#000000" fill-opacity="1" data-original-color="#000000ff" stroke="none" stroke-opacity="1"/></g><g><path d="m45.67 62.14c-.03 0-.05 0-.08-.01-.26-.04-.44-.29-.4-.56.19-1.16.16-2.32-.11-3.47-.06-.26.1-.52.36-.58s.52.1.58.36c.3 1.27.34 2.57.12 3.85-.03.24-.24.41-.47.41z" fill="#000000" fill-opacity="1" data-original-color="#000000ff" stroke="none" stroke-opacity="1"/></g><g><g><g><path d="m45.94 49.01c-.28 0-.55-.02-.86-.25-.52-.39-.5-1.07-.49-1.44l-.09-5.64c0-.13.05-.26.14-.35s.21-.14.34-.14l1.76.01c1.22.01 2.33.02 4.33.02.27 0 .48.22.48.48l.01 5.8c.01.25.02.7-.24 1.05-.23.32-.7.42-.91.43-.67.03-1.12-.63-1.6-1.33-.19-.28-.53-.77-.72-.89-.14.13-.36.51-.49.75-.4.7-.86 1.49-1.58 1.49-.03.01-.05.01-.08.01zm-.46-6.86.08 5.17c0 .18-.01.57.11.66.07.05.08.06.32.06.22-.03.62-.71.78-1 .37-.65.73-1.26 1.3-1.26h.01c.63.01 1.07.65 1.54 1.33.21.3.6.87.77.91.04 0 .15-.04.18-.07.04-.06.03-.33.03-.43 0-.01 0-.01 0-.02l-.01-5.32c-1.7 0-2.73-.01-3.85-.02z" fill="#000000" fill-opacity="1" data-original-color="#000000ff" stroke="none" stroke-opacity="1"/></g></g></g></g><g><g><g><path d="m31.21 60.42c.01.85-.01 1.77-.56 2.42-.64.77-1.77.87-2.77.91-8.66.32-11.48.31-20.13.02-.61-.02-1.27-.07-1.69-.5-.39-.42-.42-1.06-.43-1.64-.05-4.28.06-10.81.07-16.26 0-.49 0-.97 0-1.42 0-1.23 1-2.24 2.22-2.25 2.53-.02 4.03-.04 5.35-.03 4 .01 4.6.03 8.59.04 2.21 0 4.42.01 6.63.01.78 0 1.65.05 2.15.64.39.47.41 1.13.42 1.74 0 .44.01.88.01 1.32.05 5.23.09 9.76.14 15z" fill="#2c76f9" fill-opacity="1" data-original-color="#8d77e6ff" stroke="none" stroke-opacity="1"/></g></g><g><g><path d="m21.51 47.5c.01.25.01.55-.14.76-.1.14-.37.23-.54.24-.77.04-1.55-2.23-2.32-2.24-.64-.01-1.21 2.26-2.05 2.26-.27 0-.43.01-.65-.15-.3-.23-.31-.66-.3-1.04l-.09-5.66c2.18.01 3.22.03 6.09.03z" fill="#ffffff" fill-opacity="1" data-original-color="#ffffffff" stroke="none" stroke-opacity="1"/></g></g><g><path d="m12.91 41.66c-.63.01-1.33.01-2.15.02-1.23.01-2.23 1.02-2.22 2.25v1.42c-.01 5.45-.12 11.98-.07 16.26.01.58.04 1.22.43 1.64.3.31.71.5 1.14.59-.72-.02-1.48-.05-2.29-.07-.6-.02-1.27-.07-1.69-.5-.39-.42-.43-1.06-.43-1.64-.05-4.27.05-10.81.07-16.26 0-.49 0-.96 0-1.42 0-1.23.99-2.24 2.22-2.25 2.31-.02 3.75-.04 4.99-.04z" fill="#ffffff" fill-opacity="1" data-original-color="#ffffffff" stroke="none" stroke-opacity="1"/></g><g><g><path d="m17.75 64.47c-2.92 0-5.75-.08-10.01-.22-.54-.02-1.45-.05-2.02-.66-.51-.54-.56-1.26-.56-1.96-.03-2.67 0-6.15.03-9.83.02-2.18.04-4.39.04-6.44v-1.42c0-1.49 1.21-2.72 2.7-2.73l1.21-.01c1.83-.02 3.04-.03 4.14-.02 1.99 0 3.14.01 4.29.02s2.3.02 4.3.02l6.63.01c.89 0 1.9.07 2.52.81.52.62.53 1.48.53 2.05l.05 6.16c.03 3.36.06 6.6.09 10.17.01.97-.03 1.98-.67 2.74-.77.92-2.01 1.04-3.12 1.08-4.39.16-7.31.23-10.15.23zm-4.79-22.32c-1.02 0-2.16.01-3.81.02l-1.22.01c-.96.01-1.75.8-1.74 1.76v1.42c0 2.06-.02 4.26-.04 6.45-.03 3.68-.06 7.15-.03 9.81.01.53.03 1.03.3 1.31.28.3.82.34 1.35.35 8.37.28 11.23.31 20.1-.02.9-.03 1.9-.12 2.41-.73.43-.51.45-1.29.44-2.11-.03-3.57-.06-6.81-.09-10.17l-.05-6.16c-.01-.59-.03-1.11-.31-1.43-.35-.42-1.07-.46-1.78-.46l-6.63-.01c-2 0-3.15-.01-4.31-.02-1.14-.01-2.29-.02-4.28-.02-.1 0-.2 0-.31 0z" fill="#000000" fill-opacity="1" data-original-color="#000000ff" stroke="none" stroke-opacity="1"/></g></g><g><path d="m8.47 62.18c-.03 0-.06 0-.09-.01-.27-.05-.44-.31-.38-.57.25-1.26.12-2.57-.37-3.79-.1-.25.02-.53.27-.63s.53.02.63.27c.56 1.4.7 2.9.42 4.34-.05.23-.25.39-.48.39z" fill="#000000" fill-opacity="1" data-original-color="#000000ff" stroke="none" stroke-opacity="1"/></g><g><path d="m10.82 62.16c-.03 0-.06 0-.09-.01-.26-.05-.44-.3-.39-.56.21-1.16.27-2.33.16-3.5-.02-.27.17-.5.44-.53.27-.02.5.17.53.44.11 1.25.06 2.52-.17 3.76-.04.24-.25.4-.48.4z" fill="#000000" fill-opacity="1" data-original-color="#000000ff" stroke="none" stroke-opacity="1"/></g><g><path d="m13.44 62.15c-.01 0-.01 0-.02 0-.27-.01-.47-.24-.46-.5l.15-3.66c.01-.27.23-.48.5-.46.27.01.47.24.46.5l-.15 3.66c0 .26-.22.46-.48.46z" fill="#000000" fill-opacity="1" data-original-color="#000000ff" stroke="none" stroke-opacity="1"/></g><g><path d="m16.09 62.14c-.03 0-.05 0-.08-.01-.26-.04-.44-.29-.4-.56.19-1.16.16-2.32-.11-3.47-.06-.26.1-.52.36-.58s.52.1.58.36c.3 1.27.34 2.57.12 3.85-.03.24-.23.41-.47.41z" fill="#000000" fill-opacity="1" data-original-color="#000000ff" stroke="none" stroke-opacity="1"/></g><g><g><g><path d="m16.36 49.01c-.28 0-.55-.02-.86-.25-.52-.39-.5-1.07-.49-1.44l-.09-5.64c0-.13.05-.26.14-.35s.22-.16.35-.14l1.76.01c1.22.01 2.33.02 4.33.02.27 0 .48.22.48.48l.01 5.8c.01.25.02.7-.24 1.05-.23.32-.7.42-.91.44-.67.03-1.12-.63-1.6-1.33-.19-.28-.53-.77-.72-.89-.13.13-.36.51-.49.75-.4.7-.86 1.49-1.58 1.49-.03 0-.06 0-.09 0zm-.46-6.86.08 5.17c0 .18-.01.57.11.66.07.05.09.06.32.06.22-.03.62-.71.78-1 .37-.65.73-1.26 1.3-1.26h.01c.63.01 1.07.65 1.54 1.33.21.3.6.87.77.91.04 0 .15-.04.18-.07.04-.06.03-.33.03-.43 0-.01 0-.01 0-.02l-.01-5.32c-1.7 0-2.73-.01-3.85-.02z" fill="#000000" fill-opacity="1" data-original-color="#000000ff" stroke="none" stroke-opacity="1"/></g></g></g></g><g><path d="m2.19 64.47h-.18c-.27 0-.48-.22-.48-.48 0-.27.22-.48.48-.48h.18c.27 0 .48.22.48.48s-.21.48-.48.48z" fill="#000000" fill-opacity="1" data-original-color="#000000ff" stroke="none" stroke-opacity="1"/></g><g><path d="m3.43 64.47h-.06c-.27 0-.48-.22-.48-.48 0-.27.22-.48.48-.48h.06c.27 0 .48.22.48.48.01.26-.21.48-.48.48z" fill="#000000" fill-opacity="1" data-original-color="#000000ff" stroke="none" stroke-opacity="1"/></g><g><path d="m32.41 64.47h-27.63c-.27 0-.48-.22-.48-.48 0-.27.22-.48.48-.48h27.63c.27 0 .48.22.48.48.01.26-.21.48-.48.48z" fill="#000000" fill-opacity="1" data-original-color="#000000ff" stroke="none" stroke-opacity="1"/></g><g><path d="m62.05 64.47h-27.87c-.27 0-.48-.22-.48-.48 0-.27.22-.48.48-.48h27.87c.27 0 .48.22.48.48s-.22.48-.48.48z" fill="#000000" fill-opacity="1" data-original-color="#000000ff" stroke="none" stroke-opacity="1"/></g><g><path d="m63.99 64.47h-.33c-.27 0-.48-.22-.48-.48 0-.27.22-.48.48-.48h.33c.27 0 .48.22.48.48s-.22.48-.48.48z" fill="#000000" fill-opacity="1" data-original-color="#000000ff" stroke="none" stroke-opacity="1"/></g></g><g><g><path d="m33.16 40.32c-.04 0-.08 0-.12-.02-.26-.07-.42-.33-.35-.59.04-.15.07-.31.1-.48.04-.26.29-.44.56-.4.26.04.44.29.4.56-.03.19-.07.38-.12.56-.06.22-.25.37-.47.37z" fill="#000000" fill-opacity="1" data-original-color="#000000ff" stroke="none" stroke-opacity="1"/></g><g><path d="m33.41 37.77c-.27 0-.48-.22-.48-.48-.01-1.69-.26-3.3-.26-3.31-.04-.26.14-.51.4-.55s.51.14.55.4c.01.07.27 1.69.27 3.46.01.26-.21.48-.48.48z" fill="#000000" fill-opacity="1" data-original-color="#000000ff" stroke="none" stroke-opacity="1"/></g><g><path d="m27.68 37.75c-.1 0-.21-.03-.3-.1-.21-.16-.25-.47-.09-.68.74-.96 1.42-1.97 2.02-3.01.13-.23.43-.31.66-.18s.31.43.18.66c-.62 1.08-1.32 2.13-2.09 3.12-.09.13-.24.19-.38.19z" fill="#000000" fill-opacity="1" data-original-color="#000000ff" stroke="none" stroke-opacity="1"/></g><g><path d="m38.8 38.3c-.17 0-.33-.08-.42-.24l-2.43-4.09c-.14-.23-.06-.53.17-.66.23-.14.53-.06.66.17l2.43 4.09c.14.23.06.53-.17.66-.08.04-.16.07-.24.07z" fill="#000000" fill-opacity="1" data-original-color="#000000ff" stroke="none" stroke-opacity="1"/></g></g></g></g></svg>