<svg id="Layer_1" enable-background="new 0 0 66 66" viewBox="0 0 66 66" xmlns="http://www.w3.org/2000/svg" width="300" height="300" version="1.1" xmlns:xlink="http://www.w3.org/1999/xlink" xmlns:svgjs="http://svgjs.dev/svgjs"><g width="100%" height="100%" transform="matrix(1,0,0,1,0,0)"><g><g><g><path d="m13.08 3.03c-4.15 0-8.66-.13-11.1-.5-.26-.04-.44-.28-.4-.55.04-.26.29-.45.55-.41 4.01.6 13.73.55 18.04.35.26-.01.49.19.51.46.01.27-.19.49-.46.51-1.75.08-4.36.14-7.14.14z" fill="#000000" fill-opacity="1" data-original-color="#000000ff" stroke="none" stroke-opacity="1"/></g><g><path d="m14.7 8.08c-2.12 0-4.44-.1-6.93-.29-.27-.01-.47-.25-.45-.51.02-.27.25-.47.52-.45 5.08.39 9.4.38 12.84-.03.26-.03.51.16.54.42.03.27-.16.51-.42.54-1.8.22-3.84.32-6.1.32z" fill="#000000" fill-opacity="1" data-original-color="#000000ff" stroke="none" stroke-opacity="1"/></g><g><path d="m12.01 7.76c-.26 0-.48-.21-.48-.47l-.12-4.51c-.01-.27.2-.49.47-.5s.49.2.5.47l.12 4.51c.01.27-.2.49-.47.5-.01 0-.01 0-.02 0z" fill="#000000" fill-opacity="1" data-original-color="#000000ff" stroke="none" stroke-opacity="1"/></g></g><g><g><path d="m13.08 33.97c-4.15 0-8.66-.13-11.1-.5-.26-.04-.45-.29-.41-.55s.29-.45.55-.41c4.01.6 13.73.55 18.04.35.26-.01.49.19.51.46.01.27-.19.49-.46.51-1.74.09-4.35.14-7.13.14z" fill="#000000" fill-opacity="1" data-original-color="#000000ff" stroke="none" stroke-opacity="1"/></g><g><path d="m14.7 39.03c-2.12 0-4.44-.1-6.93-.29-.27-.02-.47-.25-.45-.52s.25-.47.52-.45c5.08.39 9.4.38 12.84-.03.26-.03.51.16.54.42.03.27-.16.51-.42.54-1.8.22-3.84.33-6.1.33z" fill="#000000" fill-opacity="1" data-original-color="#000000ff" stroke="none" stroke-opacity="1"/></g><g><path d="m12.01 38.71c-.26 0-.48-.21-.48-.47l-.12-4.51c-.01-.27.2-.49.47-.5s.49.2.5.47l.12 4.51c.01.27-.2.49-.47.5-.01 0-.01 0-.02 0z" fill="#000000" fill-opacity="1" data-original-color="#000000ff" stroke="none" stroke-opacity="1"/></g></g><g><g><path d="m56.29 40.19c-4.15 0-8.66-.13-11.1-.5-.26-.04-.45-.29-.41-.55s.29-.45.55-.41c4.01.6 13.73.55 18.04.35.26-.02.49.19.51.46.01.27-.19.49-.46.51-1.75.09-4.36.14-7.13.14z" fill="#000000" fill-opacity="1" data-original-color="#000000ff" stroke="none" stroke-opacity="1"/></g><g><path d="m57.38 45.25c-2.74 0-5.49-.12-7.6-.29-.27-.02-.47-.25-.45-.52s.25-.47.52-.45c3.87.3 9.86.47 14.03-.03.26-.03.51.16.54.42.03.27-.16.51-.42.54-1.95.24-4.29.33-6.62.33z" fill="#000000" fill-opacity="1" data-original-color="#000000ff" stroke="none" stroke-opacity="1"/></g><g><path d="m55.21 44.93c-.26 0-.48-.21-.48-.47l-.12-4.51c-.01-.27.2-.49.47-.5.26-.01.49.2.5.47l.12 4.51c.01.27-.2.49-.47.5-.01 0-.01 0-.02 0z" fill="#000000" fill-opacity="1" data-original-color="#000000ff" stroke="none" stroke-opacity="1"/></g></g><g><g><g><g><path d="m57.74 50.96c-.01 2.56-.09 5.15-.17 7.81-.03.93-.05 1.86-.08 2.81-.03 1.16-.98 2.09-2.14 2.1-1.98.03-3.95.05-5.92.08-7.16.09-20.72.18-27.61.18-4.07 0-7.86-.03-11.44-.1-1.19-.03-2.13-1-2.12-2.19.02-1.87.04-3.71.07-5.52.03-1.77.05-3.51.07-5.22.01-1.18.97-2.14 2.16-2.14h45.01c1.21.01 2.18.99 2.17 2.19z" fill="#296ff9" fill-opacity="1" data-original-color="#8d77e6ff" stroke="none" stroke-opacity="1"/></g><g><path d="m12.54 63.88c-.73-.01-1.45-.02-2.16-.03-1.19-.03-2.13-1-2.12-2.19.02-1.87.04-3.71.07-5.52.02-1.77.05-3.51.07-5.22.01-1.18.98-2.14 2.17-2.14h2.42c-1.19 0-2.15.96-2.17 2.14-.01 1.71-.04 3.45-.07 5.22-.03 1.81-.05 3.65-.07 5.52-.01 1.1.79 2.07 1.86 2.22z" fill="#ffffff" fill-opacity="1" data-original-color="#ffffffff" stroke="none" stroke-opacity="1"/></g><g><path d="m21.82 64.43c-4.08 0-7.83-.03-11.45-.1-1.45-.03-2.61-1.23-2.6-2.68.02-1.87.04-3.71.07-5.52v-.09c.03-1.74.05-3.45.07-5.12.01-1.45 1.2-2.62 2.65-2.62h45.01c.71 0 1.37.28 1.87.78.5.51.78 1.18.78 1.89-.01 2.49-.08 4.91-.17 7.82l-.08 2.81c-.04 1.42-1.19 2.55-2.61 2.57l-5.92.08c-7.36.09-20.78.18-27.62.18zm-11.26-15.17c-.92 0-1.67.75-1.68 1.66-.02 1.68-.04 3.39-.07 5.13v.09c-.03 1.81-.05 3.64-.07 5.52-.01.93.72 1.68 1.65 1.7 3.61.07 7.35.1 11.43.1 6.83 0 20.25-.09 27.61-.18l5.92-.08c.91-.01 1.64-.73 1.66-1.63l.08-2.81c.09-2.9.16-5.32.17-7.79 0-.46-.17-.88-.49-1.21-.32-.32-.74-.49-1.19-.49h-45.02z" fill="#000000" fill-opacity="1" data-original-color="#000000ff" stroke="none" stroke-opacity="1"/></g></g><g><g><g><g><path d="m18.91 59.18c-.11 0-.22-.04-.31-.11l-4.56-3.86c-.2-.17-.23-.48-.06-.68s.48-.23.68-.06l4.56 3.86c.2.17.23.48.06.68-.1.11-.23.17-.37.17z" fill="#000000" fill-opacity="1" data-original-color="#000000ff" stroke="none" stroke-opacity="1"/></g><g><path d="m14.35 59.18c-.08 0-.16-.02-.24-.06-.23-.13-.31-.43-.18-.66.71-1.25 1.93-2.25 3.1-3.22.43-.35.86-.71 1.28-1.08.2-.18.5-.16.68.04s.16.5-.04.68c-.43.38-.87.75-1.31 1.11-1.16.96-2.25 1.86-2.88 2.96-.08.14-.24.23-.41.23z" fill="#000000" fill-opacity="1" data-original-color="#000000ff" stroke="none" stroke-opacity="1"/></g></g><g><path d="m16.63 59.7c-.25 0-.47-.2-.48-.45l-.36-5.7c-.02-.27.19-.5.45-.51.27-.01.5.19.51.45l.36 5.7c.02.27-.19.5-.45.51-.01 0-.02 0-.03 0z" fill="#000000" fill-opacity="1" data-original-color="#000000ff" stroke="none" stroke-opacity="1"/></g></g><g><g><g><path d="m29.82 59.18c-.11 0-.22-.04-.31-.11l-4.56-3.86c-.2-.17-.23-.48-.06-.68s.48-.23.68-.06l4.56 3.86c.2.17.23.48.06.68-.09.11-.23.17-.37.17z" fill="#000000" fill-opacity="1" data-original-color="#000000ff" stroke="none" stroke-opacity="1"/></g><g><path d="m25.26 59.18c-.08 0-.16-.02-.24-.06-.23-.13-.31-.43-.18-.66.71-1.25 1.93-2.25 3.1-3.22.43-.35.87-.71 1.28-1.08.2-.18.5-.16.68.04s.16.5-.04.68c-.43.38-.88.75-1.31 1.11-1.16.95-2.25 1.86-2.88 2.96-.08.14-.24.23-.41.23z" fill="#000000" fill-opacity="1" data-original-color="#000000ff" stroke="none" stroke-opacity="1"/></g></g><g><path d="m27.54 59.7c-.25 0-.47-.2-.48-.45l-.36-5.7c-.02-.27.19-.5.45-.51s.5.19.51.45l.36 5.7c.02.27-.19.5-.45.51-.01 0-.02 0-.03 0z" fill="#000000" fill-opacity="1" data-original-color="#000000ff" stroke="none" stroke-opacity="1"/></g></g><g><g><g><path d="m40.74 59.18c-.11 0-.22-.04-.31-.11l-4.56-3.86c-.2-.17-.23-.48-.06-.68s.48-.23.68-.06l4.56 3.86c.2.17.23.48.06.68-.1.11-.23.17-.37.17z" fill="#000000" fill-opacity="1" data-original-color="#000000ff" stroke="none" stroke-opacity="1"/></g><g><path d="m36.18 59.18c-.08 0-.16-.02-.24-.06-.23-.13-.31-.43-.18-.66.71-1.25 1.93-2.25 3.1-3.22.43-.35.86-.71 1.28-1.08.2-.18.5-.16.68.04s.16.5-.04.68c-.43.38-.87.75-1.31 1.11-1.16.96-2.25 1.86-2.88 2.96-.08.14-.25.23-.41.23z" fill="#000000" fill-opacity="1" data-original-color="#000000ff" stroke="none" stroke-opacity="1"/></g></g><g><path d="m38.46 59.7c-.25 0-.47-.2-.48-.45l-.36-5.7c-.02-.27.19-.5.45-.51.27-.01.5.19.51.45l.36 5.7c.02.27-.19.5-.45.51-.01 0-.02 0-.03 0z" fill="#000000" fill-opacity="1" data-original-color="#000000ff" stroke="none" stroke-opacity="1"/></g></g><g><g><g><path d="m51.65 59.18c-.11 0-.22-.04-.31-.11l-4.56-3.86c-.2-.17-.23-.48-.06-.68s.48-.23.68-.06l4.56 3.86c.2.17.23.48.06.68-.09.11-.23.17-.37.17z" fill="#000000" fill-opacity="1" data-original-color="#000000ff" stroke="none" stroke-opacity="1"/></g><g><path d="m47.09 59.18c-.08 0-.16-.02-.24-.06-.23-.13-.31-.43-.18-.66.71-1.25 1.93-2.25 3.1-3.22.43-.35.86-.71 1.28-1.08.2-.18.5-.16.68.04s.16.5-.04.68c-.43.38-.88.75-1.31 1.11-1.16.96-2.25 1.86-2.88 2.96-.08.14-.24.23-.41.23z" fill="#000000" fill-opacity="1" data-original-color="#000000ff" stroke="none" stroke-opacity="1"/></g></g><g><path d="m49.37 59.7c-.25 0-.47-.2-.48-.45l-.36-5.7c-.02-.27.19-.5.45-.51.27-.01.5.19.51.45l.36 5.7c.02.27-.19.5-.45.51-.01 0-.02 0-.03 0z" fill="#000000" fill-opacity="1" data-original-color="#000000ff" stroke="none" stroke-opacity="1"/></g></g></g><g><g><g><path d="m42.11 15.8c-1.25 0-2.35-.88-2.6-2.1-.87-4.37-3.16-6.45-7.21-6.45-8.86-.52-6.37 14.89-6.37 14.89l-5.29 4.48s-4.42-25.4 11.3-24.54c7.15-.01 11.21 3.38 12.78 10.53.36 1.64-.92 3.19-2.61 3.19z" fill="#ffffff" fill-opacity="1" data-original-color="#ffffffff" stroke="none" stroke-opacity="1"/></g><g><path d="m20.64 27.1c-.06 0-.11-.01-.16-.03-.16-.06-.28-.2-.31-.37-.11-.62-2.56-15.21 3.38-21.9 2.06-2.32 4.9-3.4 8.43-3.21h.03c7.26 0 11.58 3.57 13.19 10.91.2.92-.03 1.87-.62 2.61-.6.75-1.5 1.18-2.46 1.18-1.49 0-2.79-1.05-3.08-2.49-.82-4.13-2.96-6.06-6.72-6.06h-.01c-1.7-.1-3.01.39-4.01 1.5-3.32 3.68-1.9 12.74-1.89 12.83.03.17-.04.34-.17.45l-5.29 4.48c-.09.06-.2.1-.31.1zm10.57-24.56c-2.9 0-5.23.98-6.95 2.91-4.84 5.45-3.7 17.02-3.27 20.24l4.42-3.74c-.23-1.61-1.16-9.68 2.17-13.36 1.19-1.32 2.79-1.93 4.75-1.82h.02c4.22 0 6.72 2.24 7.64 6.83.2.99 1.09 1.71 2.13 1.71.67 0 1.29-.3 1.71-.82.41-.51.57-1.16.43-1.8-1.53-6.91-5.43-10.13-12.29-10.13-.01 0-.02 0-.03 0-.25-.01-.49-.02-.73-.02z" fill="#000000" fill-opacity="1" data-original-color="#000000ff" stroke="none" stroke-opacity="1"/></g><g><g><g><path d="m50.08 27.16c-.05 6.88-.13 9.98-.25 16.86-.02 1.01-.05 2.08-.62 2.94-1.06 1.6-3.38 1.72-5.35 1.75l-18.92.03c-2.01.04-5.03.21-6.81-.7-1.97-1.02-2.21-3.36-2.21-5.51l.02-2.17c.03-5.41.06-7.03.09-12.44.02-2.45.23-5.28 2.31-6.69 1.36-.92 3.13-.94 4.79-.93l21.58.25c1.77.01 3.64.14 4.5 1.62.87 1.49.88 3.28.87 4.99z" fill="#ffad00" fill-opacity="1" data-original-color="#ffad00ff" stroke="none" stroke-opacity="1"/></g><g><path d="m21.74 48.04c.86.44 2.01.63 3.2.7-2.01.04-5.03.21-6.81-.7-1.98-1.02-2.21-3.36-2.21-5.51l.01-2.18c.03-5.41.06-7.03.09-12.44.01-2.45.23-5.28 2.31-6.69 1.36-.92 3.13-.94 4.79-.93l2.08.02c-1.17.06-2.31.27-3.26.91-2.08 1.41-2.29 4.24-2.31 6.69-.03 5.41-.06 7.03-.09 12.44l-.02 2.18c0 2.15.24 4.49 2.22 5.51z" fill="#ffffff" fill-opacity="1" data-original-color="#ffffffff" stroke="none" stroke-opacity="1"/></g><g><path d="m22.79 49.26c-1.7 0-3.58-.12-4.88-.79-2.18-1.12-2.48-3.63-2.48-5.94l.02-2.18c.02-2.72.03-4.48.05-6.24.01-1.75.03-3.5.04-6.19.02-2.81.34-5.61 2.52-7.09 1.54-1.04 3.58-1.03 5.06-1.01l21.58.25c1.86.01 3.93.16 4.92 1.86.96 1.63.95 3.63.94 5.23-.04 5.17-.09 8.17-.17 12.32-.02 1.36-.05 2.83-.08 4.54-.02.98-.03 2.19-.7 3.19-1.25 1.89-3.96 1.94-5.75 1.97l-18.93.03-.62.01c-.47.03-.98.04-1.52.04zm-.11-28.48c-1.58 0-2.98.11-4.08.85-1.81 1.23-2.08 3.75-2.1 6.29-.02 2.69-.03 4.45-.04 6.2-.01 1.76-.03 3.52-.05 6.24l-.02 2.17c0 2.11.24 4.19 1.95 5.07 1.49.77 4.06.71 5.94.66l.64-.01 18.93-.03c2.01-.04 4.06-.18 4.95-1.54.47-.71.52-1.63.54-2.68.03-1.71.06-3.19.08-4.55.07-4.15.13-7.14.17-12.31.01-1.56.02-3.33-.8-4.73-.73-1.26-2.42-1.37-4.09-1.38l-21.58-.25c-.15 0-.29 0-.44 0z" fill="#000000" fill-opacity="1" data-original-color="#000000ff" stroke="none" stroke-opacity="1"/></g></g></g></g><g><g><path d="m31.33 31.68c-.47.45-.74 1.1-.81 1.75-.11 1.01.25 2.06.96 2.8.71.73 1.75 1.13 2.76 1.05.48-.04.98-.19 1.32-.53.35-.36.48-.87.53-1.36.13-1.19-.1-3.19-1.04-4.08-.92-.9-2.89-.43-3.72.37z" fill="#ffffff" fill-opacity="1" data-original-color="#ffffffff" stroke="none" stroke-opacity="1"/></g><g><path d="m33.99 37.77c-1.07 0-2.12-.44-2.86-1.21-.81-.84-1.21-2.03-1.09-3.18.09-.81.43-1.54.96-2.04.96-.93 3.23-1.49 4.39-.38 1.12 1.07 1.32 3.27 1.18 4.49-.08.73-.3 1.27-.67 1.65-.38.39-.95.63-1.63.68-.09-.01-.19-.01-.28-.01zm-.32-6.47c-.74 0-1.59.32-2.01.73-.37.35-.6.87-.67 1.45-.1.87.21 1.78.82 2.41s1.5.97 2.38.91c.31-.02.74-.11 1.01-.39.21-.22.34-.57.4-1.08.14-1.23-.16-2.98-.89-3.68-.25-.25-.62-.35-1.04-.35z" fill="#000000" fill-opacity="1" data-original-color="#000000ff" stroke="none" stroke-opacity="1"/></g></g><g><path d="m33.31 42.48c-.27 0-.48-.22-.48-.48v-4.71c0-.27.22-.48.48-.48s.48.22.48.48v4.71c0 .26-.21.48-.48.48z" fill="#000000" fill-opacity="1" data-original-color="#000000ff" stroke="none" stroke-opacity="1"/></g></g></g><g><g><path d="m56.96 16.24c-.1 0-.21-.03-.29-.1-.21-.16-.25-.47-.09-.68.13-.17.25-.34.35-.5.14-.23.44-.29.67-.15s.29.44.15.67c-.12.19-.25.38-.4.58-.1.11-.25.18-.39.18z" fill="#000000" fill-opacity="1" data-original-color="#000000ff" stroke="none" stroke-opacity="1"/></g><g><path d="m52.57 20.15c-.16 0-.31-.07-.4-.21-.15-.22-.09-.52.13-.67.02-.01 1.76-1.19 3.21-2.62.19-.19.5-.19.68 0 .19.19.19.5 0 .68-1.51 1.49-3.27 2.68-3.34 2.73-.09.07-.19.09-.28.09z" fill="#000000" fill-opacity="1" data-original-color="#000000ff" stroke="none" stroke-opacity="1"/></g><g><path d="m50.13 17.18c-.04 0-.09-.01-.13-.02-.26-.07-.4-.34-.33-.6.37-1.27.65-2.58.83-3.9.04-.26.29-.45.55-.41s.45.28.41.55c-.19 1.36-.48 2.71-.86 4.03-.06.21-.26.35-.47.35z" fill="#000000" fill-opacity="1" data-original-color="#000000ff" stroke="none" stroke-opacity="1"/></g><g><path d="m54.95 22.88c-.22 0-.42-.15-.47-.38-.06-.26.11-.52.37-.57l5.19-1.12c.26-.06.52.11.57.37.06.26-.11.52-.37.57l-5.19 1.12c-.04 0-.07.01-.1.01z" fill="#000000" fill-opacity="1" data-original-color="#000000ff" stroke="none" stroke-opacity="1"/></g></g></g></g></g></svg>