<svg id="Layer_1" enable-background="new 0 0 66 66" viewBox="0 0 66 66" xmlns="http://www.w3.org/2000/svg" width="300" height="300" version="1.1" xmlns:xlink="http://www.w3.org/1999/xlink" xmlns:svgjs="http://svgjs.dev/svgjs"><g width="100%" height="100%" transform="matrix(1,0,0,1,0,0)"><g><g><g><path d="m43.37 64.01h-41.32c-.16-1.61-.04-3.31.66-4.78.7-1.48 1.93-2.69 3.4-3.4.97-.46 2.37-.86 3.42-1.1 2.43-.54 4.07-.67 6.58-1.12l1.53 4.71 4.09-3.79 3.88 2.53 2.08-4.14 8.34.99c1.43.17 2.81.7 3.94 1.6 2.11 1.68 3.31 4.43 3.4 8.5z" fill="#296ff9" fill-opacity="1" data-original-color="#8d77e6ff" stroke="none" stroke-opacity="1"/></g><g><path d="m16.12 53.62s-2.64.74-4.31 1.11c-1.05.24-2.45.64-3.42 1.1-1.47.7-2.7 1.92-3.4 3.39-.71 1.47-.82 3.18-.67 4.78h-2.27c-.15-1.61-.04-3.31.67-4.78.7-1.47 1.92-2.69 3.4-3.39.97-.46 2.38-.86 3.42-1.1 2.43-.53 4.07-.66 6.58-1.11z" fill="#ffffff" fill-opacity="1" data-original-color="#ffffffff" stroke="none" stroke-opacity="1"/></g><g><path d="m21.74 54.54-3.99-1.81c-.45.36-1.01.65-1.64.89l1.53 4.71z" fill="#ffad00" fill-opacity="1" data-original-color="#ffad00ff" stroke="none" stroke-opacity="1"/></g><g><path d="m27.71 52.93c-.42-.38-.72-.84-.94-1.38l-5.02 2.99 3.88 2.53z" fill="#ffad00" fill-opacity="1" data-original-color="#ffad00ff" stroke="none" stroke-opacity="1"/></g><g><path d="m24.43 56.3-1.24 2.32h-2.89l-.99-1.83 2.43-2.25z" fill="#ffffff" fill-opacity="1" data-original-color="#ffffffff" stroke="none" stroke-opacity="1"/></g><g><path d="m20.3 58.62c-.59 2.16-.95 3.6-1.24 5.4h6.08c-.75-1.63-1.38-3.45-1.94-5.4z" fill="#ffad00" fill-opacity="1" data-original-color="#ffad00ff" stroke="none" stroke-opacity="1"/></g><g><g><path d="m29.19 48.01c-1.37.66-2.3 1.99-2.42 3.51v.03l-5.02 2.99-3.99-1.81c.12-1.86-.48-3.17-1.81-3.94-.14-.08-.29-.15-.44-.22-3.98-1.84-6.03-5.56-6.98-10.73l-1.07-5.38c3.06-3.21 5.13-7.1 5.13-12.01 0 0 7.17 3.16 14.85-.65 0 0 1.36 1.65 4.51 2.13 1.95 3.08 4.34 5.61 4.83 8.28.83 9.64-2.07 15.16-7.59 17.8z" fill="#ffffff" fill-opacity="1" data-original-color="#ffffffff" stroke="none" stroke-opacity="1"/></g><g><path d="m8.54 37.94c-.09.01-.17.01-.26.01-1.51 0-2.74-1.23-2.74-2.74 0-1.23.81-2.27 1.93-2.62l1.05 5.26c.01.03.02.06.02.09z" fill="#ffffff" fill-opacity="1" data-original-color="#ffffffff" stroke="none" stroke-opacity="1"/></g><g><path d="m36.78 30.23c-.5-2.67-2.89-5.21-4.84-8.29-3.16-.48-4.51-2.13-4.51-2.13-7.68 3.8-14.85.65-14.85.65 0 4.9-2.07 8.8-5.13 12.01-2.13-8.58-1.32-14.39 4.06-15.91 4.89-3.24 10.53-4.3 16.92-3.23-1.66.35-3.03.92-4.22 1.62 8.6-1.21 15.15 3.51 12.57 15.28z" fill="#296ff9" fill-opacity="1" data-original-color="#8d77e6ff" stroke="none" stroke-opacity="1"/></g><g><path d="m24.91 12.96c-4.06.19-7.77 1.38-11.12 3.6-4.92 1.39-6.02 6.37-4.54 13.77-.55.75-1.15 1.46-1.8 2.13-2.13-8.58-1.32-14.39 4.06-15.91 3.97-2.62 8.44-3.81 13.4-3.59z" fill="#ffffff" fill-opacity="1" data-original-color="#ffffffff" stroke="none" stroke-opacity="1"/></g><g><path d="m26.81 14.77c.35 0 .71.01 1.05.04-.45.03-.91.08-1.37.14.1-.06.21-.12.32-.18z" fill="#ffffff" fill-opacity="1" data-original-color="#ffffffff" stroke="none" stroke-opacity="1"/></g><g><path d="m43.37 64.5h-41.32c-.25 0-.46-.19-.48-.44-.19-1.95.05-3.65.71-5.04.76-1.58 2.05-2.87 3.63-3.63 1.27-.6 3.02-1.02 3.52-1.13 1.49-.33 2.68-.51 3.95-.7.82-.12 1.67-.25 2.65-.42.24-.04.47.1.55.33l1.3 3.99 3.54-3.27c.16-.15.41-.17.59-.05l3.43 2.23 1.84-3.66c.09-.18.29-.29.49-.26l8.34.99c1.58.19 3.03.77 4.19 1.7 2.27 1.82 3.47 4.8 3.56 8.86 0 .13-.05.26-.14.35-.1.1-.22.15-.35.15zm-40.87-.97h40.37c-.16-3.51-1.23-6.08-3.18-7.63-1.02-.82-2.3-1.33-3.7-1.5l-8-.95-1.93 3.84c-.06.12-.17.21-.31.25-.13.04-.28.01-.39-.06l-3.57-2.32-3.82 3.53c-.12.11-.29.16-.45.11-.16-.04-.29-.16-.34-.32l-1.4-4.31c-.82.14-1.55.25-2.27.35-1.25.18-2.42.36-3.88.68-.99.22-2.38.62-3.32 1.06-1.39.66-2.51 1.79-3.17 3.17-.53 1.14-.74 2.51-.64 4.1z" fill="#000000" fill-opacity="1" data-original-color="#000000ff" stroke="none" stroke-opacity="1"/></g><g><path d="m17.65 58.82c-.04 0-.08-.01-.12-.02-.16-.04-.29-.16-.34-.32l-1.53-4.71c-.08-.25.05-.51.29-.6.63-.24 1.12-.5 1.5-.81.14-.12.34-.14.51-.07l3.99 1.81c.15.07.25.2.28.36s-.03.32-.15.43l-4.09 3.79c-.1.09-.22.14-.34.14zm-.93-4.92 1.16 3.56 3-2.78-3.06-1.39c-.32.23-.68.43-1.1.61z" fill="#000000" fill-opacity="1" data-original-color="#000000ff" stroke="none" stroke-opacity="1"/></g><g><path d="m25.63 57.56c-.09 0-.19-.03-.26-.08l-3.88-2.53c-.14-.09-.22-.25-.22-.42s.09-.32.24-.41l5.02-2.99c.12-.07.27-.09.4-.04.13.04.24.15.29.28.2.5.47.89.82 1.2.16.15.21.38.11.58l-2.08 4.14c-.06.12-.17.21-.31.25-.05.01-.09.02-.13.02zm-2.97-3 2.78 1.81 1.68-3.35c-.21-.23-.4-.49-.56-.78z" fill="#000000" fill-opacity="1" data-original-color="#000000ff" stroke="none" stroke-opacity="1"/></g><g><path d="m23.19 59.1h-2.89c-.18 0-.34-.1-.43-.26l-.98-1.83c-.1-.19-.06-.43.1-.58l2.43-2.25c.16-.15.41-.17.59-.05l2.69 1.76c.21.14.28.41.16.64l-1.25 2.32c-.08.16-.24.25-.42.25zm-2.6-.96h2.31l.9-1.67-2-1.31-1.88 1.74z" fill="#000000" fill-opacity="1" data-original-color="#000000ff" stroke="none" stroke-opacity="1"/></g><g><path d="m25.13 64.5h-6.08c-.14 0-.28-.06-.37-.17s-.13-.25-.11-.39c.31-1.9.72-3.45 1.25-5.44.06-.21.25-.36.47-.36h2.89c.22 0 .41.14.47.35.59 2.06 1.21 3.81 1.91 5.33.07.15.06.32-.03.46-.08.14-.24.22-.4.22zm-5.5-.97h4.76c-.56-1.31-1.07-2.76-1.56-4.43h-2.16c-.5 1.85-.8 3.06-1.04 4.43z" fill="#000000" fill-opacity="1" data-original-color="#000000ff" stroke="none" stroke-opacity="1"/></g><g><path d="m21.74 55.03c-.07 0-.14-.01-.2-.04l-3.99-1.81c-.18-.08-.3-.27-.28-.47.11-1.67-.41-2.81-1.57-3.49-.11-.06-.23-.12-.35-.17l-.05-.02c-3.89-1.8-6.2-5.32-7.25-11.08l-1.07-5.38c-.03-.15.02-.31.12-.43 3.36-3.52 4.99-7.34 5-11.67 0-.16.08-.32.22-.41s.31-.1.46-.04c.07.03 7.06 3.02 14.44-.64.2-.1.45-.05.59.13.01.01 1.3 1.51 4.21 1.96.14.02.26.1.34.22.56.89 1.17 1.74 1.76 2.56 1.43 2 2.78 3.9 3.14 5.89.82 9.41-1.75 15.39-7.86 18.32-1.22.58-2.04 1.77-2.14 3.11 0 .02 0 .03-.01.05-.02.15-.1.28-.23.36l-5.02 2.99c-.08.03-.17.06-.26.06zm-3.49-2.6 3.46 1.57 4.6-2.74c.2-1.59 1.2-2.98 2.67-3.68 5.7-2.73 8.09-8.39 7.32-17.31-.32-1.73-1.61-3.54-2.97-5.45-.55-.78-1.12-1.58-1.67-2.42-2.4-.42-3.78-1.48-4.32-1.98-6.4 3.03-12.32 1.44-14.27.76-.17 4.23-1.83 7.99-5.08 11.46l1.01 5.11c1 5.43 3.13 8.73 6.71 10.38l.05.02c.14.07.29.14.43.22 1.41.83 2.1 2.19 2.06 4.06z" fill="#000000" fill-opacity="1" data-original-color="#000000ff" stroke="none" stroke-opacity="1"/></g><g><path d="m31.94 22.43c-.17 0-.33-.09-.42-.25l-1.19-2.13c-.13-.23-.05-.53.19-.66.23-.13.53-.05.66.19l1.19 2.13c.13.23.05.53-.19.66-.07.04-.16.06-.24.06z" fill="#000000" fill-opacity="1" data-original-color="#000000ff" stroke="none" stroke-opacity="1"/></g><g><path d="m7.45 32.95c-.04 0-.08-.01-.12-.02-.17-.05-.3-.18-.35-.35-2.37-9.55-.96-14.94 4.32-16.47 4.94-3.25 10.73-4.35 17.21-3.26.23.04.4.24.4.47s-.16.44-.39.48c-.59.12-1.16.28-1.72.47 3.48.01 6.38 1.12 8.32 3.21 2.61 2.82 3.35 7.26 2.12 12.85-.05.23-.25.4-.48.38-.23 0-.43-.17-.47-.4-.33-1.78-1.61-3.58-2.98-5.49-.56-.78-1.13-1.59-1.68-2.44-2.41-.42-3.78-1.47-4.33-1.98-6.4 3.03-12.32 1.44-14.27.76-.17 4.3-1.89 8.12-5.25 11.64-.07.1-.2.15-.33.15zm16.35-19.53c-4.43 0-8.46 1.19-12.02 3.55-.04.03-.09.05-.14.06-4.57 1.29-5.86 6.02-3.93 14.44 2.95-3.34 4.38-6.95 4.39-11.01 0-.16.08-.32.22-.41s.31-.1.46-.04c.07.03 7.06 3.02 14.44-.64.2-.1.45-.05.59.13.01.01 1.3 1.51 4.21 1.96.14.02.26.1.34.22.57.9 1.18 1.75 1.77 2.58.97 1.37 1.91 2.69 2.53 4.02.63-4.39-.12-7.87-2.22-10.13-2.19-2.36-5.79-3.33-10.14-2.72-.23.03-.45-.1-.53-.32s.01-.46.21-.58c.68-.4 1.38-.73 2.11-1.01-.79-.07-1.54-.1-2.29-.1z" fill="#000000" fill-opacity="1" data-original-color="#000000ff" stroke="none" stroke-opacity="1"/></g><g><path d="m8.29 38.43c-1.78 0-3.22-1.45-3.22-3.22 0-1.42.91-2.66 2.27-3.08.13-.04.27-.02.39.05s.2.19.23.32l1.06 5.32c.03.13 0 .29-.09.4-.08.11-.2.19-.34.2-.1.01-.2.01-.3.01zm-1.17-5.16c-.67.4-1.09 1.12-1.09 1.93 0 1.13.83 2.07 1.92 2.23z" fill="#000000" fill-opacity="1" data-original-color="#000000ff" stroke="none" stroke-opacity="1"/></g></g><g><g><path d="m29.87 34.78c-.67.48-1.72.29-2.2-.38-.19-.28-.25-.68-.19-1.08.14-1.05 1.33-1.69 2.26-1.18.2.11.37.26.51.45.47.67.29 1.72-.38 2.19z" fill="#000000" fill-opacity="1" data-original-color="#000000ff" stroke="none" stroke-opacity="1"/></g><g><path d="m18.39 34.78c-.67.48-1.72.29-2.19-.38-.2-.29-.25-.68-.2-1.08.15-1.05 1.33-1.69 2.26-1.18.2.11.37.26.5.45.48.67.3 1.72-.37 2.19z" fill="#000000" fill-opacity="1" data-original-color="#000000ff" stroke="none" stroke-opacity="1"/></g><g><path d="m25.71 30.95c-.2 0-.38-.12-.46-.32-.09-.25.04-.53.29-.62 2.15-.77 4.48-1.07 6.75-.87.27.02.46.26.44.53s-.25.46-.53.44c-2.13-.19-4.32.09-6.34.81-.04.02-.09.03-.15.03z" fill="#000000" fill-opacity="1" data-original-color="#000000ff" stroke="none" stroke-opacity="1"/></g><g><path d="m12.78 31.13c-.2 0-.38-.12-.46-.32-.09-.25.04-.53.29-.62 2.15-.77 4.48-1.07 6.75-.87.27.02.46.26.44.53s-.25.47-.53.44c-2.13-.19-4.32.09-6.34.81-.04.02-.1.03-.15.03z" fill="#000000" fill-opacity="1" data-original-color="#000000ff" stroke="none" stroke-opacity="1"/></g><g><path d="m21.78 44.29c-.7 0-1.36-.15-1.95-.44-.62-.31-1.14-.78-1.52-1.36-.15-.22-.08-.52.14-.67s.52-.08.67.14c.28.43.68.79 1.14 1.02.85.43 2 .44 3.14.04 1.08-.38 2.07-1.06 3.02-1.72.22-.15.52-.1.67.12s.1.52-.12.67c-1.01.69-2.05 1.41-3.25 1.83-.66.25-1.32.37-1.94.37z" fill="#000000" fill-opacity="1" data-original-color="#000000ff" stroke="none" stroke-opacity="1"/></g><g><path d="m21.81 40.12c-.17 0-.33-.09-.42-.25-.13-.23-.05-.53.19-.66.59-.33.83-1.06.85-1.64.03-.73-.19-1.48-.41-2.21-.08-.26.07-.53.32-.6.26-.08.53.07.6.32.23.77.49 1.63.45 2.53-.05 1.07-.56 2-1.35 2.44-.07.05-.15.07-.23.07z" fill="#000000" fill-opacity="1" data-original-color="#000000ff" stroke="none" stroke-opacity="1"/></g></g></g><g><g><g><path d="m63.99 14.19c-.19 2.75-1.47 5.4-3.5 7.26-1.59 1.46-3.63 2.42-5.76 2.74-.87.13-1.76.12-2.63.04l-2.7-.26c-.34 1.02-.81 1.23-1.72 1.81-.46.29-1.01.42-1.56.49-1.19.16-2.29-.16-3.45-.42 1.32-.25 2.42-1.27 2.84-2.55-3.3-1.57-6.33-4.12-7.57-7.56-.88-2.46-.76-5.26.32-7.63 1.09-2.37 3.12-4.3 5.55-5.24 3.22-1.25 6.93-1.08 10.21.03 3.27 1.12 6.2 3.22 8.3 5.96.49.65.95 1.33 1.24 2.09.41 1.02.5 2.15.43 3.24z" fill="#ffad00" fill-opacity="1" data-original-color="#ffad00ff" stroke="none" stroke-opacity="1"/></g><g><path d="m47.59 23.29c-.42 1.28-1.52 2.3-2.84 2.55.58.13 1.15.27 1.72.37-.12.02-.23.04-.35.05-1.19.16-2.29-.16-3.45-.42 1.32-.25 2.42-1.27 2.84-2.55-3.3-1.57-6.33-4.11-7.57-7.55-.88-2.46-.77-5.26.32-7.64 1.09-2.37 3.12-4.3 5.55-5.24 1.86-.72 3.88-.97 5.89-.83-1.31.09-2.6.36-3.81.83-2.43.94-4.47 2.87-5.55 5.24-1.09 2.38-1.21 5.17-.32 7.64 1.24 3.44 4.27 5.98 7.57 7.55z" fill="#ffffff" fill-opacity="1" data-original-color="#ffffffff" stroke="none" stroke-opacity="1"/></g><g><path d="m45.48 26.79c-.86 0-1.67-.19-2.47-.37l-.45-.1c-.22-.05-.38-.25-.38-.48s.17-.43.39-.47c1-.19 1.87-.89 2.31-1.84-3.68-1.85-6.3-4.54-7.41-7.63-.93-2.59-.8-5.51.34-8 1.14-2.5 3.26-4.5 5.82-5.49 3.16-1.22 6.9-1.21 10.54.03 3.34 1.14 6.37 3.31 8.53 6.12.64.83 1.04 1.51 1.31 2.21.39.99.54 2.15.45 3.46-.2 2.87-1.53 5.63-3.65 7.58-1.64 1.51-3.78 2.52-6.02 2.86-.83.13-1.73.14-2.75.04l-2.33-.22c-.36.81-.87 1.13-1.54 1.55l-.23.15c-.58.36-1.24.49-1.75.56-.24.03-.48.04-.71.04zm-1.22-1.09c.6.11 1.19.17 1.8.09.41-.06.94-.15 1.36-.42l.24-.15c.73-.45 1.03-.64 1.28-1.4.07-.21.28-.35.51-.33l2.7.26c.94.09 1.76.08 2.51-.04 2.05-.31 4.01-1.24 5.51-2.62 1.94-1.78 3.16-4.31 3.34-6.93.08-1.16-.05-2.18-.39-3.04-.24-.61-.6-1.22-1.18-1.97-2.04-2.66-4.91-4.72-8.08-5.8-3.37-1.15-6.97-1.16-9.88-.04-2.32.9-4.25 2.72-5.29 4.99s-1.15 4.92-.31 7.27c1.06 2.96 3.66 5.54 7.32 7.28.22.1.33.36.25.59-.28.93-.9 1.73-1.69 2.26z" fill="#000000" fill-opacity="1" data-original-color="#000000ff" stroke="none" stroke-opacity="1"/></g></g><g><g><g><ellipse cx="50.43" cy="12.93" fill="#296ff9" rx="6.42" ry="6.42" transform="matrix(.911 -.413 .413 .911 -.835 21.996)" fill-opacity="1" data-original-color="#8d77e6ff" stroke="none" stroke-opacity="1"/></g><g><path d="m54.39 17.99c-1.09.86-2.46 1.37-3.96 1.37-3.55 0-6.42-2.88-6.42-6.42 0-2.75 1.72-5.09 4.15-6.01-1.51 1.17-2.48 3-2.48 5.06 0 3.55 2.88 6.42 6.42 6.42.81 0 1.58-.15 2.29-.42z" fill="#ffffff" fill-opacity="1" data-original-color="#ffffffff" stroke="none" stroke-opacity="1"/></g><g><path d="m50.43 19.84c-3.81 0-6.91-3.1-6.91-6.91s3.1-6.91 6.91-6.91 6.91 3.1 6.91 6.91-3.1 6.91-6.91 6.91zm0-12.85c-3.28 0-5.94 2.66-5.94 5.94s2.66 5.94 5.94 5.94 5.94-2.66 5.94-5.94-2.66-5.94-5.94-5.94z" fill="#000000" fill-opacity="1" data-original-color="#000000ff" stroke="none" stroke-opacity="1"/></g></g></g><g><g><path d="m50.5 16.16c-.11 0-.22 0-.33-.01-1.1-.08-1.97-.54-2.38-1.27-.13-.23-.05-.53.18-.66s.53-.05.66.18c.36.63 1.25.76 1.61.78.48.03.88-.02 1.21-.17.35-.16.61-.43.71-.73.09-.29-.01-.63-.22-.78-.26-.19-.69-.13-.91-.09-.16.03-.31.08-.47.12-.28.08-.58.17-.9.2-.7.07-1.32-.17-1.66-.65-.42-.6-.26-1.34.01-1.84.42-.74 1.12-1.16 1.64-1.38.62-.27 1.27-.39 1.9-.5.26-.05.52.12.57.39.05.26-.12.52-.39.57-.58.11-1.17.22-1.7.44-.38.16-.89.46-1.17.96-.14.25-.21.6-.07.81.15.22.51.26.76.24.23-.02.47-.09.73-.17.18-.05.35-.1.53-.14.68-.15 1.26-.06 1.69.25.55.4.79 1.16.58 1.85-.17.58-.63 1.07-1.24 1.34-.39.17-.84.26-1.34.26z" fill="#000000" fill-opacity="1" data-original-color="#000000ff" stroke="none" stroke-opacity="1"/></g><g><path d="m49.59 10.92c-.19 0-.37-.11-.45-.3l-.52-1.26c-.1-.25.02-.53.26-.63.25-.1.53.02.63.26l.52 1.26c.1.25-.02.53-.26.63-.05.03-.12.04-.18.04z" fill="#000000" fill-opacity="1" data-original-color="#000000ff" stroke="none" stroke-opacity="1"/></g><g><path d="m50.81 17.17c-.27 0-.48-.22-.48-.48v-1.03c0-.27.22-.48.48-.48s.48.22.48.48v1.03c.01.27-.21.48-.48.48z" fill="#000000" fill-opacity="1" data-original-color="#000000ff" stroke="none" stroke-opacity="1"/></g></g></g><g><g><path d="m45.31 49.02c-.15 0-.29-.07-.39-.19-.16-.21-.12-.52.09-.68.15-.12.31-.23.46-.33.23-.14.53-.08.67.15s.08.53-.15.67c-.13.08-.27.18-.4.28-.08.07-.18.1-.28.1z" fill="#000000" fill-opacity="1" data-original-color="#000000ff" stroke="none" stroke-opacity="1"/></g><g><path d="m41.72 53.04c-.09 0-.19-.03-.27-.08-.22-.15-.28-.45-.13-.67.04-.06.96-1.41 2.16-2.7.18-.2.49-.21.68-.02.2.18.21.49.02.68-1.15 1.23-2.05 2.57-2.06 2.58-.09.13-.24.21-.4.21z" fill="#000000" fill-opacity="1" data-original-color="#000000ff" stroke="none" stroke-opacity="1"/></g><g><path d="m44.4 55.16c-.21 0-.4-.13-.46-.34-.08-.26.07-.53.32-.6 1.19-.36 2.41-.64 3.63-.83.26-.04.51.14.55.4s-.14.51-.4.55c-1.18.19-2.36.46-3.5.8-.05.02-.1.02-.14.02z" fill="#000000" fill-opacity="1" data-original-color="#000000ff" stroke="none" stroke-opacity="1"/></g><g><path d="m39.27 50.96c-.03 0-.07 0-.1-.01-.26-.06-.43-.32-.37-.58l1.02-4.64c.06-.26.32-.43.58-.37s.43.32.37.58l-1.02 4.64c-.05.23-.25.38-.48.38z" fill="#000000" fill-opacity="1" data-original-color="#000000ff" stroke="none" stroke-opacity="1"/></g></g></g></g></svg>