<svg id="Layer_1" enable-background="new 0 0 66 66" viewBox="0 0 66 66" xmlns="http://www.w3.org/2000/svg" width="300" height="300" version="1.1" xmlns:xlink="http://www.w3.org/1999/xlink" xmlns:svgjs="http://svgjs.dev/svgjs"><g width="100%" height="100%" transform="matrix(1,0,0,1,0,0)"><g><g><g><g><g><path d="m53.4 63.95h-50.08c-.19-1.95-.05-4.01.81-5.79.85-1.79 2.34-3.27 4.12-4.12 1.18-.56 2.88-1.05 4.15-1.33 2.95-.66 4.94-.81 7.97-1.35l1.85 5.7 4.96-4.59 4.71 3.07 2.52-5.02 10.11 1.2c1.74.2 3.41.85 4.78 1.94 2.54 2.03 3.99 5.36 4.1 10.29z" fill="#ffffff" fill-opacity="1" data-original-color="#ffffffff" stroke="none" stroke-opacity="1"/></g><g><path d="m27.19 52.48-4.83-2.19c-.54.44-1.22.79-1.98 1.08l1.86 5.7z" fill="#ffad00" fill-opacity="1" data-original-color="#ffad00ff" stroke="none" stroke-opacity="1"/></g><g><path d="m34.41 50.52c-.5-.46-.87-1.02-1.14-1.67l-6.09 3.62 4.71 3.07z" fill="#ffad00" fill-opacity="1" data-original-color="#ffad00ff" stroke="none" stroke-opacity="1"/></g><g><path d="m30.45 54.6-1.51 2.82h-3.51l-1.18-2.22 2.94-2.73z" fill="#296ff9" fill-opacity="1" data-original-color="#8d77e6ff" stroke="none" stroke-opacity="1"/></g><g><path d="m25.43 57.42c-.71 2.62-1.15 4.36-1.51 6.54h7.36c-.91-1.97-1.68-4.18-2.35-6.54z" fill="#ffad00" fill-opacity="1" data-original-color="#ffad00ff" stroke="none" stroke-opacity="1"/></g><g><path d="m36.21 44.56c-1.66.79-2.79 2.42-2.93 4.25-.01.02-.01.03-.01.04l-6.09 3.62-4.84-2.19c.14-2.25-.58-3.84-2.19-4.78-.17-.1-.35-.18-.53-.26-4.82-2.23-7.31-6.74-8.46-13l-1.3-6.52c3.71-3.89 6.21-8.61 6.22-14.55 0 0 8.68 3.83 17.99-.78 0 0 1.64 2 5.47 2.58 2.36 3.73 5.26 6.8 5.86 10.04 1.02 11.65-2.49 18.34-9.19 21.55z" fill="#ffffff" fill-opacity="1" data-original-color="#ffffffff" stroke="none" stroke-opacity="1"/></g><g><path d="m11.19 32.35c-.1.01-.21.01-.31.01-1.83 0-3.32-1.49-3.32-3.32 0-1.49.98-2.76 2.34-3.17l1.27 6.37c.01.04.02.07.02.11z" fill="#ffffff" fill-opacity="1" data-original-color="#ffffffff" stroke="none" stroke-opacity="1"/></g><g><path d="m45.41 23.01c-.6-3.24-3.5-6.31-5.86-10.04-3.83-.58-5.47-2.58-5.47-2.58-9.31 4.61-17.99.78-17.99.78-.01 5.94-2.51 10.66-6.22 14.55-2.58-10.4-1.6-17.44 4.92-19.28 5.92-3.93 12.77-5.21 20.51-3.91-2.01.42-3.67 1.11-5.12 1.96 10.43-1.47 18.36 4.26 15.23 18.52z" fill="#296ff9" fill-opacity="1" data-original-color="#8d77e6ff" stroke="none" stroke-opacity="1"/></g><g><path d="m31.02 2.07c-4.92.23-9.41 1.68-13.47 4.37-5.96 1.68-7.29 7.72-5.5 16.69-.66.9-1.4 1.76-2.18 2.59-2.58-10.4-1.6-17.44 4.92-19.28 4.81-3.19 10.22-4.63 16.23-4.37z" fill="#ffffff" fill-opacity="1" data-original-color="#ffffffff" stroke="none" stroke-opacity="1"/></g><g><path d="m53.4 64.44h-50.08c-.25 0-.46-.19-.48-.44-.23-2.35.06-4.38.85-6.05.91-1.9 2.45-3.44 4.35-4.35 1.53-.73 3.64-1.23 4.25-1.37 1.8-.4 3.25-.62 4.78-.84 1-.15 2.03-.3 3.22-.51.24-.04.47.1.55.33l1.62 4.98 4.41-4.08c.16-.15.41-.17.59-.05l4.25 2.77 2.28-4.54c.09-.18.29-.29.49-.26l10.11 1.2c1.89.22 3.63.93 5.02 2.04 2.73 2.18 4.17 5.77 4.28 10.66 0 .13-.05.26-.14.35-.1.11-.22.16-.35.16zm-49.63-.97h49.13c-.18-4.34-1.49-7.51-3.9-9.44-1.25-1-2.82-1.64-4.53-1.84l-9.77-1.16-2.37 4.72c-.06.12-.17.21-.31.25-.13.04-.27.01-.39-.06l-4.39-2.86-4.69 4.33c-.12.11-.29.15-.45.11s-.29-.16-.34-.32l-1.72-5.3c-1.03.18-1.94.31-2.83.44-1.51.22-2.94.44-4.71.83-1.2.27-2.9.75-4.04 1.3-1.7.81-3.08 2.19-3.9 3.89-.67 1.41-.93 3.13-.79 5.11z" fill="#000000" fill-opacity="1" data-original-color="#000000ff" stroke="none" stroke-opacity="1"/></g><g><path d="m22.23 57.55c-.04 0-.08-.01-.12-.02-.16-.04-.29-.16-.34-.32l-1.86-5.7c-.08-.25.05-.51.29-.6.77-.29 1.38-.62 1.85-1 .14-.12.34-.14.51-.07l4.83 2.19c.15.07.25.2.28.36s-.03.32-.15.43l-4.96 4.59c-.09.09-.21.14-.33.14zm-1.26-5.91 1.48 4.55 3.87-3.58-3.91-1.77c-.4.3-.88.57-1.44.8z" fill="#000000" fill-opacity="1" data-original-color="#000000ff" stroke="none" stroke-opacity="1"/></g><g><path d="m31.9 56.03c-.09 0-.18-.03-.26-.08l-4.71-3.07c-.14-.09-.22-.25-.22-.42s.09-.32.24-.41l6.09-3.62c.12-.07.27-.09.4-.04.13.04.24.15.29.28.25.62.58 1.11 1.01 1.5.16.15.2.38.11.58l-2.52 5.02c-.06.12-.17.21-.31.25-.04 0-.08.01-.12.01zm-3.8-3.54 3.6 2.35 2.12-4.22c-.29-.31-.55-.67-.76-1.08z" fill="#000000" fill-opacity="1" data-original-color="#000000ff" stroke="none" stroke-opacity="1"/></g><g><path d="m28.94 57.9h-3.51c-.18 0-.34-.1-.43-.26l-1.19-2.22c-.1-.19-.06-.43.1-.58l2.94-2.72c.16-.15.41-.17.59-.05l3.26 2.13c.21.14.28.41.16.63l-1.51 2.81c-.07.16-.23.26-.41.26zm-3.22-.97h2.93l1.16-2.17-2.58-1.68-2.39 2.21z" fill="#000000" fill-opacity="1" data-original-color="#000000ff" stroke="none" stroke-opacity="1"/></g><g><path d="m31.29 64.44h-7.36c-.14 0-.28-.06-.37-.17s-.13-.25-.11-.39c.38-2.29.87-4.18 1.52-6.59.06-.21.25-.36.47-.36h3.51c.22 0 .41.14.47.35.71 2.51 1.47 4.62 2.32 6.47.07.15.06.32-.03.46-.1.14-.26.23-.42.23zm-6.79-.97h6.05c-.71-1.64-1.36-3.47-1.97-5.57h-2.77c-.64 2.35-1.01 3.84-1.31 5.57z" fill="#000000" fill-opacity="1" data-original-color="#000000ff" stroke="none" stroke-opacity="1"/></g><g><path d="m27.19 52.96c-.07 0-.14-.01-.2-.04l-4.84-2.19c-.18-.08-.3-.27-.28-.47.13-2.07-.51-3.48-1.95-4.33-.14-.08-.29-.15-.43-.22l-.06-.03c-4.68-2.16-7.46-6.41-8.73-13.35l-1.3-6.52c-.03-.15.02-.31.12-.43 4.09-4.29 6.08-8.94 6.09-14.22 0-.16.08-.32.22-.4.14-.09.31-.1.46-.04.09.04 8.6 3.68 17.58-.77.2-.1.44-.05.59.13.01.02 1.6 1.86 5.17 2.41.14.02.26.1.34.22.69 1.08 1.42 2.11 2.13 3.11 1.72 2.42 3.35 4.71 3.79 7.09.99 11.35-2.11 18.56-9.46 22.08-1.51.72-2.53 2.2-2.65 3.85 0 .02 0 .04-.01.06-.02.15-.1.28-.23.36l-6.09 3.62c-.09.06-.17.08-.26.08zm-4.34-2.98 4.31 1.95 5.66-3.37c.22-1.91 1.42-3.59 3.18-4.43 6.95-3.33 9.87-10.23 8.93-21.08-.4-2.13-1.96-4.33-3.62-6.66-.68-.95-1.38-1.93-2.04-2.97-3-.51-4.67-1.85-5.28-2.43-7.9 3.76-15.21 1.69-17.42.9-.17 5.17-2.19 9.76-6.17 14l1.25 6.28c1.22 6.62 3.82 10.64 8.19 12.66l.06.03c.17.08.34.16.51.26 1.68.96 2.5 2.6 2.44 4.86z" fill="#000000" fill-opacity="1" data-original-color="#000000ff" stroke="none" stroke-opacity="1"/></g><g><path d="m9.87 26.2c-.04 0-.08-.01-.12-.02-.17-.05-.3-.18-.35-.35-2.86-11.51-1.16-18 5.18-19.83 5.97-3.93 12.96-5.26 20.79-3.94.23.04.4.23.4.47 0 .23-.16.44-.38.48-.92.19-1.81.45-2.66.78 4.47-.12 8.16 1.22 10.6 3.85 3.14 3.39 4.02 8.74 2.55 15.48-.05.22-.24.37-.48.38-.23 0-.43-.17-.47-.4-.4-2.18-1.97-4.37-3.62-6.7-.68-.96-1.39-1.95-2.05-2.99-3-.51-4.67-1.85-5.28-2.43-7.91 3.76-15.21 1.69-17.42.9-.17 5.25-2.25 9.89-6.34 14.18-.09.09-.22.14-.35.14zm19.81-23.67c-5.39 0-10.3 1.44-14.63 4.31-.04.03-.09.05-.14.06-5.64 1.59-7.21 7.42-4.79 17.82 3.68-4.11 5.47-8.55 5.48-13.56 0-.16.08-.32.22-.4.14-.09.31-.1.46-.04.09.04 8.6 3.68 17.58-.77.2-.1.45-.05.59.13.01.02 1.59 1.86 5.17 2.41.14.02.26.1.34.22.69 1.09 1.43 2.13 2.14 3.13 1.26 1.77 2.46 3.46 3.2 5.18.86-5.52-.05-9.89-2.67-12.72-2.68-2.89-7.08-4.07-12.38-3.32-.23.02-.45-.11-.53-.33s.01-.46.21-.58c.96-.56 1.94-1.01 2.97-1.38-1.09-.1-2.16-.16-3.22-.16z" fill="#000000" fill-opacity="1" data-original-color="#000000ff" stroke="none" stroke-opacity="1"/></g><g><path d="m10.88 32.85c-2.1 0-3.8-1.71-3.8-3.8 0-1.68 1.08-3.14 2.68-3.64.13-.04.27-.02.39.05s.2.19.23.32l1.29 6.47c.03.13-.01.28-.09.39s-.21.18-.34.2c-.12 0-.24.01-.36.01zm-1.34-6.31c-.91.49-1.5 1.43-1.5 2.5 0 1.47 1.13 2.68 2.56 2.82z" fill="#000000" fill-opacity="1" data-original-color="#000000ff" stroke="none" stroke-opacity="1"/></g><g><g><path d="m37.04 28.52c-.82.58-2.09.36-2.66-.46-.23-.34-.3-.82-.23-1.31.18-1.27 1.61-2.05 2.74-1.43.24.14.44.31.61.55.57.81.35 2.08-.46 2.65z" fill="#000000" fill-opacity="1" data-original-color="#000000ff" stroke="none" stroke-opacity="1"/></g><g><path d="m23.12 28.52c-.81.58-2.08.35-2.66-.46-.24-.35-.31-.83-.24-1.31.18-1.27 1.61-2.05 2.74-1.43.24.13.45.31.61.54.58.82.37 2.09-.45 2.66z" fill="#000000" fill-opacity="1" data-original-color="#000000ff" stroke="none" stroke-opacity="1"/></g><g><path d="m32 23.78c-.2 0-.38-.12-.46-.32-.09-.25.04-.53.29-.62 2.59-.93 5.4-1.29 8.14-1.04.27.02.46.26.44.53s-.26.46-.53.44c-2.6-.24-5.27.11-7.73.99-.04.01-.1.02-.15.02z" fill="#000000" fill-opacity="1" data-original-color="#000000ff" stroke="none" stroke-opacity="1"/></g><g><path d="m16.32 24c-.2 0-.38-.12-.46-.32-.09-.25.04-.53.29-.62 2.59-.93 5.4-1.29 8.14-1.04.27.02.46.26.44.53s-.26.46-.53.44c-2.6-.24-5.27.11-7.73.99-.04.01-.09.02-.15.02z" fill="#000000" fill-opacity="1" data-original-color="#000000ff" stroke="none" stroke-opacity="1"/></g><g><path d="m27.23 39.95c-.84 0-1.62-.17-2.31-.52-.73-.37-1.35-.92-1.8-1.61-.15-.22-.08-.52.14-.67s.52-.08.67.14c.35.54.84.98 1.42 1.27 1.06.53 2.48.55 3.89.05 1.33-.47 2.53-1.29 3.69-2.09.22-.15.52-.1.67.12s.1.52-.12.67c-1.21.84-2.47 1.7-3.92 2.21-.8.29-1.58.43-2.33.43z" fill="#000000" fill-opacity="1" data-original-color="#000000ff" stroke="none" stroke-opacity="1"/></g><g><path d="m27.27 34.89c-.17 0-.33-.09-.42-.25-.13-.23-.05-.53.19-.66.75-.42 1.05-1.34 1.09-2.07.04-.9-.24-1.82-.51-2.71-.08-.26.07-.53.32-.6.26-.08.53.07.6.32.28.92.59 1.96.55 3.03-.06 1.26-.66 2.36-1.58 2.87-.08.05-.16.07-.24.07z" fill="#000000" fill-opacity="1" data-original-color="#000000ff" stroke="none" stroke-opacity="1"/></g></g></g><g><g><path d="m44.06 54.14c-.22 3.17 1.38 6.43 4.19 8.26s6.74 2.09 9.74.55c2.98-1.53 4.81-4.71 4.77-7.87-.04-3.04-1.75-6.02-4.44-7.75-2.22-1.42-5.05-1.97-7.7-1.54-2.4.39-4.26 2.47-5.34 4.4-.69 1.22-1.12 2.57-1.22 3.95z" fill="#ffad00" fill-opacity="1" data-original-color="#ffad00ff" stroke="none" stroke-opacity="1"/></g><g><path d="m55.08 63.85c-2.36.34-4.88-.17-6.83-1.45-2.81-1.82-4.41-5.09-4.19-8.26.1-1.38.52-2.73 1.21-3.95 1.09-1.93 2.94-4.01 5.34-4.4 1.07-.17 2.17-.18 3.24-.05-.12.01-.23.03-.34.05-2.4.39-4.25 2.47-5.34 4.4-.69 1.22-1.11 2.57-1.21 3.95-.22 3.17 1.38 6.44 4.19 8.26 1.17.76 2.53 1.25 3.93 1.45z" fill="#ffffff" fill-opacity="1" data-original-color="#ffffffff" stroke="none" stroke-opacity="1"/></g><g><g><path d="m54.42 49.55v.03c-.01.78-.62 1.42-1.39 1.46-.02 0-.04 0-.06.01-.83.04-1.53-.62-1.53-1.45v-.04c-.01-.82.65-1.48 1.47-1.47h.06c.81 0 1.45.66 1.45 1.46z" fill="#ffffff" fill-opacity="1" data-original-color="#ffffffff" stroke="none" stroke-opacity="1"/></g></g><g><path d="m53.66 64.44c-1.99 0-4-.55-5.67-1.64-2.91-1.89-4.64-5.31-4.41-8.7.1-1.41.54-2.85 1.27-4.16.69-1.23 2.63-4.15 5.68-4.64 2.81-.45 5.73.13 8.03 1.61 2.84 1.82 4.63 4.95 4.67 8.15.04 3.4-1.98 6.74-5.03 8.31-1.38.72-2.95 1.07-4.54 1.07zm-9.11-10.27c-.21 3.05 1.35 6.12 3.97 7.82 2.71 1.77 6.43 1.98 9.25.52 2.73-1.41 4.54-4.4 4.5-7.44-.04-2.89-1.65-5.71-4.22-7.35-2.1-1.35-4.78-1.88-7.36-1.47-2.64.43-4.37 3.05-5 4.16-.66 1.2-1.06 2.49-1.14 3.76z" fill="#000000" fill-opacity="1" data-original-color="#000000ff" stroke="none" stroke-opacity="1"/></g></g><g><g><path d="m52.9 51.53c-.5 0-.97-.19-1.33-.53-.39-.37-.61-.87-.61-1.4 0-.56.2-1.06.57-1.43s.85-.58 1.39-.57h.06c1.07.01 1.94.88 1.94 1.95v.03c-.01 1.04-.82 1.89-1.85 1.94-.01 0-.01 0-.01 0-.02 0-.03 0-.05.01-.05 0-.08 0-.11 0zm0-2.96c-.26 0-.51.1-.69.29-.19.19-.29.43-.29.7 0 .31.11.56.31.74.19.18.44.27.69.27.05-.01.09-.01.11-.01.5-.03.91-.46.91-.98l.48-.03h-.48c0-.54-.44-.98-.97-.98h-.07c.01 0 .01 0 0 0z" fill="#000000" fill-opacity="1" data-original-color="#000000ff" stroke="none" stroke-opacity="1"/></g></g></g><g><g><path d="m56.43 5.84c-.1 0-.19-.03-.28-.09-.22-.15-.27-.46-.11-.67.13-.19.25-.37.36-.55.14-.23.43-.31.66-.17s.31.43.17.66c-.12.21-.26.41-.41.62-.09.12-.24.2-.39.2z" fill="#000000" fill-opacity="1" data-original-color="#000000ff" stroke="none" stroke-opacity="1"/></g><g><path d="m51.26 10.79c-.15 0-.3-.07-.39-.2-.16-.22-.11-.52.11-.68.02-.01 1.76-1.29 3.36-2.87.19-.19.5-.19.68 0 .19.19.19.5 0 .68-1.65 1.64-3.4 2.92-3.47 2.97-.09.07-.19.1-.29.1z" fill="#000000" fill-opacity="1" data-original-color="#000000ff" stroke="none" stroke-opacity="1"/></g><g><path d="m48.35 7.31c-.04 0-.08-.01-.13-.02-.26-.07-.41-.34-.34-.59.42-1.54.73-3.13.94-4.72.03-.26.28-.45.54-.42s.45.28.42.54c-.21 1.63-.53 3.26-.96 4.85-.06.22-.25.36-.47.36z" fill="#000000" fill-opacity="1" data-original-color="#000000ff" stroke="none" stroke-opacity="1"/></g><g><path d="m54.09 13.96c-.22 0-.41-.15-.47-.36-.07-.26.09-.52.35-.59l6.1-1.55c.26-.07.52.09.59.35s-.09.52-.35.59l-6.1 1.55c-.04 0-.08.01-.12.01z" fill="#000000" fill-opacity="1" data-original-color="#000000ff" stroke="none" stroke-opacity="1"/></g></g></g><g><path d="m53.24 62.03c-.22 0-.42-.15-.47-.38-.44-1.92-.49-3.97-.15-5.91l.06-.33c.15-.83.3-1.61.01-2.27-.11-.24.01-.53.25-.64.25-.11.53.01.64.25.4.93.22 1.94.05 2.83l-.06.32c-.32 1.82-.27 3.73.14 5.53.06.26-.1.52-.36.58-.04.02-.07.02-.11.02z" fill="#000000" fill-opacity="1" data-original-color="#000000ff" stroke="none" stroke-opacity="1"/></g></g></g></svg>