<svg id="Layer_1" enable-background="new 0 0 66 66" viewBox="0 0 66 66" xmlns="http://www.w3.org/2000/svg" width="300" height="300" version="1.1" xmlns:xlink="http://www.w3.org/1999/xlink" xmlns:svgjs="http://svgjs.dev/svgjs"><g width="100%" height="100%" transform="matrix(1,0,0,1,0,0)"><g><g><g><g><path d="m53.46 19.06c-.46 4.03-1.65 7.95-3.4 11.61-1.27 2.67-2.64 5.4-4.67 7.59-2.49 2.69-6.07 5.58-9.63 4.7-5.03-1.24-9.4-4.61-12.36-8.86-2.97-4.25-4.6-9.34-5.26-14.48-.53-4.17-.45-8.39-.08-12.58 1.73-.33 3.03-1.78 3.19-3.53 1.65-.32 3.36-.6 5.08-.85 6.25-.91 12.6-.91 18.86 0 1.72.25 3.43.54 5.08.85.15 1.76 1.46 3.21 3.19 3.55.37 4.01.46 8.03 0 12z" fill="#ffad00" fill-opacity="1" data-original-color="#ffad00ff" stroke="none" stroke-opacity="1"/></g><g><path d="m38.34 43c-.85.17-1.71.18-2.57-.03-5.03-1.25-9.4-4.61-12.37-8.86s-4.59-9.34-5.25-14.47c-.53-4.17-.45-8.39-.08-12.58.94-.18 1.75-.69 2.33-1.4-.35 4.17-.35 9.89.17 13.98.66 5.14 2.29 10.22 5.25 14.47 2.97 4.25 7.33 7.61 12.37 8.86.05.01.1.02.15.03z" fill="#ffffff" fill-opacity="1" data-original-color="#ffffffff" stroke="none" stroke-opacity="1"/></g><g><path d="m37.1 38.28c-.06 0-.12-.01-.17-.02-3.62-.89-7.1-3.42-9.55-6.93-2.28-3.27-3.81-7.53-4.42-12.32-.34-2.67-.42-5.6-.25-8.9.82-.64 1.53-1.42 2.08-2.31.74-.12 1.49-.24 2.25-.35 2.88-.42 5.82-.63 8.73-.63s5.85.21 8.73.63c.75.11 1.51.23 2.25.35.55.89 1.26 1.67 2.09 2.32.16 3.1.1 5.86-.19 8.38-.39 3.38-1.38 6.77-2.96 10.08-1.15 2.42-2.31 4.72-3.85 6.38-2.26 2.46-3.97 3.32-4.74 3.32z" fill="#ffffff" fill-opacity="1" data-original-color="#ffffffff" stroke="none" stroke-opacity="1"/></g></g><g><g><path d="m37.11 43.61c-.5 0-.98-.06-1.46-.18-4.93-1.22-9.42-4.43-12.65-9.05-2.81-4.03-4.61-8.97-5.34-14.69-.48-3.75-.5-7.9-.08-12.68.02-.22.18-.39.39-.43 1.51-.29 2.66-1.57 2.8-3.1.02-.22.18-.39.39-.43 1.63-.31 3.35-.6 5.11-.86 6.3-.92 12.69-.92 19 0 1.73.25 3.45.54 5.1.85.21.04.37.22.39.44.13 1.54 1.28 2.82 2.8 3.11.21.04.37.22.39.43.4 4.56.39 8.51-.02 12.09-.45 3.96-1.61 7.92-3.44 11.76-1.33 2.8-2.7 5.5-4.75 7.71-3.08 3.35-5.97 5.03-8.63 5.03zm-18.59-36.16c-.39 4.56-.35 8.53.11 12.13.71 5.56 2.45 10.36 5.17 14.26 3.05 4.36 7.45 7.52 12.08 8.66 3.32.82 6.81-2.03 9.15-4.56 1.96-2.11 3.28-4.74 4.58-7.47 1.79-3.75 2.92-7.6 3.36-11.46.39-3.42.41-7.2.04-11.55-1.64-.47-2.89-1.85-3.17-3.53-1.53-.29-3.12-.55-4.72-.78-6.21-.91-12.51-.91-18.72 0-1.62.24-3.21.5-4.72.78-.28 1.68-1.52 3.06-3.16 3.52z" fill="#000000" fill-opacity="1" data-original-color="#000000ff" stroke="none" stroke-opacity="1"/></g><g><path d="m37.1 38.77c-.1 0-.19-.01-.29-.03-3.73-.92-7.32-3.52-9.83-7.12-2.32-3.33-3.88-7.67-4.51-12.53-.35-2.72-.43-5.66-.25-8.98.01-.14.08-.27.19-.36.78-.61 1.44-1.34 1.97-2.18.07-.12.19-.2.33-.22.74-.12 1.5-.24 2.26-.35 5.81-.85 11.79-.85 17.6 0 .76.11 1.51.23 2.26.35.14.02.26.1.33.22.53.84 1.19 1.58 1.97 2.19.11.09.18.22.19.36.16 3.13.1 5.9-.19 8.46-.39 3.43-1.4 6.87-3 10.23-1.17 2.45-2.35 4.8-3.93 6.5-2.37 2.55-4.19 3.46-5.1 3.46zm-13.92-28.4c-.16 3.18-.08 5.99.26 8.59.6 4.71 2.1 8.89 4.34 12.1 2.38 3.41 5.76 5.87 9.27 6.73.01 0 .03.01.05.01.51 0 2.08-.66 4.39-3.15 1.49-1.61 2.63-3.88 3.76-6.26 1.56-3.27 2.54-6.61 2.92-9.93.28-2.45.35-5.1.2-8.08-.74-.61-1.38-1.32-1.91-2.12-.67-.11-1.35-.21-2.03-.31-5.71-.83-11.6-.83-17.32 0-.68.1-1.36.2-2.03.31-.52.8-1.16 1.5-1.9 2.11z" fill="#000000" fill-opacity="1" data-original-color="#000000ff" stroke="none" stroke-opacity="1"/></g></g><g><g><g><path d="m36.86 25.54c2.5 4.29 4.49 8.69 5.72 13.22 5.96 1.09 13.47 1.9 21.39 2.52-2.45-2.89-4.95-6.47-7.48-10.37z" fill="#ffffff" fill-opacity="1" data-original-color="#ffffffff" stroke="none" stroke-opacity="1"/></g><g><path d="m36.86 25.54c-6.85 2-15.48 3.7-25.25 5.22l-9.66 11 23.68-3.88c3.89-4.07 7.65-8.18 11.23-12.34z" fill="#ffffff" fill-opacity="1" data-original-color="#ffffffff" stroke="none" stroke-opacity="1"/></g><g><path d="m12.69 57.25c.09-5.99.11-11.78-.03-17.24l12.97-2.13c3.9-4.07 7.65-8.19 11.22-12.34l.14 38.48z" fill="#296ff9" fill-opacity="1" data-original-color="#8d77e6ff" stroke="none" stroke-opacity="1"/></g><g><path d="m56.83 55.27-19.84 8.75-.14-38.48c2.5 4.29 4.49 8.68 5.72 13.22 4.03.74 8.77 1.35 13.86 1.85-.08 2.89.57 8.93.4 14.66z" fill="#296ff9" fill-opacity="1" data-original-color="#6f5dd8ff" stroke="none" stroke-opacity="1"/></g><g><path d="m14.85 39.65c.1 4.66.12 12.42.07 18.23l-2.24-.62c.09-5.99.11-11.78-.04-17.25z" fill="#ffffff" fill-opacity="1" data-original-color="#ffffffff" stroke="none" stroke-opacity="1"/></g><g><path d="m20.37 52.12c-2.5-.5-5.03-.93-7.62-1.34.01-2.01.01-3.99-.02-5.94h.01c2.51.48 5.04.71 7.6.7-.15 2.08-.12 4.28.03 6.58z" fill="#ffffff" fill-opacity="1" data-original-color="#ffffffff" stroke="none" stroke-opacity="1"/></g><g><g><path d="m63.97 41.76c-.01 0-.03 0-.04 0-8.83-.69-16.04-1.54-21.44-2.53-.18-.03-.33-.17-.38-.35-1.15-4.23-3.01-8.52-5.67-13.1-.1-.17-.09-.38.03-.54s.32-.22.51-.17l19.63 5.37c.11.03.21.1.28.2 2.83 4.37 5.26 7.75 7.44 10.32.13.15.15.36.06.53-.07.17-.24.27-.42.27zm-21.01-3.43c5.1.91 11.79 1.71 19.9 2.37-2-2.46-4.15-5.47-6.68-9.38l-18.33-5.01c2.35 4.17 4.02 8.12 5.11 12.02z" fill="#000000" fill-opacity="1" data-original-color="#000000ff" stroke="none" stroke-opacity="1"/></g><g><path d="m1.95 42.25c-.17 0-.34-.09-.42-.25-.1-.18-.08-.4.06-.55l9.67-11.01c.07-.09.18-.14.29-.16 10.55-1.64 18.79-3.34 25.18-5.21.21-.06.43.02.54.2.12.18.1.42-.04.58-3.45 4.02-7.13 8.06-11.25 12.37-.07.08-.17.13-.27.14l-23.68 3.88c-.03 0-.06.01-.08.01zm9.91-11.04-8.66 9.86 22.19-3.63c3.64-3.81 6.94-7.42 10.04-10.99-6.16 1.69-13.9 3.25-23.57 4.76z" fill="#000000" fill-opacity="1" data-original-color="#000000ff" stroke="none" stroke-opacity="1"/></g><g><path d="m36.99 64.5c-.04 0-.09-.01-.13-.02l-24.3-6.76c-.21-.06-.36-.25-.35-.47.1-6.86.09-12.33-.04-17.22-.01-.24.17-.45.41-.49l12.82-2.1c3.88-4.05 7.61-8.16 11.09-12.2.1-.12.25-.18.41-.17s.3.1.37.24c2.64 4.54 4.51 8.81 5.69 13.04 3.71.67 8.14 1.26 13.53 1.79.25.03.44.24.44.5-.04 1.19.05 2.94.16 4.98.15 2.82.33 6.32.23 9.68-.01.19-.12.35-.29.43l-19.84 8.74c-.06.01-.13.03-.2.03zm-23.81-7.61 23.77 6.61 19.4-8.55c.08-3.23-.1-6.59-.24-9.3-.09-1.81-.18-3.41-.17-4.6-5.36-.54-9.77-1.13-13.46-1.81-.18-.03-.33-.17-.38-.35-1.1-4.06-2.85-8.16-5.33-12.51-3.4 3.93-7.03 7.91-10.79 11.84-.07.08-.17.13-.27.14l-12.56 2.06c.12 4.7.13 9.96.03 16.47z" fill="#000000" fill-opacity="1" data-original-color="#000000ff" stroke="none" stroke-opacity="1"/></g><g><path d="m20.37 52.61c-.03 0-.06 0-.1-.01-2.2-.44-4.61-.87-7.6-1.33-.24-.04-.41-.24-.41-.48.01-2.06.01-3.99-.02-5.93 0-.13.05-.26.14-.35.11-.11.29-.17.45-.14 2.47.47 5 .7 7.51.7.13 0 .26.06.36.16.09.1.14.23.13.37-.15 1.9-.14 4.03.02 6.51.01.15-.05.3-.16.4-.09.06-.2.1-.32.1zm-7.13-2.24c2.54.4 4.67.77 6.61 1.15-.12-2.04-.12-3.85-.02-5.5-2.21-.02-4.43-.22-6.6-.61.02 1.65.02 3.32.01 4.96z" fill="#000000" fill-opacity="1" data-original-color="#000000ff" stroke="none" stroke-opacity="1"/></g><g><path d="m36.9 38.96c-.27 0-.48-.22-.48-.48l-.05-12.94c0-.27.22-.49.48-.49.27 0 .48.22.48.48l.05 12.94c0 .27-.21.49-.48.49z" fill="#000000" fill-opacity="1" data-original-color="#000000ff" stroke="none" stroke-opacity="1"/></g><g><path d="m36.99 64.5c-.27 0-.48-.22-.48-.48-.01-1.87-.07-3.73-.14-5.71-.14-4.03-.28-8.19.07-12.56.02-.27.25-.47.52-.44.27.02.47.26.44.52-.35 4.31-.21 8.45-.07 12.45.07 1.99.13 3.86.14 5.74 0 .26-.21.48-.48.48z" fill="#000000" fill-opacity="1" data-original-color="#000000ff" stroke="none" stroke-opacity="1"/></g></g></g></g><g><g><path d="m39.45 13.13c.59 1.26.24 2.79-.83 3.69-.21.18-.47.35-.78.5.3 1.17.45 2.37.59 3.57.05.42.1.84.15 1.25.04.31.06.66-.39.79-.09.03-.19.04-.29.04h-2.84c-.1 0-.2-.01-.29-.04-.46-.13-.43-.49-.39-.79.05-.42.1-.84.15-1.25.14-1.2.29-2.4.59-3.57-.31-.15-.56-.32-.78-.5-1.07-.9-1.42-2.42-.83-3.69.91-2.16 4.95-2.31 5.94 0z" fill="#296ff9" fill-opacity="1" data-original-color="#8d77e6ff" stroke="none" stroke-opacity="1"/></g><g><path d="m37.91 23.46h-2.84c-.16 0-.3-.02-.43-.06-.86-.25-.77-1.05-.74-1.31l.15-1.25c.13-1.07.26-2.17.51-3.27-.19-.12-.37-.24-.53-.38-1.24-1.05-1.64-2.8-.95-4.26.49-1.17 1.83-1.95 3.4-1.96h.03c1.56 0 2.86.75 3.39 1.97.68 1.46.28 3.21-.96 4.26-.16.13-.34.26-.53.38.25 1.09.38 2.19.51 3.27l.15 1.25c.03.26.13 1.06-.74 1.31-.12.03-.26.05-.42.05zm-3.06-1s.02.01.06.02.09.02.16.02h2.84c.07 0 .12-.01.15-.02.05-.02.07-.03.07-.03.01-.03-.01-.19-.02-.24l-.15-1.26c-.14-1.16-.29-2.37-.58-3.51-.06-.22.05-.45.25-.55.26-.13.49-.28.68-.44.91-.77 1.2-2.04.7-3.11 0 0 0-.01-.01-.01-.44-1.02-1.58-1.39-2.5-1.39-.01 0-.02 0-.02 0-1.19.01-2.18.55-2.52 1.38-.51 1.09-.22 2.36.69 3.13.19.16.42.31.68.44.2.1.31.33.25.55-.3 1.15-.44 2.35-.58 3.51l-.15 1.25c0 .06-.02.2 0 .26z" fill="#000000" fill-opacity="1" data-original-color="#000000ff" stroke="none" stroke-opacity="1"/></g></g></g><g><g><path d="m7.8 23.66c-.14 0-.28-.06-.38-.18s-.2-.24-.31-.35c-.19-.19-.18-.5.02-.69.19-.18.5-.18.69.02.12.13.24.26.36.41.17.21.14.51-.07.68-.09.07-.2.11-.31.11z" fill="#000000" fill-opacity="1" data-original-color="#000000ff" stroke="none" stroke-opacity="1"/></g><g><path d="m10.22 28.2c-.2 0-.38-.12-.45-.32-.01-.01-.54-1.46-1.33-2.86-.13-.23-.05-.53.19-.66.23-.13.53-.05.66.19.82 1.47 1.37 2.94 1.39 3 .09.25-.04.53-.29.62-.06.02-.11.03-.17.03z" fill="#000000" fill-opacity="1" data-original-color="#000000ff" stroke="none" stroke-opacity="1"/></g><g><path d="m7.25 29.56c-.08 0-.17-.02-.25-.07-.98-.58-2.01-1.1-3.07-1.54-.25-.1-.36-.39-.26-.63.1-.25.39-.36.63-.26 1.09.46 2.17 1 3.19 1.6.23.14.31.43.17.66-.08.16-.24.24-.41.24z" fill="#000000" fill-opacity="1" data-original-color="#000000ff" stroke="none" stroke-opacity="1"/></g><g><path d="m12.96 26.82h-.01c-.27-.01-.48-.23-.47-.5l.11-4.54c.01-.27.21-.48.5-.47.27.01.48.23.47.5l-.11 4.54c-.01.26-.22.47-.49.47z" fill="#000000" fill-opacity="1" data-original-color="#000000ff" stroke="none" stroke-opacity="1"/></g></g><g><g><path d="m60.38 23.66c-.11 0-.21-.04-.3-.11-.21-.17-.24-.47-.07-.68.12-.14.24-.28.36-.41.18-.19.49-.2.69-.02.19.19.2.49.02.69-.1.11-.2.22-.3.35-.12.11-.26.18-.4.18z" fill="#000000" fill-opacity="1" data-original-color="#000000ff" stroke="none" stroke-opacity="1"/></g><g><path d="m57.96 28.2c-.06 0-.11-.01-.17-.03-.25-.09-.38-.37-.29-.62.02-.06.57-1.53 1.39-3 .13-.23.42-.32.66-.19.23.13.32.43.19.66-.79 1.41-1.32 2.85-1.33 2.86-.07.2-.25.32-.45.32z" fill="#000000" fill-opacity="1" data-original-color="#000000ff" stroke="none" stroke-opacity="1"/></g><g><path d="m60.93 29.56c-.17 0-.33-.09-.42-.24-.14-.23-.06-.53.17-.66 1.02-.6 2.09-1.14 3.19-1.6.25-.1.53.01.63.26s-.01.53-.26.63c-1.05.44-2.08.96-3.07 1.54-.08.05-.16.07-.24.07z" fill="#000000" fill-opacity="1" data-original-color="#000000ff" stroke="none" stroke-opacity="1"/></g><g><path d="m55.22 26.82c-.26 0-.48-.21-.48-.47l-.11-4.54c-.01-.27.21-.49.47-.5h.01c.26 0 .48.21.48.47l.11 4.54c.01.27-.21.49-.47.5-.01 0-.01 0-.01 0z" fill="#000000" fill-opacity="1" data-original-color="#000000ff" stroke="none" stroke-opacity="1"/></g></g></g></g></svg>