<svg id="Layer_1" enable-background="new 0 0 66 66" viewBox="0 0 66 66" xmlns="http://www.w3.org/2000/svg" width="300" height="300" version="1.1" xmlns:xlink="http://www.w3.org/1999/xlink" xmlns:svgjs="http://svgjs.dev/svgjs"><g width="100%" height="100%" transform="matrix(1,0,0,1,0,0)"><g><g><g><g><g><g><g><g><g><path d="m4.75 60.62s.01.01.01.01c1.05.45 2.09.9 3.14 1.35 1.71.74 3.42 1.47 5.22 1.94.38.1.8.19 1.15.01.29-.14.47-.42.64-.69 1.94-3.17 3.36-6.58 4.48-10.12 0 0 8.58.67 13.53-8.5 4.88-9.05-7.72-1.58-8.06-1.37.15-.25 6.4-10.94 3.56-12.82-2.52-1.66-9.3 7.72-9.3 7.72s3.15-11.89 1.2-15.93c-.24-.47-.64-.84-1.12-1.06-.61-.29-1.29-.31-1.89-.1s-1.12.65-1.42 1.27l-8.92 18.66 1.41 8.41c-1.65 2.57-3.08 5.56-4.45 9.11-.31.8.02 1.76.82 2.11z" fill="#ffad00" fill-opacity="1" data-original-color="#ffad00ff" stroke="none" stroke-opacity="1"/></g></g><g><g><path d="m12.03 63.59c.36.12.73.23 1.1.32.38.1.8.18 1.15 0 .29-.14.47-.42.64-.69 1.93-3.17 3.36-6.58 4.48-10.13-.25-.08-.51-.12-.76-.12-1 .01-1.93.63-2.3 1.62-1.09 2.97-2.54 6.12-4.09 8.65-.06.13-.13.24-.22.35z" fill="#ffffff" fill-opacity="1" data-original-color="#ffffffff" stroke="none" stroke-opacity="1"/></g></g><g><g><g><g><g><g><path d="m13.82 64.5c-.27 0-.54-.06-.8-.13-1.87-.48-3.69-1.27-5.29-1.96l-.14-.06c-1-.43-2.01-.86-3.01-1.29-.01 0-.02-.01-.03-.01-.99-.45-1.47-1.66-1.06-2.72 1.43-3.69 2.83-6.57 4.39-9.04l-1.38-8.23c-.02-.1 0-.19.04-.28l8.93-18.67c.34-.71.94-1.25 1.68-1.51.75-.26 1.54-.22 2.25.12.59.28 1.07.74 1.34 1.28 1.5 3.11.18 10.39-.64 14.07 2.26-2.85 6.42-7.47 8.58-6.04 2.55 1.69-.78 8.64-2.59 11.98 2.48-1.33 6.56-3.18 7.95-1.85.82.79.59 2.27-.71 4.68-4.44 8.23-11.85 8.75-13.6 8.75-1.22 3.79-2.67 7.03-4.42 9.89-.18.28-.42.67-.83.87-.21.11-.43.15-.66.15zm-8.85-4.3c1 .43 1.99.86 2.99 1.29l.14.06c1.57.68 3.35 1.45 5.16 1.91.31.08.62.14.82.04.17-.08.3-.28.45-.52 1.75-2.88 3.2-6.15 4.43-10.02.07-.21.26-.35.48-.33.34.03 8.34.52 13.08-8.25 1.41-2.62 1.09-3.36.88-3.56-.87-.84-4.92.82-8.28 2.81-.18.11-.42.08-.57-.07s-.18-.38-.08-.57c2.39-4.08 5.5-11 3.71-12.19-1.48-.98-5.96 3.86-8.66 7.6-.13.18-.38.25-.58.15s-.31-.33-.25-.55c.03-.12 3.08-11.77 1.23-15.6-.18-.35-.5-.65-.9-.84-.48-.23-1.03-.26-1.53-.08-.51.18-.91.55-1.15 1.03l-8.88 18.54 1.39 8.26c.02.12-.01.23-.07.33-1.57 2.45-2.97 5.32-4.41 9.02-.23.6.03 1.28.57 1.52.01.01.02.02.03.02z" fill="#000000" fill-opacity="1" data-original-color="#000000ff" stroke="none" stroke-opacity="1"/></g></g></g></g></g></g></g></g></g></g></g><g><g><path d="m62.08 37.04c.01 1.78-.05 3.75-1.21 5.13-1.38 1.62-3.75 1.81-5.86 1.89h-42.62c-1.28-.05-2.7-.5-3.56-1.43-.83-.89-.89-2.24-.9-3.47-.05-9.06-.09-16.25-.01-27.79.01-1.04.01-2.05.02-3.01.01-2.6 2.14-4.72 4.74-4.73h44.09c1.64.01 3.5.38 4.54 1.64.82.99.87 2.39.87 3.68 0 .93.01 1.86.01 2.8z" fill="#296ff9" fill-opacity="1" data-original-color="#8d77e6ff" stroke="none" stroke-opacity="1"/></g><g><path d="m10.71 42.62c.87.93 2.29 1.38 3.56 1.44h-1.88c-1.28-.05-2.7-.5-3.56-1.44-.83-.88-.89-2.24-.89-3.47-.06-9.05-.1-16.24-.02-27.77.01-1.04.01-2.05.02-3.01 0-2.6 2.14-4.72 4.73-4.73h1.88c-2.6 0-4.73 2.13-4.73 4.73-.01.96-.01 1.97-.02 3.01-.08 11.53-.04 18.72.01 27.77.01 1.23.06 2.58.9 3.47z" fill="#ffffff" fill-opacity="1" data-original-color="#ffffffff" stroke="none" stroke-opacity="1"/></g><g><path d="m55.48 8.81c-.03-.93-.8-1.66-1.72-1.66h-41.07c-.66 0-1.23.56-1.23 1.24l-.01.97c-.01.67-.01 1.36-.02 2.04-.08 11.83-.04 19.2.01 27.73 0 .07 0 .18.01.32.01.56.44 1.05 1 1.08h41.3c.93 0 1.69-.74 1.72-1.67.36-10.2.35-20.21.01-30.05z" fill="#ffffff" fill-opacity="1" data-original-color="#ffffffff" stroke="none" stroke-opacity="1"/></g></g><g><g><path d="m12.39 44.52c-1.59-.06-3.04-.65-3.91-1.58-.93-.99-1.01-2.42-1.02-3.79-.05-8.55-.09-15.93-.01-27.78.01-.69.01-1.37.01-2.03l.01-.98c.01-2.86 2.34-5.19 5.21-5.2h44.09c1.57.01 3.69.34 4.9 1.81.9 1.09.97 2.57.97 3.98v1.39 1.41l-.11 25.28c.01 1.94-.09 3.97-1.32 5.43-1.49 1.75-3.98 1.98-6.21 2.05zm44.38-40.42h-44.09c-2.35.01-4.26 1.92-4.27 4.26v.99c0 .66-.01 1.34-.02 2.03-.08 11.85-.04 19.22.01 27.77.01 1.23.07 2.4.77 3.15s1.91 1.23 3.24 1.28h42.6c2.1-.07 4.27-.26 5.51-1.72 1.03-1.22 1.11-2.98 1.1-4.82l.11-25.28c0-.47 0-.94 0-1.4 0-.47 0-.93 0-1.4 0-1.3-.06-2.54-.76-3.38-1.01-1.2-2.84-1.47-4.2-1.48z" fill="#000000" fill-opacity="1" data-original-color="#000000ff" stroke="none" stroke-opacity="1"/></g><g><path d="m53.75 41h-41.3c-.82-.05-1.46-.73-1.47-1.54-.01-.13-.01-.25-.01-.33v-.27c-.04-8.46-.08-15.76 0-27.47.01-.45.01-.89.01-1.33l.01-1.67c0-.94.76-1.71 1.7-1.71h41.06c1.19 0 2.15.93 2.19 2.11.35 9.89.35 20.01 0 30.09-.03 1.19-1 2.12-2.19 2.12zm-41.06-33.38c-.41 0-.76.35-.76.77l-.01 1.68c0 .45 0 .89-.01 1.34-.08 11.69-.04 19 0 27.45v.27.3c.01.34.25.61.56.63h41.27c.68 0 1.23-.53 1.25-1.21.35-10.05.35-20.15 0-30.02-.02-.68-.57-1.21-1.25-1.21z" fill="#000000" fill-opacity="1" data-original-color="#000000ff" stroke="none" stroke-opacity="1"/></g></g><g><g><path d="m17.08 48.53.29-.61c1.2-2.51.14-5.52-2.37-6.71l6.97-2.31c1.65-.55 2.45-2.42 1.71-4-.58-1.22-1.92-1.88-3.23-1.59-3.7.81-7.28 1.77-10.5 3.35-1.58.77-2.84 2.1-3.6 3.69-1.62 3.38-.4 7.44 2.81 9.38l2.76 1.67" fill="#ffad00" fill-opacity="1" data-original-color="#ffad00ff" stroke="none" stroke-opacity="1"/></g><g><path d="m11.91 51.86c-.08 0-.17-.02-.24-.07l-2.76-1.67c-3.44-2.07-4.72-6.37-2.99-9.99.82-1.72 2.18-3.11 3.82-3.91 3.49-1.7 7.32-2.67 10.61-3.38 1.54-.34 3.08.43 3.76 1.85.41.87.43 1.88.06 2.77-.38.89-1.12 1.57-2.04 1.88l-6 1.99c2.07 1.54 2.83 4.38 1.68 6.79l-.29.61c-.11.23-.39.33-.63.22-.23-.11-.33-.39-.22-.63l.29-.61c1.09-2.27.12-5-2.15-6.09-.17-.08-.28-.26-.27-.45s.14-.36.32-.42l6.97-2.31c.66-.22 1.2-.71 1.47-1.35s.26-1.37-.04-2c-.49-1.03-1.6-1.58-2.71-1.33-3.23.71-7 1.65-10.39 3.31-1.45.71-2.65 1.94-3.38 3.47-1.52 3.18-.39 6.96 2.63 8.78l2.76 1.67c.22.13.29.42.16.65-.11.14-.26.22-.42.22z" fill="#000000" fill-opacity="1" data-original-color="#000000ff" stroke="none" stroke-opacity="1"/></g></g><g><g><g><g><g><g><g><g><path d="m57.8 42.11c-.49 3.83-1.8 6.6-3.87 8.43.23 2.72.3 7.9.15 11.74-.03.8-.65 1.44-1.45 1.52-3.41.32-6.86.31-10.35 0-.8-.08-1.43-.72-1.46-1.52-.15-3.89-.07-9.16.16-11.84-5.23-4.3-8.25-12.34-8.93-13.64-.41-.79-.38-1.73.06-2.5.54-.92 1.57-1.46 2.61-1.28h.05c.73.14 1.15.59 1.6 1.18.33.44 2.97 5.04 3.34 6-.38-5.7-.64-12.04.4-17.65.16-.87.37-1.75.82-2.51.45-.75 1.2-1.38 2.08-1.48 2.12-.19 2.47 3.5 1.41 10.26 1.75-1.64 4.23-1.52 4.29 1.7 1.7-2.3 4.34-2.29 4.32 1.28 2.31-2.24 3.76-.85 4.56 3.3.44 2.31.5 4.68.21 7.01z" fill="#ffad00" fill-opacity="1" data-original-color="#ffad00ff" stroke="none" stroke-opacity="1"/></g></g></g></g></g></g><g><g><g><g><g><g><path d="m44.8 63.79c1.32.12 2.64.19 3.95.22-2.14.05-4.3-.03-6.48-.22-.8-.08-1.43-.72-1.46-1.52-.15-3.89-.07-9.16.16-11.84-5.23-4.3-8.25-12.34-8.93-13.64-.41-.79-.38-1.73.06-2.5.54-.92 1.57-1.46 2.61-1.28h.05c.31.06.56.17.78.33-.37.23-.69.56-.92.95-.44.77-.48 1.71-.06 2.5.67 1.3 3.7 9.34 8.93 13.64-.24 2.68-.32 7.94-.16 11.84.04.81.67 1.45 1.47 1.52z" fill="#ffffff" fill-opacity="1" data-original-color="#ffffffff" stroke="none" stroke-opacity="1"/></g></g></g></g></g></g><g><g><g><g><g><g><path d="m47.54 64.5c-1.75 0-3.52-.08-5.31-.24-1.03-.1-1.85-.94-1.89-1.97-.14-3.72-.08-8.86.15-11.65-4.45-3.77-7.23-10.01-8.43-12.7-.19-.43-.33-.74-.43-.93-.49-.92-.46-2.03.07-2.95.65-1.11 1.89-1.72 3.08-1.51h.02c.02 0 .04 0 .06.01.93.18 1.44.77 1.88 1.36.22.3 1.43 2.36 2.35 4.05-.29-5.28-.35-10.69.55-15.5.16-.84.37-1.81.88-2.66.58-.96 1.49-1.6 2.42-1.71.61-.05 1.14.14 1.53.56 1.09 1.16 1.27 4.07.56 9.12.88-.49 1.8-.6 2.56-.28.46.19 1.16.69 1.45 1.94.9-.82 1.94-1.15 2.81-.87.52.17 1.35.7 1.58 2.28.76-.53 1.47-.7 2.11-.49 1.16.37 1.97 1.89 2.5 4.66.45 2.35.52 4.76.21 7.16-.49 3.76-1.78 6.64-3.85 8.57.22 2.88.28 7.88.13 11.56-.04 1.02-.84 1.87-1.88 1.96-1.66.15-3.37.23-5.11.23zm-13.21-31.05c-.71 0-1.41.41-1.81 1.08-.36.63-.38 1.41-.05 2.04.1.2.25.53.45.98 1.19 2.67 3.97 8.91 8.36 12.51.12.1.18.25.17.4-.24 2.7-.31 7.98-.16 11.78.02.57.46 1.02 1.03 1.07 3.49.31 6.94.31 10.26 0 .56-.05 1-.51 1.02-1.06.15-3.69.08-8.93-.14-11.68-.01-.15.05-.29.16-.39 2-1.77 3.24-4.51 3.71-8.14.29-2.3.22-4.61-.2-6.86-.56-2.94-1.32-3.77-1.86-3.94-.49-.16-1.13.14-1.9.89-.14.13-.34.17-.51.09-.17-.07-.29-.25-.29-.43.01-1.27-.36-2.12-1-2.33-.71-.24-1.71.3-2.48 1.34-.12.16-.33.23-.52.17s-.32-.24-.33-.44c-.02-1.14-.38-1.91-1-2.17-.69-.29-1.67.03-2.5.8-.15.14-.36.17-.54.07-.18-.09-.28-.29-.24-.49 1.03-6.57.48-8.77-.15-9.45-.2-.21-.44-.3-.75-.27-.64.08-1.29.55-1.72 1.26-.43.72-.62 1.59-.76 2.35-1.01 5.4-.79 11.62-.4 17.53.02.23-.14.44-.37.49s-.46-.07-.54-.29c-.36-.94-2.99-5.52-3.27-5.89-.43-.57-.75-.89-1.29-1h-.01c-.02 0-.03 0-.05-.01-.11 0-.21-.01-.32-.01z" fill="#000000" fill-opacity="1" data-original-color="#000000ff" stroke="none" stroke-opacity="1"/></g></g></g></g></g></g></g><g><g><g><path d="m43.68 35.5c-.02 0-.04 0-.06 0-.26-.03-.44-.27-.41-.52l.75-6.2c.03-.26.26-.44.52-.41s.44.27.41.52l-.75 6.2c-.02.23-.23.41-.46.41z" fill="#000000" fill-opacity="1" data-original-color="#000000ff" stroke="none" stroke-opacity="1"/></g><g><path d="m48.59 36.11h-.01c-.26-.01-.47-.22-.46-.48l.12-5.12c.01-.26.22-.46.47-.46h.01c.26.01.47.22.46.48l-.12 5.12c-.01.26-.22.46-.47.46z" fill="#000000" fill-opacity="1" data-original-color="#000000ff" stroke="none" stroke-opacity="1"/></g><g><path d="m53.15 36.9c-.25 0-.46-.2-.47-.46l-.11-4.63c-.01-.26.2-.48.46-.48h.01c.25 0 .46.2.47.46l.11 4.63c.01.26-.2.48-.46.48z" fill="#000000" fill-opacity="1" data-original-color="#000000ff" stroke="none" stroke-opacity="1"/></g></g></g></g><g><path d="m50.86 51.83c-.03 0-.05 0-.08 0-.26 0-.47-.22-.47-.48s.21-.47.47-.47h.07c1.82 0 2.77-.71 2.78-.72.2-.16.5-.12.66.08s.13.5-.08.66c-.04.05-1.18.93-3.35.93z" fill="#000000" fill-opacity="1" data-original-color="#000000ff" stroke="none" stroke-opacity="1"/></g><g><path d="m42.43 52.09c-.09 0-.18-.03-.26-.08-.63-.42-1.47-1.2-1.5-1.23-.19-.18-.2-.47-.02-.67.18-.19.48-.2.67-.02.01.01.82.77 1.38 1.14.22.14.27.44.13.65-.1.14-.25.21-.4.21z" fill="#000000" fill-opacity="1" data-original-color="#000000ff" stroke="none" stroke-opacity="1"/></g><g><g><path d="m58.47 26.81c-.21-.21-.35-.48-.46-.76-.06-.15-.09-.3-.09-.46l-.05-3.82c-.01-.52.3-1.01.79-1.18h.01c.07-.02.15-.04.24-.04.67-.02 1.22.56 1.23 1.24l.05 3.75c0 .3-.01.61-.1.9s-.28.56-.57.67c-.36.12-.78-.04-1.05-.3z" fill="#ffffff" fill-opacity="1" data-original-color="#ffffffff" stroke="none" stroke-opacity="1"/></g><g><path d="m59.24 27.61c-.39 0-.8-.17-1.1-.47-.3-.3-.47-.67-.57-.92-.08-.2-.12-.42-.13-.63l-.05-3.82c-.01-.73.42-1.38 1.08-1.63.02-.01.04-.02.06-.02.14-.04.28-.05.42-.05.4 0 .8.16 1.11.46.34.32.53.78.54 1.24l.05 3.75c0 .34-.01.7-.12 1.05-.15.47-.46.82-.85.97-.14.05-.29.07-.44.07zm-.44-1.14c.16.16.4.24.55.18.12-.05.23-.19.29-.37.07-.23.08-.49.08-.76l-.05-3.74c0-.21-.09-.42-.25-.57-.14-.13-.31-.2-.49-.2-.04 0-.07 0-.11.01-.29.11-.48.4-.47.74l.05 3.82c0 .1.02.2.06.3.1.27.2.46.34.59z" fill="#000000" fill-opacity="1" data-original-color="#000000ff" stroke="none" stroke-opacity="1"/></g></g><g><g><path d="m18.64 25.68c-.17 0-.33-.09-.42-.25-.45-.87-.78-1.78-1.11-2.66-.09-.24.04-.51.28-.6s.51.04.6.28c.31.85.63 1.74 1.06 2.55.12.23.03.51-.2.63-.07.03-.14.05-.21.05z" fill="#000000" fill-opacity="1" data-original-color="#000000ff" stroke="none" stroke-opacity="1"/></g><g><path d="m23.07 28.97c-.1 0-.19 0-.29-.01-.2-.01-.39-.04-.59-.08-.25-.06-.42-.31-.36-.56s.31-.42.56-.36c.15.03.3.05.46.07.08.01.15.01.22.01 1.07 0 2.24-.53 3.49-1.59.2-.17.49-.14.66.05.17.2.14.5-.05.66-1.42 1.2-2.8 1.81-4.1 1.81zm7.16-5.42c-.1 0-.2-.03-.28-.09-.21-.16-.25-.45-.09-.66.55-.73 1.09-1.5 1.61-2.25.31-.44.62-.88.93-1.32.13-.17.25-.35.38-.52.15-.21.45-.25.66-.1s.25.45.1.66c-.13.17-.25.34-.37.51-.31.43-.62.87-.92 1.31-.53.75-1.07 1.52-1.63 2.27-.11.13-.25.19-.39.19zm6.22-7.87c-.13 0-.26-.05-.35-.15-.18-.19-.16-.49.03-.66 1-.91 2-1.61 3.07-2.14.43-.22.89-.4 1.36-.55.25-.08.51.06.59.3.08.25-.06.51-.3.59-.43.14-.84.3-1.23.5-.99.49-1.92 1.14-2.85 2-.1.07-.21.11-.32.11z" fill="#000000" fill-opacity="1" data-original-color="#000000ff" stroke="none" stroke-opacity="1"/></g><g><path d="m48.11 14.3c-.11 0-.23-.04-.32-.12-.63-.58-1.39-1-2.26-1.25-.25-.07-.39-.33-.32-.58s.34-.39.58-.32c1.01.3 1.9.79 2.63 1.47.19.18.2.47.03.66-.08.08-.21.14-.34.14z" fill="#000000" fill-opacity="1" data-original-color="#000000ff" stroke="none" stroke-opacity="1"/></g></g><g><g><path d="m8.1 15.14c1.09 1.98 2.69 3.64 4.47 5.03 1.77 1.4 3.52 2.52 5.47 3.67.6-1.28 1.46-2.72 2.05-4 .95-2.03 1.59-3.73 2.13-5.9s.55-4.69-.18-6.81-2.24-3.95-4.38-4.61c-1-.31-1.99-.58-3.02-.54-1.07.02-2.12.26-3.14.57-1.45.43-2.91 1.01-3.96 2.1-.49.5-.87 1.1-1.12 1.75-.4 1.01-.47 2.12-.39 3.2.14 1.93 1.03 3.91 2.07 5.54z" fill="#ffffff" fill-opacity="1" data-original-color="#ffffffff" stroke="none" stroke-opacity="1"/></g><g><path d="m19.04 21.89c-.36.66-.71 1.33-1 1.95-1.94-1.15-3.69-2.27-5.47-3.67-1.77-1.39-3.38-3.05-4.47-5.03-1.04-1.63-1.93-3.61-2.07-5.54-.08-1.08 0-2.19.39-3.2.25-.65.64-1.25 1.12-1.75.67-.69 1.51-1.18 2.4-1.56-.1.09-.2.18-.29.28-.48.5-.87 1.1-1.12 1.75-.4 1.01-.47 2.12-.39 3.2.14 1.93 1.03 3.91 2.07 5.54 1.09 1.98 2.69 3.63 4.47 5.03 1.43 1.13 2.84 2.07 4.36 3z" fill="#ffad00" fill-opacity="1" data-original-color="#ffad00ff" stroke="none" stroke-opacity="1"/></g><g><path d="m10.41 11.3c.48 1.25 1.43 2.05 2.69 2.55 1.44.44 2.74-.02 3.95-1.05.93-1.01 1.38-2.55 1-3.87-.03-.07-.05-.14-.07-.22-.59-1.69-2.36-2.65-4.13-2.39-.83.12-1.59.42-2.26.93-1.23.94-1.74 2.6-1.18 4.05z" fill="#296ff9" fill-opacity="1" data-original-color="#8d77e6ff" stroke="none" stroke-opacity="1"/></g><g><path d="m14.17 14.48c-.4 0-.8-.06-1.21-.18-1.5-.59-2.49-1.54-2.99-2.83-.63-1.63-.08-3.52 1.34-4.59.71-.54 1.55-.88 2.47-1.02 2.04-.3 3.99.84 4.64 2.7.03.08.05.16.08.24.41 1.44-.02 3.13-1.1 4.32-.01.01-.03.03-.04.04-1.05.88-2.11 1.32-3.19 1.32zm.26-7.72c-.17 0-.34.01-.51.04-.77.11-1.46.39-2.04.84-1.08.82-1.51 2.26-1.03 3.5.41 1.05 1.2 1.8 2.42 2.28 1.14.34 2.27.04 3.45-.95.84-.93 1.19-2.29.87-3.4-.02-.07-.03-.14-.06-.2-.44-1.28-1.7-2.11-3.1-2.11z" fill="#000000" fill-opacity="1" data-original-color="#000000ff" stroke="none" stroke-opacity="1"/></g><g><path d="m18.03 24.31c-.08 0-.17-.02-.24-.07-1.62-.96-3.54-2.14-5.52-3.7-2.03-1.6-3.57-3.33-4.58-5.16-.88-1.39-1.97-3.51-2.13-5.75-.1-1.32.04-2.44.42-3.41.27-.7.7-1.36 1.22-1.9 1.19-1.23 2.85-1.84 4.16-2.22 1.29-.38 2.29-.57 3.26-.59 1.11-.05 2.13.24 3.17.57 2.14.66 3.84 2.45 4.69 4.9.72 2.1.79 4.68.19 7.08-.52 2.08-1.14 3.81-2.16 5.99-.3.66-.68 1.36-1.04 2.03-.35.66-.72 1.34-1.01 1.96-.06.12-.16.21-.29.25-.04.02-.09.02-.14.02zm-3.2-21.87c-.06 0-.12 0-.18 0-.88.03-1.81.2-3.02.56-1.2.35-2.71.9-3.75 1.98-.44.45-.79 1-1.02 1.59-.33.84-.45 1.82-.36 3 .15 2.05 1.17 4.02 2 5.32 0 .01 0 .01.01.02.95 1.72 2.41 3.37 4.35 4.89 1.44 1.13 2.95 2.16 4.98 3.37.25-.51.53-1.03.81-1.54.36-.67.73-1.35 1.02-1.99.99-2.12 1.6-3.81 2.1-5.82.56-2.23.49-4.62-.17-6.55-.74-2.17-2.23-3.74-4.08-4.31-.91-.27-1.79-.52-2.69-.52z" fill="#000000" fill-opacity="1" data-original-color="#000000ff" stroke="none" stroke-opacity="1"/></g></g><g><g><g><path d="m53.02 18.56c0 1.55-1.26 2.81-2.81 2.81s-2.81-1.26-2.81-2.81 1.26-2.68 2.81-2.81c1.56-.13 2.81 1.1 2.81 2.81z" fill="#296ff9" fill-opacity="1" data-original-color="#8d77e6ff" stroke="none" stroke-opacity="1"/></g></g><g><g><path d="m51.18 21.2c-.3.11-.63.17-.97.17-1.55 0-2.81-1.26-2.81-2.81s1.27-2.68 2.81-2.81c.41-.03.8.02 1.14.16-1.16.38-2.01 1.37-2.01 2.64 0 1.22.76 2.26 1.84 2.65z" fill="#ffffff" fill-opacity="1" data-original-color="#ffffffff" stroke="none" stroke-opacity="1"/></g></g><g><g><path d="m50.21 21.85c-1.81 0-3.28-1.47-3.28-3.28 0-1.75 1.36-3.13 3.24-3.28.85-.07 1.66.2 2.28.77.67.62 1.04 1.51 1.04 2.51 0 1.8-1.47 3.28-3.28 3.28zm.22-5.64c-.06 0-.12 0-.18.01-1.38.11-2.38 1.1-2.38 2.34 0 1.29 1.05 2.34 2.34 2.34s2.34-1.05 2.34-2.34c0-.73-.26-1.38-.74-1.82-.38-.34-.86-.53-1.38-.53z" fill="#000000" fill-opacity="1" data-original-color="#000000ff" stroke="none" stroke-opacity="1"/></g></g></g></g><g><g><path d="m31.31 59.61c-.07 0-.13-.01-.2-.04-.24-.11-.34-.39-.23-.63.08-.16.16-.33.26-.49.13-.23.42-.31.64-.18.23.13.3.42.18.64-.08.14-.15.28-.22.42-.08.18-.25.28-.43.28z" fill="#000000" fill-opacity="1" data-original-color="#000000ff" stroke="none" stroke-opacity="1"/></g><g><path d="m32.69 57.53c-.1 0-.21-.03-.3-.11-.2-.16-.23-.46-.07-.66 1.09-1.33 2.28-2.4 2.33-2.45.19-.17.49-.16.66.04.17.19.16.49-.04.66-.01.01-1.19 1.07-2.23 2.34-.08.13-.22.18-.35.18z" fill="#000000" fill-opacity="1" data-original-color="#000000ff" stroke="none" stroke-opacity="1"/></g><g><path d="m37.02 61.03h-.01c-.26-.01-.47-.22-.46-.48.03-1.22.15-2.44.35-3.64.04-.26.28-.43.54-.39s.43.28.39.54c-.19 1.16-.3 2.34-.33 3.51-.02.26-.22.46-.48.46z" fill="#000000" fill-opacity="1" data-original-color="#000000ff" stroke="none" stroke-opacity="1"/></g><g><path d="m28.31 54.63c-.19 0-.37-.12-.44-.31-.09-.24.04-.51.28-.6l4.35-1.6c.24-.09.51.04.6.28s-.04.51-.28.6l-4.35 1.6c-.06.02-.11.03-.16.03z" fill="#000000" fill-opacity="1" data-original-color="#000000ff" stroke="none" stroke-opacity="1"/></g></g></g></g></svg>