<svg id="Layer_1" enable-background="new 0 0 66 66" viewBox="0 0 66 66" xmlns="http://www.w3.org/2000/svg" width="300" height="300" version="1.1" xmlns:xlink="http://www.w3.org/1999/xlink" xmlns:svgjs="http://svgjs.dev/svgjs"><g width="100%" height="100%" transform="matrix(1,0,0,1,0,0)"><g><g><g><path d="m57.08 47.33c0 1.92-1.53 3.49-3.44 3.54-16.86.48-29.58.71-47.01.04-1.3-.05-2.74-.16-3.62-1.11-.85-.91-.9-2.28-.91-3.52-.06-9.19-.1-19.75-.01-31.47 0-1.05.01-2.08.02-3.06.01-2.64 2.17-4.79 4.81-4.8 5.45-.02 9-.03 11.85-.01 8.59.06 9.87.12 18.46.18 4.75.03 9.5.06 14.26.1 1.67.01 3.55.12 4.61 1.4.83 1.01.87 2.43.88 3.74 0 .87.06 21.8.1 34.97z" fill="#296ff9" fill-opacity="1" data-original-color="#8d77e6ff" stroke="none" stroke-opacity="1"/></g><g><path d="m9.14 51c.3.01.6.02.9.03-1.11-.04-2.25-.08-3.4-.12-1.3-.05-2.74-.16-3.62-1.11-.84-.9-.89-2.28-.9-3.52-.05-9.19-.1-19.75-.01-31.46 0-1.05.01-2.08.02-3.06.01-2.64 2.17-4.79 4.8-4.8h2.25c-2.53.13-4.55 2.25-4.56 4.8 0 .98-.01 2.01-.02 3.06-.1 11.71-.05 22.26 0 31.46.01 1.25.06 2.62.9 3.52.89.95 2.34 1.15 3.64 1.2z" fill="#ffffff" fill-opacity="1" data-original-color="#ffffffff" stroke="none" stroke-opacity="1"/></g><g><path d="m27.79 47.84c-5.05 0-14.53-.25-19.31-.38 0-1.62-1.29-2.95-2.91-2.99l.01-31.03c1.65-.01 2.98-1.34 2.98-2.99 2.56-.01 5.99-.02 7.06-.02 1.14 0 2.15 0 3.09.01 4.28.03 6.75.06 9.21.09 2.47.03 4.95.06 9.25.09 3.01.02 9.5.09 13.31.13 0 1.64 1.32 2.96 2.96 2.98l.1 30.73c-1.63.04-2.93 1.37-2.92 3-5.41.12-16.97.38-22.83.38z" fill="#ffffff" fill-opacity="1" data-original-color="#ffffffff" stroke="none" stroke-opacity="1"/></g><g><path d="m27.91 51.81c-6.6 0-13.46-.12-21.3-.42-1.46-.06-2.97-.2-3.96-1.26-1.02-1.09-1.03-2.75-1.04-3.85-.05-8.94-.1-19.67-.01-31.47l.02-3.06c.01-2.91 2.38-5.28 5.29-5.28l2.3-.01c4.14-.01 7.12-.02 9.55-.01 4.29.03 6.75.06 9.22.09s4.94.06 9.24.09l14.26.1c1.79.01 3.8.15 4.98 1.58.9 1.09.98 2.54.99 4.05 0 .82.07 21.52.11 34.97 0 2.2-1.71 3.97-3.91 4.03-9.14.26-17.21.45-25.74.45zm-12.26-44.4c-1.8 0-3.9.01-6.42.02l-2.3.01c-2.38 0-4.32 1.94-4.33 4.32l-.02 3.06c-.09 11.8-.05 22.53.01 31.46.01 1.25.07 2.44.78 3.2.74.79 2.03.91 3.29.96 17.92.69 30.77.42 46.97-.04 1.67-.05 2.97-1.39 2.97-3.06-.04-13.45-.1-34.14-.11-34.97 0-1.33-.07-2.59-.77-3.44-.91-1.11-2.6-1.21-4.24-1.22l-14.25-.11c-4.3-.03-6.77-.06-9.25-.09-2.46-.03-4.93-.06-9.21-.09-.95 0-1.97-.01-3.12-.01z" fill="#000000" fill-opacity="1" data-original-color="#000000ff" stroke="none" stroke-opacity="1"/></g><g><path d="m27.79 48.32c-5 0-14.25-.24-19.32-.38-.26-.01-.47-.22-.47-.48 0-1.37-1.07-2.47-2.44-2.51-.26-.01-.47-.22-.47-.48l.01-31.04c0-.27.22-.48.48-.48 1.38 0 2.5-1.13 2.5-2.51 0-.27.22-.48.48-.48 2.56-.01 5.99-.02 7.06-.02 1.14 0 2.15 0 3.09.01 4.29.03 6.75.06 9.21.09 2.47.03 4.95.06 9.25.09 3.01.02 9.51.09 13.31.13.26 0 .48.22.48.48 0 1.36 1.12 2.49 2.48 2.5.26 0 .48.22.48.48l.1 30.73c0 .26-.21.48-.47.49-1.36.03-2.46 1.16-2.45 2.52 0 .26-.21.48-.47.49-4.87.1-16.87.37-22.84.37zm-18.85-1.33c5.15.14 14.01.37 18.86.37 5.78 0 17.25-.25 22.38-.37.2-1.51 1.39-2.72 2.89-2.97l-.1-29.84c-1.51-.23-2.71-1.44-2.93-2.95-3.85-.04-9.97-.1-12.87-.12-4.31-.03-6.78-.06-9.26-.09-2.46-.03-4.93-.06-9.21-.09-.94-.01-1.95-.01-3.09-.01-1.01 0-4.12.01-6.61.02-.21 1.53-1.42 2.74-2.95 2.96l.01 30.13c1.51.24 2.68 1.44 2.88 2.96z" fill="#000000" fill-opacity="1" data-original-color="#000000ff" stroke="none" stroke-opacity="1"/></g><g><path d="m16.35 19.7c-.17 0-.33-.09-.42-.25-.13-.23-.05-.53.19-.66 8.95-4.99 17.98-4.99 26.85 0 .23.13.32.43.18.66-.13.23-.43.31-.66.18-8.55-4.81-17.26-4.81-25.9 0-.08.05-.16.07-.24.07z" fill="#000000" fill-opacity="1" data-original-color="#000000ff" stroke="none" stroke-opacity="1"/></g><g><g><g><path d="m46.98 25.67c-.03 0-.06 0-.09-.01-.54-.1-4.74-.1-5.41 0-.26.04-.51-.14-.55-.41-.04-.26.14-.51.41-.55.71-.11 5.01-.13 5.73 0 .26.05.44.3.39.56-.05.25-.25.41-.48.41z" fill="#000000" fill-opacity="1" data-original-color="#000000ff" stroke="none" stroke-opacity="1"/></g><g><path d="m34.39 25.67h-.01c-7.77-.19-14.2-.25-22.21 0-.27.01-.49-.2-.5-.47s.2-.49.47-.5c8.03-.25 14.48-.19 22.27 0 .27.01.48.23.47.5-.02.26-.23.47-.49.47z" fill="#000000" fill-opacity="1" data-original-color="#000000ff" stroke="none" stroke-opacity="1"/></g><g><path d="m12.02 31.06c-.26 0-.48-.21-.48-.47-.01-.27.21-.49.47-.49 11.64-.26 23.45-.3 35.11-.1.27 0 .48.22.48.49s-.21.48-.49.48c-11.65-.2-23.45-.16-35.08.1-.01-.01-.01-.01-.01-.01z" fill="#000000" fill-opacity="1" data-original-color="#000000ff" stroke="none" stroke-opacity="1"/></g></g><g><path d="m14.92 36.63c-1.25 0-2.5-.03-2.85-.08-.26-.04-.44-.29-.4-.55s.29-.44.55-.4c.51.08 4.71.1 5.43 0 .26-.04.51.15.55.41s-.15.51-.41.55c-.38.04-1.63.07-2.87.07z" fill="#000000" fill-opacity="1" data-original-color="#000000ff" stroke="none" stroke-opacity="1"/></g><g><path d="m36.05 36.63c-3.58 0-7.23-.02-11.31-.07-.27 0-.48-.22-.48-.49s.23-.48.49-.48c8.16.1 14.6.1 22.23 0 .28.02.49.21.49.48s-.21.49-.48.49c-3.83.04-7.35.07-10.94.07z" fill="#000000" fill-opacity="1" data-original-color="#000000ff" stroke="none" stroke-opacity="1"/></g></g><g><path d="m13.61 44.47c-.46 0-.89-.12-1.23-.36-.67-.47-.92-1.35-.56-2.02.12-.24.42-.33.65-.2.24.12.33.42.2.65-.12.23.01.59.26.77.27.19.7.24 1.13.13.41-.11.8-.34 1.1-.65-.32-.61-.46-1.35-.43-2.14.03-.72.44-1.22.98-1.2.44.01.8.35.94.9.22.83.1 1.72-.32 2.46.3.33.69.56 1.09.61.53.07 1.09-.17 1.33-.6.07-.12.12-.26.18-.42.06-.17.12-.34.22-.52.29-.54.8-.85 1.31-.77.29.04.71.23 1.02.89l.07.16c.09.19.17.38.28.46.25.2.77 0 1.23-.17l.14-.05c1.41-.53 3-.47 4.37.15.24.11.35.4.24.64s-.4.35-.64.24c-1.14-.52-2.46-.56-3.64-.13l-.14.05c-.63.24-1.49.56-2.17.02-.3-.23-.44-.56-.56-.83l-.07-.14c-.12-.25-.23-.34-.29-.35-.07-.01-.22.1-.31.27-.06.11-.11.25-.16.39-.07.18-.14.37-.24.56-.43.77-1.39 1.21-2.31 1.08-.57-.08-1.12-.37-1.55-.8-.4.38-.89.65-1.43.79-.22.1-.46.13-.69.13zm2.11-3.89c-.01.04-.01.08-.01.12-.01.25 0 .57.06.9.06-.33.05-.67-.04-.99 0-.01 0-.02-.01-.03z" fill="#000000" fill-opacity="1" data-original-color="#000000ff" stroke="none" stroke-opacity="1"/></g><g><g><g><g><g><path d="m48.88 51.8s-2.83 8.1-3.85 9.85c0 0 2.38-.68 4.04-1.33.37-.15.78-.03 1.01.29l2.42 3.34c.52-2.32 1.65-7.72 2.01-11.28-1.74-1.95-3.64-1.97-5.63-.87z" fill="#296ff9" fill-opacity="1" data-original-color="#8d77e6ff" stroke="none" stroke-opacity="1"/></g></g><g><g><path d="m52.56 51.28c-.39.12-.79.3-1.19.52 0 0-2.16 6.19-3.38 8.92-1.39.48-2.84.9-2.95.93 1.02-1.76 3.84-9.85 3.84-9.85 1.27-.7 2.5-.95 3.68-.52z" fill="#ffffff" fill-opacity="1" data-original-color="#ffffffff" stroke="none" stroke-opacity="1"/></g></g><g><path d="m52.5 64.44c-.15 0-.3-.07-.39-.2l-2.42-3.34c-.1-.14-.28-.19-.44-.13-1.66.66-3.99 1.32-4.08 1.35-.19.05-.39-.01-.51-.17s-.14-.37-.04-.54c.99-1.69 3.78-9.69 3.81-9.77.04-.11.12-.21.22-.26 2.37-1.32 4.47-1 6.22.97.09.1.13.24.12.37-.39 3.86-1.64 9.65-2.01 11.34-.04.19-.19.33-.37.37-.04.01-.07.01-.11.01zm-3.11-4.66c.42 0 .83.2 1.08.55l1.79 2.47c.47-2.18 1.4-6.75 1.74-9.96-1.37-1.45-2.89-1.67-4.73-.7-.37 1.05-2.2 6.22-3.32 8.74.83-.26 2.01-.63 2.94-1 .17-.07.33-.1.5-.1z" fill="#000000" fill-opacity="1" data-original-color="#000000ff" stroke="none" stroke-opacity="1"/></g></g></g><g><g><g><g><path d="m60.11 51.8s2.83 8.1 3.85 9.85c0 0-2.38-.68-4.04-1.33-.37-.15-.78-.03-1.01.29l-2.42 3.34c-.52-2.32-1.65-7.72-2.01-11.28 1.74-1.95 3.64-1.97 5.63-.87z" fill="#296ff9" fill-opacity="1" data-original-color="#8d77e6ff" stroke="none" stroke-opacity="1"/></g></g><g><path d="m56.48 64.44c-.03 0-.07 0-.1-.01-.19-.04-.33-.18-.37-.37-.37-1.68-1.63-7.48-2.01-11.34-.01-.13.03-.27.12-.37 1.75-1.97 3.85-2.29 6.22-.97.1.06.18.15.22.26.03.08 2.82 8.08 3.81 9.77.1.17.09.38-.04.54-.12.16-.32.22-.51.17-.1-.03-2.42-.69-4.08-1.35-.16-.06-.34-.01-.44.13l-2.42 3.34c-.1.13-.24.2-.4.2zm-1.5-11.6c.34 3.2 1.28 7.77 1.74 9.96l1.79-2.47c.36-.5 1.01-.68 1.58-.46.93.37 2.1.75 2.94 1-1.12-2.51-2.95-7.69-3.32-8.74-1.84-.96-3.35-.73-4.73.71z" fill="#000000" fill-opacity="1" data-original-color="#000000ff" stroke="none" stroke-opacity="1"/></g></g></g></g><g><g><path d="m45.61 45.43c-.21 3.02 1.32 6.13 3.99 7.86s6.42 1.99 9.27.52c2.83-1.46 4.58-4.49 4.54-7.49-.04-2.9-1.66-5.74-4.23-7.38-2.11-1.35-4.81-1.87-7.33-1.46-2.29.37-4.05 2.35-5.08 4.19-.67 1.16-1.07 2.45-1.16 3.76z" fill="#ffad00" fill-opacity="1" data-original-color="#ffad00ff" stroke="none" stroke-opacity="1"/></g><g><path d="m45.61 45.43c-.21 3.02 1.32 6.13 3.99 7.86s6.42 1.99 9.27.52c2.83-1.46 4.58-4.49 4.54-7.49-.04-2.9-1.66-5.74-4.23-7.38-2.11-1.35-4.81-1.87-7.33-1.46-2.29.37-4.05 2.35-5.08 4.19-.67 1.16-1.07 2.45-1.16 3.76z" fill="#ffad00" fill-opacity="1" data-original-color="#ffad00ff" stroke="none" stroke-opacity="1"/></g><g><path d="m55.98 54.69c-2.21.29-4.55-.2-6.38-1.4-2.67-1.74-4.2-4.84-3.99-7.86.09-1.31.5-2.6 1.15-3.76 1.03-1.84 2.79-3.82 5.08-4.19.98-.16 1.98-.18 2.96-.06-.15.02-.31.04-.46.06-2.29.37-4.05 2.35-5.08 4.19-.65 1.16-1.06 2.45-1.15 3.76-.21 3.02 1.31 6.13 3.99 7.86 1.14.75 2.49 1.23 3.88 1.4z" fill="#ffffff" fill-opacity="1" data-original-color="#ffffffff" stroke="none" stroke-opacity="1"/></g><g><path d="m54.76 42.36c-1.26-.09-2.55.55-3.27 1.66s-.83 2.67-.22 3.86c.61 1.18 1.87 1.9 3.12 1.89 1.2-.02 2.39-.69 3.07-1.76.56-.88.78-2 .61-3.05-.15-.95-.98-1.69-1.74-2.12-.49-.27-1.03-.44-1.57-.48z" fill="#ffffff" fill-opacity="1" data-original-color="#ffffffff" stroke="none" stroke-opacity="1"/></g><g><path d="m54.74 55.26c-1.9 0-3.82-.53-5.41-1.56-2.78-1.81-4.43-5.07-4.21-8.3.09-1.35.51-2.72 1.21-3.97.66-1.17 2.51-3.96 5.43-4.43 2.68-.43 5.47.13 7.66 1.53 2.71 1.74 4.42 4.72 4.45 7.78.04 3.24-1.89 6.43-4.8 7.93-1.31.69-2.81 1.02-4.33 1.02zm-8.65-9.8c-.2 2.89 1.28 5.81 3.77 7.43 2.58 1.68 6.11 1.88 8.78.5 2.59-1.34 4.31-4.17 4.28-7.06-.03-2.74-1.57-5.42-4.01-6.98-2-1.28-4.54-1.79-6.99-1.39-2.5.41-4.15 2.9-4.74 3.95-.63 1.12-1.01 2.35-1.09 3.55z" fill="#000000" fill-opacity="1" data-original-color="#000000ff" stroke="none" stroke-opacity="1"/></g><g><path d="m54.34 50.25c-1.46 0-2.83-.84-3.51-2.15-.68-1.33-.59-3.07.24-4.34.81-1.24 2.26-1.97 3.71-1.88.6.04 1.21.23 1.77.54.52.29 1.77 1.12 1.98 2.46.19 1.18-.06 2.42-.68 3.39-.77 1.21-2.1 1.97-3.47 1.98 0 0-.02 0-.04 0zm.19-7.41c-1.04 0-2.05.55-2.64 1.45-.63.97-.71 2.36-.19 3.37.51.99 1.61 1.64 2.68 1.63 1.05-.01 2.07-.6 2.67-1.54.5-.77.69-1.76.54-2.71-.15-.92-1.1-1.54-1.5-1.77-.43-.24-.9-.39-1.36-.42-.07-.01-.14-.01-.2-.01z" fill="#000000" fill-opacity="1" data-original-color="#000000ff" stroke="none" stroke-opacity="1"/></g></g></g><g><g><path d="m61.9 4.86c-.15 0-.3-.07-.39-.2-.15-.22-.1-.52.11-.67.13-.09.27-.18.4-.26.23-.14.53-.06.66.17.14.23.06.53-.17.66-.11.06-.22.14-.33.22-.09.05-.18.08-.28.08z" fill="#000000" fill-opacity="1" data-original-color="#000000ff" stroke="none" stroke-opacity="1"/></g><g><path d="m58.82 8.07c-.1 0-.2-.03-.28-.09-.22-.16-.26-.46-.11-.68.03-.05.83-1.14 1.86-2.18.19-.19.49-.19.68 0s.19.49 0 .68c-.98.98-1.76 2.05-1.77 2.06-.08.15-.23.21-.38.21z" fill="#000000" fill-opacity="1" data-original-color="#000000ff" stroke="none" stroke-opacity="1"/></g><g><path d="m60.98 9.88c-.21 0-.41-.14-.47-.36-.07-.26.09-.52.34-.59.99-.27 2.02-.47 3.04-.6.27-.04.51.15.54.42.03.26-.15.51-.42.54-.98.13-1.96.32-2.91.58-.04 0-.08.01-.12.01z" fill="#000000" fill-opacity="1" data-original-color="#000000ff" stroke="none" stroke-opacity="1"/></g><g><path d="m56.86 6.31c-.04 0-.08 0-.12-.01-.26-.07-.42-.33-.35-.59l.96-3.79c.07-.26.33-.42.59-.35s.42.33.35.59l-.96 3.79c-.06.22-.26.36-.47.36z" fill="#000000" fill-opacity="1" data-original-color="#000000ff" stroke="none" stroke-opacity="1"/></g></g></g></g></svg>